<svg xmlns="http://www.w3.org/2000/svg" width="33" height="34" viewBox="0 0 33 34" fill="none">
<mask id="path-1-inside-1_7297_200056" fill="white">
<path fill-rule="evenodd" clip-rule="evenodd" d="M17.9297 33.2656L31.6699 19.5254C32.1191 19.0762 32.3437 18.5195 32.3437 17.8555C32.3437 17.1523 32.0898 16.5371 31.582 16.0098C31.0938 15.4824 30.5078 15.2187 29.8242 15.2187C29.1016 15.2187 28.5352 15.4531 28.125 15.9219L18.7187 25.2725L18.7187 2.46094C18.7187 1.77734 18.4746 1.19141 17.9863 0.703125C17.5176 0.234375 16.9414 -6.73258e-07 16.2578 -7.03139e-07C15.5742 -7.33019e-07 14.9883 0.234375 14.5 0.703125C14.0312 1.19141 13.7969 1.77734 13.7969 2.46094L13.7969 25.5883L4.24805 16.0684C3.81836 15.5801 3.24219 15.3359 2.51953 15.3359C1.79687 15.3359 1.19141 15.5703 0.703124 16.0391C0.234374 16.5273 -7.48045e-07 17.1133 -7.77926e-07 17.7969C-8.11222e-07 18.5586 0.214843 19.1543 0.64453 19.584L14.3262 33.2656C14.7754 33.7148 15.3809 33.9395 16.1426 33.9395C16.748 33.9395 17.3437 33.7148 17.9297 33.2656Z"/>
</mask>
<path fill-rule="evenodd" clip-rule="evenodd" d="M17.9297 33.2656L31.6699 19.5254C32.1191 19.0762 32.3437 18.5195 32.3437 17.8555C32.3437 17.1523 32.0898 16.5371 31.582 16.0098C31.0938 15.4824 30.5078 15.2187 29.8242 15.2187C29.1016 15.2187 28.5352 15.4531 28.125 15.9219L18.7187 25.2725L18.7187 2.46094C18.7187 1.77734 18.4746 1.19141 17.9863 0.703125C17.5176 0.234375 16.9414 -6.73258e-07 16.2578 -7.03139e-07C15.5742 -7.33019e-07 14.9883 0.234375 14.5 0.703125C14.0312 1.19141 13.7969 1.77734 13.7969 2.46094L13.7969 25.5883L4.24805 16.0684C3.81836 15.5801 3.24219 15.3359 2.51953 15.3359C1.79687 15.3359 1.19141 15.5703 0.703124 16.0391C0.234374 16.5273 -7.48045e-07 17.1133 -7.77926e-07 17.7969C-8.11222e-07 18.5586 0.214843 19.1543 0.64453 19.584L14.3262 33.2656C14.7754 33.7148 15.3809 33.9395 16.1426 33.9395C16.748 33.9395 17.3437 33.7148 17.9297 33.2656Z" fill="white"/>
<path d="M31.6699 19.5254L30.2557 18.1112L31.6699 19.5254ZM17.9297 33.2656L19.1465 34.8528L19.2509 34.7728L19.3439 34.6798L17.9297 33.2656ZM31.582 16.0098L30.1145 17.3686L30.1278 17.3829L30.1414 17.397L31.582 16.0098ZM28.125 15.9219L29.535 17.3403L29.5843 17.2912L29.6302 17.2389L28.125 15.9219ZM18.7187 25.2725L16.7187 25.2725L16.7187 30.0807L20.1288 26.6909L18.7187 25.2725ZM14.5 0.703125L13.1149 -0.73965L13.0855 -0.711383L13.0572 -0.681939L14.5 0.703125ZM13.7969 25.5883L12.3848 27.0046L15.7969 30.4063L15.7969 25.5883L13.7969 25.5883ZM4.24805 16.0684L2.74662 17.3896L2.78975 17.4386L2.83598 17.4847L4.24805 16.0684ZM0.703124 16.0391L-0.681939 14.5963L-0.711384 14.6246L-0.739651 14.654L0.703124 16.0391ZM30.2557 18.1112L16.5155 31.8514L19.3439 34.6798L33.0841 20.9396L30.2557 18.1112ZM30.3437 17.8555C30.3437 17.9583 30.3272 18.0062 30.3206 18.0226C30.3147 18.0373 30.3015 18.0654 30.2557 18.1112L33.0841 20.9396C33.9269 20.0968 34.3437 19.0232 34.3437 17.8555L30.3437 17.8555ZM30.1414 17.397C30.3067 17.5687 30.3437 17.6929 30.3437 17.8555L34.3437 17.8555C34.3437 16.6118 33.873 15.5055 33.0227 14.6225L30.1414 17.397ZM29.8242 17.2187C29.9015 17.2187 29.937 17.232 29.9556 17.2403C29.9766 17.2498 30.031 17.2784 30.1145 17.3686L33.0496 14.6509C32.2046 13.7384 31.0964 13.2187 29.8242 13.2187L29.8242 17.2187ZM29.6302 17.2389C29.636 17.2321 29.6362 17.2332 29.6305 17.2373C29.6248 17.2415 29.6207 17.2432 29.6221 17.2426C29.6236 17.242 29.6791 17.2187 29.8242 17.2187L29.8242 13.2187C28.627 13.2187 27.4722 13.6307 26.6198 14.6049L29.6302 17.2389ZM20.1288 26.6909L29.535 17.3403L26.715 14.5035L17.3087 23.8541L20.1288 26.6909ZM16.7187 2.46094L16.7187 25.2725L20.7187 25.2725L20.7187 2.46094L16.7187 2.46094ZM16.5721 2.11734C16.6896 2.23483 16.7187 2.3138 16.7187 2.46094L20.7187 2.46094C20.7187 1.24089 20.2596 0.147985 19.4005 -0.711089L16.5721 2.11734ZM16.2578 2C16.4295 2 16.4913 2.03655 16.5721 2.11734L19.4005 -0.711089C18.5438 -1.5678 17.4533 -2 16.2578 -2L16.2578 2ZM15.8851 2.1459C15.9968 2.03866 16.0848 2 16.2578 2L16.2578 -2C15.0636 -2 13.9798 -1.56991 13.1149 -0.73965L15.8851 2.1459ZM15.7969 2.46094C15.7969 2.28791 15.8355 2.1999 15.9428 2.08819L13.0572 -0.681939C12.227 0.182915 11.7969 1.26677 11.7969 2.46094L15.7969 2.46094ZM15.7969 25.5883L15.7969 2.46094L11.7969 2.46094L11.7969 25.5883L15.7969 25.5883ZM2.83598 17.4847L12.3848 27.0046L15.2089 24.1719L5.66011 14.652L2.83598 17.4847ZM2.51953 17.3359C2.65391 17.3359 2.70737 17.358 2.71335 17.3605C2.71776 17.3624 2.71935 17.3635 2.72104 17.3647C2.72295 17.3661 2.73169 17.3726 2.74662 17.3896L5.74947 14.7471C4.89533 13.7765 3.74553 13.3359 2.51953 13.3359L2.51953 17.3359ZM2.08819 17.4818C2.17717 17.3964 2.27473 17.3359 2.51953 17.3359L2.51953 13.3359C1.31902 13.3359 0.205646 13.7442 -0.681939 14.5963L2.08819 17.4818ZM2 17.7969C2 17.6239 2.03866 17.5358 2.1459 17.4241L-0.739651 14.654C-1.56991 15.5189 -2 16.6027 -2 17.7969L2 17.7969ZM2.05874 18.1698C2.05677 18.1678 2.05647 18.1673 2.05582 18.1662C2.05502 18.165 2.04976 18.1565 2.04251 18.1364C2.02768 18.0953 2 17.992 2 17.7969L-2 17.7969C-2 18.9471 -1.6641 20.1038 -0.769685 20.9982L2.05874 18.1698ZM15.7404 31.8514L2.05874 18.1698L-0.769685 20.9982L12.912 34.6798L15.7404 31.8514ZM16.1426 31.9395C15.9575 31.9395 15.8569 31.9122 15.8128 31.8959C15.7754 31.882 15.758 31.869 15.7404 31.8514L12.912 34.6798C13.8092 35.5771 14.9634 35.9395 16.1426 35.9395L16.1426 31.9395ZM16.7128 31.6784C16.3975 31.9202 16.2183 31.9395 16.1426 31.9395L16.1426 35.9395C17.2778 35.9395 18.29 35.5095 19.1465 34.8528L16.7128 31.6784Z" fill="#1E1E1E" mask="url(#path-1-inside-1_7297_200056)"/>
</svg>