<svg width="287" height="287" viewBox="0 0 287 287" fill="none" xmlns="http://www.w3.org/2000/svg">
<g clip-path="url(#clip0_7286_75673)">
<rect x="147" y="154.898" width="14" height="32.4932" transform="rotate(-45 147 154.898)" fill="#F5F5F5"/>
<path d="M156.207 148.55L175.667 168.01L170.01 173.667L150.55 154.207L156.207 148.55ZM156.207 140.065L142.065 154.207L170.01 182.152L184.152 168.01L156.207 140.065Z" fill="#E5E5E5"/>
<path d="M181.479 170.103C182.653 168.929 184.399 168.78 185.382 169.763L236.244 220.625C237.227 221.608 237.079 223.355 235.905 224.529L226.543 233.891C225.369 235.064 223.623 235.213 222.64 234.23L171.777 183.368C170.795 182.385 170.943 180.638 172.117 179.465L181.479 170.103ZM177.236 165.86L167.874 175.222C164.367 178.729 164.211 184.287 167.535 187.61L218.397 238.473C221.72 241.796 227.278 241.641 230.785 238.133L240.148 228.771C243.655 225.264 243.81 219.706 240.487 216.383L189.625 165.52C186.301 162.197 180.744 162.353 177.236 165.86Z" fill="#E5E5E5"/>
<circle cx="102" cy="100" r="63.5" stroke="#F5F5F5" stroke-width="11"/>
<path d="M55.4655 53.4651C81.3738 27.5567 123.524 27.5638 149.426 53.4651C175.327 79.3665 175.327 121.524 149.426 147.425C123.524 173.327 81.3738 173.334 55.4655 147.425C29.5571 121.517 29.5641 79.3665 55.4655 53.4651ZM143.776 141.776C166.566 118.986 166.559 81.912 143.776 59.1291C120.993 36.3461 83.9124 36.3319 61.1223 59.122C38.3323 81.912 38.3393 118.986 61.1223 141.769C83.9053 164.552 120.986 164.552 143.769 141.769M51.2228 49.2225C22.981 77.4643 22.981 123.426 51.2228 151.668C79.4647 179.91 125.427 179.91 153.668 151.668C181.91 123.426 181.91 77.4643 153.668 49.2225C125.427 20.9807 79.4717 20.9736 51.2228 49.2225ZM139.533 137.533C119.084 157.983 85.8145 157.976 65.372 137.533C44.9296 117.091 44.9296 83.8142 65.372 63.3717C85.8145 42.9292 119.091 42.9292 139.533 63.3717C159.976 83.8142 159.976 117.091 139.533 137.533Z" fill="#E5E5E5"/>
<path d="M78.1201 94.4694L91.7301 80.8594" stroke="#E5E5E5" stroke-width="6" stroke-miterlimit="10" stroke-linecap="round"/>
<path d="M78.1201 80.8594L91.7301 94.4694" stroke="#E5E5E5" stroke-width="6" stroke-miterlimit="10" stroke-linecap="round"/>
<path d="M113.16 94.4694L126.76 80.8594" stroke="#E5E5E5" stroke-width="6" stroke-miterlimit="10" stroke-linecap="round"/>
<path d="M113.16 80.8594L126.76 94.4694" stroke="#E5E5E5" stroke-width="6" stroke-miterlimit="10" stroke-linecap="round"/>
<path d="M84.6602 123.209C89.3102 118.559 95.6102 115.949 102.18 115.949C108.75 115.949 115.06 118.559 119.7 123.209" stroke="#E5E5E5" stroke-width="6" stroke-miterlimit="10" stroke-linecap="round"/>
</g>
<defs>
<clipPath id="clip0_7286_75673">
<rect width="286.682" height="286.682" fill="white"/>
</clipPath>
</defs>
</svg>
