<svg width="24" height="24" viewBox="0 0 24 24" fill="none" xmlns="http://www.w3.org/2000/svg">
<path d="M5.74997 21.5C4.06024 21.5 2.67948 21.2448 1.60768 20.7346C0.535892 20.2243 0 19.5628 0 18.75C0 18.2628 0.2048 17.8298 0.6144 17.451C1.02402 17.0721 1.58972 16.7609 2.3115 16.5173L2.74225 17.9461C2.42687 18.0615 2.16212 18.1913 1.94802 18.3356C1.73392 18.4798 1.59483 18.6179 1.53073 18.75C1.69611 19.1064 2.18809 19.4038 3.00668 19.6423C3.82528 19.8808 4.73971 20 5.74997 20C6.75382 20 7.66922 19.8808 8.49615 19.6423C9.32308 19.4038 9.81923 19.1064 9.9846 18.75C9.9205 18.6179 9.7814 18.4814 9.5673 18.3404C9.3532 18.1993 9.08846 18.0679 8.77308 17.9461L9.21345 16.5173C9.93523 16.7609 10.4968 17.0721 10.898 17.451C11.2993 17.8298 11.5 18.2628 11.5 18.75C11.5 19.5628 10.9641 20.2243 9.89228 20.7346C8.82048 21.2448 7.43971 21.5 5.74997 21.5ZM5.74997 15.5943C6.04997 15.025 6.38587 14.4728 6.75767 13.9375C7.12947 13.4022 7.50256 12.891 7.87693 12.4038C8.50641 11.5846 9.00929 10.8429 9.38558 10.1788C9.76186 9.51473 9.95 8.68844 9.95 7.69998C9.95 6.53588 9.54103 5.54484 8.72308 4.72688C7.90511 3.90893 6.91407 3.49995 5.74997 3.49995C4.58587 3.49995 3.59484 3.90893 2.77687 4.72688C1.95892 5.54484 1.54995 6.53588 1.54995 7.69998C1.54995 8.68844 1.7397 9.51473 2.1192 10.1788C2.49868 10.8429 2.99996 11.5846 3.62302 12.4038C3.99739 12.891 4.37047 13.4022 4.74227 13.9375C5.11407 14.4728 5.44997 15.025 5.74997 15.5943ZM5.74997 18.1923C5.58587 18.1923 5.43523 18.1381 5.29805 18.0298C5.16088 17.9214 5.05897 17.782 4.9923 17.6115C4.58332 16.4922 4.09678 15.5535 3.53268 14.7952C2.96858 14.0368 2.42434 13.3102 1.89997 12.6154C1.39229 11.9205 0.957041 11.2006 0.594225 10.4557C0.231408 9.71086 0.05 8.79228 0.05 7.69998C0.05 6.10383 0.600958 4.75479 1.70287 3.65288C2.80479 2.55096 4.15382 2 5.74997 2C7.34612 2 8.69516 2.55096 9.79707 3.65288C10.899 4.75479 11.45 6.10383 11.45 7.69998C11.45 8.79228 11.2727 9.71086 10.9182 10.4557C10.5637 11.2006 10.1243 11.9205 9.59997 12.6154C9.09227 13.3102 8.55221 14.0368 7.97978 14.7952C7.40734 15.5535 6.91663 16.4922 6.50765 17.6115C6.44098 17.782 6.33907 17.9214 6.2019 18.0298C6.06472 18.1381 5.91407 18.1923 5.74997 18.1923ZM5.74997 9.52688C6.25637 9.52688 6.68746 9.34899 7.04322 8.99322C7.39899 8.63746 7.57687 8.20638 7.57687 7.69998C7.57687 7.19358 7.39899 6.76249 7.04322 6.40673C6.68746 6.05096 6.25637 5.87308 5.74997 5.87308C5.24357 5.87308 4.81249 6.05096 4.45672 6.40673C4.10096 6.76249 3.92308 7.19358 3.92308 7.69998C3.92308 8.20638 4.10096 8.63746 4.45672 8.99322C4.81249 9.34899 5.24357 9.52688 5.74997 9.52688Z" fill="#A3A3A3"/>
</svg>
