<svg width="133" height="12" viewBox="0 0 133 12" fill="none" xmlns="http://www.w3.org/2000/svg">
<path d="M130.966 5.63994H123.166V0.491943H124.546V2.09994H129.562V0.491943H130.966V5.63994ZM129.562 4.51194V3.20394H124.546V4.51194H129.562ZM132.442 7.84794H127.786V11.6039H126.346V7.84794H121.654V6.69594H132.442V7.84794Z" fill="white"/>
<path d="M113.125 6.996C112.653 6.996 112.233 6.936 111.865 6.816C111.505 6.696 111.201 6.536 110.953 6.336C110.705 6.136 110.517 5.908 110.389 5.652C110.261 5.388 110.197 5.116 110.197 4.836C110.197 4.548 110.261 4.28 110.389 4.032C110.525 3.776 110.717 3.556 110.965 3.372C111.213 3.18 111.517 3.032 111.877 2.928C112.245 2.816 112.665 2.76 113.137 2.76C113.617 2.76 114.037 2.816 114.397 2.928C114.765 3.032 115.069 3.18 115.309 3.372C115.549 3.556 115.729 3.776 115.849 4.032C115.977 4.28 116.041 4.548 116.041 4.836C116.041 5.108 115.977 5.376 115.849 5.64C115.729 5.896 115.545 6.124 115.297 6.324C115.057 6.524 114.753 6.688 114.385 6.816C114.025 6.936 113.605 6.996 113.125 6.996ZM118.861 11.652H117.445V8.736H111.205V7.632H118.861V11.652ZM120.637 4.572H118.861V7.044H117.445V0.288H118.861V3.444H120.637V4.572ZM116.593 2.436H109.645V1.332H112.417V0H113.845V1.332H116.593V2.436ZM111.613 4.824C111.613 4.96 111.645 5.092 111.709 5.22C111.773 5.348 111.865 5.464 111.985 5.568C112.113 5.664 112.273 5.744 112.465 5.808C112.657 5.864 112.881 5.892 113.137 5.892C113.641 5.892 114.013 5.788 114.253 5.58C114.501 5.364 114.625 5.112 114.625 4.824C114.625 4.544 114.501 4.312 114.253 4.128C114.013 3.936 113.641 3.84 113.137 3.84C112.625 3.84 112.241 3.936 111.985 4.128C111.737 4.312 111.613 4.544 111.613 4.824Z" fill="white"/>
<path d="M108.803 6.25206H98.0149V5.13606H102.035V3.21606H103.499V5.13606H108.803V6.25206ZM107.555 9.38406C107.555 9.71206 107.471 10.0201 107.303 10.3081C107.135 10.5961 106.879 10.8521 106.535 11.0761C106.191 11.3001 105.759 11.4761 105.239 11.6041C104.719 11.7321 104.111 11.7961 103.415 11.7961C102.735 11.7961 102.139 11.7321 101.627 11.6041C101.115 11.4761 100.687 11.3001 100.343 11.0761C100.007 10.8521 99.7509 10.5961 99.5749 10.3081C99.4069 10.0201 99.3229 9.71206 99.3229 9.38406C99.3229 9.05606 99.4069 8.74806 99.5749 8.46006C99.7509 8.16406 100.007 7.90806 100.343 7.69206C100.687 7.47606 101.115 7.30806 101.627 7.18806C102.139 7.06006 102.735 6.99606 103.415 6.99606C104.111 6.99606 104.719 7.06006 105.239 7.18806C105.759 7.30806 106.187 7.47606 106.523 7.69206C106.867 7.90806 107.123 8.16406 107.291 8.46006C107.467 8.74806 107.555 9.05606 107.555 9.38406ZM103.415 8.08806C102.599 8.08806 101.963 8.21206 101.507 8.46006C101.059 8.70806 100.835 9.01206 100.835 9.37206C100.835 9.75606 101.059 10.0721 101.507 10.3201C101.963 10.5761 102.599 10.7041 103.415 10.7041C104.247 10.7041 104.887 10.5801 105.335 10.3321C105.791 10.0841 106.019 9.76406 106.019 9.37206C106.019 9.00406 105.791 8.70006 105.335 8.46006C104.887 8.21206 104.247 8.08806 103.415 8.08806ZM107.363 0.612061C107.355 0.868061 107.339 1.14806 107.315 1.45206C107.299 1.75606 107.275 2.07206 107.243 2.40006C107.219 2.72806 107.187 3.05606 107.147 3.38406C107.115 3.71206 107.079 4.02406 107.039 4.32006H105.599C105.631 4.06406 105.659 3.82806 105.683 3.61206C105.715 3.39606 105.739 3.18806 105.755 2.98806C105.779 2.78006 105.799 2.57606 105.815 2.37606C105.831 2.16806 105.843 1.94806 105.851 1.71606H99.4669V0.612061H107.363Z" fill="white"/>
<path d="M93.4404 8.54409C92.9284 8.62409 92.4324 8.68809 91.9524 8.73609C91.4724 8.77609 90.9844 8.80809 90.4884 8.83209C89.9924 8.84809 89.4764 8.86009 88.9404 8.86809C88.4124 8.86809 87.8364 8.86809 87.2124 8.86809V1.00809H92.5164V2.12409H88.6164V4.24809H91.7844V5.35209H88.6164V7.69209C89.0324 7.69209 89.4324 7.69209 89.8164 7.69209C90.2004 7.68409 90.5844 7.67209 90.9684 7.65609C91.3524 7.64009 91.7444 7.61609 92.1444 7.58409C92.5524 7.54409 92.9844 7.49209 93.4404 7.42809V8.54409ZM95.9964 11.6041H94.5804V5.14809H92.6844V3.99609H94.5804V0.288086H95.9964V11.6041Z" fill="white"/>
<path d="M85.3981 8.00393H82.6861V11.6039H81.2701V8.00393H78.7621V11.4719H77.3461V8.00393H74.6101V6.86393H85.3981V8.00393ZM75.5701 5.77193V4.65593H77.4061L77.1421 2.48393H78.5821L78.8101 4.65593H81.2581L81.4261 2.48393H82.9141L82.6621 4.65593H84.4381V5.77193H75.5701ZM75.8461 1.85993V0.731934H84.1981V1.85993H75.8461Z" fill="white"/>
<path d="M72.5197 11.5201H65.0077V7.35609H72.5197V11.5201ZM69.1597 0.840086C69.1437 1.46409 69.0597 2.02809 68.9077 2.53209C68.7637 3.02809 68.5637 3.47609 68.3077 3.87609C68.0597 4.27609 67.7677 4.63209 67.4317 4.94409C67.0957 5.24809 66.7357 5.52009 66.3517 5.76009C65.9677 6.00009 65.5717 6.21209 65.1637 6.39609C64.7557 6.57209 64.3517 6.73209 63.9517 6.87609L63.2317 5.86809C63.8797 5.63609 64.4997 5.37609 65.0917 5.08809C65.6917 4.79209 66.2077 4.43609 66.6397 4.02009C65.5837 4.10009 64.5677 4.14809 63.5917 4.16409V3.10809C63.8477 3.10009 64.1317 3.09209 64.4437 3.08409C64.7557 3.07609 65.0757 3.06409 65.4037 3.04809C65.7397 3.03209 66.0797 3.01609 66.4237 3.00009C66.7677 2.97609 67.1037 2.94809 67.4317 2.91609C67.5597 2.62809 67.6437 2.30009 67.6837 1.93209H63.8197V0.840086H69.1597ZM72.5197 6.67209H71.1037V4.23609H69.1237V3.07209H71.1037V0.288086H72.5197V6.67209ZM71.1037 10.3801V8.49609H66.4237V10.3801H71.1037Z" fill="white"/>
<path d="M58.0959 9.74404H47.3079V8.60404H49.8759V5.12404H51.2679V8.60404H52.6719V5.12404H54.0759V8.60404H58.0959V9.74404ZM54.9759 7.10404C55.0879 6.32004 55.1839 5.51604 55.2639 4.69204C55.3519 3.86804 55.3999 3.04404 55.4079 2.22004H48.6999V1.09204H56.8959C56.8799 1.71604 56.8559 2.29604 56.8239 2.83204C56.7999 3.36004 56.7639 3.86404 56.7159 4.34404C56.6759 4.82404 56.6279 5.29204 56.5719 5.74804C56.5159 6.19604 56.4559 6.64804 56.3919 7.10404H54.9759Z" fill="white"/>
<path d="M38.7791 6.996C38.3071 6.996 37.8871 6.936 37.5191 6.816C37.1591 6.696 36.8551 6.536 36.6071 6.336C36.3591 6.136 36.1711 5.908 36.0431 5.652C35.9151 5.388 35.8511 5.116 35.8511 4.836C35.8511 4.548 35.9151 4.28 36.0431 4.032C36.1791 3.776 36.3711 3.556 36.6191 3.372C36.8671 3.18 37.1711 3.032 37.5311 2.928C37.8991 2.816 38.3191 2.76 38.7911 2.76C39.2711 2.76 39.6911 2.816 40.0511 2.928C40.4191 3.032 40.7231 3.18 40.9631 3.372C41.2031 3.556 41.3831 3.776 41.5031 4.032C41.6311 4.28 41.6951 4.548 41.6951 4.836C41.6951 5.108 41.6311 5.376 41.5031 5.64C41.3831 5.896 41.1991 6.124 40.9511 6.324C40.7111 6.524 40.4071 6.688 40.0391 6.816C39.6791 6.936 39.2591 6.996 38.7791 6.996ZM44.5151 11.652H43.0991V8.736H36.8591V7.632H44.5151V11.652ZM46.2911 4.572H44.5151V7.044H43.0991V0.288H44.5151V3.444H46.2911V4.572ZM42.2471 2.436H35.2991V1.332H38.0711V0H39.4991V1.332H42.2471V2.436ZM37.2671 4.824C37.2671 4.96 37.2991 5.092 37.3631 5.22C37.4271 5.348 37.5191 5.464 37.6391 5.568C37.7671 5.664 37.9271 5.744 38.1191 5.808C38.3111 5.864 38.5351 5.892 38.7911 5.892C39.2951 5.892 39.6671 5.788 39.9071 5.58C40.1551 5.364 40.2791 5.112 40.2791 4.824C40.2791 4.544 40.1551 4.312 39.9071 4.128C39.6671 3.936 39.2951 3.84 38.7911 3.84C38.2791 3.84 37.8951 3.936 37.6391 4.128C37.3911 4.312 37.2671 4.544 37.2671 4.824Z" fill="white"/>
<path d="M28.8888 8.44809C28.5448 8.49609 28.2088 8.53609 27.8808 8.56809C27.5608 8.59209 27.2208 8.61209 26.8608 8.62809C26.5008 8.63609 26.1088 8.64009 25.6848 8.64009C25.2688 8.64009 24.7968 8.64009 24.2688 8.64009V1.18809H28.3248V2.29209H25.7088V7.46409C25.9568 7.46409 26.1968 7.46409 26.4288 7.46409C26.6688 7.46409 26.9088 7.46009 27.1488 7.45209C27.3968 7.44409 27.6608 7.43209 27.9408 7.41609C28.2208 7.39209 28.5368 7.36009 28.8888 7.32009V8.44809ZM33.5328 11.6041H32.1528V5.24409H30.9768V11.2321H29.5848V0.348086H30.9768V4.04409H32.1528V0.288086H33.5328V11.6041Z" fill="white"/>
<path d="M13.3703 2.24388C13.3703 1.95588 13.4583 1.69188 13.6343 1.45188C13.8183 1.20388 14.0783 0.995879 14.4143 0.827879C14.7583 0.651879 15.1743 0.515879 15.6623 0.419878C16.1583 0.323879 16.7183 0.275879 17.3423 0.275879C17.9583 0.275879 18.5143 0.327879 19.0103 0.431879C19.5063 0.527879 19.9263 0.663879 20.2703 0.839879C20.6223 1.00788 20.8903 1.21188 21.0743 1.45188C21.2663 1.69188 21.3623 1.95588 21.3623 2.24388C21.3623 2.57188 21.2703 2.86388 21.0863 3.11988C20.9023 3.36788 20.6343 3.57988 20.2823 3.75588C19.9383 3.92388 19.5183 4.05588 19.0223 4.15188C18.5263 4.23988 17.9663 4.28388 17.3423 4.28388C16.7183 4.28388 16.1583 4.23988 15.6623 4.15188C15.1743 4.05588 14.7583 3.91988 14.4143 3.74388C14.0783 3.56788 13.8183 3.35588 13.6343 3.10788C13.4583 2.85188 13.3703 2.56388 13.3703 2.24388ZM14.8343 2.24388C14.8343 2.41188 14.8983 2.55988 15.0263 2.68788C15.1543 2.80788 15.3303 2.91188 15.5543 2.99988C15.7783 3.07988 16.0423 3.14388 16.3463 3.19188C16.6583 3.23188 16.9903 3.25188 17.3423 3.25188C17.6943 3.25188 18.0263 3.23188 18.3383 3.19188C18.6503 3.14388 18.9183 3.07988 19.1423 2.99988C19.3743 2.91188 19.5543 2.80388 19.6823 2.67588C19.8183 2.54788 19.8863 2.40388 19.8863 2.24388C19.8863 2.09988 19.8183 1.97188 19.6823 1.85988C19.5543 1.74788 19.3743 1.65188 19.1423 1.57188C18.9103 1.49188 18.6383 1.43188 18.3263 1.39188C18.0223 1.34388 17.6943 1.31988 17.3423 1.31988C16.9903 1.31988 16.6583 1.34388 16.3463 1.39188C16.0423 1.43188 15.7783 1.49188 15.5543 1.57188C15.3303 1.65188 15.1543 1.74788 15.0263 1.85988C14.8983 1.97188 14.8343 2.09988 14.8343 2.24388ZM22.7543 5.92788H18.1103V6.80388H21.3503V9.70788H14.8703V10.5719H21.6503V11.6519H13.4183V8.66388H19.8743V7.88388H13.4183V6.80388H16.6343V5.92788H11.9663V4.84788H22.7543V5.92788Z" fill="white"/>
<path d="M10.056 11.6041H8.64V4.70409H6.444V3.56409H8.64V0.288086H10.056V11.6041ZM4.692 0.804086V3.94809C4.692 4.39609 4.776 4.81609 4.944 5.20809C5.112 5.60009 5.336 5.96009 5.616 6.28809C5.896 6.60809 6.216 6.90009 6.576 7.16409C6.936 7.42009 7.304 7.64009 7.68 7.82409L7.008 8.88009C6.76 8.73609 6.496 8.57209 6.216 8.38809C5.936 8.20409 5.66 8.00009 5.388 7.77609C5.116 7.55209 4.856 7.30809 4.608 7.04409C4.36 6.77209 4.148 6.48409 3.972 6.18009C3.812 6.49209 3.62 6.78409 3.396 7.05609C3.172 7.32809 2.924 7.58809 2.652 7.83609C2.38 8.07609 2.096 8.30409 1.8 8.52009C1.504 8.73609 1.204 8.93609 0.9 9.12009L0 8.16009C0.432 7.92809 0.84 7.66409 1.224 7.36809C1.616 7.07209 1.96 6.74809 2.256 6.39609C2.56 6.04409 2.8 5.66409 2.976 5.25609C3.152 4.84009 3.24 4.39609 3.24 3.92409V0.804086H4.692Z" fill="white"/>
</svg>
