<svg xmlns="http://www.w3.org/2000/svg" width="256" height="56" viewBox="0 0 256 56" fill="none">
  <path d="M14.5674 17.5638H12.5184V7.51308H9.34059V5.85253H12.5184V1.08064H14.5674V17.5638ZM6.80531 1.83226V6.41187C6.80531 7.06444 6.92686 7.67622 7.16997 8.24722C7.41308 8.81821 7.73723 9.34259 8.14241 9.82037C8.54759 10.2865 9.01065 10.7118 9.5316 11.0964C10.0525 11.4693 10.5851 11.7897 11.1292 12.0577L10.1567 13.5959C9.79786 13.3862 9.41583 13.1473 9.01065 12.8793C8.60547 12.6113 8.20608 12.3141 7.81247 11.9878C7.41887 11.6615 7.04263 11.3061 6.68375 10.9216C6.32488 10.5254 6.0181 10.1059 5.76341 9.66305C5.53188 10.1175 5.25404 10.5429 4.9299 10.9391C4.60575 11.3353 4.24688 11.714 3.85327 12.0752C3.45967 12.4248 3.0487 12.7569 2.62036 13.0715C2.19203 13.3862 1.75791 13.6775 1.31799 13.9455L0.015625 12.5472C0.640762 12.2092 1.23117 11.8247 1.78685 11.3935C2.3541 10.9624 2.8519 10.4904 3.28023 9.97768C3.72014 9.46495 4.06744 8.91143 4.32213 8.31713C4.57681 7.71118 4.70415 7.06444 4.70415 6.37691V1.83226H6.80531Z" fill="white"/>
  <path d="M19.3635 3.92979C19.3635 3.51028 19.4909 3.12574 19.7456 2.77615C20.0118 2.4149 20.3881 2.11193 20.8743 1.86722C21.3721 1.61085 21.9741 1.41275 22.6802 1.27291C23.398 1.13308 24.2083 1.06316 25.1113 1.06316C26.0027 1.06316 26.8073 1.1389 27.525 1.29039C28.2428 1.43023 28.8506 1.62833 29.3484 1.88469C29.8577 2.12941 30.2456 2.42656 30.5118 2.77615C30.7897 3.12574 30.9286 3.51028 30.9286 3.92979C30.9286 4.40756 30.7954 4.83289 30.5292 5.20579C30.2629 5.56703 29.8751 5.87584 29.3657 6.1322C28.8679 6.37691 28.2602 6.56919 27.5424 6.70902C26.8247 6.83721 26.0143 6.9013 25.1113 6.9013C24.2083 6.9013 23.398 6.83721 22.6802 6.70902C21.9741 6.56919 21.3721 6.37109 20.8743 6.11472C20.3881 5.85836 20.0118 5.54955 19.7456 5.18831C19.4909 4.81542 19.3635 4.39591 19.3635 3.92979ZM21.4821 3.92979C21.4821 4.1745 21.5747 4.39008 21.7599 4.57653C21.9451 4.75133 22.1998 4.90281 22.524 5.031C22.8481 5.14753 23.2301 5.24075 23.67 5.31067C24.1215 5.36893 24.602 5.39806 25.1113 5.39806C25.6207 5.39806 26.1011 5.36893 26.5526 5.31067C27.0041 5.24075 27.3919 5.14753 27.7161 5.031C28.0518 4.90281 28.3123 4.7455 28.4975 4.55905C28.6943 4.3726 28.7927 4.16285 28.7927 3.92979C28.7927 3.72004 28.6943 3.53359 28.4975 3.37045C28.3123 3.20731 28.0518 3.06747 27.7161 2.95094C27.3803 2.83441 26.9867 2.74701 26.5352 2.68875C26.0953 2.61883 25.6207 2.58387 25.1113 2.58387C24.602 2.58387 24.1215 2.61883 23.67 2.68875C23.2301 2.74701 22.8481 2.83441 22.524 2.95094C22.1998 3.06747 21.9451 3.20731 21.7599 3.37045C21.5747 3.53359 21.4821 3.72004 21.4821 3.92979ZM32.9429 9.29598H26.2227V10.572H30.9112V14.802H21.5342V16.0605H31.3453V17.6337H19.433V13.2813H28.7753V12.1451H19.433V10.572H24.0868V9.29598H17.3318V7.72283H32.9429V9.29598Z" fill="white"/>
  <path d="M41.8198 12.9667C41.322 13.0366 40.8358 13.0949 40.3611 13.1415C39.898 13.1764 39.406 13.2056 38.8851 13.2289C38.3642 13.2405 37.7969 13.2463 37.1833 13.2463C36.5814 13.2463 35.8983 13.2463 35.1343 13.2463V2.3916H41.0036V3.99971H37.2181V11.5334C37.5769 11.5334 37.9242 11.5334 38.26 11.5334C38.6073 11.5334 38.9546 11.5275 39.3019 11.5159C39.6607 11.5042 40.0428 11.4867 40.4479 11.4634C40.8531 11.4285 41.3104 11.3819 41.8198 11.3236V12.9667ZM48.54 17.5638H46.543V8.29965H44.8413V17.0219H42.8269V1.16804H44.8413V6.55171H46.543V1.08064H48.54V17.5638Z" fill="white"/>
  <path d="M56.1319 10.8517C55.4488 10.8517 54.8411 10.7643 54.3085 10.5895C53.7876 10.4147 53.3477 10.1816 52.9888 9.89028C52.6299 9.59896 52.3579 9.26685 52.1726 8.89395C51.9874 8.50941 51.8948 8.1132 51.8948 7.70535C51.8948 7.28584 51.9874 6.89547 52.1726 6.53423C52.3695 6.16133 52.6473 5.84088 53.0062 5.57286C53.365 5.29319 53.805 5.07761 54.3259 4.92612C54.8584 4.76298 55.4662 4.68141 56.1492 4.68141C56.8438 4.68141 57.4516 4.76298 57.9725 4.92612C58.5051 5.07761 58.945 5.29319 59.2923 5.57286C59.6396 5.84088 59.9 6.16133 60.0737 6.53423C60.2589 6.89547 60.3515 7.28584 60.3515 7.70535C60.3515 8.10155 60.2589 8.49193 60.0737 8.87648C59.9 9.24937 59.6338 9.58148 59.2749 9.8728C58.9276 10.1641 58.4877 10.403 57.9552 10.5895C57.4342 10.7643 56.8264 10.8517 56.1319 10.8517ZM64.4323 17.6337H62.3832V13.3862H53.3535V11.7781H64.4323V17.6337ZM67.0023 7.3208H64.4323V10.9216H62.3832V1.08064H64.4323V5.67774H67.0023V7.3208ZM61.1503 4.20946H51.096V2.60135H55.1073V0.661133H57.1737V2.60135H61.1503V4.20946ZM53.9439 7.68787C53.9439 7.88597 53.9902 8.07825 54.0828 8.26469C54.1754 8.45114 54.3085 8.62011 54.4822 8.7716C54.6674 8.91143 54.8989 9.02796 55.1768 9.12119C55.4546 9.20276 55.7788 9.24354 56.1492 9.24354C56.8785 9.24354 57.4169 9.09205 57.7642 8.78908C58.123 8.47445 58.3025 8.10738 58.3025 7.68787C58.3025 7.28002 58.123 6.94208 57.7642 6.67406C57.4169 6.39439 56.8785 6.25456 56.1492 6.25456C55.4083 6.25456 54.8526 6.39439 54.4822 6.67406C54.1233 6.94208 53.9439 7.28002 53.9439 7.68787Z" fill="white"/>
  <path d="M84.0846 14.8544H68.4736V13.1939H72.1897V8.12486H74.204V13.1939H76.2357V8.12486H78.2674V13.1939H84.0846V14.8544ZM79.5697 11.009C79.7318 9.86698 79.8707 8.69585 79.9865 7.4956C80.1138 6.29534 80.1833 5.09509 80.1949 3.89483H70.4879V2.25176H82.3481C82.325 3.16069 82.2902 4.00553 82.2439 4.78628C82.2092 5.55538 82.1571 6.28952 82.0877 6.98869C82.0298 7.68787 81.9603 8.36957 81.8793 9.03379C81.7982 9.68636 81.7114 10.3447 81.6188 11.009H79.5697Z" fill="white"/>
  <path d="M104.957 17.4414H94.0868V11.376H104.957V17.4414ZM100.095 1.88469C100.072 2.79363 99.9504 3.61516 99.7304 4.3493C99.522 5.07178 99.2326 5.72435 98.8622 6.307C98.5033 6.88964 98.0808 7.4082 97.5945 7.86267C97.1083 8.30548 96.5874 8.70168 96.0317 9.05127C95.476 9.40086 94.903 9.70966 94.3126 9.97768C93.7222 10.234 93.1375 10.4671 92.5587 10.6769L91.5168 9.20859C92.4545 8.87065 93.3517 8.49193 94.2084 8.07242C95.0766 7.64126 95.8233 7.1227 96.4484 6.51675C94.9203 6.63328 93.4501 6.7032 92.0378 6.7265V5.18831C92.4082 5.17666 92.8192 5.16501 93.2707 5.15335C93.7222 5.1417 94.1852 5.12422 94.6599 5.10091C95.1461 5.07761 95.6381 5.0543 96.1359 5.031C96.6337 4.99604 97.1199 4.95525 97.5945 4.90864C97.7798 4.48913 97.9013 4.01136 97.9592 3.47532H92.3677V1.88469H100.095ZM104.957 10.3797H102.908V6.83138H100.043V5.13587H102.908V1.08064H104.957V10.3797ZM102.908 15.7809V13.0366H96.1359V15.7809H102.908Z" fill="white"/>
  <path d="M123.593 12.3199H119.669V17.5638H117.62V12.3199H113.99V17.3715H111.941V12.3199H107.982V10.6594H123.593V12.3199ZM109.371 9.06875V7.44316H112.028L111.646 4.27938H113.73L114.06 7.44316H117.602L117.845 4.27938H119.999L119.634 7.44316H122.204V9.06875H109.371ZM109.771 3.37045V1.72738H121.857V3.37045H109.771Z" fill="white"/>
  <path d="M135.231 13.1065C134.49 13.223 133.772 13.3163 133.078 13.3862C132.383 13.4444 131.677 13.4911 130.959 13.526C130.242 13.5493 129.495 13.5668 128.719 13.5784C127.955 13.5784 127.122 13.5784 126.219 13.5784V2.12941H133.894V3.755H128.25V6.84886H132.835V8.45697H128.25V11.8655C128.852 11.8655 129.431 11.8655 129.987 11.8655C130.543 11.8538 131.098 11.8363 131.654 11.813C132.21 11.7897 132.777 11.7548 133.356 11.7081C133.946 11.6499 134.571 11.5741 135.231 11.4809V13.1065ZM138.93 17.5638H136.881V8.15982H134.137V6.48179H136.881V1.08064H138.93V17.5638Z" fill="white"/>
  <path d="M157.462 9.76793H141.851V8.14234H147.668V5.34563H149.786V8.14234H157.462V9.76793ZM155.656 14.3301C155.656 14.8078 155.534 15.2565 155.291 15.676C155.048 16.0955 154.677 16.4684 154.18 16.7947C153.682 17.1209 153.057 17.3773 152.304 17.5638C151.552 17.7502 150.672 17.8434 149.665 17.8434C148.681 17.8434 147.818 17.7502 147.077 17.5638C146.336 17.3773 145.717 17.1209 145.219 16.7947C144.733 16.4684 144.363 16.0955 144.108 15.676C143.865 15.2565 143.743 14.8078 143.743 14.3301C143.743 13.8523 143.865 13.4037 144.108 12.9841C144.363 12.553 144.733 12.1801 145.219 11.8655C145.717 11.5508 146.336 11.3061 147.077 11.1313C147.818 10.9449 148.681 10.8517 149.665 10.8517C150.672 10.8517 151.552 10.9449 152.304 11.1313C153.057 11.3061 153.676 11.5508 154.162 11.8655C154.66 12.1801 155.031 12.553 155.274 12.9841C155.528 13.4037 155.656 13.8523 155.656 14.3301ZM149.665 12.4423C148.484 12.4423 147.564 12.6229 146.904 12.9841C146.255 13.3454 145.931 13.7882 145.931 14.3126C145.931 14.8719 146.255 15.3322 146.904 15.6935C147.564 16.0664 148.484 16.2528 149.665 16.2528C150.869 16.2528 151.795 16.0722 152.443 15.7109C153.103 15.3497 153.433 14.8836 153.433 14.3126C153.433 13.7765 153.103 13.3337 152.443 12.9841C151.795 12.6229 150.869 12.4423 149.665 12.4423ZM155.378 1.55259C155.366 1.92548 155.343 2.33333 155.308 2.77615C155.285 3.21896 155.25 3.67925 155.204 4.15702C155.169 4.6348 155.123 5.11257 155.065 5.59034C155.019 6.06811 154.967 6.52258 154.909 6.95374H152.825C152.871 6.58084 152.912 6.23708 152.947 5.92245C152.993 5.60782 153.028 5.30484 153.051 5.01352C153.086 4.71054 153.115 4.41339 153.138 4.12206C153.161 3.81909 153.178 3.49863 153.19 3.16069H143.952V1.55259H155.378Z" fill="white"/>
  <path d="M163.716 10.8517C163.033 10.8517 162.426 10.7643 161.893 10.5895C161.372 10.4147 160.932 10.1816 160.573 9.89028C160.214 9.59896 159.942 9.26685 159.757 8.89395C159.572 8.50941 159.479 8.1132 159.479 7.70535C159.479 7.28584 159.572 6.89547 159.757 6.53423C159.954 6.16133 160.232 5.84088 160.591 5.57286C160.95 5.29319 161.389 5.07761 161.91 4.92612C162.443 4.76298 163.051 4.68141 163.734 4.68141C164.428 4.68141 165.036 4.76298 165.557 4.92612C166.09 5.07761 166.529 5.29319 166.877 5.57286C167.224 5.84088 167.485 6.16133 167.658 6.53423C167.843 6.89547 167.936 7.28584 167.936 7.70535C167.936 8.10155 167.843 8.49193 167.658 8.87648C167.485 9.24937 167.218 9.58148 166.859 9.8728C166.512 10.1641 166.072 10.403 165.54 10.5895C165.019 10.7643 164.411 10.8517 163.716 10.8517ZM172.017 17.6337H169.968V13.3862H160.938V11.7781H172.017V17.6337ZM174.587 7.3208H172.017V10.9216H169.968V1.08064H172.017V5.67774H174.587V7.3208ZM168.735 4.20946H158.681V2.60135H162.692V0.661133H164.758V2.60135H168.735V4.20946ZM161.528 7.68787C161.528 7.88597 161.575 8.07825 161.667 8.26469C161.76 8.45114 161.893 8.62011 162.067 8.7716C162.252 8.91143 162.483 9.02796 162.761 9.12119C163.039 9.20276 163.363 9.24354 163.734 9.24354C164.463 9.24354 165.001 9.09205 165.349 8.78908C165.708 8.47445 165.887 8.10738 165.887 7.68787C165.887 7.28002 165.708 6.94208 165.349 6.67406C165.001 6.39439 164.463 6.25456 163.734 6.25456C162.993 6.25456 162.437 6.39439 162.067 6.67406C161.708 6.94208 161.528 7.28002 161.528 7.68787Z" fill="white"/>
  <path d="M189.533 8.87648H178.246V1.37779H180.243V3.72004H187.502V1.37779H189.533V8.87648ZM187.502 7.23341V5.32815H180.243V7.23341H187.502ZM191.669 12.0927H184.932V17.5638H182.848V12.0927H176.058V10.4147H191.669V12.0927Z" fill="white"/>
  <path d="M5.55215 31.6754C5.12687 31.4507 4.74886 31.2784 4.41809 31.1585C4.08732 31.0312 3.74868 30.9675 3.40217 30.9675C2.90602 30.9675 2.52406 31.0724 2.2563 31.2821C1.99641 31.4844 1.86647 31.7541 1.86647 32.0912C1.86647 32.2935 1.91372 32.4695 2.00822 32.6194C2.10273 32.7617 2.24055 32.9003 2.42168 33.0352C2.60281 33.1625 2.82333 33.2861 3.08321 33.406C3.35098 33.5259 3.65812 33.657 4.00463 33.7993C4.35903 33.9491 4.68979 34.1102 4.99693 34.2825C5.30407 34.4548 5.5679 34.6496 5.78841 34.8668C6.01679 35.0841 6.19399 35.3238 6.32 35.586C6.45388 35.8482 6.52082 36.1404 6.52082 36.4625C6.52082 36.9045 6.43025 37.2829 6.24912 37.5975C6.06798 37.9122 5.82778 38.1706 5.52852 38.3729C5.22925 38.5752 4.89061 38.725 4.51259 38.8224C4.13458 38.9198 3.74868 38.9685 3.35491 38.9685C2.75638 38.9685 2.18148 38.8748 1.6302 38.6875C1.0868 38.5002 0.543401 38.1931 0 37.7661L0.76785 36.7884C0.933233 36.9308 1.11437 37.0694 1.31125 37.2042C1.50814 37.3316 1.7129 37.4439 1.92553 37.5413C2.14604 37.6387 2.37049 37.7174 2.59888 37.7773C2.82726 37.8298 3.05565 37.856 3.28403 37.856C3.48092 37.856 3.68568 37.8335 3.89831 37.7886C4.11882 37.7436 4.31965 37.6687 4.50078 37.5638C4.68979 37.4589 4.84336 37.3203 4.96149 37.148C5.0875 36.9682 5.1505 36.7435 5.1505 36.4738C5.1505 36.1292 4.96937 35.8258 4.6071 35.5636C4.24483 35.3014 3.76443 35.0504 3.1659 34.8107C2.81151 34.6683 2.47287 34.5185 2.14998 34.3612C1.82709 34.1963 1.53964 34.0091 1.28763 33.7993C1.03561 33.5895 0.834791 33.3498 0.685158 33.0801C0.535526 32.8104 0.46071 32.4958 0.46071 32.1362C0.46071 31.7091 0.547339 31.3496 0.720598 31.0574C0.893856 30.7652 1.1183 30.5292 1.39394 30.3494C1.67746 30.1696 1.99247 30.0423 2.33899 29.9674C2.68551 29.885 3.03202 29.8438 3.37854 29.8438C3.88256 29.8438 4.3669 29.9262 4.83155 30.091C5.2962 30.2558 5.74509 30.4618 6.17824 30.709L5.55215 31.6754Z" fill="white"/>
  <path d="M12.4864 34.8668C12.4628 34.6796 12.4077 34.4885 12.321 34.2937C12.2344 34.099 12.1202 33.9267 11.9785 33.7768C11.8367 33.627 11.6634 33.5034 11.4587 33.406C11.2618 33.3086 11.0413 33.2599 10.7971 33.2599C10.5845 33.2599 10.3837 33.3086 10.1947 33.406C10.0135 33.4959 9.84817 33.6195 9.69853 33.7768C9.55678 33.9267 9.43471 34.099 9.33233 34.2937C9.23782 34.481 9.16695 34.6721 9.11969 34.8668H12.4864ZM13.4197 38.2268C13.0889 38.4665 12.7227 38.6501 12.321 38.7774C11.9273 38.9048 11.5177 38.9685 11.0925 38.9685C10.6121 38.9685 10.1632 38.8936 9.74579 38.7437C9.32839 38.5864 8.96219 38.3691 8.64717 38.092C8.34003 37.8073 8.09589 37.4627 7.91476 37.0581C7.7415 36.6536 7.65487 36.2041 7.65487 35.7096C7.65487 35.2077 7.72575 34.747 7.86751 34.3274C8.00926 33.9004 8.21402 33.5333 8.48179 33.2262C8.74955 32.9115 9.08032 32.6681 9.47409 32.4958C9.86786 32.3235 10.3168 32.2373 10.8208 32.2373C11.3091 32.2373 11.7383 32.3235 12.1084 32.4958C12.4785 32.6681 12.7896 32.8966 13.0416 33.1812C13.2936 33.4659 13.4827 33.7918 13.6087 34.1589C13.7347 34.526 13.7977 34.9043 13.7977 35.2939C13.7977 35.3538 13.7937 35.4399 13.7859 35.5523C13.778 35.6572 13.7622 35.7771 13.7386 35.9119H9.07244C9.10394 36.2715 9.18663 36.5787 9.32052 36.8334C9.4544 37.0806 9.61584 37.2829 9.80485 37.4402C9.99386 37.5975 10.2026 37.7136 10.4309 37.7886C10.6672 37.8635 10.8995 37.9009 11.1279 37.9009C11.4508 37.9009 11.754 37.8485 12.0375 37.7436C12.3289 37.6387 12.6046 37.5001 12.8644 37.3278L13.4197 38.2268Z" fill="white"/>
  <path d="M14.7581 35.5973C14.7581 35.0729 14.8448 34.6046 15.018 34.1926C15.1913 33.7731 15.4236 33.4172 15.715 33.1251C16.0142 32.8329 16.3608 32.6081 16.7545 32.4508C17.1562 32.2935 17.5815 32.2148 18.0303 32.2148C18.4792 32.2148 18.9006 32.2935 19.2943 32.4508C19.696 32.6081 20.0425 32.8329 20.3339 33.1251C20.6332 33.4172 20.8655 33.7731 21.0309 34.1926C21.2041 34.6046 21.2908 35.0729 21.2908 35.5973C21.2908 36.1142 21.2041 36.5824 21.0309 37.0019C20.8655 37.414 20.6332 37.7661 20.3339 38.0582C20.0425 38.3504 19.696 38.5789 19.2943 38.7437C18.9006 38.901 18.4792 38.9797 18.0303 38.9797C17.5815 38.9797 17.1562 38.901 16.7545 38.7437C16.3608 38.5789 16.0142 38.3504 15.715 38.0582C15.4236 37.7661 15.1913 37.414 15.018 37.0019C14.8448 36.5824 14.7581 36.1142 14.7581 35.5973ZM16.1403 35.5973C16.1403 35.9644 16.1914 36.294 16.2938 36.5862C16.3962 36.8783 16.5301 37.1255 16.6955 37.3278C16.8687 37.5301 17.0696 37.6837 17.2979 37.7886C17.5263 37.8934 17.7705 37.9459 18.0303 37.9459C18.2902 37.9459 18.5304 37.8934 18.7509 37.7886C18.9793 37.6837 19.1802 37.5301 19.3534 37.3278C19.5267 37.1255 19.6606 36.8783 19.7551 36.5862C19.8574 36.294 19.9086 35.9644 19.9086 35.5973C19.9086 35.2302 19.8574 34.9006 19.7551 34.6084C19.6606 34.3162 19.5267 34.069 19.3534 33.8667C19.1802 33.6644 18.9793 33.5109 18.7509 33.406C18.5304 33.2936 18.2902 33.2374 18.0303 33.2374C17.7705 33.2374 17.5263 33.2936 17.2979 33.406C17.0696 33.5109 16.8687 33.6644 16.6955 33.8667C16.5301 34.069 16.3962 34.3162 16.2938 34.6084C16.1914 34.9006 16.1403 35.2302 16.1403 35.5973Z" fill="white"/>
  <path d="M26.9893 37.9908C26.7609 38.3055 26.4813 38.5489 26.1505 38.7212C25.8198 38.8936 25.4851 38.9797 25.1464 38.9797C24.7763 38.9797 24.4298 38.9273 24.1069 38.8224C23.784 38.7175 23.5044 38.5639 23.2682 38.3617C23.0319 38.1519 22.8468 37.8972 22.7129 37.5975C22.5791 37.2904 22.5121 36.9345 22.5121 36.53V32.3946H23.8824V36.4288C23.8824 36.6761 23.9179 36.8933 23.9888 37.0806C24.0675 37.2679 24.1699 37.4252 24.2959 37.5526C24.4219 37.6799 24.5676 37.7773 24.733 37.8447C24.8984 37.9047 25.0716 37.9346 25.2528 37.9346C25.5205 37.9346 25.7607 37.8859 25.9734 37.7886C26.1939 37.6837 26.3789 37.5451 26.5286 37.3728C26.6782 37.2005 26.7924 37.0019 26.8711 36.7772C26.9499 36.5524 26.9893 36.3165 26.9893 36.0692V32.3946H28.3478V38.8224H26.9893V37.9908Z" fill="white"/>
  <path d="M30.0692 29.8438H31.4395V38.8224H30.0692V29.8438Z" fill="white"/>
  <path d="M43.5873 38.8224H42.2052L38.0706 32.2598V38.8224H36.7003V29.9898H38.0706L42.217 36.6199V29.9898H43.5873V38.8224Z" fill="white"/>
  <path d="M47.7158 37.9459C47.9284 37.9459 48.1371 37.9084 48.3419 37.8335C48.5545 37.7511 48.7396 37.65 48.8971 37.5301C49.0625 37.4027 49.1924 37.2604 49.2869 37.1031C49.3893 36.9458 49.4405 36.7884 49.4405 36.6311V35.5298C49.2672 35.5149 49.1058 35.5036 48.9562 35.4961C48.8065 35.4811 48.6648 35.4737 48.5309 35.4737C47.83 35.4737 47.2944 35.5785 46.9243 35.7883C46.5542 35.9906 46.3691 36.2902 46.3691 36.6873C46.3691 36.9045 46.4045 37.0918 46.4754 37.2492C46.5542 37.4065 46.6565 37.5376 46.7825 37.6425C46.9086 37.7473 47.0503 37.826 47.2078 37.8784C47.3732 37.9234 47.5425 37.9459 47.7158 37.9459ZM45.6839 32.7992C46.0383 32.6044 46.4282 32.4433 46.8534 32.316C47.2787 32.1886 47.7197 32.1249 48.1765 32.1249C48.5624 32.1249 48.9168 32.1811 49.2397 32.2935C49.5626 32.3984 49.8382 32.552 50.0666 32.7542C50.295 32.949 50.4722 33.1812 50.5982 33.4509C50.732 33.7206 50.799 34.0128 50.799 34.3274V37.429C50.799 37.5938 50.8069 37.7811 50.8226 37.9908C50.8384 38.2006 50.9014 38.4778 51.0116 38.8224H49.6177C49.5783 38.695 49.5468 38.5789 49.5232 38.474C49.5074 38.3617 49.4917 38.2493 49.4759 38.1369C49.3657 38.2643 49.2318 38.3804 49.0743 38.4853C48.9247 38.5827 48.7593 38.6688 48.5781 38.7437C48.4049 38.8186 48.2277 38.8748 48.0465 38.9123C47.8654 38.9497 47.6961 38.9685 47.5386 38.9685C46.751 38.9685 46.1328 38.7699 45.6839 38.3729C45.235 37.9758 45.0106 37.4327 45.0106 36.7435C45.0106 36.3614 45.0854 36.028 45.235 35.7434C45.3925 35.4587 45.6131 35.2227 45.8966 35.0354C46.188 34.8406 46.5345 34.6983 46.9361 34.6084C47.3378 34.511 47.7867 34.4623 48.2828 34.4623C48.4639 34.4623 48.649 34.4698 48.838 34.4848C49.027 34.4923 49.2279 34.511 49.4405 34.541V34.4286C49.4405 34.0615 49.3184 33.7618 49.0743 33.5296C48.838 33.2899 48.5151 33.17 48.1056 33.17C47.8142 33.17 47.5031 33.2187 47.1724 33.3161C46.8495 33.4135 46.5384 33.5408 46.2391 33.6982L45.6839 32.7992Z" fill="white"/>
  <path d="M52.7449 30.8551L54.1034 30.4618V32.3946H55.6509V33.4397H54.1034V37.1705C54.1034 37.3428 54.1428 37.4777 54.2215 37.575C54.3003 37.6724 54.4027 37.7473 54.5287 37.7998C54.6626 37.8447 54.8161 37.8784 54.9894 37.9009C55.1627 37.9159 55.3477 37.9234 55.5446 37.9234V38.9797C55.1272 38.9797 54.7453 38.9535 54.3987 38.901C54.0601 38.8561 53.7648 38.7699 53.5128 38.6426C53.2686 38.5077 53.0796 38.3279 52.9457 38.1032C52.8119 37.871 52.7449 37.575 52.7449 37.2154V33.4397H51.7999V32.3946H52.7449V30.8551Z" fill="white"/>
  <path d="M56.7591 29.8438H58.2948V31.3496H56.7591V29.8438ZM56.8418 32.3946H58.2122V38.8224H56.8418V32.3946Z" fill="white"/>
  <path d="M59.5887 35.5973C59.5887 35.0729 59.6754 34.6046 59.8486 34.1926C60.0219 33.7731 60.2542 33.4172 60.5456 33.1251C60.8449 32.8329 61.1914 32.6081 61.5852 32.4508C61.9868 32.2935 62.4121 32.2148 62.861 32.2148C63.3099 32.2148 63.7312 32.2935 64.125 32.4508C64.5266 32.6081 64.8731 32.8329 65.1645 33.1251C65.4638 33.4172 65.6961 33.7731 65.8615 34.1926C66.0348 34.6046 66.1214 35.0729 66.1214 35.5973C66.1214 36.1142 66.0348 36.5824 65.8615 37.0019C65.6961 37.414 65.4638 37.7661 65.1645 38.0582C64.8731 38.3504 64.5266 38.5789 64.125 38.7437C63.7312 38.901 63.3099 38.9797 62.861 38.9797C62.4121 38.9797 61.9868 38.901 61.5852 38.7437C61.1914 38.5789 60.8449 38.3504 60.5456 38.0582C60.2542 37.7661 60.0219 37.414 59.8486 37.0019C59.6754 36.5824 59.5887 36.1142 59.5887 35.5973ZM60.9709 35.5973C60.9709 35.9644 61.0221 36.294 61.1244 36.5862C61.2268 36.8783 61.3607 37.1255 61.5261 37.3278C61.6993 37.5301 61.9002 37.6837 62.1286 37.7886C62.3569 37.8934 62.6011 37.9459 62.861 37.9459C63.1209 37.9459 63.3611 37.8934 63.5816 37.7886C63.81 37.6837 64.0108 37.5301 64.184 37.3278C64.3573 37.1255 64.4912 36.8783 64.5857 36.5862C64.6881 36.294 64.7392 35.9644 64.7392 35.5973C64.7392 35.2302 64.6881 34.9006 64.5857 34.6084C64.4912 34.3162 64.3573 34.069 64.184 33.8667C64.0108 33.6644 63.81 33.5109 63.5816 33.406C63.3611 33.2936 63.1209 33.2374 62.861 33.2374C62.6011 33.2374 62.3569 33.2936 62.1286 33.406C61.9002 33.5109 61.6993 33.6644 61.5261 33.8667C61.3607 34.069 61.2268 34.3162 61.1244 34.6084C61.0221 34.9006 60.9709 35.2302 60.9709 35.5973Z" fill="white"/>
  <path d="M68.9021 33.215C69.1305 32.9003 69.4061 32.6606 69.729 32.4958C70.0597 32.3235 70.3944 32.2373 70.7331 32.2373C71.1032 32.2373 71.4498 32.2897 71.7726 32.3946C72.0955 32.4995 72.3751 32.6531 72.6114 32.8554C72.8476 33.0576 73.0327 33.3123 73.1666 33.6195C73.3083 33.9192 73.3792 34.2713 73.3792 34.6758V38.8224H72.0207V34.7882C72.0207 34.541 71.9813 34.3237 71.9026 34.1364C71.8317 33.9416 71.7293 33.7806 71.5954 33.6532C71.4694 33.5259 71.3237 33.4322 71.1584 33.3723C70.993 33.3049 70.8197 33.2711 70.6386 33.2711C70.363 33.2711 70.1188 33.3236 69.9062 33.4285C69.6935 33.5333 69.5124 33.6719 69.3628 33.8442C69.2131 34.0165 69.0989 34.2151 69.0202 34.4398C68.9414 34.6646 68.9021 34.8968 68.9021 35.1365V38.8224H67.5436V32.3946H68.9021V33.215Z" fill="white"/>
  <path d="M77.0616 37.9459C77.2742 37.9459 77.4829 37.9084 77.6877 37.8335C77.9003 37.7511 78.0854 37.65 78.2429 37.5301C78.4083 37.4027 78.5382 37.2604 78.6327 37.1031C78.7351 36.9458 78.7863 36.7884 78.7863 36.6311V35.5298C78.613 35.5149 78.4516 35.5036 78.3019 35.4961C78.1523 35.4811 78.0106 35.4737 77.8767 35.4737C77.1758 35.4737 76.6402 35.5785 76.2701 35.7883C75.9 35.9906 75.7149 36.2902 75.7149 36.6873C75.7149 36.9045 75.7503 37.0918 75.8212 37.2492C75.8999 37.4065 76.0023 37.5376 76.1283 37.6425C76.2543 37.7473 76.3961 37.826 76.5536 37.8784C76.719 37.9234 76.8883 37.9459 77.0616 37.9459ZM75.0297 32.7992C75.3841 32.6044 75.774 32.4433 76.1992 32.316C76.6245 32.1886 77.0655 32.1249 77.5223 32.1249C77.9082 32.1249 78.2626 32.1811 78.5855 32.2935C78.9084 32.3984 79.184 32.552 79.4124 32.7542C79.6408 32.949 79.818 33.1812 79.944 33.4509C80.0779 33.7206 80.1448 34.0128 80.1448 34.3274V37.429C80.1448 37.5938 80.1527 37.7811 80.1684 37.9908C80.1842 38.2006 80.2472 38.4778 80.3574 38.8224H78.9635C78.9241 38.695 78.8926 38.5789 78.869 38.474C78.8532 38.3617 78.8375 38.2493 78.8217 38.1369C78.7115 38.2643 78.5776 38.3804 78.4201 38.4853C78.2704 38.5827 78.1051 38.6688 77.9239 38.7437C77.7507 38.8186 77.5735 38.8748 77.3923 38.9123C77.2112 38.9497 77.0419 38.9685 76.8844 38.9685C76.0968 38.9685 75.4786 38.7699 75.0297 38.3729C74.5808 37.9758 74.3564 37.4327 74.3564 36.7435C74.3564 36.3614 74.4312 36.028 74.5808 35.7434C74.7383 35.4587 74.9588 35.2227 75.2424 35.0354C75.5338 34.8406 75.8803 34.6983 76.2819 34.6084C76.6836 34.511 77.1325 34.4623 77.6286 34.4623C77.8097 34.4623 77.9948 34.4698 78.1838 34.4848C78.3728 34.4923 78.5736 34.511 78.7863 34.541V34.4286C78.7863 34.0615 78.6642 33.7618 78.4201 33.5296C78.1838 33.2899 77.8609 33.17 77.4514 33.17C77.16 33.17 76.8489 33.2187 76.5182 33.3161C76.1953 33.4135 75.8842 33.5408 75.5849 33.6982L75.0297 32.7992Z" fill="white"/>
  <path d="M81.8072 29.8438H83.1775V38.8224H81.8072V29.8438Z" fill="white"/>
  <path d="M95.3135 29.9898V35.9793C95.3135 36.4588 95.2269 36.8858 95.0536 37.2604C94.8804 37.6275 94.6402 37.9384 94.333 38.1931C94.0259 38.4403 93.6597 38.6276 93.2344 38.755C92.817 38.8823 92.3602 38.946 91.8641 38.946C91.368 38.946 90.9072 38.8823 90.482 38.755C90.0567 38.6276 89.6905 38.4403 89.3833 38.1931C89.0762 37.9384 88.8321 37.6275 88.6509 37.2604C88.4777 36.8933 88.3911 36.4663 88.3911 35.9793V29.9898H89.7614V35.7995C89.7614 36.4588 89.9543 36.972 90.3402 37.3391C90.7261 37.7061 91.2341 37.8897 91.8641 37.8897C92.5178 37.8897 93.0257 37.7099 93.388 37.3503C93.7581 36.9907 93.9432 36.4738 93.9432 35.7995V29.9898H95.3135Z" fill="white"/>
  <path d="M98.617 33.215C98.8454 32.9003 99.121 32.6606 99.4439 32.4958C99.7747 32.3235 100.109 32.2373 100.448 32.2373C100.818 32.2373 101.165 32.2897 101.488 32.3946C101.81 32.4995 102.09 32.6531 102.326 32.8554C102.563 33.0576 102.748 33.3123 102.882 33.6195C103.023 33.9192 103.094 34.2713 103.094 34.6758V38.8224H101.736V34.7882C101.736 34.541 101.696 34.3237 101.618 34.1364C101.547 33.9416 101.444 33.7806 101.31 33.6532C101.184 33.5259 101.039 33.4322 100.873 33.3723C100.708 33.3049 100.535 33.2711 100.354 33.2711C100.078 33.2711 99.8338 33.3236 99.6211 33.4285C99.4085 33.5333 99.2274 33.6719 99.0777 33.8442C98.9281 34.0165 98.8139 34.2151 98.7352 34.4398C98.6564 34.6646 98.617 34.8968 98.617 35.1365V38.8224H97.2585V32.3946H98.617V33.215Z" fill="white"/>
  <path d="M104.508 29.8438H106.044V31.3496H104.508V29.8438ZM104.591 32.3946H105.961V38.8224H104.591V32.3946Z" fill="white"/>
  <path d="M110.055 37.0806L111.815 32.3946H113.245L110.681 38.8224H109.405L106.854 32.3946H108.283L110.055 37.0806Z" fill="white"/>
  <path d="M118.547 34.8668C118.523 34.6796 118.468 34.4885 118.381 34.2937C118.295 34.099 118.18 33.9267 118.039 33.7768C117.897 33.627 117.724 33.5034 117.519 33.406C117.322 33.3086 117.101 33.2599 116.857 33.2599C116.645 33.2599 116.444 33.3086 116.255 33.406C116.074 33.4959 115.908 33.6195 115.759 33.7768C115.617 33.9267 115.495 34.099 115.393 34.2937C115.298 34.481 115.227 34.6721 115.18 34.8668H118.547ZM119.48 38.2268C119.149 38.4665 118.783 38.6501 118.381 38.7774C117.987 38.9048 117.578 38.9685 117.153 38.9685C116.672 38.9685 116.223 38.8936 115.806 38.7437C115.389 38.5864 115.022 38.3691 114.707 38.092C114.4 37.8073 114.156 37.4627 113.975 37.0581C113.802 36.6536 113.715 36.2041 113.715 35.7096C113.715 35.2077 113.786 34.747 113.928 34.3274C114.069 33.9004 114.274 33.5333 114.542 33.2262C114.81 32.9115 115.14 32.6681 115.534 32.4958C115.928 32.3235 116.377 32.2373 116.881 32.2373C117.369 32.2373 117.798 32.3235 118.169 32.4958C118.539 32.6681 118.85 32.8966 119.102 33.1812C119.354 33.4659 119.543 33.7918 119.669 34.1589C119.795 34.526 119.858 34.9043 119.858 35.2939C119.858 35.3538 119.854 35.4399 119.846 35.5523C119.838 35.6572 119.822 35.7771 119.799 35.9119H115.133C115.164 36.2715 115.247 36.5787 115.381 36.8334C115.515 37.0806 115.676 37.2829 115.865 37.4402C116.054 37.5975 116.263 37.7136 116.491 37.7886C116.727 37.8635 116.96 37.9009 117.188 37.9009C117.511 37.9009 117.814 37.8485 118.098 37.7436C118.389 37.6387 118.665 37.5001 118.925 37.3278L119.48 38.2268Z" fill="white"/>
  <path d="M122.567 33.2824C122.661 33.1026 122.783 32.949 122.933 32.8216C123.082 32.6868 123.244 32.5782 123.417 32.4958C123.598 32.4059 123.783 32.3422 123.972 32.3047C124.169 32.2598 124.358 32.2373 124.539 32.2373C124.602 32.2373 124.658 32.241 124.705 32.2485C124.752 32.2485 124.803 32.2523 124.858 32.2598V33.3835C124.803 33.376 124.752 33.3723 124.705 33.3723C124.658 33.3723 124.606 33.3723 124.551 33.3723C124.283 33.3723 124.028 33.4097 123.783 33.4846C123.547 33.5521 123.338 33.6495 123.157 33.7768C122.976 33.9042 122.83 34.0615 122.72 34.2488C122.618 34.4286 122.567 34.6309 122.567 34.8556V38.8224H121.196V32.3946H122.567V33.2824Z" fill="white"/>
  <path d="M129.219 33.8105C129.03 33.6532 128.798 33.5259 128.522 33.4285C128.255 33.3236 128.014 33.2711 127.802 33.2711C127.487 33.2711 127.25 33.3311 127.093 33.4509C126.935 33.5708 126.857 33.7281 126.857 33.9229C126.857 34.1701 126.971 34.3761 127.199 34.541C127.428 34.7058 127.782 34.8968 128.262 35.1141C128.53 35.2414 128.774 35.3688 128.995 35.4961C129.223 35.6235 129.416 35.7621 129.574 35.9119C129.739 36.0617 129.865 36.2303 129.952 36.4176C130.046 36.6049 130.093 36.8184 130.093 37.0581C130.093 37.4102 130.023 37.7099 129.881 37.9571C129.739 38.1968 129.554 38.3954 129.326 38.5527C129.097 38.7025 128.841 38.8111 128.558 38.8786C128.274 38.9535 127.995 38.9909 127.719 38.9909C127.278 38.9909 126.849 38.916 126.431 38.7662C126.014 38.6164 125.604 38.3504 125.203 37.9683L125.935 37.0918C126.045 37.1967 126.171 37.3016 126.313 37.4065C126.455 37.5039 126.601 37.5938 126.75 37.6762C126.908 37.7511 127.065 37.811 127.223 37.856C127.388 37.9009 127.542 37.9234 127.684 37.9234C127.975 37.9234 128.227 37.8522 128.44 37.7099C128.652 37.5676 128.759 37.3578 128.759 37.0806C128.759 36.9682 128.723 36.8633 128.652 36.766C128.589 36.6686 128.503 36.5787 128.392 36.4963C128.29 36.4138 128.168 36.3389 128.026 36.2715C127.884 36.1966 127.739 36.1254 127.589 36.058C127.361 35.9531 127.124 35.8407 126.88 35.7209C126.644 35.5935 126.423 35.4474 126.219 35.2826C126.022 35.1178 125.86 34.9343 125.734 34.732C125.608 34.5222 125.545 34.2825 125.545 34.0128C125.545 33.6832 125.608 33.406 125.734 33.1812C125.868 32.949 126.038 32.7617 126.242 32.6194C126.447 32.477 126.679 32.3759 126.939 32.316C127.207 32.2485 127.471 32.2148 127.731 32.2148C128.132 32.2148 128.51 32.2785 128.865 32.4059C129.219 32.5332 129.55 32.6943 129.857 32.8891L129.219 33.8105Z" fill="white"/>
  <path d="M131.189 29.8438H132.725V31.3496H131.189V29.8438ZM131.272 32.3946H132.642V38.8224H131.272V32.3946Z" fill="white"/>
  <path d="M134.645 30.8551L136.004 30.4618V32.3946H137.551V33.4397H136.004V37.1705C136.004 37.3428 136.043 37.4777 136.122 37.575C136.2 37.6724 136.303 37.7473 136.429 37.7998C136.563 37.8447 136.716 37.8784 136.89 37.9009C137.063 37.9159 137.248 37.9234 137.445 37.9234V38.9797C137.027 38.9797 136.645 38.9535 136.299 38.901C135.96 38.8561 135.665 38.7699 135.413 38.6426C135.169 38.5077 134.98 38.3279 134.846 38.1032C134.712 37.871 134.645 37.575 134.645 37.2154V33.4397H133.7V32.3946H134.645V30.8551Z" fill="white"/>
  <path d="M138.151 40.3956C138.458 40.3357 138.73 40.2533 138.966 40.1484C139.203 40.0435 139.411 39.9162 139.593 39.7663C139.774 39.6165 139.931 39.4442 140.065 39.2494C140.199 39.0546 140.317 38.8374 140.419 38.5976L137.951 32.3946H139.392L141.116 36.9008L142.77 32.3946H144.223L142.014 38.1931C141.833 38.68 141.656 39.0996 141.483 39.4517C141.309 39.8113 141.097 40.1184 140.845 40.3731C140.601 40.6353 140.301 40.8526 139.947 41.0249C139.593 41.2047 139.14 41.3508 138.588 41.4632L138.151 40.3956Z" fill="white"/>
  <path d="M3.85106 52.2253C4.33934 52.2253 4.77248 52.1392 5.1505 51.9669C5.52852 51.7871 5.84353 51.5436 6.09555 51.2364C6.35543 50.9293 6.54838 50.5697 6.67439 50.1577C6.80827 49.7456 6.87521 49.3074 6.87521 48.8429C6.87521 48.3335 6.80433 47.8727 6.66257 47.4607C6.52082 47.0487 6.32 46.6966 6.06011 46.4044C5.80022 46.1122 5.48127 45.8875 5.10325 45.7301C4.73311 45.5728 4.31571 45.4942 3.85106 45.4942H2.24448V52.2253H3.85106ZM3.92194 44.4378C4.59922 44.4378 5.20563 44.5502 5.74115 44.775C6.28456 44.9922 6.74527 45.2994 7.12328 45.6964C7.5013 46.086 7.78875 46.5505 7.98564 47.0899C8.1904 47.6292 8.29278 48.2173 8.29278 48.8541C8.29278 49.4534 8.1904 50.0228 7.98564 50.5622C7.78088 51.0941 7.48949 51.5623 7.11147 51.9669C6.73345 52.3639 6.27274 52.6823 5.72934 52.922C5.19382 53.1543 4.59135 53.2704 3.92194 53.2704H0.862354V44.4378H3.92194Z" fill="white"/>
  <path d="M14.3668 49.3149C14.3432 49.1276 14.2881 48.9365 14.2014 48.7417C14.1148 48.547 14.0006 48.3747 13.8589 48.2248C13.7171 48.075 13.5438 47.9514 13.3391 47.854C13.1422 47.7566 12.9217 47.7079 12.6776 47.7079C12.4649 47.7079 12.2641 47.7566 12.0751 47.854C11.8939 47.9439 11.7286 48.0675 11.5789 48.2248C11.4372 48.3747 11.3151 48.547 11.2127 48.7417C11.1182 48.929 11.0473 49.1201 11.0001 49.3149H14.3668ZM15.3001 52.6748C14.9693 52.9145 14.6031 53.0981 14.2014 53.2254C13.8077 53.3528 13.3981 53.4165 12.9729 53.4165C12.4925 53.4165 12.0436 53.3416 11.6262 53.1917C11.2088 53.0344 10.8426 52.8172 10.5276 52.54C10.2204 52.2553 9.9763 51.9107 9.79516 51.5061C9.6219 51.1016 9.53527 50.6521 9.53527 50.1577C9.53527 49.6557 9.60615 49.195 9.74791 48.7755C9.88967 48.3484 10.0944 47.9814 10.3622 47.6742C10.63 47.3596 10.9607 47.1161 11.3545 46.9438C11.7483 46.7715 12.1972 46.6853 12.7012 46.6853C13.1895 46.6853 13.6187 46.7715 13.9888 46.9438C14.3589 47.1161 14.67 47.3446 14.922 47.6293C15.174 47.9139 15.3631 48.2398 15.4891 48.6069C15.6151 48.974 15.6781 49.3523 15.6781 49.7419C15.6781 49.8018 15.6741 49.888 15.6663 50.0003C15.6584 50.1052 15.6426 50.2251 15.619 50.3599H10.9528C10.9843 50.7195 11.067 51.0267 11.2009 51.2814C11.3348 51.5286 11.4962 51.7309 11.6853 51.8882C11.8743 52.0455 12.083 52.1616 12.3113 52.2366C12.5476 52.3115 12.7799 52.3489 13.0083 52.3489C13.3312 52.3489 13.6344 52.2965 13.9179 52.1916C14.2093 52.0867 14.485 51.9481 14.7448 51.7758L15.3001 52.6748Z" fill="white"/>
  <path d="M20.3242 53.4165C19.9147 53.4165 19.5367 53.3303 19.1902 53.158C18.8515 52.9782 18.5837 52.7497 18.3869 52.4725V55.8438H17.0284V46.8426H18.3869V47.6967C18.5916 47.412 18.8554 47.1723 19.1783 46.9775C19.5091 46.7752 19.8989 46.6741 20.3478 46.6741C20.781 46.6741 21.1787 46.7527 21.541 46.9101C21.9032 47.0599 22.2182 47.2771 22.486 47.5618C22.7538 47.8465 22.9625 48.1986 23.1121 48.6181C23.2617 49.0377 23.3365 49.5096 23.3365 50.034C23.3365 50.551 23.2696 51.0192 23.1357 51.4387C23.0018 51.8507 22.805 52.2029 22.5451 52.495C22.2931 52.7872 21.978 53.0157 21.6 53.1805C21.2299 53.3378 20.8046 53.4165 20.3242 53.4165ZM20.1706 52.4276C20.4857 52.4276 20.7574 52.3602 20.9857 52.2253C21.2141 52.083 21.4031 51.8994 21.5528 51.6747C21.7024 51.4499 21.8087 51.1952 21.8717 50.9106C21.9426 50.6259 21.978 50.3337 21.978 50.034C21.978 49.7194 21.9426 49.4235 21.8717 49.1463C21.8008 48.8616 21.6906 48.6106 21.541 48.3934C21.3913 48.1761 21.2023 48.0038 20.9739 47.8765C20.7534 47.7491 20.4896 47.6854 20.1825 47.6854C19.8753 47.6854 19.6075 47.7454 19.3792 47.8652C19.1587 47.9776 18.9736 48.1387 18.8239 48.3484C18.6822 48.5507 18.5719 48.7904 18.4932 49.0676C18.4223 49.3448 18.3869 49.6445 18.3869 49.9666V50.1577C18.3869 50.5098 18.4302 50.8281 18.5168 51.1128C18.6113 51.39 18.7373 51.626 18.8948 51.8208C19.0523 52.0156 19.2413 52.1654 19.4619 52.2703C19.6824 52.3752 19.9186 52.4276 20.1706 52.4276Z" fill="white"/>
  <path d="M25.0257 45.3031L26.3842 44.9098V46.8426H27.9317V47.8877H26.3842V51.6185C26.3842 51.7908 26.4236 51.9257 26.5024 52.0231C26.5811 52.1204 26.6835 52.1954 26.8095 52.2478C26.9434 52.2927 27.0969 52.3265 27.2702 52.3489C27.4435 52.3639 27.6285 52.3714 27.8254 52.3714V53.4277C27.408 53.4277 27.0261 53.4015 26.6796 53.3491C26.3409 53.3041 26.0456 53.218 25.7936 53.0906C25.5494 52.9557 25.3604 52.776 25.2265 52.5512C25.0927 52.319 25.0257 52.0231 25.0257 51.6635V47.8877H24.0807V46.8426H25.0257V45.3031Z" fill="white"/>
  <path d="M29.0163 52.6748H30.7647V54.2143H29.0163V52.6748Z" fill="white"/>
  <path d="M35.5122 50.0453C35.5122 49.5209 35.5989 49.0527 35.7721 48.6406C35.9454 48.2211 36.1777 47.8652 36.4691 47.5731C36.7683 47.2809 37.1149 47.0561 37.5086 46.8988C37.9103 46.7415 38.3355 46.6628 38.7844 46.6628C39.2333 46.6628 39.6547 46.7415 40.0484 46.8988C40.4501 47.0561 40.7966 47.2809 41.088 47.5731C41.3873 47.8652 41.6196 48.2211 41.785 48.6406C41.9582 49.0527 42.0449 49.5209 42.0449 50.0453C42.0449 50.5622 41.9582 51.0304 41.785 51.4499C41.6196 51.862 41.3873 52.2141 41.088 52.5063C40.7966 52.7984 40.4501 53.0269 40.0484 53.1917C39.6547 53.3491 39.2333 53.4277 38.7844 53.4277C38.3355 53.4277 37.9103 53.3491 37.5086 53.1917C37.1149 53.0269 36.7683 52.7984 36.4691 52.5063C36.1777 52.2141 35.9454 51.862 35.7721 51.4499C35.5989 51.0304 35.5122 50.5622 35.5122 50.0453ZM36.8944 50.0453C36.8944 50.4124 36.9455 50.742 37.0479 51.0342C37.1503 51.3263 37.2842 51.5736 37.4496 51.7758C37.6228 51.9781 37.8237 52.1317 38.052 52.2366C38.2804 52.3414 38.5246 52.3939 38.7844 52.3939C39.0443 52.3939 39.2845 52.3414 39.505 52.2366C39.7334 52.1317 39.9342 51.9781 40.1075 51.7758C40.2808 51.5736 40.4147 51.3263 40.5092 51.0342C40.6115 50.742 40.6627 50.4124 40.6627 50.0453C40.6627 49.6782 40.6115 49.3486 40.5092 49.0564C40.4147 48.7642 40.2808 48.517 40.1075 48.3147C39.9342 48.1125 39.7334 47.9589 39.505 47.854C39.2845 47.7416 39.0443 47.6854 38.7844 47.6854C38.5246 47.6854 38.2804 47.7416 38.052 47.854C37.8237 47.9589 37.6228 48.1125 37.4496 48.3147C37.2842 48.517 37.1503 48.7642 37.0479 49.0564C36.9455 49.3486 36.8944 49.6782 36.8944 50.0453Z" fill="white"/>
  <path d="M43.6797 46.8426V46.2695C43.6797 45.85 43.7309 45.5129 43.8332 45.2582C43.912 45.0709 44.0144 44.9023 44.1404 44.7525C44.2743 44.5952 44.42 44.4678 44.5775 44.3704C44.7429 44.2655 44.9161 44.1869 45.0972 44.1344C45.2863 44.0745 45.4753 44.0445 45.6643 44.0445C45.9005 44.0445 46.1407 44.0708 46.3849 44.1232C46.6369 44.1681 46.8889 44.2318 47.1409 44.3142L46.7393 45.3481C46.5581 45.2881 46.3809 45.2357 46.2077 45.1908C46.0344 45.1458 45.8966 45.1233 45.7942 45.1233C45.6603 45.1233 45.5304 45.1608 45.4044 45.2357C45.2863 45.3106 45.1957 45.408 45.1327 45.5279C45.1091 45.5878 45.0894 45.6777 45.0736 45.7976C45.0579 45.9099 45.05 46.056 45.05 46.2358V46.8426H46.4321V47.8877H45.05V53.2704H43.6797V47.8877H42.7937V46.8426H43.6797Z" fill="white"/>
  <path d="M58.7231 52.3265C58.3214 52.6636 57.8607 52.9258 57.3409 53.1131C56.829 53.3004 56.2384 53.394 55.569 53.394C54.8838 53.394 54.2577 53.2779 53.6907 53.0457C53.1316 52.8059 52.6551 52.4838 52.2613 52.0792C51.8675 51.6672 51.5604 51.1877 51.3399 50.6409C51.1273 50.0865 51.021 49.4947 51.021 48.8654C51.021 48.2061 51.1312 47.5993 51.3517 47.0449C51.5722 46.4905 51.8833 46.0111 52.2849 45.6065C52.6866 45.202 53.167 44.8873 53.7261 44.6626C54.2932 44.4378 54.9153 44.3255 55.5926 44.3255C56.1596 44.3255 56.6755 44.3929 57.1401 44.5277C57.6048 44.6626 58.0812 44.8611 58.5695 45.1233L57.9788 46.0673C57.6323 45.865 57.2543 45.7077 56.8448 45.5953C56.4353 45.4754 55.9903 45.4155 55.5099 45.4155C55.0216 45.4155 54.5885 45.5091 54.2105 45.6964C53.8325 45.8762 53.5135 46.1234 53.2536 46.4381C52.9937 46.7527 52.7968 47.1198 52.663 47.5394C52.5291 47.9589 52.4621 48.4046 52.4621 48.8766C52.4621 49.3486 52.533 49.7906 52.6748 50.2026C52.8244 50.6146 53.0331 50.978 53.3009 51.2926C53.5686 51.5998 53.8955 51.8433 54.2814 52.0231C54.6673 52.2029 55.0965 52.2927 55.569 52.2927C55.9785 52.2927 56.3959 52.2178 56.8212 52.068C57.2543 51.9182 57.6363 51.7009 57.967 51.4162L58.7231 52.3265Z" fill="white"/>
  <path d="M59.3003 50.0453C59.3003 49.5209 59.387 49.0527 59.5602 48.6406C59.7335 48.2211 59.9658 47.8652 60.2572 47.5731C60.5565 47.2809 60.903 47.0561 61.2968 46.8988C61.6984 46.7415 62.1237 46.6628 62.5726 46.6628C63.0215 46.6628 63.4428 46.7415 63.8366 46.8988C64.2382 47.0561 64.5847 47.2809 64.8761 47.5731C65.1754 47.8652 65.4077 48.2211 65.5731 48.6406C65.7463 49.0527 65.833 49.5209 65.833 50.0453C65.833 50.5622 65.7463 51.0304 65.5731 51.4499C65.4077 51.862 65.1754 52.2141 64.8761 52.5063C64.5847 52.7984 64.2382 53.0269 63.8366 53.1917C63.4428 53.3491 63.0215 53.4277 62.5726 53.4277C62.1237 53.4277 61.6984 53.3491 61.2968 53.1917C60.903 53.0269 60.5565 52.7984 60.2572 52.5063C59.9658 52.2141 59.7335 51.862 59.5602 51.4499C59.387 51.0304 59.3003 50.5622 59.3003 50.0453ZM60.6825 50.0453C60.6825 50.4124 60.7337 50.742 60.836 51.0342C60.9384 51.3263 61.0723 51.5736 61.2377 51.7758C61.4109 51.9781 61.6118 52.1317 61.8402 52.2366C62.0685 52.3414 62.3127 52.3939 62.5726 52.3939C62.8325 52.3939 63.0726 52.3414 63.2932 52.2366C63.5215 52.1317 63.7224 51.9781 63.8956 51.7758C64.0689 51.5736 64.2028 51.3263 64.2973 51.0342C64.3997 50.742 64.4508 50.4124 64.4508 50.0453C64.4508 49.6782 64.3997 49.3486 64.2973 49.0564C64.2028 48.7642 64.0689 48.517 63.8956 48.3147C63.7224 48.1125 63.5215 47.9589 63.2932 47.854C63.0726 47.7416 62.8325 47.6854 62.5726 47.6854C62.3127 47.6854 62.0685 47.7416 61.8402 47.854C61.6118 47.9589 61.4109 48.1125 61.2377 48.3147C61.0723 48.517 60.9384 48.7642 60.836 49.0564C60.7337 49.3486 60.6825 49.6782 60.6825 50.0453Z" fill="white"/>
  <path d="M68.6137 47.3034C68.7948 47.1086 69.0192 46.9588 69.287 46.8539C69.5626 46.7415 69.8225 46.6853 70.0667 46.6853C70.4919 46.6853 70.8739 46.7752 71.2125 46.955C71.5591 47.1273 71.8426 47.3858 72.0631 47.7304C72.2521 47.3933 72.5199 47.1348 72.8664 46.955C73.2208 46.7752 73.587 46.6853 73.965 46.6853C74.3036 46.6853 74.6226 46.734 74.9218 46.8314C75.229 46.9213 75.4928 47.0599 75.7133 47.2472C75.9417 47.4345 76.1189 47.6705 76.2449 47.9551C76.3788 48.2398 76.4457 48.5732 76.4457 48.9553V53.2704H75.0872V48.8991C75.0872 48.517 74.9691 48.2248 74.7328 48.0226C74.4966 47.8203 74.2012 47.7192 73.8468 47.7192C73.6893 47.7192 73.5318 47.7454 73.3743 47.7978C73.2247 47.8428 73.0869 47.9214 72.9609 48.0338C72.8349 48.1387 72.7325 48.281 72.6537 48.4608C72.5828 48.6331 72.5474 48.8504 72.5474 49.1126V53.2704H71.1889V49.0114C71.1889 48.8017 71.1535 48.6144 71.0826 48.4496C71.0196 48.2848 70.929 48.1499 70.8109 48.045C70.7006 47.9402 70.5707 47.8615 70.4211 47.809C70.2714 47.7491 70.1139 47.7192 69.9485 47.7192C69.7674 47.7192 69.5981 47.7491 69.4406 47.809C69.2831 47.869 69.1413 47.9589 69.0153 48.0787C68.8893 48.1986 68.7909 48.3484 68.72 48.5282C68.6491 48.7005 68.6137 48.8991 68.6137 49.1238V53.2704H67.2552V46.8426H68.6137V47.3034Z" fill="white"/>
  <path d="M81.3115 53.4165C80.902 53.4165 80.524 53.3303 80.1775 53.158C79.8388 52.9782 79.5711 52.7497 79.3742 52.4725V55.8438H78.0157V46.8426H79.3742V47.6967C79.5789 47.412 79.8428 47.1723 80.1656 46.9775C80.4964 46.7752 80.8862 46.6741 81.3351 46.6741C81.7683 46.6741 82.166 46.7527 82.5283 46.9101C82.8905 47.0599 83.2055 47.2771 83.4733 47.5618C83.7411 47.8465 83.9498 48.1986 84.0994 48.6181C84.249 49.0377 84.3239 49.5096 84.3239 50.034C84.3239 50.551 84.2569 51.0192 84.123 51.4387C83.9892 51.8507 83.7923 52.2029 83.5324 52.495C83.2804 52.7872 82.9653 53.0157 82.5873 53.1805C82.2172 53.3378 81.7919 53.4165 81.3115 53.4165ZM81.1579 52.4276C81.473 52.4276 81.7447 52.3602 81.973 52.2253C82.2014 52.083 82.3904 51.8994 82.5401 51.6747C82.6897 51.4499 82.796 51.1952 82.859 50.9106C82.9299 50.6259 82.9653 50.3337 82.9653 50.034C82.9653 49.7194 82.9299 49.4235 82.859 49.1463C82.7881 48.8616 82.6779 48.6106 82.5283 48.3934C82.3786 48.1761 82.1896 48.0038 81.9612 47.8765C81.7407 47.7491 81.4769 47.6854 81.1698 47.6854C80.8626 47.6854 80.5949 47.7454 80.3665 47.8652C80.146 47.9776 79.9609 48.1387 79.8112 48.3484C79.6695 48.5507 79.5592 48.7904 79.4805 49.0676C79.4096 49.3448 79.3742 49.6445 79.3742 49.9666V50.1577C79.3742 50.5098 79.4175 50.8281 79.5041 51.1128C79.5986 51.39 79.7246 51.626 79.8821 51.8208C80.0396 52.0156 80.2286 52.1654 80.4492 52.2703C80.6697 52.3752 80.9059 52.4276 81.1579 52.4276Z" fill="white"/>
  <path d="M90.0531 52.4388C89.8247 52.7535 89.5451 52.997 89.2144 53.1693C88.8836 53.3416 88.5489 53.4277 88.2103 53.4277C87.8401 53.4277 87.4936 53.3753 87.1707 53.2704C86.8478 53.1655 86.5682 53.0119 86.332 52.8097C86.0957 52.5999 85.9106 52.3452 85.7768 52.0455C85.6429 51.7384 85.5759 51.3825 85.5759 50.978V46.8426H86.9463V50.8768C86.9463 51.1241 86.9817 51.3413 87.0526 51.5286C87.1313 51.7159 87.2337 51.8732 87.3597 52.0006C87.4857 52.1279 87.6314 52.2253 87.7968 52.2927C87.9622 52.3527 88.1354 52.3826 88.3166 52.3826C88.5843 52.3826 88.8245 52.334 89.0372 52.2366C89.2577 52.1317 89.4427 51.9931 89.5924 51.8208C89.742 51.6485 89.8562 51.4499 89.935 51.2252C90.0137 51.0005 90.0531 50.7645 90.0531 50.5173V46.8426H91.4116V53.2704H90.0531V52.4388Z" fill="white"/>
  <path d="M93.4165 45.3031L94.775 44.9098V46.8426H96.3225V47.8877H94.775V51.6185C94.775 51.7908 94.8144 51.9257 94.8931 52.0231C94.9719 52.1204 95.0743 52.1954 95.2003 52.2478C95.3342 52.2927 95.4877 52.3265 95.661 52.3489C95.8342 52.3639 96.0193 52.3714 96.2162 52.3714V53.4277C95.7988 53.4277 95.4169 53.4015 95.0703 53.3491C94.7317 53.3041 94.4364 53.218 94.1843 53.0906C93.9402 52.9557 93.7512 52.776 93.6173 52.5512C93.4834 52.319 93.4165 52.0231 93.4165 51.6635V47.8877H92.4715V46.8426H93.4165V45.3031Z" fill="white"/>
  <path d="M101.922 49.3149C101.899 49.1276 101.844 48.9365 101.757 48.7417C101.67 48.547 101.556 48.3747 101.414 48.2248C101.273 48.075 101.099 47.9514 100.895 47.854C100.698 47.7566 100.477 47.7079 100.233 47.7079C100.021 47.7079 99.8197 47.7566 99.6307 47.854C99.4496 47.9439 99.2842 48.0675 99.1346 48.2248C98.9928 48.3747 98.8708 48.547 98.7684 48.7417C98.6739 48.929 98.603 49.1201 98.5557 49.3149H101.922ZM102.856 52.6748C102.525 52.9145 102.159 53.0981 101.757 53.2254C101.363 53.3528 100.954 53.4165 100.529 53.4165C100.048 53.4165 99.5992 53.3416 99.1818 53.1917C98.7644 53.0344 98.3982 52.8172 98.0832 52.54C97.7761 52.2553 97.5319 51.9107 97.3508 51.5061C97.1776 51.1016 97.0909 50.6521 97.0909 50.1577C97.0909 49.6557 97.1618 49.195 97.3036 48.7755C97.4453 48.3484 97.6501 47.9814 97.9178 47.6742C98.1856 47.3596 98.5164 47.1161 98.9101 46.9438C99.3039 46.7715 99.7528 46.6853 100.257 46.6853C100.745 46.6853 101.174 46.7715 101.544 46.9438C101.915 47.1161 102.226 47.3446 102.478 47.6293C102.73 47.9139 102.919 48.2398 103.045 48.6069C103.171 48.974 103.234 49.3523 103.234 49.7419C103.234 49.8018 103.23 49.888 103.222 50.0003C103.214 50.1052 103.198 50.2251 103.175 50.3599H98.5085C98.54 50.7195 98.6227 51.0267 98.7566 51.2814C98.8904 51.5286 99.0519 51.7309 99.2409 51.8882C99.4299 52.0455 99.6386 52.1616 99.867 52.2366C100.103 52.3115 100.336 52.3489 100.564 52.3489C100.887 52.3489 101.19 52.2965 101.474 52.1916C101.765 52.0867 102.041 51.9481 102.3 51.7758L102.856 52.6748Z" fill="white"/>
  <path d="M105.943 47.7304C106.037 47.5506 106.159 47.397 106.309 47.2697C106.458 47.1348 106.62 47.0262 106.793 46.9438C106.974 46.8539 107.159 46.7902 107.348 46.7527C107.545 46.7078 107.734 46.6853 107.915 46.6853C107.978 46.6853 108.033 46.6891 108.081 46.6966C108.128 46.6966 108.179 46.7003 108.234 46.7078V47.8315C108.179 47.824 108.128 47.8203 108.081 47.8203C108.033 47.8203 107.982 47.8203 107.927 47.8203C107.659 47.8203 107.403 47.8577 107.159 47.9327C106.923 48.0001 106.714 48.0975 106.533 48.2248C106.352 48.3522 106.206 48.5095 106.096 48.6968C105.994 48.8766 105.943 49.0789 105.943 49.3036V53.2704H104.572V46.8426H105.943V47.7304Z" fill="white"/>
  <path d="M117.519 46.1234C117.094 45.8987 116.716 45.7264 116.385 45.6065C116.054 45.4792 115.715 45.4155 115.369 45.4155C114.873 45.4155 114.491 45.5204 114.223 45.7301C113.963 45.9324 113.833 46.2021 113.833 46.5392C113.833 46.7415 113.88 46.9176 113.975 47.0674C114.069 47.2097 114.207 47.3483 114.388 47.4832C114.57 47.6105 114.79 47.7341 115.05 47.854C115.318 47.9739 115.625 48.105 115.971 48.2473C116.326 48.3971 116.657 48.5582 116.964 48.7305C117.271 48.9028 117.535 49.0976 117.755 49.3149C117.984 49.5321 118.161 49.7718 118.287 50.034C118.421 50.2962 118.488 50.5884 118.488 50.9106C118.488 51.3526 118.397 51.7309 118.216 52.0455C118.035 52.3602 117.794 52.6186 117.495 52.8209C117.196 53.0232 116.857 53.173 116.479 53.2704C116.101 53.3678 115.715 53.4165 115.322 53.4165C114.723 53.4165 114.148 53.3228 113.597 53.1356C113.054 52.9483 112.51 52.6411 111.967 52.2141L112.735 51.2364C112.9 51.3788 113.081 51.5174 113.278 51.6522C113.475 51.7796 113.68 51.892 113.892 51.9893C114.113 52.0867 114.337 52.1654 114.566 52.2253C114.794 52.2778 115.022 52.304 115.251 52.304C115.448 52.304 115.652 52.2815 115.865 52.2366C116.086 52.1916 116.286 52.1167 116.467 52.0118C116.657 51.9069 116.81 51.7683 116.928 51.596C117.054 51.4162 117.117 51.1915 117.117 50.9218C117.117 50.5772 116.936 50.2738 116.574 50.0116C116.212 49.7494 115.731 49.4984 115.133 49.2587C114.778 49.1163 114.44 48.9665 114.117 48.8092C113.794 48.6444 113.506 48.4571 113.254 48.2473C113.002 48.0375 112.801 47.7978 112.652 47.5281C112.502 47.2584 112.427 46.9438 112.427 46.5842C112.427 46.1572 112.514 45.7976 112.687 45.5054C112.861 45.2132 113.085 44.9772 113.361 44.7974C113.644 44.6176 113.959 44.4903 114.306 44.4154C114.652 44.333 114.999 44.2918 115.345 44.2918C115.849 44.2918 116.334 44.3742 116.798 44.539C117.263 44.7038 117.712 44.9098 118.145 45.157L117.519 46.1234Z" fill="white"/>
  <path d="M125.493 52.5287C125.138 52.8434 124.752 53.0719 124.335 53.2142C123.925 53.3565 123.508 53.4277 123.083 53.4277C122.571 53.4277 122.102 53.3416 121.677 53.1693C121.252 52.997 120.886 52.761 120.578 52.4613C120.271 52.1616 120.031 51.8095 119.858 51.405C119.692 51.0005 119.61 50.5622 119.61 50.0902C119.61 49.5658 119.696 49.0939 119.87 48.6743C120.043 48.2548 120.283 47.8989 120.59 47.6068C120.897 47.3071 121.264 47.0786 121.689 46.9213C122.114 46.7565 122.583 46.6741 123.095 46.6741C123.496 46.6741 123.886 46.7378 124.264 46.8651C124.65 46.985 125.012 47.1311 125.351 47.3034L124.819 48.2585C124.575 48.1162 124.307 47.9963 124.016 47.8989C123.725 47.8016 123.418 47.7529 123.095 47.7529C122.787 47.7529 122.504 47.8091 122.244 47.9214C121.992 48.0338 121.772 48.1949 121.583 48.4046C121.401 48.6069 121.26 48.8541 121.157 49.1463C121.055 49.431 121.004 49.7494 121.004 50.1015C121.004 50.4835 121.067 50.8169 121.193 51.1016C121.327 51.3788 121.492 51.611 121.689 51.7983C121.894 51.9781 122.122 52.1167 122.374 52.2141C122.626 52.304 122.874 52.3489 123.118 52.3489C123.685 52.3489 124.256 52.1204 124.831 51.6635L125.493 52.5287Z" fill="white"/>
  <path d="M126.627 44.2918H128.162V45.7976H126.627V44.2918ZM126.709 46.8426H128.08V53.2704H126.709V46.8426Z" fill="white"/>
  <path d="M134.3 49.3149C134.276 49.1276 134.221 48.9365 134.134 48.7417C134.048 48.547 133.933 48.3747 133.792 48.2248C133.65 48.075 133.477 47.9514 133.272 47.854C133.075 47.7566 132.854 47.7079 132.61 47.7079C132.398 47.7079 132.197 47.7566 132.008 47.854C131.827 47.9439 131.661 48.0675 131.512 48.2248C131.37 48.3747 131.248 48.547 131.145 48.7417C131.051 48.929 130.98 49.1201 130.933 49.3149H134.3ZM135.233 52.6748C134.902 52.9145 134.536 53.0981 134.134 53.2254C133.74 53.3528 133.331 53.4165 132.906 53.4165C132.425 53.4165 131.976 53.3416 131.559 53.1917C131.141 53.0344 130.775 52.8172 130.46 52.54C130.153 52.2553 129.909 51.9107 129.728 51.5061C129.555 51.1016 129.468 50.6521 129.468 50.1577C129.468 49.6557 129.539 49.195 129.681 48.7755C129.822 48.3484 130.027 47.9814 130.295 47.6742C130.563 47.3596 130.893 47.1161 131.287 46.9438C131.681 46.7715 132.13 46.6853 132.634 46.6853C133.122 46.6853 133.551 46.7715 133.921 46.9438C134.292 47.1161 134.603 47.3446 134.855 47.6293C135.107 47.9139 135.296 48.2398 135.422 48.6069C135.548 48.974 135.611 49.3523 135.611 49.7419C135.611 49.8018 135.607 49.888 135.599 50.0003C135.591 50.1052 135.575 50.2251 135.552 50.3599H130.886C130.917 50.7195 131 51.0267 131.134 51.2814C131.267 51.5286 131.429 51.7309 131.618 51.8882C131.807 52.0455 132.016 52.1616 132.244 52.2366C132.48 52.3115 132.713 52.3489 132.941 52.3489C133.264 52.3489 133.567 52.2965 133.851 52.1916C134.142 52.0867 134.418 51.9481 134.678 51.7758L135.233 52.6748Z" fill="white"/>
  <path d="M138.32 47.663C138.548 47.3483 138.824 47.1086 139.146 46.9438C139.477 46.7715 139.812 46.6853 140.151 46.6853C140.521 46.6853 140.867 46.7378 141.19 46.8426C141.513 46.9475 141.793 47.1011 142.029 47.3034C142.265 47.5056 142.45 47.7604 142.584 48.0675C142.726 48.3672 142.797 48.7193 142.797 49.1238V53.2704H141.438V49.2362C141.438 48.989 141.399 48.7717 141.32 48.5844C141.249 48.3896 141.147 48.2286 141.013 48.1012C140.887 47.9739 140.741 47.8802 140.576 47.8203C140.41 47.7529 140.237 47.7192 140.056 47.7192C139.78 47.7192 139.536 47.7716 139.324 47.8765C139.111 47.9814 138.93 48.1199 138.78 48.2923C138.631 48.4646 138.516 48.6631 138.438 48.8878C138.359 49.1126 138.32 49.3448 138.32 49.5845V53.2704H136.961V46.8426H138.32V47.663Z" fill="white"/>
  <path d="M149.858 52.5287C149.503 52.8434 149.117 53.0719 148.7 53.2142C148.29 53.3565 147.873 53.4277 147.448 53.4277C146.936 53.4277 146.467 53.3416 146.042 53.1693C145.617 52.997 145.251 52.761 144.943 52.4613C144.636 52.1616 144.396 51.8095 144.223 51.405C144.057 51.0005 143.975 50.5622 143.975 50.0902C143.975 49.5658 144.061 49.0939 144.235 48.6743C144.408 48.2548 144.648 47.8989 144.955 47.6068C145.262 47.3071 145.629 47.0786 146.054 46.9213C146.479 46.7565 146.948 46.6741 147.46 46.6741C147.861 46.6741 148.251 46.7378 148.629 46.8651C149.015 46.985 149.377 47.1311 149.716 47.3034L149.184 48.2585C148.94 48.1162 148.672 47.9963 148.381 47.8989C148.09 47.8016 147.782 47.7529 147.46 47.7529C147.152 47.7529 146.869 47.8091 146.609 47.9214C146.357 48.0338 146.136 48.1949 145.947 48.4046C145.766 48.6069 145.625 48.8541 145.522 49.1463C145.42 49.431 145.369 49.7494 145.369 50.1015C145.369 50.4835 145.432 50.8169 145.558 51.1016C145.692 51.3788 145.857 51.611 146.054 51.7983C146.259 51.9781 146.487 52.1167 146.739 52.2141C146.991 52.304 147.239 52.3489 147.483 52.3489C148.05 52.3489 148.621 52.1204 149.196 51.6635L149.858 52.5287Z" fill="white"/>
  <path d="M155.599 49.3149C155.575 49.1276 155.52 48.9365 155.433 48.7417C155.347 48.547 155.232 48.3747 155.091 48.2248C154.949 48.075 154.776 47.9514 154.571 47.854C154.374 47.7566 154.153 47.7079 153.909 47.7079C153.697 47.7079 153.496 47.7566 153.307 47.854C153.126 47.9439 152.96 48.0675 152.811 48.2248C152.669 48.3747 152.547 48.547 152.444 48.7417C152.35 48.929 152.279 49.1201 152.232 49.3149H155.599ZM156.532 52.6748C156.201 52.9145 155.835 53.0981 155.433 53.2254C155.039 53.3528 154.63 53.4165 154.205 53.4165C153.724 53.4165 153.275 53.3416 152.858 53.1917C152.441 53.0344 152.074 52.8172 151.759 52.54C151.452 52.2553 151.208 51.9107 151.027 51.5061C150.854 51.1016 150.767 50.6521 150.767 50.1577C150.767 49.6557 150.838 49.195 150.98 48.7755C151.121 48.3484 151.326 47.9814 151.594 47.6742C151.862 47.3596 152.192 47.1161 152.586 46.9438C152.98 46.7715 153.429 46.6853 153.933 46.6853C154.421 46.6853 154.85 46.7715 155.221 46.9438C155.591 47.1161 155.902 47.3446 156.154 47.6293C156.406 47.9139 156.595 48.2398 156.721 48.6069C156.847 48.974 156.91 49.3523 156.91 49.7419C156.91 49.8018 156.906 49.888 156.898 50.0003C156.89 50.1052 156.874 50.2251 156.851 50.3599H152.185C152.216 50.7195 152.299 51.0267 152.433 51.2814C152.567 51.5286 152.728 51.7309 152.917 51.8882C153.106 52.0455 153.315 52.1616 153.543 52.2366C153.779 52.3115 154.012 52.3489 154.24 52.3489C154.563 52.3489 154.866 52.2965 155.15 52.1916C155.441 52.0867 155.717 51.9481 155.977 51.7758L156.532 52.6748Z" fill="white"/>
  <path d="M163.798 52.3939C164.011 52.3939 164.219 52.3564 164.424 52.2815C164.637 52.1991 164.822 52.098 164.979 51.9781C165.145 51.8507 165.275 51.7084 165.369 51.5511C165.472 51.3938 165.523 51.2364 165.523 51.0791V49.9779C165.35 49.9629 165.188 49.9516 165.039 49.9441C164.889 49.9292 164.747 49.9217 164.613 49.9217C163.912 49.9217 163.377 50.0266 163.007 50.2363C162.637 50.4386 162.451 50.7383 162.451 51.1353C162.451 51.3526 162.487 51.5398 162.558 51.6972C162.637 51.8545 162.739 51.9856 162.865 52.0905C162.991 52.1954 163.133 52.274 163.29 52.3265C163.456 52.3714 163.625 52.3939 163.798 52.3939ZM161.766 47.2472C162.121 47.0524 162.511 46.8913 162.936 46.764C163.361 46.6366 163.802 46.5729 164.259 46.5729C164.645 46.5729 164.999 46.6291 165.322 46.7415C165.645 46.8464 165.921 47 166.149 47.2022C166.377 47.397 166.555 47.6293 166.681 47.8989C166.814 48.1686 166.881 48.4608 166.881 48.7755V51.877C166.881 52.0418 166.889 52.2291 166.905 52.4388C166.921 52.6486 166.984 52.9258 167.094 53.2704H165.7C165.661 53.143 165.629 53.0269 165.606 52.922C165.59 52.8097 165.574 52.6973 165.558 52.5849C165.448 52.7123 165.314 52.8284 165.157 52.9333C165.007 53.0307 164.842 53.1168 164.66 53.1917C164.487 53.2667 164.31 53.3228 164.129 53.3603C163.948 53.3978 163.778 53.4165 163.621 53.4165C162.833 53.4165 162.215 53.218 161.766 52.8209C161.317 52.4239 161.093 51.8807 161.093 51.1915C161.093 50.8094 161.168 50.476 161.317 50.1914C161.475 49.9067 161.695 49.6707 161.979 49.4834C162.27 49.2886 162.617 49.1463 163.018 49.0564C163.42 48.959 163.869 48.9103 164.365 48.9103C164.546 48.9103 164.731 48.9178 164.92 48.9328C165.109 48.9403 165.31 48.959 165.523 48.989V48.8766C165.523 48.5095 165.401 48.2098 165.157 47.9776C164.92 47.7379 164.597 47.618 164.188 47.618C163.897 47.618 163.586 47.6667 163.255 47.7641C162.932 47.8615 162.621 47.9888 162.322 48.1462L161.766 47.2472Z" fill="white"/>
  <path d="M169.95 47.663C170.178 47.3483 170.454 47.1086 170.776 46.9438C171.107 46.7715 171.442 46.6853 171.781 46.6853C172.151 46.6853 172.497 46.7378 172.82 46.8426C173.143 46.9475 173.423 47.1011 173.659 47.3034C173.895 47.5056 174.08 47.7604 174.214 48.0675C174.356 48.3672 174.427 48.7193 174.427 49.1238V53.2704H173.068V49.2362C173.068 48.989 173.029 48.7717 172.95 48.5844C172.879 48.3896 172.777 48.2286 172.643 48.1012C172.517 47.9739 172.371 47.8802 172.206 47.8203C172.04 47.7529 171.867 47.7192 171.686 47.7192C171.41 47.7192 171.166 47.7716 170.954 47.8765C170.741 47.9814 170.56 48.1199 170.41 48.2923C170.261 48.4646 170.146 48.6631 170.068 48.8878C169.989 49.1126 169.95 49.3448 169.95 49.5845V53.2704H168.591V46.8426H169.95V47.663Z" fill="white"/>
  <path d="M178.558 46.6741C178.967 46.6741 179.345 46.7677 179.692 46.955C180.046 47.1348 180.338 47.3783 180.566 47.6854V44.2918H181.925V53.2704H180.566V52.4725C180.346 52.7572 180.066 52.9857 179.727 53.158C179.397 53.3303 179.011 53.4165 178.57 53.4165C178.129 53.4165 177.727 53.3453 177.365 53.203C177.003 53.0531 176.691 52.8359 176.432 52.5512C176.172 52.2665 175.967 51.9182 175.817 51.5061C175.676 51.0866 175.605 50.6109 175.605 50.079C175.605 49.5621 175.676 49.0939 175.817 48.6743C175.967 48.2548 176.172 47.8989 176.432 47.6068C176.691 47.3071 177.003 47.0786 177.365 46.9213C177.727 46.7565 178.125 46.6741 178.558 46.6741ZM178.759 47.6854C178.436 47.6854 178.16 47.7529 177.932 47.8877C177.703 48.0226 177.518 48.2024 177.377 48.4271C177.235 48.6518 177.129 48.9103 177.058 49.2025C176.995 49.4872 176.963 49.7793 176.963 50.079C176.963 50.3637 176.999 50.6483 177.069 50.933C177.148 51.2102 177.258 51.4612 177.4 51.6859C177.55 51.9032 177.735 52.083 177.955 52.2253C178.184 52.3602 178.452 52.4276 178.759 52.4276C179.066 52.4276 179.33 52.3639 179.55 52.2366C179.779 52.1092 179.968 51.9406 180.117 51.7309C180.267 51.5136 180.377 51.2627 180.448 50.978C180.527 50.6933 180.566 50.3936 180.566 50.079V49.9554C180.566 49.5733 180.519 49.2399 180.424 48.9553C180.338 48.6706 180.212 48.4346 180.046 48.2473C179.889 48.06 179.7 47.9214 179.479 47.8315C179.259 47.7341 179.019 47.6854 178.759 47.6854Z" fill="white"/>
  <path d="M193.452 53.2704H187.274V44.4378H193.334V45.4942H188.644V48.1574H193.097V49.225H188.644V52.2253H193.452V53.2704Z" fill="white"/>
  <path d="M196.368 47.663C196.596 47.3483 196.872 47.1086 197.195 46.9438C197.526 46.7715 197.86 46.6853 198.199 46.6853C198.569 46.6853 198.916 46.7378 199.238 46.8426C199.561 46.9475 199.841 47.1011 200.077 47.3034C200.313 47.5056 200.499 47.7604 200.632 48.0675C200.774 48.3672 200.845 48.7193 200.845 49.1238V53.2704H199.487V49.2362C199.487 48.989 199.447 48.7717 199.368 48.5844C199.298 48.3896 199.195 48.2286 199.061 48.1012C198.935 47.9739 198.79 47.8802 198.624 47.8203C198.459 47.7529 198.286 47.7192 198.104 47.7192C197.829 47.7192 197.585 47.7716 197.372 47.8765C197.159 47.9814 196.978 48.1199 196.829 48.2923C196.679 48.4646 196.565 48.6631 196.486 48.8878C196.407 49.1126 196.368 49.3448 196.368 49.5845V53.2704H195.009V46.8426H196.368V47.663Z" fill="white"/>
  <path d="M205.154 47.6854C204.854 47.6854 204.59 47.7529 204.362 47.8877C204.142 48.0151 203.956 48.1874 203.807 48.4046C203.665 48.6219 203.555 48.8691 203.476 49.1463C203.405 49.4235 203.37 49.7119 203.37 50.0116C203.37 50.2962 203.405 50.5772 203.476 50.8544C203.547 51.1241 203.657 51.3675 203.807 51.5848C203.956 51.8021 204.142 51.9781 204.362 52.113C204.59 52.2478 204.854 52.3152 205.154 52.3152C205.437 52.3152 205.689 52.259 205.91 52.1467C206.138 52.0343 206.331 51.8807 206.488 51.6859C206.646 51.4911 206.768 51.2664 206.855 51.0117C206.941 50.757 206.985 50.4873 206.985 50.2026V49.7868C206.985 49.4422 206.933 49.1388 206.831 48.8766C206.736 48.6144 206.603 48.3971 206.429 48.2248C206.264 48.045 206.071 47.9102 205.85 47.8203C205.63 47.7304 205.398 47.6854 205.154 47.6854ZM205.012 46.6741C205.413 46.6741 205.787 46.7715 206.134 46.9662C206.488 47.1535 206.772 47.3895 206.985 47.6742V46.8426H208.343V52.5737C208.343 53.1056 208.256 53.5701 208.083 53.9671C207.918 54.3642 207.689 54.6938 207.398 54.956C207.114 55.2257 206.776 55.4242 206.382 55.5516C205.988 55.6864 205.567 55.7539 205.118 55.7539C204.685 55.7539 204.26 55.6977 203.842 55.5853C203.425 55.4729 203.031 55.3231 202.661 55.1358L203.145 54.1469C203.445 54.3042 203.764 54.4353 204.102 54.5402C204.449 54.6526 204.787 54.7088 205.118 54.7088C205.378 54.7088 205.622 54.6601 205.85 54.5627C206.079 54.4653 206.276 54.3267 206.441 54.1469C206.614 53.9746 206.748 53.7611 206.843 53.5064C206.937 53.2517 206.985 52.967 206.985 52.6523V52.3489C206.78 52.6411 206.512 52.8733 206.181 53.0457C205.85 53.2105 205.461 53.2929 205.012 53.2929C204.555 53.2929 204.142 53.218 203.771 53.0681C203.401 52.9183 203.086 52.7048 202.826 52.4276C202.566 52.1429 202.366 51.7983 202.224 51.3938C202.09 50.9892 202.023 50.5285 202.023 50.0116C202.023 49.4947 202.098 49.0302 202.247 48.6181C202.397 48.1986 202.606 47.8465 202.874 47.5618C203.141 47.2771 203.456 47.0599 203.819 46.9101C204.189 46.7527 204.586 46.6741 205.012 46.6741Z" fill="white"/>
  <path d="M210.02 44.2918H211.556V45.7976H210.02V44.2918ZM210.103 46.8426H211.473V53.2704H210.103V46.8426Z" fill="white"/>
  <path d="M214.598 47.663C214.827 47.3483 215.102 47.1086 215.425 46.9438C215.756 46.7715 216.091 46.6853 216.429 46.6853C216.799 46.6853 217.146 46.7378 217.469 46.8426C217.792 46.9475 218.071 47.1011 218.308 47.3034C218.544 47.5056 218.729 47.7604 218.863 48.0675C219.005 48.3672 219.076 48.7193 219.076 49.1238V53.2704H217.717V49.2362C217.717 48.989 217.678 48.7717 217.599 48.5844C217.528 48.3896 217.426 48.2286 217.292 48.1012C217.166 47.9739 217.02 47.8802 216.855 47.8203C216.689 47.7529 216.516 47.7192 216.335 47.7192C216.059 47.7192 215.815 47.7716 215.602 47.8765C215.39 47.9814 215.209 48.1199 215.059 48.2923C214.909 48.4646 214.795 48.6631 214.716 48.8878C214.638 49.1126 214.598 49.3448 214.598 49.5845V53.2704H213.24V46.8426H214.598V47.663Z" fill="white"/>
  <path d="M225.097 49.3149C225.073 49.1276 225.018 48.9365 224.931 48.7417C224.845 48.547 224.731 48.3747 224.589 48.2248C224.447 48.075 224.274 47.9514 224.069 47.854C223.872 47.7566 223.652 47.7079 223.408 47.7079C223.195 47.7079 222.994 47.7566 222.805 47.854C222.624 47.9439 222.459 48.0675 222.309 48.2248C222.167 48.3747 222.045 48.547 221.943 48.7417C221.848 48.929 221.777 49.1201 221.73 49.3149H225.097ZM226.03 52.6748C225.699 52.9145 225.333 53.0981 224.931 53.2254C224.538 53.3528 224.128 53.4165 223.703 53.4165C223.222 53.4165 222.774 53.3416 222.356 53.1917C221.939 53.0344 221.573 52.8172 221.258 52.54C220.95 52.2553 220.706 51.9107 220.525 51.5061C220.352 51.1016 220.265 50.6521 220.265 50.1577C220.265 49.6557 220.336 49.195 220.478 48.7755C220.62 48.3484 220.824 47.9814 221.092 47.6742C221.36 47.3596 221.691 47.1161 222.084 46.9438C222.478 46.7715 222.927 46.6853 223.431 46.6853C223.919 46.6853 224.349 46.7715 224.719 46.9438C225.089 47.1161 225.4 47.3446 225.652 47.6293C225.904 47.9139 226.093 48.2398 226.219 48.6069C226.345 48.974 226.408 49.3523 226.408 49.7419C226.408 49.8018 226.404 49.888 226.396 50.0003C226.388 50.1052 226.373 50.2251 226.349 50.3599H221.683C221.714 50.7195 221.797 51.0267 221.931 51.2814C222.065 51.5286 222.226 51.7309 222.415 51.8882C222.604 52.0455 222.813 52.1616 223.041 52.2366C223.278 52.3115 223.51 52.3489 223.738 52.3489C224.061 52.3489 224.364 52.2965 224.648 52.1916C224.939 52.0867 225.215 51.9481 225.475 51.7758L226.03 52.6748Z" fill="white"/>
  <path d="M232.212 49.3149C232.188 49.1276 232.133 48.9365 232.047 48.7417C231.96 48.547 231.846 48.3747 231.704 48.2248C231.562 48.075 231.389 47.9514 231.184 47.854C230.987 47.7566 230.767 47.7079 230.523 47.7079C230.31 47.7079 230.109 47.7566 229.92 47.854C229.739 47.9439 229.574 48.0675 229.424 48.2248C229.282 48.3747 229.16 48.547 229.058 48.7417C228.963 48.929 228.892 49.1201 228.845 49.3149H232.212ZM233.145 52.6748C232.814 52.9145 232.448 53.0981 232.047 53.2254C231.653 53.3528 231.243 53.4165 230.818 53.4165C230.338 53.4165 229.889 53.3416 229.471 53.1917C229.054 53.0344 228.688 52.8172 228.373 52.54C228.066 52.2553 227.821 51.9107 227.64 51.5061C227.467 51.1016 227.38 50.6521 227.38 50.1577C227.38 49.6557 227.451 49.195 227.593 48.7755C227.735 48.3484 227.939 47.9814 228.207 47.6742C228.475 47.3596 228.806 47.1161 229.2 46.9438C229.593 46.7715 230.042 46.6853 230.546 46.6853C231.035 46.6853 231.464 46.7715 231.834 46.9438C232.204 47.1161 232.515 47.3446 232.767 47.6293C233.019 47.9139 233.208 48.2398 233.334 48.6069C233.46 48.974 233.523 49.3523 233.523 49.7419C233.523 49.8018 233.519 49.888 233.511 50.0003C233.503 50.1052 233.488 50.2251 233.464 50.3599H228.798C228.829 50.7195 228.912 51.0267 229.046 51.2814C229.18 51.5286 229.341 51.7309 229.53 51.8882C229.719 52.0455 229.928 52.1616 230.156 52.2366C230.393 52.3115 230.625 52.3489 230.853 52.3489C231.176 52.3489 231.479 52.2965 231.763 52.1916C232.054 52.0867 232.33 51.9481 232.59 51.7758L233.145 52.6748Z" fill="white"/>
  <path d="M236.232 47.7304C236.326 47.5506 236.449 47.397 236.598 47.2697C236.748 47.1348 236.909 47.0262 237.082 46.9438C237.264 46.8539 237.449 46.7902 237.638 46.7527C237.835 46.7078 238.024 46.6853 238.205 46.6853C238.268 46.6853 238.323 46.6891 238.37 46.6966C238.417 46.6966 238.469 46.7003 238.524 46.7078V47.8315C238.469 47.824 238.417 47.8203 238.37 47.8203C238.323 47.8203 238.272 47.8203 238.217 47.8203C237.949 47.8203 237.693 47.8577 237.449 47.9327C237.212 48.0001 237.004 48.0975 236.823 48.2248C236.641 48.3522 236.496 48.5095 236.386 48.6968C236.283 48.8766 236.232 49.0789 236.232 49.3036V53.2704H234.862V46.8426H236.232V47.7304Z" fill="white"/>
  <path d="M239.447 44.2918H240.983V45.7976H239.447V44.2918ZM239.53 46.8426H240.9V53.2704H239.53V46.8426Z" fill="white"/>
  <path d="M244.025 47.663C244.253 47.3483 244.529 47.1086 244.852 46.9438C245.183 46.7715 245.517 46.6853 245.856 46.6853C246.226 46.6853 246.573 46.7378 246.895 46.8426C247.218 46.9475 247.498 47.1011 247.734 47.3034C247.97 47.5056 248.156 47.7604 248.289 48.0675C248.431 48.3672 248.502 48.7193 248.502 49.1238V53.2704H247.144V49.2362C247.144 48.989 247.104 48.7717 247.025 48.5844C246.955 48.3896 246.852 48.2286 246.718 48.1012C246.592 47.9739 246.447 47.8802 246.281 47.8203C246.116 47.7529 245.943 47.7192 245.761 47.7192C245.486 47.7192 245.242 47.7716 245.029 47.8765C244.816 47.9814 244.635 48.1199 244.486 48.2923C244.336 48.4646 244.222 48.6631 244.143 48.8878C244.064 49.1126 244.025 49.3448 244.025 49.5845V53.2704H242.666V46.8426H244.025V47.663Z" fill="white"/>
  <path d="M252.81 47.6854C252.511 47.6854 252.247 47.7529 252.019 47.8877C251.799 48.0151 251.613 48.1874 251.464 48.4046C251.322 48.6219 251.212 48.8691 251.133 49.1463C251.062 49.4235 251.027 49.7119 251.027 50.0116C251.027 50.2962 251.062 50.5772 251.133 50.8544C251.204 51.1241 251.314 51.3675 251.464 51.5848C251.613 51.8021 251.799 51.9781 252.019 52.113C252.247 52.2478 252.511 52.3152 252.81 52.3152C253.094 52.3152 253.346 52.259 253.567 52.1467C253.795 52.0343 253.988 51.8807 254.145 51.6859C254.303 51.4911 254.425 51.2664 254.512 51.0117C254.598 50.757 254.642 50.4873 254.642 50.2026V49.7868C254.642 49.4422 254.59 49.1388 254.488 48.8766C254.393 48.6144 254.26 48.3971 254.086 48.2248C253.921 48.045 253.728 47.9102 253.507 47.8203C253.287 47.7304 253.055 47.6854 252.81 47.6854ZM252.669 46.6741C253.07 46.6741 253.444 46.7715 253.791 46.9662C254.145 47.1535 254.429 47.3895 254.642 47.6742V46.8426H256V52.5737C256 53.1056 255.913 53.5701 255.74 53.9671C255.575 54.3642 255.346 54.6938 255.055 54.956C254.771 55.2257 254.433 55.4242 254.039 55.5516C253.645 55.6864 253.224 55.7539 252.775 55.7539C252.342 55.7539 251.917 55.6977 251.499 55.5853C251.082 55.4729 250.688 55.3231 250.318 55.1358L250.802 54.1469C251.102 54.3042 251.42 54.4353 251.759 54.5402C252.106 54.6526 252.444 54.7088 252.775 54.7088C253.035 54.7088 253.279 54.6601 253.507 54.5627C253.736 54.4653 253.933 54.3267 254.098 54.1469C254.271 53.9746 254.405 53.7611 254.5 53.5064C254.594 53.2517 254.642 52.967 254.642 52.6523V52.3489C254.437 52.6411 254.169 52.8733 253.838 53.0457C253.507 53.2105 253.118 53.2929 252.669 53.2929C252.212 53.2929 251.798 53.218 251.428 53.0681C251.058 52.9183 250.743 52.7048 250.483 52.4276C250.223 52.1429 250.023 51.7983 249.881 51.3938C249.747 50.9892 249.68 50.5285 249.68 50.0116C249.68 49.4947 249.755 49.0302 249.904 48.6181C250.054 48.1986 250.263 47.8465 250.531 47.5618C250.798 47.2771 251.113 47.0599 251.476 46.9101C251.846 46.7527 252.243 46.6741 252.669 46.6741Z" fill="white"/>
</svg>