<svg width="185" height="9" viewBox="0 0 185 9" fill="none" xmlns="http://www.w3.org/2000/svg">
<path d="M182.337 2.39209C182.657 2.39209 182.948 2.47209 183.209 2.63209C183.476 2.79209 183.684 3.00009 183.833 3.25609V2.52009H184.433V6.64009C184.433 7.04009 184.372 7.37876 184.249 7.65609C184.127 7.93876 183.967 8.17076 183.769 8.35209C183.572 8.53342 183.348 8.66409 183.097 8.74409C182.852 8.82942 182.601 8.87209 182.345 8.87209C182.089 8.87209 181.82 8.83476 181.537 8.76009C181.26 8.68542 181.001 8.58676 180.761 8.46409C180.793 8.38942 180.828 8.31209 180.865 8.23209C180.903 8.15209 180.943 8.08009 180.985 8.01609C181.172 8.11742 181.385 8.20009 181.625 8.26409C181.871 8.33342 182.108 8.36809 182.337 8.36809C182.535 8.36809 182.724 8.33342 182.905 8.26409C183.087 8.20009 183.247 8.09609 183.385 7.95209C183.524 7.81342 183.633 7.63209 183.713 7.40809C183.799 7.18942 183.841 6.92809 183.841 6.62409V6.24809C183.665 6.49876 183.449 6.69342 183.193 6.83209C182.943 6.97076 182.657 7.04009 182.337 7.04009C182.039 7.04009 181.767 6.98942 181.521 6.88809C181.276 6.78676 181.063 6.64009 180.881 6.44809C180.7 6.25076 180.559 6.01076 180.457 5.72809C180.361 5.44009 180.313 5.11476 180.313 4.75209C180.313 4.38409 180.361 4.05342 180.457 3.76009C180.553 3.46676 180.689 3.21876 180.865 3.01609C181.041 2.81342 181.252 2.65876 181.497 2.55209C181.748 2.44542 182.028 2.39209 182.337 2.39209ZM182.369 2.84809C182.119 2.84809 181.903 2.90409 181.721 3.01609C181.54 3.12276 181.391 3.26409 181.273 3.44009C181.156 3.61609 181.068 3.81876 181.009 4.04809C180.956 4.27209 180.929 4.50142 180.929 4.73609C180.929 4.96542 180.956 5.19209 181.009 5.41609C181.068 5.63476 181.156 5.83209 181.273 6.00809C181.391 6.18409 181.54 6.32542 181.721 6.43209C181.903 6.53876 182.119 6.59209 182.369 6.59209C182.615 6.59209 182.831 6.54676 183.017 6.45609C183.204 6.36009 183.356 6.23209 183.473 6.07209C183.596 5.90676 183.687 5.71209 183.745 5.48809C183.809 5.25876 183.841 5.00809 183.841 4.73609C183.841 4.42676 183.804 4.15476 183.729 3.92009C183.655 3.68542 183.551 3.48809 183.417 3.32809C183.289 3.16809 183.135 3.04809 182.953 2.96809C182.777 2.88809 182.583 2.84809 182.369 2.84809Z" fill="#D4D4D4"/>
<path d="M175.771 3.28809C175.926 3.03742 176.128 2.82676 176.379 2.65609C176.63 2.48009 176.912 2.39209 177.227 2.39209C177.462 2.39209 177.683 2.42942 177.891 2.50409C178.104 2.57876 178.288 2.68809 178.443 2.83209C178.603 2.97609 178.728 3.15209 178.819 3.36009C178.91 3.56809 178.955 3.80542 178.955 4.07209V7.03209H178.355V4.15209C178.355 3.93876 178.323 3.74942 178.259 3.58409C178.195 3.41876 178.107 3.28276 177.995 3.17609C177.888 3.06942 177.763 2.98942 177.619 2.93609C177.48 2.87742 177.331 2.84809 177.171 2.84809C176.958 2.84809 176.763 2.89076 176.587 2.97609C176.416 3.05609 176.27 3.16809 176.147 3.31209C176.03 3.45076 175.936 3.61342 175.867 3.80009C175.803 3.98676 175.771 4.18142 175.771 4.38409V7.03209H175.171V2.52009H175.771V3.28809Z" fill="#D4D4D4"/>
<path d="M172.842 0.647949H173.554V1.44795H172.842V0.647949ZM172.898 2.51995H173.498V7.03195H172.898V2.51995Z" fill="#D4D4D4"/>
<path d="M170.1 3.3439C170.255 3.0399 170.455 2.8079 170.7 2.6479C170.951 2.48257 171.233 2.3999 171.548 2.3999C171.575 2.3999 171.604 2.3999 171.636 2.3999C171.673 2.3999 171.705 2.40257 171.732 2.4079V2.9439C171.705 2.93857 171.673 2.9359 171.636 2.9359C171.604 2.93057 171.575 2.9279 171.548 2.9279C171.345 2.9279 171.156 2.96524 170.98 3.0399C170.809 3.11457 170.657 3.2159 170.524 3.3439C170.391 3.46657 170.287 3.61324 170.212 3.7839C170.137 3.94924 170.1 4.12257 170.1 4.3039V7.0319H169.5V2.5199H170.1V3.3439Z" fill="#D4D4D4"/>
<path d="M167.567 4.36796C167.567 4.18663 167.535 4.00796 167.471 3.83196C167.407 3.65063 167.314 3.49063 167.191 3.35196C167.074 3.21329 166.927 3.10129 166.751 3.01596C166.581 2.93063 166.383 2.88796 166.159 2.88796C165.973 2.88796 165.799 2.93329 165.639 3.02396C165.479 3.10929 165.335 3.22129 165.207 3.35996C165.085 3.49863 164.983 3.65596 164.903 3.83196C164.829 4.00796 164.783 4.18663 164.767 4.36796H167.567ZM167.799 6.69596C167.586 6.82929 167.359 6.93329 167.119 7.00796C166.885 7.08263 166.634 7.11996 166.367 7.11996C166.053 7.11996 165.759 7.06663 165.487 6.95996C165.215 6.85329 164.975 6.70129 164.767 6.50396C164.565 6.30129 164.405 6.05863 164.287 5.77596C164.17 5.49329 164.111 5.17596 164.111 4.82396C164.111 4.47729 164.157 4.15729 164.247 3.86396C164.343 3.56529 164.479 3.30929 164.655 3.09596C164.831 2.87729 165.047 2.70929 165.303 2.59196C165.559 2.46929 165.853 2.40796 166.183 2.40796C166.498 2.40796 166.775 2.46929 167.015 2.59196C167.261 2.70929 167.466 2.86663 167.631 3.06396C167.797 3.26129 167.922 3.48796 168.007 3.74396C168.093 3.99463 168.135 4.25063 168.135 4.51196C168.135 4.56529 168.135 4.61863 168.135 4.67196C168.135 4.72529 168.13 4.77863 168.119 4.83196H164.743C164.749 5.16263 164.802 5.44529 164.903 5.67996C165.01 5.91463 165.141 6.10663 165.295 6.25596C165.455 6.39996 165.631 6.50663 165.823 6.57596C166.021 6.63996 166.215 6.67196 166.407 6.67196C166.626 6.67196 166.834 6.64263 167.031 6.58396C167.229 6.51996 167.413 6.43196 167.583 6.31996L167.799 6.69596Z" fill="#D4D4D4"/>
<path d="M162.443 4.36796C162.443 4.18663 162.411 4.00796 162.347 3.83196C162.283 3.65063 162.189 3.49063 162.067 3.35196C161.949 3.21329 161.803 3.10129 161.627 3.01596C161.456 2.93063 161.259 2.88796 161.035 2.88796C160.848 2.88796 160.675 2.93329 160.515 3.02396C160.355 3.10929 160.211 3.22129 160.083 3.35996C159.96 3.49863 159.859 3.65596 159.779 3.83196C159.704 4.00796 159.659 4.18663 159.643 4.36796H162.443ZM162.675 6.69596C162.461 6.82929 162.235 6.93329 161.995 7.00796C161.76 7.08263 161.509 7.11996 161.243 7.11996C160.928 7.11996 160.635 7.06663 160.363 6.95996C160.091 6.85329 159.851 6.70129 159.643 6.50396C159.44 6.30129 159.28 6.05863 159.163 5.77596C159.045 5.49329 158.987 5.17596 158.987 4.82396C158.987 4.47729 159.032 4.15729 159.123 3.86396C159.219 3.56529 159.355 3.30929 159.531 3.09596C159.707 2.87729 159.923 2.70929 160.179 2.59196C160.435 2.46929 160.728 2.40796 161.059 2.40796C161.373 2.40796 161.651 2.46929 161.891 2.59196C162.136 2.70929 162.341 2.86663 162.507 3.06396C162.672 3.26129 162.797 3.48796 162.883 3.74396C162.968 3.99463 163.011 4.25063 163.011 4.51196C163.011 4.56529 163.011 4.61863 163.011 4.67196C163.011 4.72529 163.005 4.77863 162.995 4.83196H159.619C159.624 5.16263 159.677 5.44529 159.779 5.67996C159.885 5.91463 160.016 6.10663 160.171 6.25596C160.331 6.39996 160.507 6.50663 160.699 6.57596C160.896 6.63996 161.091 6.67196 161.283 6.67196C161.501 6.67196 161.709 6.64263 161.907 6.58396C162.104 6.51996 162.288 6.43196 162.459 6.31996L162.675 6.69596Z" fill="#D4D4D4"/>
<path d="M154.46 3.28809C154.615 3.03742 154.817 2.82676 155.068 2.65609C155.319 2.48009 155.601 2.39209 155.916 2.39209C156.151 2.39209 156.372 2.42942 156.58 2.50409C156.793 2.57876 156.977 2.68809 157.132 2.83209C157.292 2.97609 157.417 3.15209 157.508 3.36009C157.599 3.56809 157.644 3.80542 157.644 4.07209V7.03209H157.044V4.15209C157.044 3.93876 157.012 3.74942 156.948 3.58409C156.884 3.41876 156.796 3.28276 156.684 3.17609C156.577 3.06942 156.452 2.98942 156.308 2.93609C156.169 2.87742 156.02 2.84809 155.86 2.84809C155.647 2.84809 155.452 2.89076 155.276 2.97609C155.105 3.05609 154.959 3.16809 154.836 3.31209C154.719 3.45076 154.625 3.61342 154.556 3.80009C154.492 3.98676 154.46 4.18142 154.46 4.38409V7.03209H153.86V2.52009H154.46V3.28809Z" fill="#D4D4D4"/>
<path d="M151.531 0.647949H152.243V1.44795H151.531V0.647949ZM151.587 2.51995H152.187V7.03195H151.587V2.51995Z" fill="#D4D4D4"/>
<path d="M147.809 2.39209C148.129 2.39209 148.419 2.47209 148.681 2.63209C148.947 2.79209 149.155 3.00009 149.305 3.25609V2.52009H149.905V6.64009C149.905 7.04009 149.843 7.37876 149.721 7.65609C149.598 7.93876 149.438 8.17076 149.241 8.35209C149.043 8.53342 148.819 8.66409 148.569 8.74409C148.323 8.82942 148.073 8.87209 147.817 8.87209C147.561 8.87209 147.291 8.83476 147.009 8.76009C146.731 8.68542 146.473 8.58676 146.233 8.46409C146.265 8.38942 146.299 8.31209 146.337 8.23209C146.374 8.15209 146.414 8.08009 146.457 8.01609C146.643 8.11742 146.857 8.20009 147.097 8.26409C147.342 8.33342 147.579 8.36809 147.809 8.36809C148.006 8.36809 148.195 8.33342 148.377 8.26409C148.558 8.20009 148.718 8.09609 148.857 7.95209C148.995 7.81342 149.105 7.63209 149.185 7.40809C149.27 7.18942 149.313 6.92809 149.313 6.62409V6.24809C149.137 6.49876 148.921 6.69342 148.665 6.83209C148.414 6.97076 148.129 7.04009 147.809 7.04009C147.51 7.04009 147.238 6.98942 146.993 6.88809C146.747 6.78676 146.534 6.64009 146.353 6.44809C146.171 6.25076 146.03 6.01076 145.929 5.72809C145.833 5.44009 145.785 5.11476 145.785 4.75209C145.785 4.38409 145.833 4.05342 145.929 3.76009C146.025 3.46676 146.161 3.21876 146.337 3.01609C146.513 2.81342 146.723 2.65876 146.969 2.55209C147.219 2.44542 147.499 2.39209 147.809 2.39209ZM147.841 2.84809C147.59 2.84809 147.374 2.90409 147.193 3.01609C147.011 3.12276 146.862 3.26409 146.745 3.44009C146.627 3.61609 146.539 3.81876 146.481 4.04809C146.427 4.27209 146.401 4.50142 146.401 4.73609C146.401 4.96542 146.427 5.19209 146.481 5.41609C146.539 5.63476 146.627 5.83209 146.745 6.00809C146.862 6.18409 147.011 6.32542 147.193 6.43209C147.374 6.53876 147.59 6.59209 147.841 6.59209C148.086 6.59209 148.302 6.54676 148.489 6.45609C148.675 6.36009 148.827 6.23209 148.945 6.07209C149.067 5.90676 149.158 5.71209 149.217 5.48809C149.281 5.25876 149.313 5.00809 149.313 4.73609C149.313 4.42676 149.275 4.15476 149.201 3.92009C149.126 3.68542 149.022 3.48809 148.889 3.32809C148.761 3.16809 148.606 3.04809 148.425 2.96809C148.249 2.88809 148.054 2.84809 147.841 2.84809Z" fill="#D4D4D4"/>
<path d="M141.242 3.28809C141.397 3.03742 141.599 2.82676 141.85 2.65609C142.101 2.48009 142.383 2.39209 142.698 2.39209C142.933 2.39209 143.154 2.42942 143.362 2.50409C143.575 2.57876 143.759 2.68809 143.914 2.83209C144.074 2.97609 144.199 3.15209 144.29 3.36009C144.381 3.56809 144.426 3.80542 144.426 4.07209V7.03209H143.826V4.15209C143.826 3.93876 143.794 3.74942 143.73 3.58409C143.666 3.41876 143.578 3.28276 143.466 3.17609C143.359 3.06942 143.234 2.98942 143.09 2.93609C142.951 2.87742 142.802 2.84809 142.642 2.84809C142.429 2.84809 142.234 2.89076 142.058 2.97609C141.887 3.05609 141.741 3.16809 141.618 3.31209C141.501 3.45076 141.407 3.61342 141.338 3.80009C141.274 3.98676 141.242 4.18142 141.242 4.38409V7.03209H140.642V2.52009H141.242V3.28809Z" fill="#D4D4D4"/>
<path d="M139.246 7.03197H135.262V0.823975H139.15V1.28797H135.862V3.57597H138.99V4.02397H135.862V6.56797H139.246V7.03197Z" fill="#D4D4D4"/>
<path d="M128.787 2.39195C128.92 2.39195 129.056 2.41328 129.195 2.45595C129.339 2.49328 129.475 2.54928 129.603 2.62395C129.736 2.69328 129.859 2.78128 129.971 2.88795C130.088 2.98928 130.187 3.10662 130.267 3.23995V0.647949H130.867V7.03195H130.275V6.30395C130.093 6.54395 129.877 6.74128 129.627 6.89595C129.376 7.04528 129.088 7.11995 128.763 7.11995C128.464 7.11995 128.192 7.06662 127.947 6.95995C127.701 6.85328 127.488 6.70128 127.307 6.50395C127.131 6.30128 126.992 6.05595 126.891 5.76795C126.795 5.47462 126.747 5.14395 126.747 4.77595C126.747 4.41862 126.792 4.09328 126.883 3.79995C126.979 3.50662 127.115 3.25595 127.291 3.04795C127.467 2.83995 127.68 2.67995 127.931 2.56795C128.181 2.45062 128.467 2.39195 128.787 2.39195ZM128.803 2.84795C128.552 2.84795 128.336 2.90395 128.155 3.01595C127.973 3.12795 127.824 3.27728 127.707 3.46395C127.589 3.64528 127.501 3.85062 127.443 4.07995C127.389 4.30928 127.363 4.54128 127.363 4.77595C127.363 5.00528 127.389 5.23462 127.443 5.46395C127.501 5.68795 127.589 5.89062 127.707 6.07195C127.824 6.25328 127.973 6.40262 128.155 6.51995C128.336 6.63195 128.552 6.68795 128.803 6.68795C129.048 6.68795 129.264 6.63995 129.451 6.54395C129.637 6.44262 129.789 6.30662 129.907 6.13595C130.029 5.96528 130.12 5.76528 130.179 5.53595C130.243 5.30128 130.275 5.04795 130.275 4.77595V4.71195C130.275 4.40795 130.237 4.14128 130.163 3.91195C130.088 3.67728 129.984 3.48262 129.851 3.32795C129.723 3.16795 129.568 3.04795 129.387 2.96795C129.211 2.88795 129.016 2.84795 128.803 2.84795Z" fill="#D4D4D4"/>
<path d="M122.204 3.28809C122.359 3.03742 122.562 2.82676 122.812 2.65609C123.063 2.48009 123.346 2.39209 123.66 2.39209C123.895 2.39209 124.116 2.42942 124.324 2.50409C124.538 2.57876 124.722 2.68809 124.876 2.83209C125.036 2.97609 125.162 3.15209 125.252 3.36009C125.343 3.56809 125.388 3.80542 125.388 4.07209V7.03209H124.788V4.15209C124.788 3.93876 124.756 3.74942 124.692 3.58409C124.628 3.41876 124.54 3.28276 124.428 3.17609C124.322 3.06942 124.196 2.98942 124.052 2.93609C123.914 2.87742 123.764 2.84809 123.604 2.84809C123.391 2.84809 123.196 2.89076 123.02 2.97609C122.85 3.05609 122.703 3.16809 122.58 3.31209C122.463 3.45076 122.37 3.61342 122.3 3.80009C122.236 3.98676 122.204 4.18142 122.204 4.38409V7.03209H121.604V2.52009H122.204V3.28809Z" fill="#D4D4D4"/>
<path d="M119.427 4.56803C119.299 4.55737 119.176 4.54937 119.059 4.54403C118.947 4.5387 118.829 4.53603 118.707 4.53603C118.125 4.53603 117.688 4.62403 117.395 4.80003C117.107 4.9707 116.963 5.24537 116.963 5.62403C116.963 5.78937 116.995 5.93337 117.059 6.05603C117.123 6.1787 117.205 6.2827 117.307 6.36803C117.408 6.44803 117.523 6.50937 117.651 6.55203C117.779 6.58937 117.909 6.60803 118.043 6.60803C118.245 6.60803 118.429 6.5787 118.595 6.52003C118.765 6.45603 118.912 6.37337 119.035 6.27203C119.157 6.16537 119.253 6.04003 119.323 5.89603C119.392 5.75203 119.427 5.59737 119.427 5.43203V4.56803ZM116.923 2.79203C117.136 2.65337 117.376 2.55203 117.643 2.48803C117.915 2.4187 118.163 2.38403 118.387 2.38403C118.781 2.38403 119.101 2.46937 119.347 2.64003C119.597 2.8107 119.779 3.0187 119.891 3.26403C119.933 3.3707 119.965 3.49337 119.987 3.63203C120.013 3.76537 120.027 3.90137 120.027 4.04003V6.14403C120.027 6.2827 120.029 6.42937 120.035 6.58403C120.045 6.7387 120.069 6.88803 120.107 7.03203H119.515C119.493 6.9787 119.475 6.9227 119.459 6.86403C119.448 6.80003 119.437 6.74137 119.427 6.68803C119.411 6.62937 119.4 6.56803 119.395 6.50403C119.256 6.6907 119.056 6.84003 118.795 6.95203C118.539 7.0587 118.248 7.11203 117.923 7.11203C117.731 7.11203 117.541 7.08003 117.355 7.01603C117.168 6.95203 117 6.8587 116.851 6.73603C116.707 6.60803 116.589 6.45603 116.499 6.28003C116.408 6.0987 116.363 5.89603 116.363 5.67203C116.363 5.3947 116.413 5.15737 116.515 4.96003C116.621 4.75737 116.771 4.59203 116.963 4.46403C117.155 4.33603 117.389 4.2427 117.667 4.18403C117.944 4.12003 118.259 4.08803 118.611 4.08803C118.749 4.08803 118.885 4.09337 119.019 4.10403C119.152 4.10937 119.288 4.11737 119.427 4.12803L119.435 3.97603C119.435 3.8107 119.413 3.66137 119.371 3.52803C119.328 3.38937 119.261 3.27203 119.171 3.17603C119.08 3.0747 118.965 2.99737 118.827 2.94403C118.693 2.88537 118.531 2.85603 118.339 2.85603C118.157 2.85603 117.957 2.88537 117.739 2.94403C117.52 3.0027 117.325 3.08537 117.155 3.19203L116.923 2.79203Z" fill="#D4D4D4"/>
<path d="M112.126 4.36796C112.126 4.18663 112.094 4.00796 112.03 3.83196C111.966 3.65063 111.872 3.49063 111.75 3.35196C111.632 3.21329 111.486 3.10129 111.31 3.01596C111.139 2.93063 110.942 2.88796 110.718 2.88796C110.531 2.88796 110.358 2.93329 110.198 3.02396C110.038 3.10929 109.894 3.22129 109.766 3.35996C109.643 3.49863 109.542 3.65596 109.462 3.83196C109.387 4.00796 109.342 4.18663 109.326 4.36796H112.126ZM112.358 6.69596C112.144 6.82929 111.918 6.93329 111.678 7.00796C111.443 7.08263 111.192 7.11996 110.926 7.11996C110.611 7.11996 110.318 7.06663 110.046 6.95996C109.774 6.85329 109.534 6.70129 109.326 6.50396C109.123 6.30129 108.963 6.05863 108.846 5.77596C108.728 5.49329 108.67 5.17596 108.67 4.82396C108.67 4.47729 108.715 4.15729 108.806 3.86396C108.902 3.56529 109.038 3.30929 109.214 3.09596C109.39 2.87729 109.606 2.70929 109.862 2.59196C110.118 2.46929 110.411 2.40796 110.742 2.40796C111.056 2.40796 111.334 2.46929 111.574 2.59196C111.819 2.70929 112.024 2.86663 112.19 3.06396C112.355 3.26129 112.48 3.48796 112.566 3.74396C112.651 3.99463 112.694 4.25063 112.694 4.51196C112.694 4.56529 112.694 4.61863 112.694 4.67196C112.694 4.72529 112.688 4.77863 112.678 4.83196H109.302C109.307 5.16263 109.36 5.44529 109.462 5.67996C109.568 5.91463 109.699 6.10663 109.854 6.25596C110.014 6.39996 110.19 6.50663 110.382 6.57596C110.579 6.63996 110.774 6.67196 110.966 6.67196C111.184 6.67196 111.392 6.64263 111.59 6.58396C111.787 6.51996 111.971 6.43196 112.142 6.31996L112.358 6.69596Z" fill="#D4D4D4"/>
<path d="M107.688 6.5919C107.486 6.75724 107.248 6.88524 106.976 6.9759C106.71 7.06657 106.448 7.1119 106.192 7.1119C105.856 7.1119 105.547 7.05324 105.264 6.9359C104.987 6.81857 104.747 6.6559 104.544 6.4479C104.342 6.2399 104.184 5.99457 104.072 5.7119C103.96 5.4239 103.904 5.1119 103.904 4.7759C103.904 4.41857 103.96 4.09324 104.072 3.7999C104.19 3.50657 104.35 3.2559 104.552 3.0479C104.76 2.8399 105.003 2.6799 105.28 2.5679C105.563 2.4559 105.872 2.3999 106.208 2.3999C106.454 2.3999 106.694 2.43457 106.928 2.5039C107.168 2.5679 107.39 2.6479 107.592 2.7439L107.368 3.1759C107.214 3.10124 107.032 3.03457 106.824 2.9759C106.616 2.9119 106.411 2.8799 106.208 2.8799C105.958 2.8799 105.731 2.92524 105.528 3.0159C105.326 3.10657 105.15 3.23724 105 3.4079C104.851 3.57324 104.736 3.77324 104.656 4.0079C104.576 4.23724 104.536 4.4959 104.536 4.7839C104.536 5.09857 104.587 5.37324 104.688 5.6079C104.79 5.84257 104.92 6.03724 105.08 6.1919C105.246 6.34657 105.427 6.4639 105.624 6.5439C105.827 6.61857 106.027 6.6559 106.224 6.6559C106.427 6.6559 106.632 6.61857 106.84 6.5439C107.054 6.46924 107.246 6.37057 107.416 6.2479L107.688 6.5919Z" fill="#D4D4D4"/>
<path d="M99.3776 3.28809C99.5323 3.03742 99.7349 2.82676 99.9856 2.65609C100.236 2.48009 100.519 2.39209 100.834 2.39209C101.068 2.39209 101.29 2.42942 101.498 2.50409C101.711 2.57876 101.895 2.68809 102.05 2.83209C102.21 2.97609 102.335 3.15209 102.426 3.36009C102.516 3.56809 102.562 3.80542 102.562 4.07209V7.03209H101.962V4.15209C101.962 3.93876 101.93 3.74942 101.866 3.58409C101.802 3.41876 101.714 3.28276 101.602 3.17609C101.495 3.06942 101.37 2.98942 101.226 2.93609C101.087 2.87742 100.938 2.84809 100.778 2.84809C100.564 2.84809 100.37 2.89076 100.194 2.97609C100.023 3.05609 99.8763 3.16809 99.7536 3.31209C99.6363 3.45076 99.5429 3.61342 99.4736 3.80009C99.4096 3.98676 99.3776 4.18142 99.3776 4.38409V7.03209H98.7776V2.52009H99.3776V3.28809Z" fill="#D4D4D4"/>
<path d="M96.861 4.36796C96.861 4.18663 96.829 4.00796 96.765 3.83196C96.701 3.65063 96.6077 3.49063 96.485 3.35196C96.3677 3.21329 96.221 3.10129 96.045 3.01596C95.8744 2.93063 95.677 2.88796 95.453 2.88796C95.2664 2.88796 95.093 2.93329 94.933 3.02396C94.773 3.10929 94.629 3.22129 94.501 3.35996C94.3784 3.49863 94.277 3.65596 94.197 3.83196C94.1224 4.00796 94.077 4.18663 94.061 4.36796H96.861ZM97.093 6.69596C96.8797 6.82929 96.653 6.93329 96.413 7.00796C96.1784 7.08263 95.9277 7.11996 95.661 7.11996C95.3464 7.11996 95.053 7.06663 94.781 6.95996C94.509 6.85329 94.269 6.70129 94.061 6.50396C93.8584 6.30129 93.6984 6.05863 93.581 5.77596C93.4637 5.49329 93.405 5.17596 93.405 4.82396C93.405 4.47729 93.4504 4.15729 93.541 3.86396C93.637 3.56529 93.773 3.30929 93.949 3.09596C94.125 2.87729 94.341 2.70929 94.597 2.59196C94.853 2.46929 95.1464 2.40796 95.477 2.40796C95.7917 2.40796 96.069 2.46929 96.309 2.59196C96.5544 2.70929 96.7597 2.86663 96.925 3.06396C97.0904 3.26129 97.2157 3.48796 97.301 3.74396C97.3864 3.99463 97.429 4.25063 97.429 4.51196C97.429 4.56529 97.429 4.61863 97.429 4.67196C97.429 4.72529 97.4237 4.77863 97.413 4.83196H94.037C94.0424 5.16263 94.0957 5.44529 94.197 5.67996C94.3037 5.91463 94.4344 6.10663 94.589 6.25596C94.749 6.39996 94.925 6.50663 95.117 6.57596C95.3144 6.63996 95.509 6.67196 95.701 6.67196C95.9197 6.67196 96.1277 6.64263 96.325 6.58396C96.5224 6.51996 96.7064 6.43196 96.877 6.31996L97.093 6.69596Z" fill="#D4D4D4"/>
<path d="M91.3242 0.647949H92.0362V1.44795H91.3242V0.647949ZM91.3802 2.51995H91.9802V7.03195H91.3802V2.51995Z" fill="#D4D4D4"/>
<path d="M90.1348 6.5919C89.9322 6.75724 89.6948 6.88524 89.4228 6.9759C89.1562 7.06657 88.8948 7.1119 88.6388 7.1119C88.3028 7.1119 87.9935 7.05324 87.7108 6.9359C87.4335 6.81857 87.1935 6.6559 86.9908 6.4479C86.7882 6.2399 86.6308 5.99457 86.5188 5.7119C86.4068 5.4239 86.3508 5.1119 86.3508 4.7759C86.3508 4.41857 86.4068 4.09324 86.5188 3.7999C86.6362 3.50657 86.7962 3.2559 86.9988 3.0479C87.2068 2.8399 87.4495 2.6799 87.7268 2.5679C88.0095 2.4559 88.3188 2.3999 88.6548 2.3999C88.9002 2.3999 89.1402 2.43457 89.3748 2.5039C89.6148 2.5679 89.8362 2.6479 90.0388 2.7439L89.8148 3.1759C89.6602 3.10124 89.4788 3.03457 89.2708 2.9759C89.0628 2.9119 88.8575 2.8799 88.6548 2.8799C88.4042 2.8799 88.1775 2.92524 87.9748 3.0159C87.7722 3.10657 87.5962 3.23724 87.4468 3.4079C87.2975 3.57324 87.1828 3.77324 87.1028 4.0079C87.0228 4.23724 86.9828 4.4959 86.9828 4.7839C86.9828 5.09857 87.0335 5.37324 87.1348 5.6079C87.2362 5.84257 87.3668 6.03724 87.5268 6.1919C87.6922 6.34657 87.8735 6.4639 88.0708 6.5439C88.2735 6.61857 88.4735 6.6559 88.6708 6.6559C88.8735 6.6559 89.0788 6.61857 89.2868 6.5439C89.5002 6.46924 89.6922 6.37057 89.8628 6.2479L90.1348 6.5919Z" fill="#D4D4D4"/>
<path d="M84.6574 1.68803C84.4014 1.54403 84.1614 1.43469 83.9374 1.36003C83.7134 1.28003 83.4707 1.24003 83.2094 1.24003C82.8094 1.24003 82.4974 1.32536 82.2734 1.49603C82.0547 1.66669 81.9454 1.90403 81.9454 2.20803C81.9454 2.38403 81.9774 2.53603 82.0414 2.66403C82.1107 2.78669 82.2121 2.90136 82.3454 3.00803C82.4841 3.11469 82.6547 3.21603 82.8574 3.31203C83.0601 3.40803 83.2974 3.51469 83.5694 3.63203C83.8094 3.73336 84.0307 3.84269 84.2334 3.96003C84.4414 4.07736 84.6174 4.21069 84.7614 4.36003C84.9107 4.50403 85.0281 4.66403 85.1134 4.84003C85.1987 5.01603 85.2414 5.21603 85.2414 5.44003C85.2414 5.73869 85.1801 5.99469 85.0574 6.20803C84.9401 6.42136 84.7827 6.59736 84.5854 6.73603C84.3934 6.86936 84.1747 6.96803 83.9294 7.03203C83.6841 7.09603 83.4334 7.12803 83.1774 7.12803C82.8201 7.12803 82.4627 7.06669 82.1054 6.94403C81.7534 6.82136 81.4174 6.63469 81.0974 6.38403L81.3854 5.95203C81.6254 6.12269 81.8947 6.27469 82.1934 6.40803C82.4974 6.54136 82.8067 6.60803 83.1214 6.60803C83.2814 6.60803 83.4494 6.59203 83.6254 6.56003C83.8014 6.52803 83.9641 6.46936 84.1134 6.38403C84.2681 6.29336 84.3934 6.17336 84.4894 6.02403C84.5907 5.87469 84.6414 5.68269 84.6414 5.44803C84.6414 5.30403 84.6014 5.16803 84.5214 5.04003C84.4467 4.91203 84.3401 4.79203 84.2014 4.68003C84.0681 4.56803 83.9054 4.46136 83.7134 4.36003C83.5267 4.25336 83.3241 4.15203 83.1054 4.05603C82.8814 3.96003 82.6627 3.85603 82.4494 3.74403C82.2414 3.63203 82.0547 3.50669 81.8894 3.36803C81.7241 3.22936 81.5907 3.06936 81.4894 2.88803C81.3934 2.70669 81.3454 2.49603 81.3454 2.25603C81.3454 1.96803 81.3987 1.72803 81.5054 1.53603C81.6174 1.33869 81.7614 1.18136 81.9374 1.06403C82.1134 0.941361 82.3107 0.856027 82.5294 0.808027C82.7534 0.754694 82.9774 0.728027 83.2014 0.728027C83.5214 0.728027 83.8201 0.776027 84.0974 0.872027C84.3747 0.968027 84.6467 1.08803 84.9134 1.23203L84.6574 1.68803Z" fill="#D4D4D4"/>
<path d="M76.0832 3.3439C76.2378 3.0399 76.4378 2.8079 76.6832 2.6479C76.9338 2.48257 77.2165 2.3999 77.5312 2.3999C77.5578 2.3999 77.5872 2.3999 77.6192 2.3999C77.6565 2.3999 77.6885 2.40257 77.7152 2.4079V2.9439C77.6885 2.93857 77.6565 2.9359 77.6192 2.9359C77.5872 2.93057 77.5578 2.9279 77.5312 2.9279C77.3285 2.9279 77.1392 2.96524 76.9632 3.0399C76.7925 3.11457 76.6405 3.2159 76.5072 3.3439C76.3738 3.46657 76.2698 3.61324 76.1952 3.7839C76.1205 3.94924 76.0832 4.12257 76.0832 4.3039V7.0319H75.4832V2.5199H76.0832V3.3439Z" fill="#D4D4D4"/>
<path d="M73.5505 4.36796C73.5505 4.18663 73.5185 4.00796 73.4545 3.83196C73.3905 3.65063 73.2972 3.49063 73.1745 3.35196C73.0572 3.21329 72.9105 3.10129 72.7345 3.01596C72.5638 2.93063 72.3665 2.88796 72.1425 2.88796C71.9558 2.88796 71.7825 2.93329 71.6225 3.02396C71.4625 3.10929 71.3185 3.22129 71.1905 3.35996C71.0678 3.49863 70.9665 3.65596 70.8865 3.83196C70.8118 4.00796 70.7665 4.18663 70.7505 4.36796H73.5505ZM73.7825 6.69596C73.5692 6.82929 73.3425 6.93329 73.1025 7.00796C72.8678 7.08263 72.6172 7.11996 72.3505 7.11996C72.0358 7.11996 71.7425 7.06663 71.4705 6.95996C71.1985 6.85329 70.9585 6.70129 70.7505 6.50396C70.5478 6.30129 70.3878 6.05863 70.2705 5.77596C70.1532 5.49329 70.0945 5.17596 70.0945 4.82396C70.0945 4.47729 70.1398 4.15729 70.2305 3.86396C70.3265 3.56529 70.4625 3.30929 70.6385 3.09596C70.8145 2.87729 71.0305 2.70929 71.2865 2.59196C71.5425 2.46929 71.8358 2.40796 72.1665 2.40796C72.4812 2.40796 72.7585 2.46929 72.9985 2.59196C73.2438 2.70929 73.4492 2.86663 73.6145 3.06396C73.7798 3.26129 73.9052 3.48796 73.9905 3.74396C74.0758 3.99463 74.1185 4.25063 74.1185 4.51196C74.1185 4.56529 74.1185 4.61863 74.1185 4.67196C74.1185 4.72529 74.1132 4.77863 74.1025 4.83196H70.7265C70.7318 5.16263 70.7851 5.44529 70.8865 5.67996C70.9931 5.91463 71.1238 6.10663 71.2785 6.25596C71.4385 6.39996 71.6145 6.50663 71.8065 6.57596C72.0038 6.63996 72.1985 6.67196 72.3905 6.67196C72.6092 6.67196 72.8172 6.64263 73.0145 6.58396C73.2118 6.51996 73.3958 6.43196 73.5665 6.31996L73.7825 6.69596Z" fill="#D4D4D4"/>
<path d="M67.4498 1.33604L68.0498 1.14404V2.52004H69.1378V3.00004H68.0498V5.94404C68.0498 6.08804 68.0764 6.20538 68.1298 6.29604C68.1884 6.38671 68.2631 6.45871 68.3538 6.51204C68.4498 6.56004 68.5591 6.59738 68.6818 6.62404C68.8044 6.64538 68.9298 6.65871 69.0578 6.66404V7.12804C68.8338 7.12271 68.6231 7.10138 68.4258 7.06404C68.2338 7.02671 68.0631 6.96538 67.9138 6.88004C67.7698 6.79471 67.6551 6.68004 67.5698 6.53604C67.4898 6.39204 67.4498 6.20804 67.4498 5.98404V3.00004H66.8018V2.52004H67.4498V1.33604Z" fill="#D4D4D4"/>
<path d="M64.9872 6.23202C64.8325 6.48269 64.6298 6.69335 64.3792 6.86402C64.1338 7.03469 63.8512 7.12002 63.5312 7.12002C63.2912 7.12002 63.0645 7.08535 62.8512 7.01602C62.6432 6.94135 62.4592 6.83202 62.2992 6.68802C62.1445 6.54402 62.0218 6.36802 61.9312 6.16002C61.8405 5.94669 61.7952 5.70402 61.7952 5.43202V2.52002H62.3952V5.36002C62.3952 5.57869 62.4272 5.77069 62.4912 5.93602C62.5552 6.10135 62.6405 6.24002 62.7472 6.35202C62.8538 6.46402 62.9792 6.54935 63.1232 6.60802C63.2672 6.66135 63.4192 6.68802 63.5792 6.68802C63.7925 6.68802 63.9845 6.64535 64.1552 6.56002C64.3312 6.47469 64.4805 6.36269 64.6032 6.22402C64.7258 6.08002 64.8192 5.91469 64.8832 5.72802C64.9525 5.53602 64.9872 5.33602 64.9872 5.12802V2.52002H65.5872V7.03202H64.9872V6.23202Z" fill="#D4D4D4"/>
<path d="M58.3528 2.84809C58.1394 2.84809 57.9421 2.88809 57.7608 2.96809C57.5848 3.04809 57.4301 3.16809 57.2968 3.32809C57.1688 3.48276 57.0674 3.67742 56.9928 3.91209C56.9181 4.14142 56.8808 4.40809 56.8808 4.71209V4.77609C56.8808 5.04809 56.9101 5.30142 56.9688 5.53609C57.0274 5.76542 57.1181 5.96542 57.2408 6.13609C57.3634 6.30676 57.5154 6.44276 57.6968 6.54409C57.8834 6.64009 58.1021 6.68809 58.3528 6.68809C58.6034 6.68809 58.8194 6.63209 59.0008 6.52009C59.1821 6.40276 59.3314 6.25342 59.4488 6.07209C59.5661 5.89076 59.6514 5.68809 59.7048 5.46409C59.7634 5.23476 59.7928 5.00542 59.7928 4.77609C59.7928 4.54142 59.7634 4.30942 59.7048 4.08009C59.6514 3.85076 59.5661 3.64542 59.4488 3.46409C59.3314 3.27742 59.1821 3.12809 59.0008 3.01609C58.8194 2.90409 58.6034 2.84809 58.3528 2.84809ZM58.3688 2.39209C58.6781 2.39209 58.9581 2.44809 59.2088 2.56009C59.4594 2.67209 59.6728 2.83209 59.8488 3.04009C60.0248 3.24276 60.1608 3.49342 60.2568 3.79209C60.3528 4.08542 60.4008 4.41609 60.4008 4.78409C60.4008 5.14676 60.3528 5.47476 60.2568 5.76809C60.1608 6.05609 60.0248 6.30142 59.8488 6.50409C59.6728 6.70142 59.4594 6.85342 59.2088 6.96009C58.9634 7.06676 58.6888 7.12009 58.3848 7.12009C58.0541 7.12009 57.7634 7.04276 57.5128 6.88809C57.2674 6.72809 57.0568 6.53342 56.8808 6.30409V8.96809H56.2808V2.52009H56.8808V3.28009C57.0408 3.00809 57.2488 2.79209 57.5048 2.63209C57.7661 2.47209 58.0541 2.39209 58.3688 2.39209Z" fill="#D4D4D4"/>
<path d="M49.1384 3.12809C49.3144 2.86676 49.5118 2.68009 49.7304 2.56809C49.9491 2.45076 50.1704 2.39209 50.3944 2.39209C50.6931 2.39209 50.9678 2.47476 51.2184 2.64009C51.4691 2.80009 51.6478 3.01876 51.7544 3.29609C51.9038 3.01342 52.1038 2.79209 52.3544 2.63209C52.6051 2.47209 52.8744 2.39209 53.1624 2.39209C53.3758 2.39209 53.5758 2.42676 53.7624 2.49609C53.9544 2.56009 54.1224 2.65609 54.2664 2.78409C54.4104 2.91209 54.5224 3.07476 54.6024 3.27209C54.6878 3.46409 54.7304 3.68809 54.7304 3.94409V7.03209H54.1544V3.90409C54.1544 3.55742 54.0504 3.29609 53.8424 3.12009C53.6344 2.94409 53.3784 2.85609 53.0744 2.85609C52.9358 2.85609 52.7971 2.88009 52.6584 2.92809C52.5251 2.97609 52.4051 3.05076 52.2984 3.15209C52.1918 3.25342 52.1038 3.38409 52.0344 3.54409C51.9704 3.69876 51.9384 3.88809 51.9384 4.11209V7.03209H51.3624V3.97609C51.3624 3.78942 51.3331 3.62676 51.2744 3.48809C51.2211 3.34409 51.1464 3.22676 51.0504 3.13609C50.9544 3.04009 50.8424 2.97076 50.7144 2.92809C50.5864 2.88009 50.4531 2.85609 50.3144 2.85609C50.1491 2.85609 49.9944 2.88542 49.8504 2.94409C49.7064 2.99742 49.5811 3.07742 49.4744 3.18409C49.3731 3.28542 49.2904 3.41342 49.2264 3.56809C49.1678 3.72276 49.1384 3.89876 49.1384 4.09609V7.03209H48.5544V2.52009H49.1384V3.12809Z" fill="#D4D4D4"/>
<path d="M42.8538 4.7599C42.8538 4.39724 42.9098 4.0719 43.0218 3.7839C43.1338 3.49057 43.2858 3.24257 43.4778 3.0399C43.6751 2.8319 43.9018 2.67457 44.1578 2.5679C44.4191 2.4559 44.6964 2.3999 44.9898 2.3999C45.2831 2.3999 45.5604 2.4559 45.8218 2.5679C46.0831 2.67457 46.3098 2.8319 46.5018 3.0399C46.6991 3.24257 46.8538 3.49057 46.9658 3.7839C47.0778 4.0719 47.1338 4.39724 47.1338 4.7599C47.1338 5.12257 47.0778 5.45057 46.9658 5.7439C46.8591 6.03724 46.7098 6.2879 46.5178 6.4959C46.3258 6.69857 46.0991 6.8559 45.8378 6.9679C45.5764 7.07457 45.2938 7.1279 44.9898 7.1279C44.6964 7.1279 44.4191 7.07457 44.1578 6.9679C43.9018 6.8559 43.6751 6.69857 43.4778 6.4959C43.2858 6.2879 43.1338 6.03724 43.0218 5.7439C42.9098 5.45057 42.8538 5.12257 42.8538 4.7599ZM43.4698 4.7599C43.4698 5.06924 43.5098 5.3439 43.5898 5.5839C43.6698 5.8239 43.7791 6.02657 43.9178 6.1919C44.0564 6.3519 44.2164 6.47457 44.3978 6.5599C44.5844 6.64524 44.7818 6.6879 44.9898 6.6879C45.1978 6.6879 45.3951 6.64524 45.5818 6.5599C45.7684 6.47457 45.9311 6.3519 46.0698 6.1919C46.2138 6.02657 46.3258 5.8239 46.4058 5.5839C46.4858 5.3439 46.5258 5.06924 46.5258 4.7599C46.5258 4.4559 46.4858 4.18657 46.4058 3.9519C46.3258 3.71724 46.2138 3.5199 46.0698 3.3599C45.9311 3.19457 45.7684 3.0719 45.5818 2.9919C45.3951 2.90657 45.1978 2.8639 44.9898 2.8639C44.7818 2.8639 44.5844 2.90657 44.3978 2.9919C44.2164 3.0719 44.0564 3.19457 43.9178 3.3599C43.7791 3.5199 43.6698 3.71724 43.5898 3.9519C43.5098 4.18657 43.4698 4.4559 43.4698 4.7599Z" fill="#D4D4D4"/>
<path d="M42.0571 6.51995C41.8171 6.69062 41.5291 6.83462 41.1931 6.95195C40.8624 7.06395 40.5024 7.11995 40.1131 7.11995C39.6651 7.11995 39.2571 7.03729 38.8891 6.87195C38.5211 6.70662 38.2064 6.47995 37.9451 6.19195C37.6838 5.90395 37.4811 5.56795 37.3371 5.18395C37.1931 4.79462 37.1211 4.37595 37.1211 3.92795C37.1211 3.45329 37.1931 3.02129 37.3371 2.63195C37.4864 2.24262 37.6918 1.90929 37.9531 1.63195C38.2198 1.34929 38.5318 1.13062 38.8891 0.975953C39.2518 0.821286 39.6464 0.741286 40.0731 0.735952C40.2544 0.730619 40.4358 0.741286 40.6171 0.767953C40.7984 0.789286 40.9718 0.821286 41.1371 0.863953C41.3024 0.906619 41.4571 0.957286 41.6011 1.01595C41.7451 1.07462 41.8731 1.13595 41.9851 1.19995L41.7291 1.59995C41.5531 1.49329 41.3158 1.40262 41.0171 1.32795C40.7238 1.25329 40.4064 1.21595 40.0651 1.21595C39.6918 1.21595 39.3584 1.28795 39.0651 1.43195C38.7771 1.57595 38.5344 1.77329 38.3371 2.02395C38.1398 2.26929 37.9904 2.55729 37.8891 2.88795C37.7878 3.21329 37.7371 3.55995 37.7371 3.92795C37.7371 4.29595 37.7904 4.64529 37.8971 4.97595C38.0091 5.30129 38.1664 5.58929 38.3691 5.83995C38.5771 6.09062 38.8278 6.29062 39.1211 6.43995C39.4144 6.58395 39.7451 6.65595 40.1131 6.65595C40.4651 6.65595 40.7904 6.60262 41.0891 6.49595C41.3878 6.38929 41.6198 6.26662 41.7851 6.12795L42.0571 6.51995Z" fill="#D4D4D4"/>
<path d="M31.694 2.51998V1.97598C31.694 1.84265 31.6993 1.71465 31.71 1.59198C31.726 1.46398 31.75 1.35465 31.782 1.26398C31.8673 0.997314 32.0166 0.799981 32.23 0.671981C32.4433 0.543981 32.67 0.47998 32.91 0.47998C33.038 0.47998 33.1686 0.495981 33.302 0.527981C33.4353 0.554647 33.5713 0.589314 33.71 0.631981L33.55 1.07198C33.4593 1.04531 33.366 1.02398 33.27 1.00798C33.174 0.986647 33.0833 0.975981 32.998 0.975981C32.8486 0.975981 32.7206 1.00798 32.614 1.07198C32.5073 1.13598 32.4246 1.23731 32.366 1.37598C32.3073 1.49331 32.278 1.68531 32.278 1.95198V2.51998H33.254V2.99998H32.278V7.03198H31.694V2.99998H31.054V2.51998H31.694Z" fill="#D4D4D4"/>
<path d="M25.7612 4.7599C25.7612 4.39724 25.8172 4.0719 25.9292 3.7839C26.0412 3.49057 26.1932 3.24257 26.3852 3.0399C26.5826 2.8319 26.8092 2.67457 27.0652 2.5679C27.3266 2.4559 27.6039 2.3999 27.8972 2.3999C28.1906 2.3999 28.4679 2.4559 28.7292 2.5679C28.9906 2.67457 29.2172 2.8319 29.4092 3.0399C29.6066 3.24257 29.7612 3.49057 29.8732 3.7839C29.9852 4.0719 30.0412 4.39724 30.0412 4.7599C30.0412 5.12257 29.9852 5.45057 29.8732 5.7439C29.7666 6.03724 29.6172 6.2879 29.4252 6.4959C29.2332 6.69857 29.0066 6.8559 28.7452 6.9679C28.4839 7.07457 28.2012 7.1279 27.8972 7.1279C27.6039 7.1279 27.3266 7.07457 27.0652 6.9679C26.8092 6.8559 26.5826 6.69857 26.3852 6.4959C26.1932 6.2879 26.0412 6.03724 25.9292 5.7439C25.8172 5.45057 25.7612 5.12257 25.7612 4.7599ZM26.3772 4.7599C26.3772 5.06924 26.4172 5.3439 26.4972 5.5839C26.5772 5.8239 26.6866 6.02657 26.8252 6.1919C26.9639 6.3519 27.1239 6.47457 27.3052 6.5599C27.4919 6.64524 27.6892 6.6879 27.8972 6.6879C28.1052 6.6879 28.3026 6.64524 28.4892 6.5599C28.6759 6.47457 28.8386 6.3519 28.9772 6.1919C29.1212 6.02657 29.2332 5.8239 29.3132 5.5839C29.3932 5.3439 29.4332 5.06924 29.4332 4.7599C29.4332 4.4559 29.3932 4.18657 29.3132 3.9519C29.2332 3.71724 29.1212 3.5199 28.9772 3.3599C28.8386 3.19457 28.6759 3.0719 28.4892 2.9919C28.3026 2.90657 28.1052 2.8639 27.8972 2.8639C27.6892 2.8639 27.4919 2.90657 27.3052 2.9919C27.1239 3.0719 26.9639 3.19457 26.8252 3.3599C26.6866 3.5199 26.5772 3.71724 26.4972 3.9519C26.4172 4.18657 26.3772 4.4559 26.3772 4.7599Z" fill="#D4D4D4"/>
<path d="M20.8691 6.7041H21.7411V7.5281H20.8691V6.7041Z" fill="#D4D4D4"/>
<path d="M17.8987 1.33604L18.4987 1.14404V2.52004H19.5867V3.00004H18.4987V5.94404C18.4987 6.08804 18.5254 6.20538 18.5787 6.29604C18.6374 6.38671 18.7121 6.45871 18.8027 6.51204C18.8987 6.56004 19.0081 6.59738 19.1307 6.62404C19.2534 6.64538 19.3787 6.65871 19.5067 6.66404V7.12804C19.2827 7.12271 19.0721 7.10138 18.8747 7.06404C18.6827 7.02671 18.5121 6.96538 18.3627 6.88004C18.2187 6.79471 18.1041 6.68004 18.0187 6.53604C17.9387 6.39204 17.8987 6.20804 17.8987 5.98404V3.00004H17.2507V2.52004H17.8987V1.33604Z" fill="#D4D4D4"/>
<path d="M14.1762 2.84809C13.9629 2.84809 13.7656 2.88809 13.5842 2.96809C13.4082 3.04809 13.2536 3.16809 13.1202 3.32809C12.9922 3.48276 12.8909 3.67742 12.8162 3.91209C12.7416 4.14142 12.7042 4.40809 12.7042 4.71209V4.77609C12.7042 5.04809 12.7336 5.30142 12.7922 5.53609C12.8509 5.76542 12.9416 5.96542 13.0642 6.13609C13.1869 6.30676 13.3389 6.44276 13.5202 6.54409C13.7069 6.64009 13.9256 6.68809 14.1762 6.68809C14.4269 6.68809 14.6429 6.63209 14.8242 6.52009C15.0056 6.40276 15.1549 6.25342 15.2722 6.07209C15.3896 5.89076 15.4749 5.68809 15.5282 5.46409C15.5869 5.23476 15.6162 5.00542 15.6162 4.77609C15.6162 4.54142 15.5869 4.30942 15.5282 4.08009C15.4749 3.85076 15.3896 3.64542 15.2722 3.46409C15.1549 3.27742 15.0056 3.12809 14.8242 3.01609C14.6429 2.90409 14.4269 2.84809 14.1762 2.84809ZM14.1922 2.39209C14.5016 2.39209 14.7816 2.44809 15.0322 2.56009C15.2829 2.67209 15.4962 2.83209 15.6722 3.04009C15.8482 3.24276 15.9842 3.49342 16.0802 3.79209C16.1762 4.08542 16.2242 4.41609 16.2242 4.78409C16.2242 5.14676 16.1762 5.47476 16.0802 5.76809C15.9842 6.05609 15.8482 6.30142 15.6722 6.50409C15.4962 6.70142 15.2829 6.85342 15.0322 6.96009C14.7869 7.06676 14.5122 7.12009 14.2082 7.12009C13.8776 7.12009 13.5869 7.04276 13.3362 6.88809C13.0909 6.72809 12.8802 6.53342 12.7042 6.30409V8.96809H12.1042V2.52009H12.7042V3.28009C12.8642 3.00809 13.0722 2.79209 13.3282 2.63209C13.5896 2.47209 13.8776 2.39209 14.1922 2.39209Z" fill="#D4D4D4"/>
<path d="M10.1874 4.36796C10.1874 4.18663 10.1554 4.00796 10.0914 3.83196C10.0274 3.65063 9.93411 3.49063 9.81145 3.35196C9.69411 3.21329 9.54745 3.10129 9.37145 3.01596C9.20078 2.93063 9.00345 2.88796 8.77945 2.88796C8.59278 2.88796 8.41945 2.93329 8.25945 3.02396C8.09945 3.10929 7.95545 3.22129 7.82745 3.35996C7.70478 3.49863 7.60345 3.65596 7.52345 3.83196C7.44878 4.00796 7.40345 4.18663 7.38745 4.36796H10.1874ZM10.4194 6.69596C10.2061 6.82929 9.97945 6.93329 9.73945 7.00796C9.50478 7.08263 9.25411 7.11996 8.98745 7.11996C8.67278 7.11996 8.37945 7.06663 8.10745 6.95996C7.83545 6.85329 7.59545 6.70129 7.38745 6.50396C7.18478 6.30129 7.02478 6.05863 6.90745 5.77596C6.79011 5.49329 6.73145 5.17596 6.73145 4.82396C6.73145 4.47729 6.77678 4.15729 6.86745 3.86396C6.96345 3.56529 7.09945 3.30929 7.27545 3.09596C7.45145 2.87729 7.66745 2.70929 7.92345 2.59196C8.17945 2.46929 8.47278 2.40796 8.80345 2.40796C9.11811 2.40796 9.39545 2.46929 9.63545 2.59196C9.88078 2.70929 10.0861 2.86663 10.2514 3.06396C10.4168 3.26129 10.5421 3.48796 10.6274 3.74396C10.7128 3.99463 10.7554 4.25063 10.7554 4.51196C10.7554 4.56529 10.7554 4.61863 10.7554 4.67196C10.7554 4.72529 10.7501 4.77863 10.7394 4.83196H7.36345C7.36878 5.16263 7.42211 5.44529 7.52345 5.67996C7.63011 5.91463 7.76078 6.10663 7.91545 6.25596C8.07545 6.39996 8.25145 6.50663 8.44345 6.57596C8.64078 6.63996 8.83545 6.67196 9.02745 6.67196C9.24611 6.67196 9.45411 6.64263 9.65145 6.58396C9.84878 6.51996 10.0328 6.43196 10.2034 6.31996L10.4194 6.69596Z" fill="#D4D4D4"/>
<path d="M2.63593 6.56797C3.00927 6.56797 3.33993 6.49864 3.62793 6.35997C3.91593 6.21597 4.1586 6.02397 4.35593 5.78397C4.55327 5.54397 4.69993 5.26397 4.79593 4.94397C4.89727 4.62397 4.94793 4.28531 4.94793 3.92797C4.94793 3.52264 4.8946 3.15731 4.78793 2.83197C4.68127 2.50131 4.5266 2.22397 4.32393 1.99997C4.1266 1.77064 3.88393 1.59464 3.59593 1.47197C3.31327 1.34931 2.99327 1.28797 2.63593 1.28797H1.31593V6.56797H2.63593ZM2.69193 0.823975C3.13993 0.823975 3.53993 0.901308 3.89193 1.05597C4.24927 1.21064 4.5506 1.42664 4.79593 1.70397C5.0466 1.97597 5.2386 2.30397 5.37193 2.68797C5.50527 3.06664 5.57193 3.48264 5.57193 3.93597C5.57193 4.35197 5.5026 4.74931 5.36393 5.12797C5.2306 5.50131 5.0386 5.82931 4.78793 6.11197C4.5426 6.39464 4.24127 6.61864 3.88393 6.78397C3.5266 6.94931 3.12927 7.03197 2.69193 7.03197H0.731934V0.823975H2.69193Z" fill="#D4D4D4"/>
</svg>
