<svg height="33" viewBox="0 0 126 33" fill="none" xmlns="http://www.w3.org/2000/svg">
<path d="M4.29513 18.2664C3.97359 18.0772 3.60644 17.978 3.23266 17.9792C2.04362 17.9792 1.25322 18.8305 1.25322 19.9825C1.25322 21.1842 2.12455 21.9824 3.19564 21.9824C3.565 21.9824 4.06008 21.885 4.31666 21.732L4.36229 22.4431C3.97054 22.6063 3.49096 22.6268 3.18875 22.6268C1.55543 22.6268 0.471436 21.585 0.471436 19.9586C0.471436 18.3835 1.62259 17.3348 3.19564 17.3348C3.59428 17.3348 3.98603 17.3946 4.35368 17.5553L4.29513 18.2664Z" fill="#a3a3a3"/>
<path d="M9.04621 21.9824C10.2353 21.9824 10.7432 21.0013 10.7432 19.9825C10.7432 18.9407 10.1827 17.9732 9.04621 17.9792C7.90797 17.9732 7.34746 18.9407 7.34746 19.9825C7.34746 21.0013 7.85717 21.9824 9.04621 21.9824ZM9.04621 17.3348C10.6115 17.3348 11.5268 18.4638 11.5268 19.9825C11.5268 21.5354 10.6184 22.6268 9.04621 22.6268C7.47403 22.6268 6.56567 21.5354 6.56567 19.9825C6.56567 18.4638 7.48092 17.3348 9.04621 17.3348Z" fill="#a3a3a3"/>
<path d="M14.1528 17.4229H14.889V21.8961H17.0449V22.5405H14.1528V17.4229Z" fill="#a3a3a3"/>
<path d="M19.425 17.4229H20.1629V21.8961H22.3189V22.5405H19.425V17.4229Z" fill="#a3a3a3"/>
<path d="M24.7427 17.4229H27.6305V18.0707H25.4806V19.5629H27.4367V20.2107H25.4806V21.8961H27.6305V22.5405H24.7427V17.4229Z" fill="#a3a3a3"/>
<path d="M34.3062 18.3333C33.9446 18.0966 33.5529 17.9795 32.889 17.9795C31.7 17.9795 30.9096 18.8375 30.9096 19.9828C30.9096 21.1844 31.7801 21.9827 32.852 21.9827C33.3609 21.9827 33.4943 21.9322 33.6777 21.8955V20.34H32.5929V19.7392H34.4173V22.3997C34.1366 22.4963 33.6484 22.6262 32.8434 22.6262C31.2118 22.6262 30.127 21.5853 30.127 19.9589C30.127 18.3837 31.279 17.3351 32.852 17.3351C33.6054 17.3351 33.936 17.4453 34.3648 17.5923L34.3062 18.3333Z" fill="#a3a3a3"/>
<path d="M37.3435 17.4229H40.2313V18.0707H38.0831V19.5629H40.0393V20.2107H38.0831V21.8961H40.2313V22.5405H37.3435V17.4229Z" fill="#a3a3a3"/>
<path d="M48.8406 21.9824C50.0297 21.9824 50.5394 21.0013 50.5394 19.9825C50.5394 18.9407 49.9772 17.9732 48.8406 17.9792C47.7041 17.9732 47.1419 18.9407 47.1419 19.9825C47.1419 21.0013 47.6516 21.9824 48.8406 21.9824ZM48.8406 17.3348C50.4059 17.3348 51.3212 18.4638 51.3212 19.9825C51.3212 21.5354 50.4128 22.6268 48.8406 22.6268C47.2685 22.6268 46.3601 21.5354 46.3601 19.9825C46.3601 18.4638 47.2753 17.3348 48.8406 17.3348Z" fill="#a3a3a3"/>
<path d="M53.9102 17.4229H56.6481V18.0707H54.648V19.5629H56.5603V20.2107H54.648V22.5405H53.9102V17.4229Z" fill="#a3a3a3"/>
<path d="M62.8953 17.4229H65.7831V18.0707H63.6331V19.5629H65.5893V20.2107H63.6331V21.8961H65.7831V22.5405H62.8953V17.4229Z" fill="#a3a3a3"/>
<path d="M68.5378 17.4229H69.5435L71.8174 21.5423H71.8303V17.4229H72.5708V22.5405H71.6254L69.2912 18.3339H69.2774V22.5405H68.5378V17.4229Z" fill="#a3a3a3"/>
<path d="M79.374 18.3333C79.0107 18.0966 78.6206 17.9795 77.9551 17.9795C76.7678 17.9795 75.9774 18.8375 75.9774 19.9828C75.9774 21.1844 76.8478 21.9827 77.918 21.9827C78.4286 21.9827 78.5604 21.9322 78.7455 21.8955V20.34H77.6606V19.7392H79.4851V22.3997C79.2027 22.4963 78.7162 22.6262 77.9112 22.6262C76.2796 22.6262 75.1938 21.5853 75.1938 19.9589C75.1938 18.3837 76.3467 17.3351 77.918 17.3351C78.6714 17.3351 79.0038 17.4453 79.4325 17.5923L79.374 18.3333Z" fill="#a3a3a3"/>
<path d="M82.3728 17.4229H83.1107V22.5405H82.3726L82.3728 17.4229Z" fill="#a3a3a3"/>
<path d="M86 17.4229H87.0022L89.2778 21.5423H89.2925V17.4229H90.0312V22.5405H89.0858L86.7517 18.3339H86.7362V22.5405H86V17.4229Z" fill="#a3a3a3"/>
<path d="M92.958 17.4229H95.8441V18.0707H93.6942V19.5629H95.6521V20.2107H93.6942V21.8961H95.8441V22.5405H92.958V17.4229Z" fill="#a3a3a3"/>
<path d="M98.6453 17.4229H101.531V18.0707H99.3814V19.5629H101.339V20.2107H99.3814V21.8961H101.531V22.5405H98.6453V17.4229Z" fill="#a3a3a3"/>
<path d="M104.989 19.6227H105.617C106.317 19.6227 106.731 19.3159 106.731 18.8245C106.731 18.3604 106.378 18.0707 105.698 18.0707H104.989V19.6227ZM104.251 17.4229H105.513C106.533 17.4229 107.515 17.5861 107.515 18.8083C107.515 19.4322 107.049 19.8732 106.45 19.9732V19.9902C106.681 20.0766 106.79 20.1868 106.953 20.5005L107.928 22.5405H107.086L106.296 20.7646C106.067 20.2672 105.823 20.2672 105.433 20.2672H104.989V22.5405H104.251V17.4229Z" fill="#a3a3a3"/>
<path d="M110.387 17.4229H111.126V22.5405H110.387V17.4229Z" fill="#a3a3a3"/>
<path d="M114.012 17.4229H115.016L117.29 21.5423H117.305V17.4229H118.043V22.5405H117.098L114.766 18.3339H114.75V22.5405H114.012V17.4229Z" fill="#a3a3a3"/>
<path d="M124.847 18.3333C124.485 18.0966 124.094 17.9795 123.43 17.9795C122.241 17.9795 121.45 18.8375 121.45 19.9828C121.45 21.1844 122.323 21.9827 123.393 21.9827C123.902 21.9827 124.035 21.9322 124.219 21.8955V20.34H123.134V19.7392H124.958V22.3997C124.677 22.4963 124.189 22.6262 123.386 22.6262C121.754 22.6262 120.668 21.5853 120.668 19.9589C120.668 18.3837 121.82 17.3351 123.393 17.3351C124.146 17.3351 124.479 17.4453 124.906 17.5923L124.847 18.3333Z" fill="#a3a3a3"/>
<path d="M5.38705 32.3931V28.5805H3.94746V27.9096H5.38705V25.6695H6.11718V32.3931H5.38705ZM4.17477 31.094C3.60478 30.8342 2.79372 29.9026 2.45105 29.0779C2.24613 29.8257 1.35413 30.8573 0.727325 31.2316L0.141846 30.7504C1.49448 29.9727 2.06273 28.7574 2.06273 27.1045V26.043H2.83075V27.1045C2.83075 28.7779 3.45841 29.7958 4.66381 30.5436L4.17477 31.094Z" fill="#a3a3a3"/>
<path d="M18.2399 26.1667C17.2006 26.1667 16.5885 26.4402 16.5885 26.8145C16.5885 27.1752 17.2161 27.4717 18.2399 27.4717C19.2472 27.4717 19.8895 27.182 19.8895 26.8214C19.8895 26.447 19.2627 26.1667 18.2399 26.1667ZM18.2399 27.9999C16.6255 27.9999 15.7843 27.5256 15.7843 26.8214C15.7843 26.1265 16.6255 25.6154 18.2399 25.6154C19.8611 25.6154 20.6937 26.1496 20.6937 26.8214C20.6937 27.5256 19.8611 27.9999 18.2399 27.9999ZM17.8662 29.0614H15.0249V28.4666H21.4514V29.0614H18.6471V29.5956H20.6214V31.2177H16.6324V31.7356H20.7807V32.3159H15.8566V30.6605H19.8387V30.1699H15.8566V29.5956H17.8662V29.0614Z" fill="#a3a3a3"/>
<path d="M35.0862 32.3931V28.901H34.2605V32.0897H33.5527V25.8225H34.2605V28.207H35.0862V25.6695H35.7957V32.3931H35.0862ZM31.7197 30.8974L30.4333 30.9111V26.4943H32.7271V27.1515H31.1566V30.2299L31.9883 30.2231C32.3844 30.2167 32.7798 30.1864 33.1722 30.1325V30.7906C32.9535 30.8273 32.523 30.8803 31.7197 30.8974Z" fill="#a3a3a3"/>
<path d="M50.3619 28.1762V29.9488H49.6387V25.6687H50.3619V27.5121H51.2772V28.1762H50.3619ZM46.9817 28.1531C46.3376 28.1531 46.0096 28.3728 46.0096 28.6933C46.0096 29.024 46.3376 29.2514 46.9817 29.2514C47.624 29.2514 47.9374 29.0138 47.9374 28.6873C47.9374 28.3668 47.624 28.1531 46.9817 28.1531ZM45.8985 25.6387H48.039V26.2267H45.8985V25.6387ZM49.6258 32.3931V30.9641H45.623V30.3598H50.3705V32.3931H49.6258ZM45.2192 28.6933C45.2192 28.0591 45.9071 27.595 46.9817 27.595C48.0915 27.595 48.7191 28.0591 48.7191 28.6933C48.7191 29.3283 48.0768 29.812 46.967 29.812C45.914 29.812 45.2192 29.3283 45.2192 28.6933ZM44.9351 26.6703H49.005V27.2583H44.9351V26.6703Z" fill="#a3a3a3"/>
<path d="M64.8667 29.9921H64.1504C64.1659 29.9024 64.487 28.1128 64.5086 27.0675H60.2423V26.4163H65.3127C65.2903 27.1214 65.1001 28.87 64.8667 29.9921ZM59.5647 31.5074V30.8639H61.068V28.5563H61.8059V30.8639H62.7633V28.5563H63.5012V30.8639H65.9921V31.5074H59.5647Z" fill="#a3a3a3"/>
<path d="M75.8625 31.1341C75.8625 31.6384 76.5789 31.8956 77.6233 31.8956C78.6522 31.8956 79.384 31.6384 79.384 31.1341C79.384 30.6666 78.6522 30.4 77.6233 30.4C76.5789 30.4 75.8625 30.6666 75.8625 31.1341ZM79.7198 28.2599H78.9733C78.9888 28.2061 79.2377 27.2113 79.3031 26.5874H75.1462V25.943H80.1357C80.1288 26.5173 79.917 27.6386 79.7198 28.2599ZM77.6233 32.4999C75.9874 32.4999 75.0653 31.9358 75.0653 31.141C75.0653 30.353 75.9874 29.7889 77.6147 29.7889C79.2592 29.7889 80.1796 30.353 80.1796 31.141C80.1796 31.9358 79.2661 32.4999 77.6233 32.4999ZM74.4092 29.2984V28.6633H76.8131V27.3814H77.5579V28.6633H80.8365V29.2984H74.4092Z" fill="#a3a3a3"/>
<path d="M94.8874 25.6695V28.5206H95.844V29.1779H94.8874V32.3931H94.1556V25.6695H94.8874ZM92.9519 29.589H92.2286C92.2424 29.5052 92.4912 27.8762 92.5059 27.0814H89.6723V26.4404H93.2946C93.3014 27.3122 93.1267 28.6505 92.9519 29.589ZM90.0968 31.2179H89.321V30.5735H90.5643V28.4437H91.2867V30.5667C91.892 30.5667 93.5201 30.4368 93.8645 30.3838V31.0179C92.6134 31.155 91.3555 31.2217 90.0968 31.2179Z" fill="#a3a3a3"/>
<path d="M109.317 32.3931V28.901H108.492V32.0897H107.784V25.8225H108.492V28.207H109.317V25.6695H110.025V32.3931H109.317ZM105.949 30.8974L104.665 30.9111V26.4943H106.958V27.1515H105.388V30.2299L106.22 30.2231C106.616 30.2167 107.011 30.1864 107.403 30.1325V30.7906C107.185 30.8273 106.752 30.8803 105.949 30.8974Z" fill="#a3a3a3"/>
<path d="M124.593 28.1762V29.9488H123.87V25.6687H124.593V27.5121H125.507V28.1762H124.593ZM121.211 28.1531C120.569 28.1531 120.241 28.3728 120.241 28.6933C120.241 29.024 120.569 29.2514 121.211 29.2514C121.855 29.2514 122.169 29.0138 122.169 28.6873C122.169 28.3668 121.855 28.1531 121.211 28.1531ZM120.13 25.6387H122.27V26.2267H120.13V25.6387ZM123.857 32.3931V30.9641H119.853V30.3598H124.602V32.3931H123.857ZM119.451 28.6933C119.451 28.0591 120.139 27.595 121.211 27.595C122.323 27.595 122.951 28.0591 122.951 28.6933C122.951 29.3283 122.308 29.812 121.197 29.812C120.145 29.812 119.451 29.3283 119.451 28.6933ZM119.167 26.6703H123.235V27.2583H119.167V26.6703Z" fill="#a3a3a3"/>
<path d="M8.70499 3.79191H9.78124C10.1274 3.79191 10.4167 3.60132 10.4167 3.1475V1.11086C10.4167 0.792078 10.266 0.51688 9.84323 0.51688H0.781215C0.435094 0.51688 0.204346 0.740799 0.204346 1.11086V2.11593C0.204346 2.45352 0.368797 2.71675 0.781215 2.71675H1.42524V11.8009H0.781215C0.402376 11.8009 0.204346 12.0513 0.204346 12.3948V13.4067C0.204346 13.7136 0.355882 14.0093 0.781215 14.0093H9.84495C10.2255 14.0093 10.4149 13.7554 10.4149 13.4067V11.0368C10.4149 10.542 10.0757 10.3958 9.78985 10.3958H8.71704C8.39073 10.3958 8.08077 10.5958 8.08077 11.0368L8.08765 11.8009H4.10725V8.15234H7.03551V8.86C7.03551 9.27023 7.32309 9.42407 7.57966 9.42407H8.4863C8.76009 9.42407 9.03992 9.29074 9.03992 8.86V5.28755C9.03992 4.94056 8.81778 4.72519 8.49318 4.72519H7.58827C7.2301 4.72519 7.03551 4.96022 7.03551 5.28755V5.94649H4.10725V2.71675H8.07904V3.1475C8.07904 3.52184 8.33304 3.79191 8.70499 3.79191Z" fill="#a3a3a3"/>
<path d="M69.9733 3.79191H71.0444C71.3922 3.79191 71.6815 3.60132 71.6815 3.1475V1.11086C71.6815 0.792078 71.5352 0.51688 71.1064 0.51688H62.0478C61.7017 0.51688 61.4727 0.740799 61.4727 1.11086V2.11593C61.4727 2.45352 61.6337 2.71675 62.0478 2.71675H62.6953V11.8009H62.0478C61.6664 11.8009 61.4727 12.0513 61.4727 12.3948V13.4067C61.4727 13.7136 61.6225 14.0093 62.0478 14.0093H71.1098C71.4921 14.0093 71.6772 13.7554 71.6772 13.4067V11.0368C71.6772 10.542 71.3388 10.3958 71.053 10.3958H69.9802C69.6573 10.3958 69.3474 10.5958 69.3474 11.0368L69.3508 11.8009H65.3756V8.15234H68.3021L68.3004 8.86C68.3004 9.27023 68.5914 9.42407 68.8445 9.42407H69.7494C70.0275 9.42407 70.3013 9.29074 70.3013 8.86L70.3048 5.28755C70.3048 4.94056 70.0844 4.72519 69.7615 4.72519H68.8531C68.495 4.72519 68.3021 4.96022 68.3021 5.28755V5.94649H65.3756V2.71675H69.3448V3.1475C69.3448 3.52184 69.5962 3.79191 69.9733 3.79191Z" fill="#a3a3a3"/>
<path d="M81.1918 3.79191H82.2646C82.6108 3.79191 82.9001 3.60132 82.9001 3.1475V1.11086C82.9001 0.792078 82.7494 0.51688 82.3284 0.51688H73.2646C72.9185 0.51688 72.6877 0.740799 72.6877 1.11086V2.11593C72.6877 2.45352 72.8556 2.71675 73.2646 2.71675H73.9121V11.8009H73.2646C72.8866 11.8009 72.6877 12.0513 72.6877 12.3948V13.4067C72.6877 13.7136 72.8376 14.0093 73.2646 14.0093H82.3284C82.7089 14.0093 82.8966 13.7554 82.8966 13.4067V11.0368C82.8966 10.542 82.5625 10.3958 82.2732 10.3958H81.2022C80.8741 10.3958 80.5676 10.5958 80.5676 11.0368V11.8009H76.5941V8.15234H79.5206V8.86C79.5206 9.27023 79.8065 9.42407 80.0648 9.42407H80.9697C81.2444 9.42407 81.5216 9.29074 81.5216 8.86V5.28755C81.5216 4.94056 81.3029 4.72519 80.9766 4.72519H80.0717C79.7135 4.72519 79.5206 4.96022 79.5206 5.28755V5.94649H76.5941V2.71675H80.5633V3.1475C80.5633 3.52184 80.8164 3.79191 81.1918 3.79191Z" fill="#a3a3a3"/>
<path d="M23.362 0.515902H20.0893C19.6709 0.515902 19.5125 0.783407 19.5125 1.10989V2.11837C19.5125 2.42861 19.6623 2.71578 20.0893 2.71578H20.5741V9.0761L15.8868 0.515902H12.3386C11.8478 0.515902 11.7583 0.923571 11.7583 1.10989V2.11837C11.7583 2.44913 11.9434 2.71578 12.3386 2.71578H12.8621V11.8067H12.3386C11.9434 11.8067 11.7583 12.099 11.7583 12.4075V13.416C11.7583 13.7767 11.9589 14.0168 12.3386 14.0168H15.4838C15.9006 14.0168 16.0469 13.7066 16.0469 13.416V12.4075C16.0469 12.0674 15.8618 11.8067 15.4718 11.8067H15.0447V3.94477L20.5284 14.0083H22.7533V2.71578H23.362C23.789 2.71578 23.9371 2.42861 23.9371 2.11837V1.10989C23.9371 0.779989 23.7572 0.515902 23.362 0.515902Z" fill="#a3a3a3"/>
<path d="M60.0117 0.515902H56.7373C56.3223 0.515902 56.1604 0.783407 56.1604 1.10989V2.11837C56.1604 2.42861 56.3171 2.71578 56.7373 2.71578H57.222V9.0761L52.5382 0.515902H48.9883C48.5027 0.515902 48.4062 0.923571 48.4062 1.10989V2.11837C48.4062 2.44913 48.5948 2.71578 48.9883 2.71578H49.5118V11.8067H48.9883C48.5948 11.8067 48.4062 12.099 48.4062 12.4075V13.416C48.4062 13.7767 48.6103 14.0168 48.9883 14.0168H52.1335C52.5502 14.0168 52.6966 13.7066 52.6966 13.416V12.4075C52.6966 12.0674 52.5098 11.8067 52.1197 11.8067H51.6944V3.94477L57.1816 14.0083H59.4012V2.71578H60.0117C60.4353 2.71578 60.5902 2.42861 60.5902 2.11837V1.10989C60.5902 0.779989 60.4069 0.515902 60.0117 0.515902Z" fill="#a3a3a3"/>
<path d="M114.048 0.515902H110.772C110.355 0.515902 110.197 0.783407 110.197 1.10989V2.11837C110.197 2.42861 110.353 2.71578 110.772 2.71578H111.256V9.0761L106.574 0.515902H103.024C102.535 0.515902 102.446 0.923571 102.446 1.10989V2.11837C102.446 2.44913 102.627 2.71578 103.024 2.71578H103.546V11.8067H103.024C102.627 11.8067 102.446 12.099 102.446 12.4075V13.416C102.446 13.7767 102.645 14.0168 103.024 14.0168H106.17C106.586 14.0168 106.733 13.7066 106.733 13.416V12.4075C106.733 12.0674 106.548 11.8067 106.156 11.8067H105.727V3.94477L111.214 14.0083H113.437V2.71578H114.048C114.471 2.71578 114.623 2.42861 114.623 2.11837V1.10989C114.623 0.779989 114.44 0.515902 114.048 0.515902Z" fill="#a3a3a3"/>
<path d="M91.0733 4.33119V4.34316C91.0733 4.88672 90.8383 5.30806 90.4491 5.57984C90.0625 5.84222 89.5046 5.88495 88.8098 5.88495H87.6819V2.71334H89.1025C89.651 2.71675 90.2657 2.8441 90.592 3.11759C90.9089 3.3868 91.0733 3.79533 91.0733 4.33119ZM94.9444 11.8009H94.0395L92.0067 7.63442C93.4566 6.9037 94.1557 5.79863 94.1557 4.27649C94.1625 3.32798 93.8402 2.40605 93.243 1.66553C92.6386 0.905746 91.6364 0.51346 90.2459 0.51346L84.5297 0.516878C84.1397 0.516878 83.9546 0.787804 83.9546 1.11086V2.11593C83.9546 2.46292 84.1569 2.71675 84.5297 2.71675H85.0782V11.8009H84.5297C84.1535 11.8009 83.9546 12.0684 83.9546 12.3957V13.4067C83.9546 13.7144 84.1199 14.0093 84.5297 14.0093H88.0796C88.4413 14.0093 88.6453 13.764 88.6453 13.417V12.4085C88.6453 12.0461 88.4533 11.8009 88.0684 11.8009H87.6819V8.16174H89.3599L92.0962 14.0041L94.9409 14.0093C95.3516 14.0093 95.5213 13.7674 95.5213 13.417V12.4085C95.5213 12.0316 95.3327 11.8009 94.9444 11.8009Z" fill="#a3a3a3"/>
<path d="M100.88 2.71676C101.267 2.71676 101.461 2.49626 101.461 2.12277V1.11428C101.461 0.753619 101.279 0.51688 100.88 0.51688H96.6797C96.2982 0.51688 96.1011 0.753619 96.1011 1.11086V2.11594C96.1011 2.43985 96.2526 2.71676 96.6797 2.71676H97.433V11.8009H96.6797C96.306 11.8009 96.1011 12.0308 96.1011 12.3948V13.4067C96.1011 13.7136 96.2776 14.0093 96.6797 14.0093H100.893C101.272 14.0093 101.461 13.7375 101.461 13.417V12.4085C101.461 12.0846 101.323 11.8009 100.88 11.8009H100.112V2.71676H100.88Z" fill="#a3a3a3"/>
<path d="M34.8461 7.04337H30.8778C30.6238 7.03995 30.4507 7.13653 30.3629 7.26729C30.2973 7.37219 30.2652 7.49435 30.2708 7.6177V8.7296L30.2691 8.78259C30.2646 8.90393 30.2967 9.02384 30.3612 9.12702C30.4507 9.25179 30.6204 9.34068 30.8657 9.33897H32.6127V10.791C32.6162 11.4602 32.0479 11.6568 31.7216 11.6773H28.2225C27.6301 11.6636 27.3598 11.4004 27.3443 10.7688V3.7051C27.3443 3.02394 27.9056 2.8419 28.2208 2.82054H32.623V3.93842C32.623 4.39224 33.0182 4.476 33.1422 4.476H34.4191C34.4983 4.476 34.624 4.46403 34.7454 4.38626C34.8642 4.31276 34.9624 4.15208 34.9589 3.935V2.60944C34.9624 1.6018 34.4949 1.05397 33.9886 0.783899C33.4858 0.512975 32.958 0.500154 32.7841 0.500154H27.4924C27.3357 0.500154 26.7235 0.506992 26.1371 0.822359C25.5499 1.13431 24.998 1.77871 24.9998 2.98036V11.55C24.9998 11.7371 25.0153 12.3414 25.3416 12.9089C25.6662 13.4798 26.3188 14.0045 27.5173 14.0011L32.4663 14.0088C32.6687 14.0088 33.2809 14.0011 33.8577 13.6866C34.4337 13.3729 34.9624 12.7354 34.9589 11.5303V7.04337H34.8461Z" fill="#a3a3a3"/>
<path d="M125.485 7.04337H121.513C121.261 7.03995 121.087 7.13653 121.003 7.26729C120.936 7.37155 120.904 7.49425 120.912 7.6177V8.78259C120.912 8.86976 120.914 9.00309 121 9.12702C121.087 9.25179 121.259 9.34068 121.508 9.33897H123.251V10.791C123.255 11.4602 122.683 11.6568 122.362 11.6773H118.861C118.269 11.6636 117.996 11.4004 117.979 10.7688V3.7051C117.979 3.02394 118.542 2.8419 118.857 2.82054H123.26V3.93842C123.26 4.39224 123.657 4.476 123.78 4.476H125.059C125.138 4.476 125.262 4.46403 125.384 4.38626C125.504 4.31276 125.597 4.15208 125.594 3.935V2.60944C125.597 1.6018 125.135 1.05397 124.629 0.783899C124.124 0.512975 123.59 0.500154 123.424 0.500154H118.129C117.972 0.500154 117.36 0.506992 116.777 0.822359C116.185 1.13431 115.634 1.77871 115.636 2.98036V11.55C115.636 11.7371 115.657 12.3414 115.98 12.9089C116.305 13.4798 116.959 14.0045 118.156 14.0011L122.925 14.0088H123.103C123.304 14.0088 123.921 14.0011 124.496 13.6866C125.071 13.3729 125.597 12.7354 125.594 11.5303L125.597 7.04337H125.485Z" fill="#a3a3a3"/>
<path d="M46.9203 11.817H42.3493L43.9843 7.41979C44.3494 6.49505 44.1694 5.72245 43.2241 5.72245H42.5921C42.3932 5.72245 42.3381 5.73441 42.4156 5.49596L43.1922 3.12003C43.3437 2.7192 43.3248 2.74996 43.7252 2.72262L46.2608 2.7192C46.5923 2.7192 46.7929 2.49271 46.7929 2.19188V1.04835C46.7929 0.753497 46.6431 0.515904 46.2608 0.515904H37.0894C36.7881 0.515904 36.5548 0.699654 36.5548 1.04493V2.18248C36.5548 2.51237 36.7485 2.7192 37.0894 2.7192L40.7203 2.72262L39.6337 5.71048C39.3039 6.55573 39.316 7.5702 40.5524 7.5702H41.0871C41.2481 7.5702 41.2713 7.59841 41.1912 7.81036L39.9514 11.0922C39.7938 11.5136 39.6897 11.8306 39.4081 11.817H36.4351C36.1208 11.817 35.8987 12.0007 35.8987 12.3563V13.4682C35.8987 13.7869 36.0752 14.0117 36.4239 14.0117H46.9203C47.3035 14.0117 47.4567 13.763 47.4567 13.4759V12.3648C47.4567 12.0306 47.2802 11.817 46.9203 11.817Z" fill="#a3a3a3"/>
</svg>
