<svg height="37" viewBox="0 0 159 37" fill="none" xmlns="http://www.w3.org/2000/svg">
<path d="M48.4079 29.9753C48.4079 29.9753 46.902 29.1121 46.8205 28.973C46.8205 28.973 46.6622 28.8339 46.6622 28.6229C46.6622 28.6229 46.6047 28.1433 46.9979 27.9419C46.9979 27.9419 47.1658 27.7357 47.818 27.7357C47.818 27.7357 48.3216 27.7405 48.7388 28.0186L48.7004 27.4287C48.7004 27.4287 47.5015 27.141 46.854 27.4575C46.2018 27.7836 46.0483 28.268 46.0483 28.6181C46.0483 28.9586 46.245 29.4622 46.7629 29.7499C46.7629 29.7499 48.1058 30.4213 48.4367 30.8242C48.4367 30.8242 48.7484 31.2558 48.4463 31.8025C48.4463 31.8025 48.1154 32.2725 47.3912 32.2725C47.3912 32.2725 46.5999 32.2725 46.1107 31.9896L46.1586 32.5411C46.1586 32.5411 46.8732 32.6514 47.4008 32.6514C47.4008 32.6514 48.264 32.6802 48.6909 32.3445C48.6909 32.3445 49.2424 31.9272 49.2424 31.2846C49.2376 31.2798 49.3479 30.5221 48.4079 29.9753Z" fill="#a3a3a3"/>
<path d="M51.0167 32.1286V29.8937H52.6521C52.8104 29.8937 52.8919 29.9609 52.8919 29.9609V29.5005H51.0167V27.7979H52.7097C52.8583 27.7979 52.9782 27.889 52.9782 27.889L52.959 27.3375H50.3501C50.3501 27.3375 50.446 27.5102 50.446 27.726V32.2053C50.446 32.2053 50.4652 32.2773 50.3501 32.541H53.1605L53.2372 32.0327C53.1173 32.1334 52.7336 32.1238 52.7336 32.1238H51.0167V32.1286Z" fill="#a3a3a3"/>
<path d="M56.7286 32.1238C55.6112 32.1238 54.7048 31.1407 54.7048 29.9225C54.7048 28.7044 55.6112 27.7164 56.7286 27.7164C57.846 27.7164 58.7525 28.6996 58.7525 29.9225C58.7573 31.1359 57.8508 32.1238 56.7286 32.1238ZM56.7286 27.3136C55.3042 27.3136 54.1484 28.479 54.1484 29.9225C54.1484 31.3613 55.3042 32.5267 56.7286 32.5267C58.153 32.5267 59.3088 31.3613 59.3088 29.9225C59.3136 28.479 58.1578 27.3136 56.7286 27.3136Z" fill="#a3a3a3"/>
<path d="M93.3929 32.1238C92.2755 32.1238 91.3691 31.1407 91.3691 29.9225C91.3691 28.7044 92.2755 27.7164 93.3929 27.7164C94.5103 27.7164 95.4168 28.6996 95.4168 29.9225C95.4168 31.1359 94.5103 32.1238 93.3929 32.1238ZM93.3929 27.3136C91.9685 27.3136 90.8127 28.479 90.8127 29.9225C90.8127 31.3613 91.9685 32.5267 93.3929 32.5267C94.8173 32.5267 95.9731 31.3613 95.9731 29.9225C95.9731 28.479 94.8173 27.3136 93.3929 27.3136Z" fill="#a3a3a3"/>
<path d="M64.57 27.3424H63.8746C63.9514 27.3904 63.961 27.6014 63.961 27.6014V30.7571C63.961 31.5436 63.3231 32.1766 62.5414 32.1766C61.7549 32.1766 61.1218 31.5436 61.1218 30.7571L61.1266 30.6851L61.1122 27.3568L60.5559 27.3424V30.7714C60.5703 31.7786 61.4527 32.5891 62.5318 32.5891C63.6253 32.5891 64.5125 31.7594 64.5125 30.7427H64.5077V27.5918C64.5125 27.4863 64.57 27.3424 64.57 27.3424Z" fill="#a3a3a3"/>
<path d="M66.6995 32.1622V27.6733C66.6995 27.4526 66.7906 27.3519 66.7906 27.3519H66.0664C66.1431 27.4574 66.124 27.5725 66.124 27.5725V32.541H68.9056L69.0686 32.071C68.896 32.1718 68.6274 32.1622 68.6274 32.1622H66.6995Z" fill="#a3a3a3"/>
<path d="M109.478 32.1622V27.6733C109.478 27.4526 109.565 27.3519 109.565 27.3519H108.841C108.917 27.4574 108.898 27.5725 108.898 27.5725V32.541H111.675L111.843 32.071C111.67 32.1718 111.397 32.1622 111.397 32.1622H109.478Z" fill="#a3a3a3"/>
<path d="M77.0823 27.7068V31.3517L73.4471 27.3423H72.8572C72.8572 27.3423 72.9579 27.467 72.9579 27.7404V32.1765C72.9579 32.1765 72.9483 32.3972 72.8812 32.5266V32.5314H73.4567C73.3943 32.3924 73.3943 32.1526 73.3943 32.1526V28.0713L77.4756 32.4979V27.6876C77.4756 27.5342 77.5427 27.3375 77.5427 27.3375H76.9912C77.0919 27.4382 77.0823 27.7068 77.0823 27.7068Z" fill="#a3a3a3"/>
<path d="M101.354 27.7068V31.3517L97.7189 27.3423H97.1243C97.1243 27.3423 97.2298 27.467 97.2298 27.7404V32.1765C97.2298 32.1765 97.2202 32.3972 97.153 32.5266V32.5314H97.7285C97.6662 32.3924 97.6662 32.1526 97.6662 32.1526V28.0713L101.747 32.4979V27.6876C101.747 27.5342 101.819 27.3375 101.819 27.3375H101.258C101.364 27.4382 101.354 27.7068 101.354 27.7068Z" fill="#a3a3a3"/>
<path d="M79.9646 30.1576L80.7895 28.057L81.7871 30.1576H79.9646ZM81.1108 27.3424H80.449C80.449 27.3424 80.5306 27.5582 80.4682 27.774L78.7849 32.0567C78.7849 32.0567 78.5786 32.4596 78.4587 32.5459H79.087C79.0534 32.3829 79.1446 32.2246 79.1446 32.2246L79.8352 30.5508H81.9597L82.6743 32.028C82.7942 32.3349 82.7654 32.5459 82.7654 32.5459H83.6574C83.3217 32.1095 83.1827 31.793 83.1827 31.793L81.1108 27.3424Z" fill="#a3a3a3"/>
<path d="M104.457 30.1576L105.282 28.057L106.275 30.1576H104.457ZM105.474 27.3424H104.812C104.812 27.3424 104.894 27.5582 104.831 27.774L103.153 32.0567C103.153 32.0567 102.946 32.4596 102.831 32.5459H103.455C103.421 32.3829 103.512 32.2246 103.512 32.2246L104.198 30.5508H106.318L107.032 32.028C107.152 32.3349 107.124 32.5459 107.124 32.5459H108.011C107.675 32.1095 107.536 31.793 107.536 31.793L105.474 27.3424Z" fill="#a3a3a3"/>
<path d="M83.7724 27.3521L83.7341 27.3617L83.6094 27.8077C83.6094 27.8077 83.7197 27.7453 83.9307 27.7453H85.3311V32.2582C85.3311 32.2582 85.3119 32.4884 85.2831 32.5556H86.0361C86.0361 32.5556 85.9545 32.3829 85.9545 32.2439V27.7549H87.0432C87.0432 27.7549 87.4556 27.7549 87.6331 27.8652L87.5324 27.3473H83.7724V27.3521Z" fill="#a3a3a3"/>
<path d="M89.5564 27.3424H88.8418C88.8418 27.3424 88.9329 27.4863 88.9329 27.6302V32.2006C88.9329 32.2006 88.9233 32.4116 88.8418 32.5555H89.5564C89.5564 32.5555 89.4653 32.4116 89.4653 32.1862V27.6206C89.4653 27.6206 89.494 27.4048 89.5564 27.3424Z" fill="#a3a3a3"/>
<path d="M146.013 29.9418C146.013 29.9418 144.507 29.0786 144.426 28.9395C144.426 28.9395 144.267 28.8004 144.267 28.5846C144.267 28.5846 144.215 28.1098 144.603 27.9036C144.603 27.9036 144.771 27.7022 145.418 27.7022C145.418 27.7022 145.922 27.7022 146.344 27.9803L146.306 27.3904C146.306 27.3904 145.102 27.1027 144.454 27.4288C143.802 27.7501 143.649 28.2393 143.649 28.5798C143.649 28.9203 143.845 29.4239 144.363 29.7116C144.363 29.7116 145.706 30.383 146.037 30.7907C146.037 30.7907 146.354 31.2223 146.047 31.7642C146.047 31.7642 145.72 32.2342 144.992 32.2342C144.992 32.2342 144.2 32.2342 143.711 31.9513L143.759 32.498C143.759 32.498 144.474 32.6083 145.006 32.6083C145.006 32.6083 145.869 32.6371 146.296 32.3014C146.296 32.3014 146.848 31.8841 146.848 31.2463C146.843 31.2559 146.948 30.4885 146.013 29.9418Z" fill="#a3a3a3"/>
<path d="M135.687 32.1238V29.8889H137.323C137.481 29.8889 137.563 29.9561 137.563 29.9561V29.4957H135.687V27.7979H137.376C137.524 27.7979 137.644 27.889 137.644 27.889L137.625 27.3375H135.011C135.011 27.3375 135.107 27.5054 135.107 27.726V32.2053C135.107 32.2053 135.126 32.2821 135.006 32.5458H137.822L137.898 32.0327C137.774 32.1382 137.385 32.1286 137.385 32.1286H135.687V32.1238Z" fill="#a3a3a3"/>
<path d="M118.984 27.3136H118.288C118.365 27.3616 118.375 27.5774 118.375 27.5774V30.733C118.375 31.5196 117.742 32.1478 116.955 32.1478C116.173 32.1478 115.535 31.5196 115.535 30.733L115.54 30.6611L115.531 27.328L114.974 27.3184V30.7474C114.989 31.7546 115.871 32.5651 116.95 32.5651C118.044 32.5651 118.931 31.7402 118.931 30.7187H118.926V27.5678C118.926 27.4575 118.984 27.3136 118.984 27.3136Z" fill="#a3a3a3"/>
<path d="M124.926 27.702V31.3469L121.286 27.3375H120.701C120.701 27.3375 120.801 27.4574 120.801 27.7308V32.167C120.801 32.167 120.792 32.3924 120.725 32.5218V32.5266H121.3C121.238 32.3876 121.238 32.1526 121.238 32.1526V28.0665L125.319 32.4979V27.6828C125.319 27.5342 125.386 27.3423 125.386 27.3423H124.83C124.931 27.4382 124.926 27.702 124.926 27.702Z" fill="#a3a3a3"/>
<path d="M149.955 27.3375L149.912 27.3423L149.787 27.7883C149.787 27.7883 149.898 27.7308 150.109 27.7308H151.509V32.2437C151.509 32.2437 151.485 32.4739 151.456 32.5362H152.204C152.204 32.5362 152.128 32.3636 152.128 32.2245V27.7404H153.221C153.221 27.7404 153.629 27.7404 153.801 27.8507L153.701 27.3375H149.955Z" fill="#a3a3a3"/>
<path d="M148.79 27.3184H148.071C148.071 27.3184 148.162 27.467 148.162 27.6109V32.1766C148.162 32.1766 148.147 32.3876 148.071 32.5362H148.78C148.78 32.5362 148.694 32.3876 148.694 32.167V27.6013C148.699 27.6013 148.728 27.3807 148.79 27.3184Z" fill="#a3a3a3"/>
<path d="M127.957 27.3184H127.237C127.237 27.3184 127.328 27.467 127.328 27.6109V32.1766C127.328 32.1766 127.314 32.3876 127.242 32.5362H127.957C127.957 32.5362 127.87 32.3876 127.87 32.167V27.6013C127.866 27.6013 127.894 27.3807 127.957 27.3184Z" fill="#a3a3a3"/>
<path d="M133.338 27.6876L131.573 31.5818L129.775 27.6876C129.635 27.4334 129.703 27.3231 129.703 27.3231H128.945C128.945 27.3231 129.137 27.6396 129.352 28.0953L131.525 32.6465L133.779 27.8171C133.779 27.8171 133.985 27.4382 134.144 27.3231H133.405C133.405 27.3231 133.477 27.4382 133.338 27.6876Z" fill="#a3a3a3"/>
<path d="M142.378 31.7259L140.757 29.8268C141.236 29.8268 141.74 29.4 141.74 29.4C142.109 29.0834 142.109 28.5079 142.109 28.5079C142.076 27.9708 141.73 27.6974 141.73 27.6974C141.328 27.2898 140.69 27.3186 140.69 27.3186C139.683 27.3186 139.275 27.3713 139.275 27.3713C139.275 27.3713 139.356 27.4624 139.356 27.6111V32.2679C139.356 32.3974 139.294 32.5221 139.294 32.5221H140.004C139.922 32.3974 139.927 32.2775 139.927 32.2775V29.6206H139.937L139.927 29.6158V27.8893L139.937 27.8365C139.937 27.8365 139.946 27.707 140.421 27.707C140.421 27.707 140.949 27.6974 141.169 27.9564C141.169 27.9564 141.486 28.2154 141.486 28.5415C141.486 28.5415 141.505 29.0786 141.227 29.2705C141.227 29.2705 140.886 29.6158 139.932 29.6206L142.263 32.5173H143.083C142.91 32.3686 142.378 31.7259 142.378 31.7259Z" fill="#a3a3a3"/>
<path d="M157.715 27.5295L156.598 29.4382L155.408 27.5774C155.327 27.4192 155.36 27.3328 155.36 27.3328H154.516C154.516 27.3328 154.698 27.4911 154.823 27.7117L156.199 29.8507V32.2486C156.199 32.2486 156.199 32.426 156.147 32.522H156.885C156.828 32.4644 156.804 32.2678 156.804 32.2678V29.8555L158.051 27.9227C158.434 27.2945 158.468 27.3137 158.468 27.3137H157.753C157.763 27.4288 157.715 27.5295 157.715 27.5295Z" fill="#a3a3a3"/>
<path d="M50.6187 8.41803C50.5755 7.761 50.5995 6.54285 50.5995 6.54285H49.7075H48.8155C48.8155 6.54285 48.8394 7.761 48.8011 8.41803C48.6716 10.4419 47.8515 13.6599 44.7917 15.7988L45.6838 17.1177C45.6838 17.1177 48.3119 15.6789 49.7075 12.0869C51.1031 15.6789 53.7312 17.1177 53.7312 17.1177L54.628 15.7988C51.5683 13.6599 50.7434 10.4419 50.6187 8.41803Z" fill="#a3a3a3"/>
<path d="M77.0006 5.74188C77.9262 5.74188 78.6696 6.49483 78.6696 7.42043C78.6696 8.34603 77.9262 9.09419 77.0006 9.09419C76.075 9.09419 75.3268 8.34603 75.3268 7.42043C75.3268 6.49483 76.075 5.74188 77.0006 5.74188ZM77.0006 10.6145C78.7703 10.6145 80.1994 9.18531 80.1994 7.41564C80.1994 5.64597 78.7703 4.2168 77.0006 4.2168C75.2357 4.2168 73.8018 5.64597 73.8018 7.41564C73.797 9.18531 75.2357 10.6145 77.0006 10.6145Z" fill="#a3a3a3"/>
<path d="M125.362 12.0004C125.362 12.878 124.648 13.5926 123.77 13.5926C122.892 13.5926 122.182 12.878 122.182 12.0004C122.182 11.1227 122.897 10.4082 123.77 10.4082C124.652 10.4082 125.362 11.1227 125.362 12.0004ZM120.638 12.0004C120.638 13.7317 122.039 15.1369 123.77 15.1369C125.501 15.1369 126.906 13.7365 126.906 12.0004C126.906 10.2691 125.501 8.86389 123.77 8.86389C122.039 8.86389 120.638 10.2691 120.638 12.0004Z" fill="#a3a3a3"/>
<path d="M156.123 15.0986C156.123 15.0986 155.926 18.144 155.139 19.8897H156.828C157.595 17.7891 157.72 15.0507 157.72 15.0507V6.99365H156.712H156.118H146.512V8.48996H156.118V15.0986H156.123Z" fill="#a3a3a3"/>
<path d="M57.0977 22.1437H58.8578V5.75146H57.0977V10.5137H53.9084V12.1204H57.0977V22.1437Z" fill="#a3a3a3"/>
<path d="M104.462 12.552H105.78V22.1437H107.536V5.75146H105.78V10.9454H104.462V5.75146H102.706V22.1437H104.462V12.552Z" fill="#a3a3a3"/>
<path d="M130.551 22.1533H132.311V17.1896V15.6885H131.673V10.202H134.028V8.76326H131.673V5.75146H129.918V15.6885H120.029V17.1896H130.551V22.1533Z" fill="#a3a3a3"/>
<path d="M82.7892 20.5132H72.7035V19.2759H82.7892V18.216V17.7172V16.36V14.7965H81.1826H77.8063V12.7487H83.6141V11.1901H70.3008V12.7487H76.075V14.7965H71.1257V16.36H81.1826V17.7172H71.1257V18.6524H71.0969V22.0719H71.1257H72.7035H82.7892V20.5132Z" fill="#a3a3a3"/>
<path d="M153.413 19.9089V12.6049H151.72V19.9089H149.763V12.6049H148.07V19.9089H145.869V21.41H159V19.9089H153.413Z" fill="#a3a3a3"/>
<path d="M127.76 7.05591H124.437V5.55481H122.71V7.05591H119.386V8.48987H127.76V7.05591Z" fill="#a3a3a3"/>
<path d="M101.009 17.065V15.5063H96.2704V8.66742H100.788V7.10876H96.2704H94.7213H94.5391V17.0745H96.2704V17.065H101.009Z" fill="#a3a3a3"/>
<path d="M20.913 4.86902C20.3471 3.60292 18.4384 4.47097 18.4384 4.47097C20.045 5.48769 20.913 4.86902 20.913 4.86902ZM17.7622 4.68199C17.9588 4.68199 18.1218 4.51893 18.1218 4.3223C18.1218 4.12087 17.9588 3.96261 17.7622 3.96261C17.5655 3.96261 17.4025 4.12567 17.4025 4.3223C17.4025 4.51893 17.5655 4.68199 17.7622 4.68199ZM22.1264 4.99372C22.1264 4.99372 21.4358 4.97933 20.8075 5.3582L22.8362 5.38698C22.8697 5.3582 22.8697 5.3582 22.9081 5.33422C22.9081 5.33422 21.8962 2.59579 19.2057 2.26008C19.2057 2.26008 19.8531 4.28393 22.1264 4.99372ZM23.5508 5.52126C23.5508 5.37259 23.4309 5.25269 23.2822 5.25269C23.1335 5.25269 23.0136 5.37259 23.0136 5.52126C23.0136 5.66993 23.1335 5.78983 23.2822 5.78983C23.4357 5.78983 23.5508 5.67473 23.5508 5.52126ZM12.7121 5.38698L14.7408 5.3582C14.1077 4.97933 13.4171 4.99372 13.4171 4.99372C15.6903 4.28393 16.3378 2.26008 16.3378 2.26008C13.6473 2.59579 12.6354 5.33422 12.6354 5.33422C12.6785 5.3582 12.6785 5.3582 12.7121 5.38698ZM12.0647 5.66994C12.0647 5.81861 12.1846 5.9385 12.3332 5.9385C12.4819 5.9385 12.6018 5.81861 12.6018 5.66994C12.6018 5.52127 12.4819 5.40136 12.3332 5.40136C12.1846 5.40136 12.0647 5.52127 12.0647 5.66994ZM12.2277 7.83287C10.765 6.79216 8.63085 7.59787 8.63085 7.59787C10.5252 6.15431 10.5108 3.8523 10.5108 3.8523C8.09851 5.08963 8.08412 8.00552 8.08412 8.00552C11.0384 8.88316 12.2277 7.83287 12.2277 7.83287ZM13.043 7.26695L13.0622 6.27901C11.964 5.95768 10.8513 6.16391 10.8513 6.16391C12.9663 5.07525 13.3548 2.80201 13.3548 2.80201C10.765 3.59812 10.2423 6.47084 10.2423 6.47084C11.4412 7.06553 12.3716 7.24777 13.043 7.26695ZM24.7305 6.00085C24.7305 6.00085 23.8481 5.73228 22.7402 6.11116L22.7355 7.12308C23.4117 7.10869 24.1023 6.94563 25.3444 6.2886C25.3444 6.2886 24.7545 3.43027 22.1504 2.69171C22.1504 2.6965 22.5916 4.96014 24.7305 6.00085ZM14.6353 4.98892C14.6353 4.98892 15.5273 5.57881 17.0907 4.49975C17.0907 4.49495 15.1532 3.69883 14.6353 4.98892ZM28.2027 18.6811H27.0661V20.115H28.2027V18.6811ZM25.143 8.84958L24.5579 9.54978L27.7279 12.7198L28.3706 12.0772L25.143 8.84958ZM31.3152 8.75367L28.4089 5.84738L25.8048 8.67693L28.6008 11.4345L31.3152 8.75367ZM7.62372 8.43235C7.62372 8.58102 7.74361 8.70091 7.89229 8.70091C8.04096 8.70091 8.16086 8.58102 8.16086 8.43235C8.16086 8.28368 8.04096 8.16378 7.89229 8.16378C7.74361 8.16378 7.62372 8.28368 7.62372 8.43235ZM29.1379 11.4921C29.6367 11.636 30.2506 11.7415 31.0035 11.7703C31.0035 11.7703 31.344 10.7535 31.1953 9.52101L30.217 10.461C30.3225 10.7104 30.4568 10.9598 30.6246 11.2091C30.6246 11.2091 30.3561 10.9837 29.9196 10.7439L29.1379 11.4921ZM28.2555 25.7022H27.1237V27.1362H28.2555V25.7022ZM26.6057 7.10389L27.2627 6.43727C26.9846 5.49728 26.4187 4.36066 25.0183 3.68445C25.0183 3.68445 24.9607 5.69871 26.6057 7.10389ZM32.5046 17.1464C32.5046 17.2951 32.6245 17.415 32.7732 17.415C32.9219 17.415 33.0417 17.2951 33.0417 17.1464C33.0417 16.9977 32.9219 16.8778 32.7732 16.8778C32.6293 16.8778 32.5046 16.9977 32.5046 17.1464ZM28.9749 3.81874C29.8237 4.24077 30.5047 3.79955 30.5047 3.79955C31.4495 3.33435 32.1305 3.98179 32.1305 3.98179C32.7876 4.49495 32.6821 5.17596 32.6821 5.17596C32.6821 5.69391 32.5334 5.73228 32.5334 5.73228C32.2169 5.94809 32.2984 5.58361 32.2984 5.58361C32.308 5.57881 32.3703 5.32943 32.3703 5.32943C32.495 4.15444 31.4399 3.98659 31.4399 3.98659C30.3273 3.79475 30.0443 4.82586 30.0443 4.82586C29.9724 5.10882 29.9676 5.363 30.0012 5.58361L28.6056 4.18801L28.6727 5.3678L31.7852 8.4803H32.8979L31.766 7.34849C32.3655 7.53552 32.8883 7.5547 32.8883 7.5547C34.4805 7.45879 34.6436 5.9385 34.6436 5.9385C35.0656 4.35108 33.5549 3.06578 33.5549 3.06578C32.5526 2.20253 31.0323 2.13059 31.0323 2.13059C28.8694 1.88121 28.102 0.5 28.102 0.5C27.8478 1.12826 27.915 2.05865 27.915 2.05865C28.0636 3.48302 28.9749 3.81874 28.9749 3.81874ZM32.8883 16.7052C32.8883 16.7052 34.7011 14.4176 33.5885 11.9429C33.5885 11.9429 32.1401 13.7366 32.7156 16.0482C32.7156 16.0482 31.555 14.0867 29.7614 13.9859C29.7614 13.9859 30.0395 15.5446 32.8883 16.7052ZM31.0515 12.5088C31.2001 12.5088 31.32 12.3889 31.32 12.2403C31.32 12.0916 31.2001 11.9717 31.0515 11.9717C30.9028 11.9717 30.7829 12.0916 30.7829 12.2403C30.7829 12.3889 30.9028 12.5088 31.0515 12.5088ZM25.6322 8.15419L26.4474 7.31012C25.7568 7.15186 24.4524 6.92165 23.3973 7.70337C23.3973 7.70337 23.9392 8.31725 25.6322 8.15419ZM32.1593 14.1586C32.1593 14.1586 33.5501 11.5928 32.025 9.34836C32.025 9.34836 30.9076 11.3626 31.8812 13.5399C31.8812 13.5399 30.3944 11.8086 28.6104 12.0196C28.6104 12.0196 29.1523 13.5112 32.1593 14.1586ZM22.6539 33.7736C22.6539 33.9223 22.7738 34.0422 22.9225 34.0422C23.0712 34.0422 23.1911 33.9223 23.1911 33.7736C23.1911 33.625 23.0712 33.5051 22.9225 33.5051C22.7738 33.5003 22.6539 33.625 22.6539 33.7736ZM24.0016 33.5147C24.0016 33.5147 25.5266 32.2054 25.541 30.5748L24.9991 30.5988C24.5051 31.0304 23.7857 31.9464 23.3877 33.8024C23.3877 33.8024 25.9583 35.1884 28.1979 33.6633C28.1931 33.6585 26.1741 32.5411 24.0016 33.5147ZM21.4933 34.3539C21.4933 34.3539 23.4548 33.1885 23.5555 31.3997C23.5555 31.3997 21.9921 31.673 20.8315 34.5266C20.8315 34.5266 23.1191 36.3394 25.5938 35.2268C25.5938 35.2268 23.8001 33.7736 21.4933 34.3539ZM18.8604 34.915C20.8986 33.9703 21.3495 32.3876 21.3495 32.3876C19.7668 32.4979 18.4048 34.8767 18.4048 34.8767C20.1793 36.6895 22.4813 36.4593 22.4813 36.4593C21.4262 35.0637 18.8604 34.915 18.8604 34.915ZM17.7238 34.0806V34.752C17.4121 34.2628 16.2035 32.4931 14.8367 32.4068C14.8367 32.4068 15.3019 33.9846 17.3449 34.915C17.3449 34.915 14.7791 35.0829 13.7336 36.4929C13.7336 36.4929 15.9685 36.6943 17.7238 34.9534V36.0469H18.4048V34.8767V34.0854H17.7238V34.0806ZM27.1237 27.8939V29.3279L33.5405 34.6513H34.8258L28.2938 27.8939H27.1237ZM26.3276 32.2534C26.3276 32.2534 26.9126 31.5532 27.2004 30.5748L26.1069 30.5556C25.9343 31.0928 25.8048 31.7738 25.7712 32.6418C25.7712 32.6418 28.1356 33.4283 30.03 32.0567L29.301 31.4716C28.4857 31.4237 27.3778 31.5436 26.3276 32.2534ZM13.5994 33.8744C13.5994 33.7257 13.4795 33.6058 13.3308 33.6058C13.1821 33.6058 13.0622 33.7257 13.0622 33.8744C13.0622 34.023 13.1821 34.1429 13.3308 34.1429C13.4795 34.1429 13.5994 34.023 13.5994 33.8744ZM31.5406 26.3688C31.5406 26.3688 31.9099 24.1196 30.6055 22.8918C30.6055 22.8918 29.8141 24.2635 31.2481 26.9827C31.2481 26.9827 34.1064 26.3976 34.845 23.7839C34.8402 23.7839 32.5813 24.2251 31.5406 26.3688ZM28.8933 31.1263L27.9485 30.3542C27.9677 30.594 28.0013 30.8482 28.0445 31.1215C28.0397 31.1263 28.385 31.1647 28.8933 31.1263ZM27.4594 31.4764C27.608 31.4764 27.7279 31.3565 27.7279 31.2079C27.7279 31.0592 27.608 30.9393 27.4594 30.9393C27.3107 30.9393 27.1908 31.0592 27.1908 31.2079C27.1908 31.3565 27.3107 31.4764 27.4594 31.4764ZM4.95243 27.5534C4.95243 27.7021 5.07232 27.822 5.221 27.822C5.36967 27.822 5.48957 27.7021 5.48957 27.5534C5.48957 27.4047 5.36967 27.2848 5.221 27.2848C5.07232 27.2848 4.95243 27.4047 4.95243 27.5534ZM2.99092 22.3403C5.22579 20.2206 4.90926 18.6667 4.90926 18.6667C3.27867 19.4149 2.90939 21.6641 2.90939 21.6641C2.60725 19.2998 0.602589 18.1583 0.602589 18.1583C0.468305 20.8728 2.99092 22.3403 2.99092 22.3403ZM2.99572 22.7144C2.99572 22.8631 3.11562 22.983 3.26429 22.983C3.41296 22.983 3.53286 22.8631 3.53286 22.7144C3.53286 22.5657 3.41296 22.4458 3.26429 22.4458C3.12041 22.4458 2.99572 22.5657 2.99572 22.7144ZM6.8324 5.90014L4.751 3.79955C3.46092 2.50947 1.93584 3.36313 1.93584 3.36313L6.03629 7.4444C6.30966 6.39411 6.8324 5.90014 6.8324 5.90014ZM5.23059 7.19022L1.69125 3.65088C1.69125 3.65088 0.209328 4.71077 1.36033 7.19022H5.23059ZM3.69591 24.8965C5.52793 22.4219 4.94763 20.9447 4.94763 20.9447C3.47051 21.9614 3.49929 24.2443 3.49929 24.2443C2.79429 21.971 0.621773 21.1941 0.621773 21.1941C0.957483 23.8846 3.69591 24.8965 3.69591 24.8965ZM5.34089 31.9081C5.34089 31.9081 5.76293 31.6587 6.3672 31.5675L5.69579 31.4093L5.62864 31.4908C5.66701 31.4381 5.69579 31.4093 5.69579 31.4093L2.70797 34.5554C2.70797 34.5554 2.36746 35.0445 2.68878 35.3659C2.68878 35.3659 2.99092 35.6105 3.40337 35.3275L6.31445 32.7809C6.01711 32.6322 5.37446 32.0951 5.34089 31.9081ZM11.0048 30.6324L10.6259 30.6276C10.6067 32.3205 12.2325 33.6537 12.2325 33.6537C10.036 32.7329 8.04575 33.8983 8.04575 33.8983C10.3238 35.3707 12.856 33.9223 12.856 33.9223C12.362 31.8649 11.4988 30.9824 11.0048 30.6324ZM4.83733 27.2896C6.20894 24.5368 5.38885 23.1796 5.38885 23.1796C4.10836 24.4409 4.53039 26.6806 4.53039 26.6806C3.43694 24.5656 1.1685 24.1771 1.1685 24.1771C1.96461 26.7717 4.83733 27.2896 4.83733 27.2896ZM12.6258 31.5244C12.7697 33.3132 14.7552 34.4307 14.7552 34.4307C12.434 33.9079 10.6739 35.3994 10.6739 35.3994C13.1725 36.4497 15.417 34.5889 15.417 34.5889C14.194 31.7642 12.6258 31.5244 12.6258 31.5244ZM6.22812 9.89988C9.28788 10.2452 10.2758 9.00785 10.2758 9.00785C8.65483 8.24051 6.69332 9.40111 6.69332 9.40111C8.30953 7.65062 7.89708 5.38218 7.89708 5.38218C5.73415 7.01757 6.22812 9.89988 6.22812 9.89988ZM6.372 29.4526C7.24485 26.5031 6.19935 25.3138 6.19935 25.3138C5.15865 26.7765 5.96435 28.9106 5.96435 28.9106C4.5208 27.0163 2.21879 27.0307 2.21879 27.0307C3.45612 29.4382 6.372 29.4526 6.372 29.4526ZM28.7255 27.0355C28.7255 27.0355 28.5336 27.2369 28.4713 27.539L29.042 28.1289C29.0084 27.7644 28.9173 27.3904 28.7255 27.0355ZM9.70992 15.2281L10.7602 16.1537H13.1246C13.0095 15.9666 13.0478 15.2521 13.0478 15.2521L9.70992 15.2281ZM15.5752 8.30766V6.984H19.6901V8.87356H21.0473V10.2308H19.7285V10.8351H21.0473V12.3074H19.7285V16.7244H18.5966L17.0284 15.1561L15.5944 16.5901L14.5585 15.5542L16.9373 13.1754L18.165 14.4032V8.30766H15.5752ZM13.4603 14.6334C13.4603 17.7651 15.4218 19.2134 17.8485 19.2134C20.2752 19.2134 22.2415 17.7699 22.2415 14.6334V5.7035H13.4651C13.4603 5.7035 13.4603 11.5065 13.4603 14.6334ZM10.2231 9.48264C10.2231 9.48264 9.9593 9.8711 8.94738 10.0869L10.2231 11.2667V9.48264ZM21.4454 22.5226C21.7331 22.5226 21.7331 22.3068 21.7331 22.0861V20.0479H22.3182V22.206C22.3182 22.5226 22.2846 23.0549 21.4406 23.0549C20.8938 23.0549 20.5677 22.8007 20.5677 22.2444V20.0479H21.1528V21.9614C21.1528 22.1821 21.1288 22.5226 21.4454 22.5226ZM22.9513 23.6496V24.1963H22.3566V24.839H22.8793V25.3905H22.3566V26.0571H22.9609V26.6086H21.7715V23.6496H22.9513ZM22.793 20.0431H23.45L23.6227 20.4555C23.6706 20.5994 23.733 20.7529 23.7618 20.9064H23.7666C23.8001 20.7529 23.8481 20.6042 23.9009 20.4555L24.0783 20.0431H24.7113L24.0783 21.4771L24.7545 23.0022H24.0783L23.8913 22.5322C23.8337 22.3835 23.8001 22.2348 23.7618 22.0909H23.7522C23.709 22.2396 23.6754 22.3835 23.6227 22.5322L23.45 23.0022H22.793L23.4213 21.4771L22.793 20.0431ZM24.5723 26.6086L24.462 26.1099H23.8673L23.7618 26.6086H23.1815L23.8673 23.6496H24.4859L25.1957 26.6086H24.5723ZM20.8267 26.6086L20.6876 24.4745H20.678L20.5821 25.2034L20.3327 26.6086H19.8819L19.5942 25.1891L19.4983 24.5272V24.4697H19.4887L19.4023 26.6038H18.7741L19.0331 23.6448H19.8052L20.0929 25.3905H20.0977L20.3327 23.6448H21.1193L21.431 26.6038H20.8267V26.6086ZM18.9275 20.0431H19.5126V22.4554H20.1217V23.0022H18.9228V20.0431H18.9275ZM18.1794 19.5875V29.6252C18.1794 29.6252 18.7453 29.0641 19.5366 29.0641H25.7664V16.6093H22.4045C22.4045 16.6045 21.4502 19.5443 18.1794 19.5875ZM15.6616 20.8776C15.6616 20.6666 15.5609 20.4939 15.2635 20.5083H15.1868V21.2948L15.2875 21.2996C15.5561 21.2996 15.6616 21.1222 15.6616 20.8776ZM24.1598 24.4121H24.1502L24.0879 24.8581L23.9632 25.6447H24.3756L24.227 24.8581L24.1598 24.4121ZM8.40065 11.2235C8.29514 11.3051 7.54699 11.9909 6.41037 12.1252L6.79883 12.4896L10.8753 12.4705L9.6092 11.2091L8.96656 10.5665C8.96656 10.5665 8.51575 11.1468 8.40065 11.2235ZM31.1378 27.2417C31.1378 27.093 31.0179 26.9731 30.8692 26.9731C30.7206 26.9731 30.6007 27.093 30.6007 27.2417C30.6007 27.3904 30.7206 27.5103 30.8692 27.5103C31.0179 27.5103 31.1378 27.3904 31.1378 27.2417ZM32.706 22.6425C32.8547 22.6425 32.9746 22.5226 32.9746 22.3739C32.9746 22.2252 32.8547 22.1053 32.706 22.1053C32.5574 22.1053 32.4375 22.2252 32.4375 22.3739C32.4423 22.5226 32.5622 22.6425 32.706 22.6425ZM30.9795 20.6378C30.9795 20.6378 30.4376 22.1293 32.3272 24.5608C32.3272 24.5608 35.0416 23.4865 35.315 20.7865C35.315 20.7865 33.1664 21.6161 32.5142 23.9038C32.5094 23.9038 32.4806 21.6257 30.9795 20.6378ZM33.0369 21.314C33.0369 21.314 32.6149 19.0695 30.9699 18.3646C30.9699 18.3646 30.6918 19.9232 32.9746 21.9902C32.9746 21.9902 35.4637 20.4604 35.2622 17.7555C35.2574 17.7555 33.2863 18.9449 33.0369 21.314ZM29.8381 25.0308C29.8381 25.0308 28.8214 26.2489 29.7614 29.1744C29.7614 29.1744 32.6773 29.0929 33.857 26.6518C33.857 26.6518 31.5502 26.695 30.1546 28.6229C30.1546 28.6229 30.9076 26.4743 29.8381 25.0308ZM33.1089 18.6667C33.1089 18.6667 32.3032 16.5325 30.5575 16.1201C30.5575 16.1201 30.5575 17.7075 33.1616 19.3429C33.1616 19.3429 35.3438 17.4054 34.6771 14.7773C34.6771 14.7773 32.941 16.2928 33.1089 18.6667ZM31.2385 30.4069C31.6845 30.1288 32.1114 29.7499 32.4662 29.232C32.4662 29.232 31.4927 29.1073 30.3561 29.4909L31.2385 30.4069ZM14.2468 24.839L14.1797 24.3882H14.1701L14.1077 24.839L13.983 25.6255H14.3955L14.2468 24.839ZM5.58068 7.34369C3.73428 9.32917 4.72223 12.0772 4.72223 12.0772C7.79157 11.8902 8.55412 10.4994 8.55412 10.4994C6.82281 10.0246 5.09631 11.5065 5.09631 11.5065C6.38159 9.50662 5.58068 7.34369 5.58068 7.34369ZM17.1051 31.1215H18.8748C18.8748 31.1215 18.9899 30.3542 19.4935 30.3542H26.8455V17.415L26.1165 16.6476V29.467H19.5318C19.5318 29.467 18.6446 29.5437 17.954 30.3926C17.954 30.3926 17.4169 29.5821 16.2611 29.5101H9.82981V16.7675L9.0385 17.5541V30.3542H16.2179C16.2179 30.3494 17.1051 30.3878 17.1051 31.1215ZM3.34582 17.5013C3.34582 17.3526 3.22592 17.2327 3.07725 17.2327C2.92858 17.2327 2.80868 17.3526 2.80868 17.5013C2.80868 17.65 2.92858 17.7699 3.07725 17.7699C3.22112 17.7699 3.34582 17.65 3.34582 17.5013ZM3.10603 16.3935C3.62877 14.0723 2.13726 12.317 2.13726 12.317C1.08217 14.8156 2.94776 17.0601 2.94776 17.0601C5.77252 15.8324 6.00751 14.2641 6.00751 14.2641C4.22346 14.408 3.10603 16.3935 3.10603 16.3935ZM1.12054 15.1705C0.516263 17.813 2.74154 19.7026 2.74154 19.7026C5.30732 18.0049 5.26895 16.4174 5.26895 16.4174C3.53285 16.8683 2.77511 19.0216 2.77511 19.0216C2.89021 16.6428 1.12054 15.1705 1.12054 15.1705ZM4.04601 9.90467C4.04601 9.90467 3.89255 8.9455 4.89008 7.51154H1.5138C1.5138 7.50675 1.65768 7.9 4.04601 9.90467ZM12.9711 14.8972V14.5327L11.2158 12.7774H7.10097L9.42216 14.8972H12.9711ZM8.73156 29.7499C8.74115 29.8746 8.76513 29.7211 8.76513 29.7211V27.9707L8.47738 28.292C8.64044 28.7332 8.69799 29.371 8.73156 29.7499ZM4.4057 12.5472C4.4057 12.6959 4.5256 12.8158 4.67427 12.8158C4.82294 12.8158 4.94284 12.6959 4.94284 12.5472C4.94284 12.3985 4.82294 12.2786 4.67427 12.2786C4.53039 12.2786 4.4057 12.3985 4.4057 12.5472ZM8.71238 31.7114C8.86105 31.7114 8.98095 31.5915 8.98095 31.4429C8.98095 31.2942 8.86105 31.1743 8.71238 31.1743C8.56371 31.1743 8.44381 31.2942 8.44381 31.4429C8.44861 31.5915 8.5685 31.7114 8.71238 31.7114ZM10.5924 11.6648L12.9711 14.0003V12.1923L10.5924 9.81355V11.6648ZM8.74115 25.5727H7.60933V27.0067H8.74115V25.5727ZM24.5003 10.1732L22.6491 12.1827L22.6683 15.3959C22.6683 15.3959 22.6108 15.9283 22.4957 16.192H23.6898L27.0853 12.7918L24.5003 10.1732ZM14.4818 20.0239V20.5754H13.8871V21.2181H14.4099V21.7696H13.8871V22.4362H14.4866V22.9878H13.302V20.0335L12.4819 22.9878H12.0023L11.1487 20.0287H11.7721L12.127 21.4531C12.1798 21.6209 12.199 21.7888 12.2325 21.9567H12.2373C12.2709 21.784 12.2805 21.6162 12.3285 21.4435L12.6833 20.0287H14.4818V20.0239ZM15.2204 26.5895H14.5969L14.4866 26.0907H13.8919L13.7864 26.5895H13.2061L13.8919 23.6304H14.5058L15.2204 26.5895ZM14.6017 20.0239H15.1916C15.5657 20.0239 16.2323 20.0623 16.2323 20.8728C16.2323 21.1989 16.1028 21.4771 15.8102 21.6353L16.3234 22.983H15.7047L15.1916 21.6162H15.182V22.983H14.5969V20.0239H14.6017ZM16.4433 20.0239H17.0284V22.983H16.4433V20.0239ZM16.0069 26.6374C15.839 26.6374 15.6376 26.5894 15.5033 26.4887V25.9324C15.6424 26.0283 15.7719 26.0907 15.9493 26.0907C16.1364 26.0907 16.285 25.966 16.285 25.7694C16.285 25.544 16.1028 25.4576 15.9397 25.3377C15.5992 25.1123 15.393 24.8917 15.393 24.4601C15.393 23.9949 15.6616 23.592 16.1651 23.592C16.3522 23.592 16.5248 23.6448 16.6831 23.7359V24.3066C16.5632 24.2059 16.4193 24.1196 16.2611 24.1196C16.0788 24.1196 15.9637 24.2299 15.9637 24.4073C15.9637 24.8965 16.8557 24.9205 16.8557 25.7214C16.8605 26.2394 16.5584 26.6374 16.0069 26.6374ZM13.1006 24.1819H12.6354V26.5895H12.0503V24.1819H11.5899V23.6304H13.0958V24.1819H13.1006ZM10.1751 16.6045V29.0593H16.3474C17.0476 29.0737 17.7622 29.6204 17.7622 29.6204V19.6642C14.0262 19.5827 13.2684 16.6093 13.2684 16.6093H10.1751V16.6045ZM10.4437 32.8193C10.3861 31.8697 10.2135 31.1791 10.0025 30.6228H8.90901C9.20635 31.6635 9.87777 32.4452 9.87777 32.4452C7.8779 31.1599 5.71497 31.956 5.71497 31.956C7.69566 33.8024 10.4437 32.8193 10.4437 32.8193ZM6.73169 12.8637L6.18496 12.3506C4.85651 12.6863 3.88775 13.8661 3.88775 13.8661C4.51121 12.3745 4.1755 10.9741 3.89255 10.2308L3.49449 9.90467C2.33869 12.0916 3.61918 14.4895 3.61918 14.4895C5.39365 14.0627 6.29527 13.3673 6.73169 12.8637ZM3.74867 29.6444C5.38405 31.8025 8.26157 31.3134 8.26157 31.3134C8.61167 28.2536 7.37434 27.2609 7.37434 27.2609C6.607 28.8819 7.7676 30.8434 7.7676 30.8434C6.01711 29.232 3.74867 29.6444 3.74867 29.6444ZM8.70279 18.7962H7.57096V20.2301H8.70279V18.7962Z" fill="#a3a3a3"/>
</svg>
