<svg height="33" viewBox="0 0 111 33" fill="none" xmlns="http://www.w3.org/2000/svg">
<path d="M11.2033 5.56341C11.1568 5.48454 10.9941 5.36623 10.7153 5.2085C10.4364 5.03498 10.0878 4.85359 9.66954 4.6643C9.25125 4.47501 8.79423 4.30939 8.29848 4.16742C7.80273 4.02546 7.30698 3.95447 6.81123 3.95447C6.16056 3.95447 5.65706 4.07278 5.30074 4.30939C4.94442 4.53022 4.76626 4.87725 4.76626 5.35046C4.76626 5.72903 4.89795 6.02874 5.16131 6.24957C5.44017 6.47041 5.83522 6.66758 6.34647 6.84109C6.85771 6.99883 7.48514 7.18812 8.22877 7.40895C9.28223 7.69288 10.1963 8.0399 10.9709 8.45002C11.7455 8.84437 12.3342 9.35702 12.737 9.98798C13.1553 10.6189 13.3644 11.4549 13.3644 12.496C13.3644 13.4425 13.194 14.2469 12.8532 14.9094C12.5124 15.5561 12.0476 16.0846 11.4589 16.4947C10.8857 16.889 10.2273 17.1809 9.48363 17.3701C8.74001 17.5437 7.97314 17.6304 7.18304 17.6304C6.37745 17.6304 5.54862 17.5515 4.69655 17.3938C3.85997 17.2203 3.05438 16.9837 2.27977 16.684C1.50516 16.3685 0.792517 15.9899 0.141846 15.5483L1.815 12.1648C1.87697 12.2436 2.07837 12.3935 2.4192 12.6143C2.76002 12.8194 3.17831 13.0402 3.67406 13.2768C4.18531 13.4977 4.75077 13.6948 5.37046 13.8683C5.99014 14.0419 6.61758 14.1286 7.25276 14.1286C7.93441 14.1286 8.43791 14.0182 8.76324 13.7974C9.10407 13.5765 9.27449 13.2689 9.27449 12.8746C9.27449 12.4487 9.09633 12.1174 8.74001 11.8808C8.39918 11.6442 7.92667 11.4313 7.32247 11.242C6.73377 11.0527 6.05211 10.8398 5.2775 10.6032C4.27051 10.2877 3.43393 9.93277 2.76777 9.53842C2.1171 9.14407 1.6291 8.66297 1.30376 8.09511C0.993916 7.52725 0.838994 6.81743 0.838994 5.96564C0.838994 4.7826 1.11011 3.78885 1.65233 2.98438C2.21005 2.16414 2.95368 1.54896 3.88321 1.13884C4.81274 0.712947 5.82748 0.5 6.92742 0.5C7.70203 0.5 8.44565 0.594643 9.1583 0.783929C9.88643 0.973215 10.5603 1.20982 11.18 1.49375C11.8152 1.77768 12.3807 2.06161 12.8764 2.34554L11.2033 5.56341Z" fill="#a3a3a3"/>
<path d="M21.2709 7.83484V17.4411H17.4598V0.641964H20.4808L28.1262 10.5322V0.641964H31.9373V17.4411H28.8233L21.2709 7.83484Z" fill="#a3a3a3"/>
<path d="M44.0395 17.5831C42.7227 17.5831 41.5995 17.3623 40.6699 16.9206C39.7404 16.4631 38.9813 15.848 38.3926 15.075C37.8194 14.2864 37.3933 13.3951 37.1145 12.4014C36.8511 11.3918 36.7194 10.335 36.7194 9.23083V0.641964H40.5305V9.23083C40.5305 9.86178 40.5925 10.477 40.7164 11.0764C40.8404 11.66 41.0418 12.1805 41.3206 12.638C41.5995 13.0954 41.9558 13.4582 42.3896 13.7264C42.8388 13.9945 43.3888 14.1286 44.0395 14.1286C44.7057 14.1286 45.2634 13.9945 45.7126 13.7264C46.1619 13.4425 46.5182 13.0718 46.7816 12.6143C47.045 12.1411 47.2386 11.6127 47.3626 11.029C47.4865 10.4454 47.5485 9.84601 47.5485 9.23083V0.641964H51.3595V9.23083C51.3595 10.3981 51.2124 11.4865 50.918 12.496C50.6392 13.5055 50.2054 14.3968 49.6167 15.1697C49.028 15.9268 48.2689 16.5184 47.3393 16.9442C46.4253 17.3701 45.3253 17.5831 44.0395 17.5831Z" fill="#a3a3a3"/>
<path d="M55.2187 8.89958C55.2187 7.87428 55.4046 6.87264 55.7765 5.89466C56.1483 4.90091 56.6905 4.0018 57.4031 3.19733C58.1158 2.39286 58.9833 1.75402 60.0058 1.28081C61.0283 0.791816 62.1902 0.547321 63.4916 0.547321C65.0408 0.547321 66.3808 0.886459 67.5118 1.56474C68.6582 2.24301 69.5103 3.12635 70.068 4.21474L67.14 6.29689C66.8921 5.69749 66.559 5.23216 66.1407 4.90091C65.7379 4.56966 65.2887 4.34093 64.7929 4.21474C64.3126 4.07278 63.8479 4.0018 63.3986 4.0018C62.6705 4.0018 62.0353 4.15165 61.4931 4.45135C60.9508 4.73528 60.5016 5.12174 60.1452 5.61073C59.7889 6.09972 59.5256 6.64392 59.3551 7.24332C59.1847 7.84273 59.0995 8.44214 59.0995 9.04154C59.0995 9.70405 59.2002 10.3429 59.4016 10.9581C59.603 11.5732 59.8896 12.1174 60.2614 12.5907C60.6487 13.0639 61.1135 13.4425 61.6557 13.7264C62.198 13.9945 62.7944 14.1286 63.4451 14.1286C63.9098 14.1286 64.3824 14.0497 64.8626 13.892C65.3429 13.7343 65.7844 13.4898 66.1872 13.1585C66.6055 12.8115 66.9231 12.3619 67.14 11.8099L70.2539 13.6791C69.9286 14.4993 69.3941 15.2012 68.6505 15.7849C67.9068 16.3685 67.0625 16.8181 66.1175 17.1335C65.1879 17.4332 64.2662 17.5831 63.3521 17.5831C62.1592 17.5831 61.0593 17.3386 60.0523 16.8496C59.0608 16.3448 58.201 15.6823 57.4728 14.8621C56.7602 14.0261 56.2025 13.0954 55.7997 12.0701C55.4124 11.0291 55.2187 9.9722 55.2187 8.89958Z" fill="#a3a3a3"/>
<path d="M81.0297 17.5831C79.7904 17.5831 78.6672 17.3465 77.6602 16.8733C76.6687 16.3843 75.8089 15.7375 75.0807 14.9331C74.3681 14.1128 73.8181 13.198 73.4308 12.1884C73.0435 11.1631 72.8499 10.1063 72.8499 9.01788C72.8499 7.89794 73.0513 6.8332 73.4541 5.82368C73.8723 4.81415 74.4456 3.91504 75.1737 3.12635C75.9173 2.32188 76.7926 1.69093 77.7996 1.23348C78.8066 0.776042 79.9066 0.547321 81.0994 0.547321C82.3233 0.547321 83.431 0.791816 84.4225 1.28081C85.4295 1.75402 86.2893 2.40075 87.002 3.22099C87.7301 4.04123 88.2878 4.964 88.6751 5.9893C89.0624 6.99883 89.2561 8.03202 89.2561 9.08887C89.2561 10.2088 89.0547 11.2735 88.6519 12.2831C88.2491 13.2926 87.6759 14.1996 86.9323 15.0041C86.1886 15.7928 85.3133 16.4237 84.3063 16.8969C83.3148 17.3544 82.2226 17.5831 81.0297 17.5831ZM76.7307 9.0652C76.7307 9.71193 76.8236 10.3429 77.0095 10.9581C77.1954 11.5575 77.4665 12.0938 77.8229 12.567C78.1947 13.0402 78.6517 13.4188 79.1939 13.7027C79.7361 13.9866 80.3558 14.1286 81.053 14.1286C81.7811 14.1286 82.4163 13.9866 82.9585 13.7027C83.5007 13.403 83.95 13.0087 84.3063 12.5197C84.6627 12.0307 84.926 11.4865 85.0964 10.8871C85.2823 10.2719 85.3753 9.64884 85.3753 9.01788C85.3753 8.37115 85.2823 7.74809 85.0964 7.14868C84.9105 6.54927 84.6317 6.01296 84.2599 5.53975C83.888 5.05076 83.431 4.67219 82.8888 4.40403C82.3466 4.13587 81.7346 4.0018 81.053 4.0018C80.3248 4.0018 79.6897 4.14376 79.1474 4.42769C78.6207 4.71162 78.1714 5.09808 77.7996 5.58707C77.4433 6.06028 77.1722 6.60448 76.9863 7.21966C76.8159 7.81907 76.7307 8.43425 76.7307 9.0652Z" fill="#a3a3a3"/>
<path d="M106.331 17.4411V7.43261L102.775 14.7201H100.684L97.1284 7.43261V17.4411H93.3173V0.641964H97.4538L101.73 9.42012L106.029 0.641964H110.142V17.4411H106.331Z" fill="#a3a3a3"/>
<path d="M3.70779 27.8923H5.69149V28.4154H3.70779V27.8923ZM1.99173 26.1385H2.52701V27.3769C2.52701 28.9385 1.68473 30.4308 0.559053 31.0231L0.141846 30.5154C1.1888 30.0077 1.99173 28.6692 1.99173 27.3769V26.1385ZM2.11768 26.1385H2.64509V27.3769C2.64509 28.6462 3.44802 29.9077 4.47923 30.3846L4.09351 30.9C2.94422 30.3308 2.11768 28.9 2.11768 27.3769V26.1385ZM5.36875 25.5308H6.01424V32.5H5.36875V25.5308Z" fill="#a3a3a3"/>
<path d="M12.563 28.8077H13.2085V29.8769H12.563V28.8077ZM12.8936 25.6231C14.4601 25.6231 15.3969 26.0462 15.3969 26.8231C15.3969 27.6 14.4601 28.0308 12.8936 28.0308C11.3192 28.0308 10.3904 27.6 10.3904 26.8231C10.3904 26.0462 11.3192 25.6231 12.8936 25.6231ZM12.8936 26.1077C11.7286 26.1077 11.0595 26.3692 11.0595 26.8231C11.0595 27.2846 11.7286 27.5462 12.8936 27.5462C14.0508 27.5462 14.7199 27.2846 14.7199 26.8231C14.7199 26.3692 14.0508 26.1077 12.8936 26.1077ZM9.67403 28.4769H16.1053V29H9.67403V28.4769ZM10.4533 29.6385H15.2867V31.2077H11.1146V32.0538H10.4691V30.7462H14.6412V30.1308H10.4533V29.6385ZM10.4691 31.9154H15.4992V32.4154H10.4691V31.9154Z" fill="#a3a3a3"/>
<path d="M24.6142 25.5385H25.2439V32.4923H24.6142V25.5385ZM23.4098 28.3231H24.7795V28.8538H23.4098V28.3231ZM23.0004 25.6923H23.6144V32.1385H23.0004V25.6923ZM19.4581 30.2462H19.9226C20.9616 30.2462 21.6701 30.2077 22.4966 30.0385L22.5596 30.5692C21.7095 30.7462 20.9931 30.7769 19.9226 30.7769H19.4581V30.2462ZM19.4581 26.3846H22.1031V26.9077H20.1036V30.4846H19.4581V26.3846Z" fill="#a3a3a3"/>
<path d="M36.8568 27.3769H38.5177V27.9H36.8568V27.3769ZM36.1956 25.9385H36.8725C36.8725 27.7077 35.8649 28.9923 33.653 29.6538L33.3853 29.1462C35.3533 28.5692 36.1956 27.5308 36.1956 26.1846V25.9385ZM33.7081 25.9385H36.5813V26.4538H33.7081V25.9385ZM36.1877 27.2V27.6462L33.464 27.8538L33.3538 27.3308L36.1877 27.2ZM38.3997 25.5385H39.053V29.5462H38.3997V25.5385ZM34.4638 29.9231H39.053V32.4H34.4638V29.9231ZM38.4154 30.4308H35.1092V31.8846H38.4154V30.4308Z" fill="#a3a3a3"/>
<path d="M44.3974 29.6846H45.0508V32.4923H44.3974V29.6846ZM46.8534 29.6846H47.5068V32.4923H46.8534V29.6846ZM43.3268 25.9231H48.5537V26.4462H43.3268V25.9231ZM43.3583 28.3154H48.5222V28.8385H43.3583V28.3154ZM44.4053 26.3308H45.0586V28.6231H44.4053V26.3308ZM46.8298 26.3308H47.4753V28.6231H46.8298V26.3308ZM42.7207 29.6308H49.1677V30.1538H42.7207V29.6308Z" fill="#a3a3a3"/>
<path d="M57.464 25.5308H58.1095V32.5H57.464V25.5308ZM55.9841 28.1538H57.5585V28.6846H55.9841V28.1538ZM52.5756 30.3H53.1188C54.457 30.3 55.2993 30.2769 56.299 30.0923L56.362 30.6154C55.3386 30.7923 54.4727 30.8308 53.1188 30.8308H52.5756V30.3ZM52.5756 26.1692H55.8661V26.7H53.2211V30.4846H52.5756V26.1692ZM53.0558 28.1231H55.5591V28.6385H53.0558V28.1231Z" fill="#a3a3a3"/>
<path d="M64.9653 29.9231C66.4767 29.9231 67.4449 30.4077 67.4449 31.2077C67.4449 32 66.4767 32.4769 64.9653 32.4769C63.446 32.4769 62.4857 32 62.4857 31.2077C62.4857 30.4077 63.446 29.9231 64.9653 29.9231ZM64.9653 30.4231C63.8475 30.4231 63.1311 30.7231 63.1311 31.2077C63.1311 31.6846 63.8475 31.9846 64.9653 31.9846C66.0831 31.9846 66.7916 31.6846 66.7916 31.2077C66.7916 30.7231 66.0831 30.4231 64.9653 30.4231ZM62.5408 25.8846H67.1222V26.4077H62.5408V25.8846ZM61.7772 28.7769H68.2006V29.2923H61.7772V28.7769ZM64.4143 27.4385H65.0597V28.9231H64.4143V27.4385ZM66.7443 25.8846H67.3819V26.4769C67.3819 27.0385 67.3819 27.6 67.193 28.3231L66.5475 28.2462C66.7443 27.5308 66.7443 27.0231 66.7443 26.4769V25.8846Z" fill="#a3a3a3"/>
<path d="M71.3172 26.2692H75.5208V26.7923H71.3172V26.2692ZM73.419 27.1462C74.4266 27.1462 75.1193 27.6385 75.1193 28.4077C75.1193 29.1692 74.4266 29.6538 73.419 29.6538C72.3957 29.6538 71.7108 29.1692 71.7108 28.4077C71.7108 27.6385 72.3957 27.1462 73.419 27.1462ZM73.419 27.6462C72.7657 27.6462 72.3327 27.9385 72.3327 28.4077C72.3327 28.8615 72.7657 29.1615 73.419 29.1615C74.0566 29.1615 74.4975 28.8615 74.4975 28.4077C74.4975 27.9385 74.0566 27.6462 73.419 27.6462ZM76.1663 25.5385H76.8197V29.8846H76.1663V25.5385ZM76.6386 27.4538H77.8745V27.9846H76.6386V27.4538ZM72.1989 30.2615H76.8197V32.4923H76.1663V30.7846H72.1989V30.2615ZM73.0884 25.5H73.7418V26.5615H73.0884V25.5Z" fill="#a3a3a3"/>
<path d="M85.2995 28.9615H91.7308V29.4846H85.2995V28.9615ZM88.1885 27.8462H88.834V29.1769H88.1885V27.8462ZM86.1103 27.6462H90.983V28.1692H86.1103V27.6462ZM86.1103 25.8538H90.9279V26.3692H86.7558V27.9538H86.1103V25.8538ZM88.5034 29.9846C90.0226 29.9846 90.9437 30.4385 90.9437 31.2308C90.9437 32.0385 90.0226 32.4846 88.5034 32.4846C86.9841 32.4846 86.0631 32.0385 86.0631 31.2308C86.0631 30.4385 86.9841 29.9846 88.5034 29.9846ZM88.5034 30.4769C87.3935 30.4769 86.7243 30.7538 86.7243 31.2308C86.7243 31.7154 87.3935 31.9846 88.5034 31.9846C89.6212 31.9846 90.2824 31.7154 90.2824 31.2308C90.2824 30.7538 89.6212 30.4769 88.5034 30.4769Z" fill="#a3a3a3"/>
<path d="M94.816 29.0923H101.263V29.6154H94.816V29.0923ZM97.7601 29.4154H98.4134V31.0154H97.7601V29.4154ZM95.6425 25.8615H100.429V28.3077H95.6425V25.8615ZM99.7831 26.3769H96.2801V27.7923H99.7831V26.3769ZM95.6347 31.8154H100.547V32.3385H95.6347V31.8154ZM95.6347 30.3462H96.2801V32H95.6347V30.3462Z" fill="#a3a3a3"/>
<path d="M106.371 29.7077H107.032V30.8538H106.371V29.7077ZM109.488 25.5385H110.142V32.4923H109.488V25.5385ZM104.474 31.1692L104.388 30.6385C105.734 30.6308 107.505 30.6154 109.04 30.4231L109.087 30.8923C107.505 31.1538 105.789 31.1692 104.474 31.1692ZM104.537 26.3846H108.859V26.9H104.537V26.3846ZM106.694 27.3C107.717 27.3 108.41 27.8077 108.41 28.5846C108.41 29.3692 107.717 29.8692 106.694 29.8692C105.679 29.8692 104.986 29.3692 104.986 28.5846C104.986 27.8077 105.679 27.3 106.694 27.3ZM106.694 27.7923C106.056 27.7923 105.608 28.1077 105.608 28.5846C105.608 29.0615 106.056 29.3769 106.694 29.3769C107.339 29.3769 107.788 29.0615 107.788 28.5846C107.788 28.1077 107.339 27.7923 106.694 27.7923ZM106.371 25.5385H107.025V26.6692H106.371V25.5385Z" fill="#a3a3a3"/>
</svg>
