<svg width="20" height="20" viewBox="0 0 20 20" fill="none" xmlns="http://www.w3.org/2000/svg">
<mask id="mask0_6117_130216" maskUnits="userSpaceOnUse" x="0" y="0" width="20" height="20">
<rect width="20" height="20" fill="#D9D9D9"/>
</mask>
<g mask="url(#mask0_6117_130216)">
<path d="M5.27603 16.8571C4.91946 16.8571 4.61765 16.7394 4.37059 16.504C4.12353 16.2686 4 15.981 4 15.6413V6.6387C4 6.29894 4.12353 6.01135 4.37059 5.77594C4.61765 5.54053 4.91946 5.42282 5.27603 5.42282H6.25341V4H7.33936V5.42282H12.6878V4H13.7466V5.42282H14.724C15.0805 5.42282 15.3824 5.54053 15.6294 5.77594C15.8765 6.01135 16 6.29894 16 6.6387V15.6413C16 15.981 15.8765 16.2686 15.6294 16.504C15.3824 16.7394 15.0805 16.8571 14.724 16.8571H5.27603ZM5.27603 15.8482H14.724C14.7783 15.8482 14.8281 15.8267 14.8733 15.7836C14.9186 15.7404 14.9412 15.693 14.9412 15.6413V9.32913H5.05881V15.6413C5.05881 15.693 5.08143 15.7404 5.12668 15.7836C5.17194 15.8267 5.22172 15.8482 5.27603 15.8482ZM5.05881 8.32024H14.9412V6.6387C14.9412 6.58695 14.9186 6.53951 14.8733 6.49639C14.8281 6.45327 14.7783 6.43172 14.724 6.43172H5.27603C5.22172 6.43172 5.17194 6.45327 5.12668 6.49639C5.08143 6.53951 5.05881 6.58695 5.05881 6.6387V8.32024ZM10 11.8643C9.82715 11.8643 9.67987 11.8063 9.55815 11.6904C9.43643 11.5744 9.37557 11.434 9.37557 11.2693C9.37557 11.1046 9.43643 10.9643 9.55815 10.8483C9.67987 10.7323 9.82715 10.6744 10 10.6744C10.1728 10.6744 10.3201 10.7323 10.4418 10.8483C10.5636 10.9643 10.6244 11.1046 10.6244 11.2693C10.6244 11.434 10.5636 11.5744 10.4418 11.6904C10.3201 11.8063 10.1728 11.8643 10 11.8643ZM7.17646 11.8643C7.00361 11.8643 6.85633 11.8063 6.73461 11.6904C6.6129 11.5744 6.55204 11.434 6.55204 11.2693C6.55204 11.1046 6.6129 10.9643 6.73461 10.8483C6.85633 10.7323 7.00361 10.6744 7.17646 10.6744C7.34931 10.6744 7.49659 10.7323 7.61831 10.8483C7.74003 10.9643 7.80089 11.1046 7.80089 11.2693C7.80089 11.434 7.74003 11.5744 7.61831 11.6904C7.49659 11.8063 7.34931 11.8643 7.17646 11.8643ZM12.8235 11.8643C12.6507 11.8643 12.5034 11.8063 12.3817 11.6904C12.26 11.5744 12.1991 11.434 12.1991 11.2693C12.1991 11.1046 12.26 10.9643 12.3817 10.8483C12.5034 10.7323 12.6507 10.6744 12.8235 10.6744C12.9964 10.6744 13.1437 10.7323 13.2654 10.8483C13.3871 10.9643 13.448 11.1046 13.448 11.2693C13.448 11.434 13.3871 11.5744 13.2654 11.6904C13.1437 11.8063 12.9964 11.8643 12.8235 11.8643ZM10 14.503C9.82715 14.503 9.67987 14.445 9.55815 14.3291C9.43643 14.2131 9.37557 14.0727 9.37557 13.908C9.37557 13.7433 9.43643 13.603 9.55815 13.487C9.67987 13.371 9.82715 13.313 10 13.313C10.1728 13.313 10.3201 13.371 10.4418 13.487C10.5636 13.603 10.6244 13.7433 10.6244 13.908C10.6244 14.0727 10.5636 14.2131 10.4418 14.3291C10.3201 14.445 10.1728 14.503 10 14.503ZM7.17646 14.503C7.00361 14.503 6.85633 14.445 6.73461 14.3291C6.6129 14.2131 6.55204 14.0727 6.55204 13.908C6.55204 13.7433 6.6129 13.603 6.73461 13.487C6.85633 13.371 7.00361 13.313 7.17646 13.313C7.34931 13.313 7.49659 13.371 7.61831 13.487C7.74003 13.603 7.80089 13.7433 7.80089 13.908C7.80089 14.0727 7.74003 14.2131 7.61831 14.3291C7.49659 14.445 7.34931 14.503 7.17646 14.503ZM12.8235 14.503C12.6507 14.503 12.5034 14.445 12.3817 14.3291C12.26 14.2131 12.1991 14.0727 12.1991 13.908C12.1991 13.7433 12.26 13.603 12.3817 13.487C12.5034 13.371 12.6507 13.313 12.8235 13.313C12.9964 13.313 13.1437 13.371 13.2654 13.487C13.3871 13.603 13.448 13.7433 13.448 13.908C13.448 14.0727 13.3871 14.2131 13.2654 14.3291C13.1437 14.445 12.9964 14.503 12.8235 14.503Z" fill="#737373"/>
</g>
</svg>
