<svg width="24" height="24" viewBox="0 0 20 20" fill="none" xmlns="http://www.w3.org/2000/svg">
<rect x="3" y="3" width="14" height="14" rx="2" fill="#ff6914"/>
<path d="M4.11991 17.0826C3.79311 17.0826 3.51109 16.964 3.27384 16.7268C3.03659 16.4895 2.91797 16.2075 2.91797 15.8807V4.11795C2.91797 3.79116 3.03659 3.50914 3.27384 3.27189C3.51109 3.03464 3.79311 2.91602 4.11991 2.91602H15.8827C16.2095 2.91602 16.4915 3.03464 16.7287 3.27189C16.966 3.50914 17.0846 3.79116 17.0846 4.11795V15.8807C17.0846 16.2075 16.966 16.4895 16.7287 16.7268C16.4915 16.964 16.2095 17.0826 15.8827 17.0826H4.11991ZM4.11991 16.1371H15.8827C15.9468 16.1371 16.0055 16.1104 16.059 16.057C16.1124 16.0036 16.1391 15.9448 16.1391 15.8807V4.11795C16.1391 4.05384 16.1124 3.99507 16.059 3.94164C16.0055 3.88822 15.9468 3.86152 15.8827 3.86152H4.11991C4.0558 3.86152 3.99702 3.88822 3.94359 3.94164C3.89018 3.99507 3.86347 4.05384 3.86347 4.11795V15.8807C3.86347 15.9448 3.89018 16.0036 3.94359 16.057C3.99702 16.1104 4.0558 16.1371 4.11991 16.1371Z" fill="#ff6914"/>
<path d="M6.6394 9.59224L8.76121 11.714L13.4567 7.01853C13.5497 6.92024 13.6616 6.87109 13.7924 6.87109C13.9233 6.87109 14.0379 6.92024 14.1362 7.01853C14.2345 7.11682 14.2823 7.2314 14.2796 7.36226C14.2769 7.49314 14.2291 7.60505 14.1362 7.69799L9.17467 12.6515C9.055 12.7765 8.91572 12.839 8.75683 12.839C8.59793 12.839 8.4589 12.7765 8.33973 12.6515L5.95994 10.2926C5.86165 10.1943 5.8125 10.081 5.8125 9.9528C5.8125 9.82461 5.86165 9.71136 5.95994 9.61307C6.05822 9.51478 6.17279 9.4635 6.30367 9.45924C6.43454 9.45496 6.54645 9.49929 6.6394 9.59224Z" fill="white"/>
</svg>
