<svg width="13" height="14" viewBox="0 0 13 14" fill="none" xmlns="http://www.w3.org/2000/svg">
<path fill-rule="evenodd" clip-rule="evenodd" d="M10.3642 1.37451C10.1795 1.37447 9.99659 1.4108 9.82594 1.48144C9.65533 1.55207 9.50029 1.6556 9.36968 1.78613C9.36965 1.78615 9.3697 1.7861 9.36968 1.78613L2.53218 8.62363C2.09264 9.06317 1.8457 9.65932 1.8457 10.2809C1.8457 10.9025 2.09263 11.4987 2.53218 11.9382C2.97172 12.3778 3.56786 12.6247 4.18947 12.6247C4.81108 12.6247 5.40722 12.3778 5.84676 11.9382L11.5388 6.24621C11.7218 6.06315 12.0186 6.06315 12.2017 6.24621C12.3847 6.42927 12.3847 6.72606 12.2017 6.90912L6.50968 12.6011C5.89432 13.2165 5.05972 13.5622 4.18947 13.5622C3.31922 13.5622 2.48462 13.2165 1.86926 12.6011C1.25391 11.9858 0.908203 11.1512 0.908203 10.2809C0.908203 9.41068 1.25391 8.57607 1.86926 7.96071L8.70676 1.12321C8.92447 0.905613 9.18298 0.732945 9.46738 0.61522C9.75179 0.497495 10.0566 0.436939 10.3644 0.437012C10.6722 0.437084 10.977 0.497783 11.2613 0.615643C11.5457 0.733502 11.804 0.906215 12.0216 1.12392C12.2392 1.34162 12.4118 1.60005 12.5295 1.88446C12.6473 2.16886 12.7078 2.47367 12.7078 2.78147C12.7077 3.08928 12.647 3.39406 12.5291 3.67841C12.4113 3.96272 12.2386 4.22104 12.0209 4.43863C12.0209 4.43865 12.021 4.4386 12.0209 4.43863L5.17843 11.2811L5.17136 11.288C4.90451 11.5439 4.54838 11.6831 4.18037 11.6784C3.81155 11.6738 3.45932 11.5244 3.19961 11.2624C2.9399 11.0005 2.79349 10.647 2.79195 10.2782C2.79041 9.90933 2.93385 9.55463 3.19136 9.29054L3.19549 9.28631L8.96065 3.52121C9.14371 3.33815 9.4405 3.33815 9.62356 3.52121C9.80662 3.70426 9.80662 4.00106 9.62356 4.18412L3.86088 9.9468C3.77611 10.0346 3.72893 10.1521 3.72944 10.2743C3.72996 10.3972 3.77876 10.515 3.86533 10.6023C3.9519 10.6897 4.06931 10.7394 4.19225 10.741C4.31113 10.7425 4.42506 10.6994 4.512 10.6211C4.51296 10.6202 4.51392 10.6192 4.51489 10.6182L4.52114 10.612C4.52601 10.6071 4.53095 10.6024 4.53598 10.5977L11.358 3.77571C11.4886 3.64515 11.5924 3.49005 11.6631 3.31944C11.7338 3.14882 11.7702 2.96595 11.7703 2.78125C11.7703 2.59656 11.734 2.41367 11.6633 2.24302C11.5927 2.07237 11.4891 1.9173 11.3586 1.78667C11.228 1.65604 11.073 1.55241 10.9024 1.4817C10.7317 1.41098 10.5489 1.37456 10.3642 1.37451Z" fill="#a3a3a3"/>
</svg>
