<svg width="20" height="20" viewBox="0 0 20 20" fill="none" xmlns="http://www.w3.org/2000/svg">
<mask id="mask0_6117_117142" maskUnits="userSpaceOnUse" x="0" y="0" width="20" height="20">
<rect width="20" height="20" fill="#D9D9D9"/>
</mask>
<g mask="url(#mask0_6117_117142)">
<path d="M10 17.3333C8.82453 17.3333 7.86399 17.1589 7.11839 16.81C6.3728 16.4611 6 16.0088 6 15.453C6 15.1199 6.14247 14.8238 6.42741 14.5648C6.71236 14.3057 7.10589 14.0929 7.60801 13.9264L7.90766 14.9033C7.68826 14.9822 7.50409 15.071 7.35515 15.1696C7.20621 15.2682 7.10945 15.3627 7.06486 15.453C7.17991 15.6967 7.52216 15.9001 8.09161 16.0631C8.66107 16.2262 9.2972 16.3077 10 16.3077C10.6983 16.3077 11.3351 16.2262 11.9104 16.0631C12.4857 15.9001 12.8308 15.6967 12.9458 15.453C12.9012 15.3627 12.8045 15.2693 12.6555 15.1729C12.5066 15.0765 12.3224 14.9866 12.103 14.9033L12.4094 13.9264C12.9115 14.0929 13.3021 14.3057 13.5813 14.5648C13.8604 14.8238 14 15.1199 14 15.453C14 16.0088 13.6272 16.4611 12.8816 16.81C12.136 17.1589 11.1755 17.3333 10 17.3333ZM10 13.2952C10.2087 12.906 10.4424 12.5284 10.701 12.1624C10.9597 11.7964 11.2192 11.4469 11.4796 11.1137C11.9175 10.5536 12.2674 10.0465 12.5291 9.59237C12.7909 9.13828 12.9218 8.5733 12.9218 7.89742C12.9218 7.10146 12.6373 6.42383 12.0683 5.86453C11.4992 5.30525 10.8098 5.02561 10 5.02561C9.19019 5.02561 8.50077 5.30525 7.93175 5.86453C7.36274 6.42383 7.07823 7.10146 7.07823 7.89742C7.07823 8.5733 7.21023 9.13828 7.47423 9.59237C7.73822 10.0465 8.08694 10.5536 8.52038 11.1137C8.78081 11.4469 9.04034 11.7964 9.29899 12.1624C9.55763 12.5284 9.7913 12.906 10 13.2952ZM10 15.0716C9.88584 15.0716 9.78105 15.0346 9.68562 14.9605C9.5902 14.8865 9.5193 14.7911 9.47292 14.6745C9.18841 13.9092 8.84994 13.2673 8.45752 12.7488C8.0651 12.2303 7.68651 11.7335 7.32173 11.2584C6.96855 10.7832 6.66577 10.291 6.41338 9.7817C6.16098 9.27239 6.03478 8.6443 6.03478 7.89742C6.03478 6.80604 6.41806 5.88362 7.18461 5.13017C7.95117 4.37672 8.88963 4 10 4C11.1104 4 12.0488 4.37672 12.8154 5.13017C13.5819 5.88362 13.9652 6.80604 13.9652 7.89742C13.9652 8.6443 13.8419 9.27239 13.5953 9.7817C13.3487 10.291 13.043 10.7832 12.6783 11.2584C12.3251 11.7335 11.9494 12.2303 11.5512 12.7488C11.153 13.2673 10.8116 13.9092 10.5271 14.6745C10.4807 14.7911 10.4098 14.8865 10.3144 14.9605C10.219 15.0346 10.1142 15.0716 10 15.0716ZM10 9.14659C10.3523 9.14659 10.6522 9.02496 10.8997 8.7817C11.1471 8.53844 11.2709 8.24368 11.2709 7.89742C11.2709 7.55117 11.1471 7.25641 10.8997 7.01315C10.6522 6.76989 10.3523 6.64826 10 6.64826C9.64772 6.64826 9.34783 6.76989 9.10034 7.01315C8.85285 7.25641 8.72911 7.55117 8.72911 7.89742C8.72911 8.24368 8.85285 8.53844 9.10034 8.7817C9.34783 9.02496 9.64772 9.14659 10 9.14659Z" fill="#737373"/>
</g>
</svg>