<svg width="18" height="18" viewBox="0 0 18 18" fill="none" xmlns="http://www.w3.org/2000/svg">
<mask id="mask0_4590_108408" style="mask-type:alpha" maskUnits="userSpaceOnUse" x="0" y="0" width="18" height="18">
<rect width="18" height="18" fill="#D9D9D9"/>
</mask>
<g mask="url(#mask0_4590_108408)">
<path d="M4.31248 17.625C3.04518 17.625 2.00961 17.4336 1.20576 17.0509C0.401919 16.6682 0 16.1721 0 15.5625C0 15.1971 0.1536 14.8723 0.4608 14.5882C0.768012 14.3041 1.19229 14.0707 1.73362 13.888L2.05669 14.9596C1.82015 15.0461 1.62159 15.1435 1.46102 15.2517C1.30044 15.3598 1.19612 15.4634 1.14804 15.5625C1.27208 15.8298 1.64107 16.0529 2.25501 16.2317C2.86896 16.4106 3.55478 16.5 4.31248 16.5C5.06537 16.5 5.75191 16.4106 6.37211 16.2317C6.99231 16.0529 7.36442 15.8298 7.48845 15.5625C7.44037 15.4634 7.33605 15.361 7.17547 15.2553C7.0149 15.1495 6.81634 15.0509 6.57981 14.9596L6.91009 13.888C7.45142 14.0707 7.87257 14.3041 8.17354 14.5882C8.47449 14.8723 8.62496 15.1971 8.62496 15.5625C8.62496 16.1721 8.22304 16.6682 7.41921 17.0509C6.61536 17.4336 5.57978 17.625 4.31248 17.625ZM4.31248 13.1957C4.53748 12.7688 4.78941 12.3546 5.06826 11.9531C5.34711 11.5517 5.62692 11.1683 5.90769 10.8029C6.37981 10.1884 6.75697 9.63219 7.03918 9.13412C7.32139 8.63604 7.4625 8.01633 7.4625 7.27498C7.4625 6.40191 7.15577 5.65863 6.54231 5.04516C5.92883 4.43169 5.18556 4.12496 4.31248 4.12496C3.43941 4.12496 2.69613 4.43169 2.08266 5.04516C1.46919 5.65863 1.16246 6.40191 1.16246 7.27498C1.16246 8.01633 1.30478 8.63604 1.5894 9.13412C1.87401 9.63219 2.24997 10.1884 2.71727 10.8029C2.99804 11.1683 3.27786 11.5517 3.55671 11.9531C3.83556 12.3546 4.08748 12.7688 4.31248 13.1957ZM4.31248 15.1442C4.18941 15.1442 4.07642 15.1036 3.97354 15.0223C3.87066 14.9411 3.79422 14.8365 3.74422 14.7086C3.43749 13.8692 3.07258 13.1651 2.64951 12.5964C2.22643 12.0276 1.81826 11.4827 1.42498 10.9615C1.04422 10.4404 0.717781 9.90044 0.445668 9.34179C0.173556 8.78314 0.0375 8.09421 0.0375 7.27498C0.0375 6.07787 0.450719 5.06609 1.27716 4.23966C2.10359 3.41322 3.11537 3 4.31248 3C5.50959 3 6.52137 3.41322 7.34781 4.23966C8.17424 5.06609 8.58746 6.07787 8.58746 7.27498C8.58746 8.09421 8.45453 8.78314 8.18867 9.34179C7.92281 9.90044 7.59324 10.4404 7.19998 10.9615C6.81921 11.4827 6.41416 12.0276 5.98483 12.5964C5.55551 13.1651 5.18747 13.8692 4.88074 14.7086C4.83074 14.8365 4.7543 14.9411 4.65142 15.0223C4.54854 15.1036 4.43556 15.1442 4.31248 15.1442ZM4.31248 8.64516C4.69228 8.64516 5.01559 8.51174 5.28242 8.24492C5.54924 7.97809 5.68266 7.65478 5.68266 7.27498C5.68266 6.89518 5.54924 6.57187 5.28242 6.30504C5.01559 6.03822 4.69228 5.90481 4.31248 5.90481C3.93268 5.90481 3.60937 6.03822 3.34254 6.30504C3.07572 6.57187 2.94231 6.89518 2.94231 7.27498C2.94231 7.65478 3.07572 7.97809 3.34254 8.24492C3.60937 8.51174 3.93268 8.64516 4.31248 8.64516Z" fill="#737373"/>
</g>
</svg>
