<svg width="33" height="33" viewBox="0 0 33 33" fill="none" xmlns="http://www.w3.org/2000/svg">
<g clip-path="url(#clip0_1243_10208)">
<path d="M30.2809 32.3934C31.2496 32.3934 32.0352 31.6078 32.0352 30.639V2.36112C32.0352 1.39202 31.2496 0.606689 30.2809 0.606689H2.00309C1.03399 0.606689 0.248779 1.39202 0.248779 2.36112V30.639C0.248779 31.6078 1.03399 32.3934 2.00309 32.3934H30.2809Z" fill="#A3A3A3"/>
<path d="M22.1808 32.3934V20.084H26.3127L26.9313 15.2867H22.1808V12.2239C22.1808 10.8349 22.5665 9.88847 24.5583 9.88847L27.0986 9.88728V5.59666C26.6592 5.5383 25.1513 5.40765 23.3969 5.40765C19.7343 5.40765 17.2269 7.64324 17.2269 11.7489V15.2867H13.0846V20.084H17.2269V32.3934H22.1808Z" fill="white"/>
</g>
<defs>
<clipPath id="clip0_1243_10208">
<rect width="31.9998" height="32" fill="white" transform="translate(0.14209 0.5)"/>
</clipPath>
</defs>
</svg>
