<svg width="323" height="395" viewBox="0 0 323 395" fill="none" xmlns="http://www.w3.org/2000/svg">
<rect width="323" height="395" rx="2" fill="#1e1e1e"/>
<path d="M14.288 17.184H24.352V22.432H14.288V17.184ZM22.256 18.848H16.368V20.768H22.256V18.848ZM12.64 23.824H26.032V25.504H12.64V23.824ZM18.256 22.048H20.384V24.304H18.256V22.048ZM14.128 26.576H24.416V31.424H22.288V28.256H14.128V26.576ZM30.6068 20.448H32.2548V21.216C32.2548 24.336 30.9268 27.488 28.2388 28.688L27.0868 27.056C29.5028 25.952 30.6068 23.44 30.6068 21.216V20.448ZM31.0708 20.448H32.7188V21.216C32.7188 23.328 33.7588 25.696 36.0788 26.816L34.9427 28.432C32.3348 27.232 31.0708 24.192 31.0708 21.216V20.448ZM27.5988 19.024H35.6628V20.704H27.5988V19.024ZM30.5908 16.944H32.7188V19.888H30.5908V16.944ZM36.8308 16.608H38.9748V31.424H36.8308V16.608ZM38.4948 22.352H41.1188V24.112H38.4948V22.352Z" fill="#E5E5E5"/>
<path d="M17.4816 64V63.012H19.6006V55.901H17.9106V55.147C18.7556 54.991 19.3666 54.77 19.8866 54.458H20.7966V63.012H22.7076V64H17.4816ZM25.3555 64.169C24.8875 64.169 24.4975 63.805 24.4975 63.272C24.4975 62.726 24.8875 62.349 25.3555 62.349C25.8235 62.349 26.2135 62.726 26.2135 63.272C26.2135 63.805 25.8235 64.169 25.3555 64.169ZM42.225 57.747L41.783 58.605C39.976 58.293 38.221 57.279 37.467 55.875C36.739 57.292 34.984 58.293 33.164 58.605L32.735 57.747C34.854 57.435 36.908 56.031 36.908 54.367V53.717H38.026V54.367C38.026 55.992 40.106 57.435 42.225 57.747ZM42.732 59.866L42.745 60.75H37.974V64.975H36.908V60.75H32.202V59.866H42.732ZM52.689 63.948V62.44H47.346V63.948H52.689ZM52.689 61.608V60.126H53.755V64.806H46.293V60.126H47.346V61.608H52.689ZM47.333 58.358C48.49 58.358 49.322 57.604 49.322 56.538C49.322 55.472 48.49 54.731 47.333 54.731C46.176 54.731 45.344 55.472 45.344 56.538C45.344 57.604 46.176 58.358 47.333 58.358ZM52.676 53.314H53.755V59.567H52.676V56.954H50.31C50.102 58.332 48.932 59.242 47.333 59.242C45.591 59.242 44.33 58.15 44.33 56.538C44.33 54.939 45.591 53.847 47.333 53.847C48.906 53.847 50.076 54.731 50.297 56.083H52.676V53.314ZM60.2102 56.967C60.2102 58.124 61.0552 58.956 62.1992 58.956C63.3302 58.956 64.1752 58.124 64.1752 56.967C64.1752 55.81 63.3302 54.978 62.1992 54.978C61.0552 54.978 60.2102 55.81 60.2102 56.967ZM67.5422 55.992H65.0332C65.1372 56.291 65.1892 56.616 65.1892 56.967C65.1892 57.305 65.1372 57.63 65.0332 57.929H67.5422V55.992ZM67.5422 58.787H64.5912C64.0452 59.476 63.2002 59.892 62.1992 59.892C60.4832 59.892 59.1962 58.67 59.1962 56.967C59.1962 55.264 60.4832 54.042 62.1992 54.042C63.2002 54.042 64.0322 54.458 64.5782 55.134H67.5422V53.314H68.6212V61.92H67.5422V58.787ZM62.2382 63.831H68.9462V64.702H61.1592V61.036H62.2382V63.831ZM77.8892 54.731V55.589H71.0122V54.731H73.9112V53.301H74.9772V54.731H77.8892ZM72.6762 58.397C72.6762 59.216 73.3912 59.736 74.4442 59.736C75.4972 59.736 76.2252 59.216 76.2252 58.397C76.2252 57.591 75.4972 57.071 74.4442 57.071C73.3912 57.071 72.6762 57.591 72.6762 58.397ZM77.2392 58.397C77.2392 59.71 76.0952 60.568 74.4442 60.568C72.7932 60.568 71.6622 59.71 71.6622 58.397C71.6622 57.097 72.7932 56.239 74.4442 56.239C76.0952 56.239 77.2392 57.097 77.2392 58.397ZM73.8332 61.361V63.831H80.5412V64.702H72.7672V61.361H73.8332ZM80.0212 57.149H81.7372V58.046H80.0212V62.05H78.9552V53.301H80.0212V57.149ZM16.9096 90V89.298C19.8996 86.685 21.2776 84.787 21.2776 83.149C21.2776 82.057 20.7056 81.264 19.5226 81.264C18.7426 81.264 18.0666 81.745 17.5466 82.369L16.8576 81.693C17.6376 80.848 18.4566 80.289 19.6656 80.289C21.3686 80.289 22.4346 81.407 22.4346 83.11C22.4346 85.008 20.9396 86.945 18.7036 89.064C19.1976 89.025 19.7826 88.973 20.2636 88.973H22.9026V90H16.9096ZM25.3555 90.169C24.8875 90.169 24.4975 89.805 24.4975 89.272C24.4975 88.726 24.8875 88.349 25.3555 88.349C25.8235 88.349 26.2135 88.726 26.2135 89.272C26.2135 89.805 25.8235 90.169 25.3555 90.169ZM42.108 80.588V81.446H32.735V80.588H36.921V79.236H38V80.588H42.108ZM40.132 84.033C40.132 83.331 39.157 82.915 37.467 82.915C35.764 82.915 34.776 83.331 34.776 84.033C34.776 84.748 35.764 85.151 37.467 85.151C39.157 85.151 40.132 84.748 40.132 84.033ZM33.671 84.033C33.671 82.798 35.088 82.109 37.467 82.109C39.82 82.109 41.237 82.798 41.237 84.033C41.237 85.281 39.82 85.97 37.467 85.97C35.088 85.97 33.671 85.281 33.671 84.033ZM42.758 86.763V87.621H40.002V90.975H38.936V87.621H35.998V90.975H34.932V87.621H32.189V86.763H42.758ZM51.064 80.536V81.394H44.187V80.536H47.086V79.236H48.152V80.536H51.064ZM45.851 84.098C45.851 84.878 46.553 85.385 47.619 85.385C48.685 85.385 49.4 84.878 49.4 84.098C49.4 83.331 48.685 82.824 47.619 82.824C46.553 82.824 45.851 83.331 45.851 84.098ZM50.414 84.098C50.414 85.385 49.283 86.204 47.619 86.204C45.968 86.204 44.837 85.385 44.837 84.098C44.837 82.824 45.968 81.992 47.619 81.992C49.283 81.992 50.414 82.824 50.414 84.098ZM45.63 88.102V87.231H53.196V90.975H52.13V88.102H45.63ZM54.925 82.525V83.409H53.196V86.594H52.13V79.314H53.196V82.525H54.925ZM68.5692 79.301V85.996H67.5032V79.301H68.5692ZM64.0322 83.968V80.9H60.6652V83.968H64.0322ZM65.0722 80.055V84.826H59.6252V80.055H65.0722ZM68.8422 87.608H65.4362C65.4492 88.726 67.2562 89.857 69.2582 90.104L68.8942 90.923C67.1392 90.676 65.5792 89.87 64.8902 88.791C64.1882 89.896 62.5762 90.676 60.8212 90.923L60.4702 90.104C62.4592 89.87 64.3182 88.765 64.3312 87.608H60.9252V86.789H64.3442V85.658H65.4232V86.789H68.8422V87.608ZM75.0504 88.18V87.322H83.1234V90.962H82.0574V88.18H75.0504ZM76.3244 81.732V83.084H81.9924V81.732H76.3244ZM79.6914 85.32H84.4234V86.191H73.8674V85.32H78.6254V83.929H75.2714V79.574H76.3244V80.9H81.9924V79.574H83.0454V83.929H79.6914V85.32ZM92.7554 80.536V81.394H85.8784V80.536H88.7774V79.236H89.8434V80.536H92.7554ZM87.5424 84.098C87.5424 84.878 88.2444 85.385 89.3104 85.385C90.3764 85.385 91.0914 84.878 91.0914 84.098C91.0914 83.331 90.3764 82.824 89.3104 82.824C88.2444 82.824 87.5424 83.331 87.5424 84.098ZM92.1054 84.098C92.1054 85.385 90.9744 86.204 89.3104 86.204C87.6594 86.204 86.5284 85.385 86.5284 84.098C86.5284 82.824 87.6594 81.992 89.3104 81.992C90.9744 81.992 92.1054 82.824 92.1054 84.098ZM87.3214 88.102V87.231H94.8874V90.975H93.8214V88.102H87.3214ZM96.6164 82.525V83.409H94.8874V86.594H93.8214V79.314H94.8874V82.525H96.6164ZM19.7696 116.169C18.2746 116.169 17.3386 115.545 16.7146 114.869L17.3126 114.089C17.8716 114.674 18.5996 115.181 19.6786 115.181C20.8096 115.181 21.6156 114.505 21.6156 113.4C21.6156 112.269 20.8486 111.502 18.6516 111.502V110.592C20.6146 110.592 21.2906 109.799 21.2906 108.772C21.2906 107.862 20.6666 107.264 19.6786 107.264C18.9116 107.264 18.2356 107.641 17.7026 108.187L17.0656 107.433C17.7806 106.77 18.6256 106.289 19.7306 106.289C21.3296 106.289 22.4996 107.173 22.4996 108.681C22.4996 109.838 21.8106 110.605 20.8096 110.982V111.034C21.9276 111.294 22.8246 112.152 22.8246 113.452C22.8246 115.155 21.4596 116.169 19.7696 116.169ZM25.3555 116.169C24.8875 116.169 24.4975 115.805 24.4975 115.272C24.4975 114.726 24.8875 114.349 25.3555 114.349C25.8235 114.349 26.2135 114.726 26.2135 115.272C26.2135 115.805 25.8235 116.169 25.3555 116.169ZM39.105 106.536V107.394H32.228V106.536H35.127V105.236H36.193V106.536H39.105ZM33.892 110.098C33.892 110.878 34.594 111.385 35.66 111.385C36.726 111.385 37.441 110.878 37.441 110.098C37.441 109.331 36.726 108.824 35.66 108.824C34.594 108.824 33.892 109.331 33.892 110.098ZM38.455 110.098C38.455 111.385 37.324 112.204 35.66 112.204C34.009 112.204 32.878 111.385 32.878 110.098C32.878 108.824 34.009 107.992 35.66 107.992C37.324 107.992 38.455 108.824 38.455 110.098ZM33.671 114.102V113.231H41.237V116.975H40.171V114.102H33.671ZM42.966 108.525V109.409H41.237V112.594H40.171V105.314H41.237V108.525H42.966ZM51.025 110.917L50.492 111.749C49.192 111.281 48.191 110.306 47.684 109.11C47.177 110.449 46.111 111.515 44.746 112.009L44.187 111.177C45.916 110.553 47.125 109.006 47.125 107.355V106.913H44.525V106.042H50.752V106.913H48.191V107.342C48.191 108.863 49.335 110.319 51.025 110.917ZM47.216 113.543V115.948H52.715V113.543H47.216ZM46.176 116.806V112.698H53.755V116.806H46.176ZM52.676 105.301H53.755V112.126H52.676V109.11H50.375V108.226H52.676V105.301ZM17.8326 138.425H20.7576V135.5C20.7576 135.032 20.7966 134.265 20.8226 133.771H20.7706C20.5366 134.239 20.2766 134.707 20.0036 135.175L17.8326 138.425ZM20.7576 142V139.374H16.5976V138.594L20.5626 132.458H21.8756V138.425H23.1366V139.374H21.8756V142H20.7576ZM25.3555 142.169C24.8875 142.169 24.4975 141.805 24.4975 141.272C24.4975 140.726 24.8875 140.349 25.3555 140.349C25.8235 140.349 26.2135 140.726 26.2135 141.272C26.2135 141.805 25.8235 142.169 25.3555 142.169ZM42.225 135.747L41.783 136.605C39.976 136.293 38.221 135.279 37.467 133.875C36.739 135.292 34.984 136.293 33.164 136.605L32.735 135.747C34.854 135.435 36.908 134.031 36.908 132.367V131.717H38.026V132.367C38.026 133.992 40.106 135.435 42.225 135.747ZM42.732 137.866L42.745 138.75H37.974V142.975H36.908V138.75H32.202V137.866H42.732ZM44.668 132.172H50.05C50.05 135.136 47.983 137.307 44.603 138.308L44.174 137.45C46.943 136.631 48.698 135.045 48.893 133.03H44.668V132.172ZM49.543 142.104C51.22 142.104 52.286 141.571 52.286 140.687C52.286 139.79 51.22 139.257 49.543 139.257C47.866 139.257 46.8 139.79 46.8 140.687C46.8 141.571 47.866 142.104 49.543 142.104ZM49.543 138.425C51.844 138.425 53.339 139.27 53.339 140.687C53.339 142.091 51.844 142.949 49.543 142.949C47.242 142.949 45.747 142.091 45.747 140.687C45.747 139.27 47.242 138.425 49.543 138.425ZM53.196 134.317H54.925V135.201H53.196V138.269H52.13V131.301H53.196V134.317ZM68.5822 131.301V139.855H67.5162V131.301H68.5822ZM66.0342 137.112L65.4752 137.957C64.1492 137.45 63.1222 136.397 62.6022 135.071C62.1082 136.488 61.0552 137.619 59.6902 138.191L59.1312 137.32C60.8862 136.644 62.0562 134.954 62.0562 133.134V131.951H63.1222V133.134C63.1222 134.889 64.3052 136.475 66.0342 137.112ZM62.1472 141.831H68.9332V142.702H61.0812V139.062H62.1472V141.831ZM77.1742 134.616H79.5012V131.301H80.5802V138.373H79.5012V135.5H77.1742V134.616ZM77.8762 137.047L77.3692 137.879C76.0302 137.463 74.9772 136.592 74.4442 135.461C73.9502 136.735 72.8972 137.723 71.5192 138.178L70.9992 137.359C72.7152 136.774 73.8852 135.357 73.8852 133.784V133.563H71.2982V132.705H73.8852V131.236H74.9512V132.705H77.5252V133.563H74.9512V133.784C74.9512 135.24 76.1602 136.54 77.8762 137.047ZM76.7192 142.117C78.4872 142.117 79.5532 141.623 79.5532 140.804C79.5532 139.998 78.5002 139.504 76.7192 139.504C74.9642 139.504 73.9112 139.998 73.9112 140.804C73.9112 141.623 74.9642 142.117 76.7192 142.117ZM76.7192 138.672C79.1372 138.672 80.6192 139.452 80.6192 140.804C80.6192 142.169 79.1372 142.949 76.7192 142.949C74.3272 142.949 72.8452 142.169 72.8452 140.804C72.8452 139.452 74.3272 138.672 76.7192 138.672ZM19.7306 168.169C18.2486 168.169 17.3386 167.545 16.7016 166.908L17.2866 166.128C17.8326 166.674 18.5216 167.181 19.6266 167.181C20.7446 167.181 21.6546 166.323 21.6546 164.932C21.6546 163.567 20.8746 162.761 19.6786 162.761C19.0416 162.761 18.6386 162.956 18.0926 163.32L17.4556 162.93L17.7546 158.458H22.3956V159.485H18.7946L18.5606 162.241C18.9896 162.007 19.4056 161.864 19.9776 161.864C21.5636 161.864 22.8506 162.8 22.8506 164.893C22.8506 166.986 21.3426 168.169 19.7306 168.169ZM25.3555 168.169C24.8875 168.169 24.4975 167.805 24.4975 167.272C24.4975 166.726 24.8875 166.349 25.3555 166.349C25.8235 166.349 26.2135 166.726 26.2135 167.272C26.2135 167.805 25.8235 168.169 25.3555 168.169ZM33.658 159.589V165.205C35.218 165.192 36.323 165.127 37.597 164.854L37.688 165.738C36.297 166.037 35.114 166.089 33.372 166.089H32.605V158.718H36.947V159.589H33.658ZM41.068 157.301H42.095V168.962H41.068V162.852H39.417V168.377H38.416V157.561H39.417V161.981H41.068V157.301ZM51.064 158.536V159.394H44.187V158.536H47.086V157.236H48.152V158.536H51.064ZM45.851 162.098C45.851 162.878 46.553 163.385 47.619 163.385C48.685 163.385 49.4 162.878 49.4 162.098C49.4 161.331 48.685 160.824 47.619 160.824C46.553 160.824 45.851 161.331 45.851 162.098ZM50.414 162.098C50.414 163.385 49.283 164.204 47.619 164.204C45.968 164.204 44.837 163.385 44.837 162.098C44.837 160.824 45.968 159.992 47.619 159.992C49.283 159.992 50.414 160.824 50.414 162.098ZM45.63 166.102V165.231H53.196V168.975H52.13V166.102H45.63ZM54.925 160.525V161.409H53.196V164.594H52.13V157.314H53.196V160.525H54.925ZM62.217 164.191H64.583V157.301H65.649V166.18H64.583V164.984H62.217V164.191ZM59.838 158.562C58.733 158.562 57.979 159.056 57.979 159.797C57.979 160.551 58.733 161.045 59.838 161.045C60.943 161.045 61.697 160.551 61.697 159.797C61.697 159.056 60.943 158.562 59.838 158.562ZM59.838 161.838C58.135 161.838 56.965 161.045 56.965 159.797C56.965 158.575 58.135 157.769 59.838 157.769C61.541 157.769 62.711 158.575 62.711 159.797C62.711 161.045 61.541 161.838 59.838 161.838ZM59.422 165.764V163.515C58.265 163.567 57.147 163.58 56.185 163.58L56.042 162.696C58.2 162.696 61.086 162.67 63.556 162.358L63.647 163.125C62.62 163.281 61.541 163.398 60.488 163.463V165.764H59.422ZM58.772 167.831H65.948V168.702H57.706V165.309H58.772V167.831ZM73.3782 165.218V167.831H80.4112V168.702H72.3122V165.218H73.3782ZM76.7842 163.398H81.5292V164.269H70.9862V163.398H75.7312V161.721H72.4032V157.743H73.4562V160.863H80.3202V161.721H76.7842V163.398ZM91.0702 161.084V158.705H85.3242V161.084H91.0702ZM92.1232 157.847V161.942H84.2842V157.847H92.1232ZM85.3242 165.374V167.831H92.3182V168.702H84.2582V165.374H85.3242ZM82.9062 163.268H93.5012V164.126H88.8212V166.479H87.7552V164.126H82.9062V163.268ZM98.9944 160.967C98.9944 162.124 99.8394 162.956 100.983 162.956C102.114 162.956 102.959 162.124 102.959 160.967C102.959 159.81 102.114 158.978 100.983 158.978C99.8394 158.978 98.9944 159.81 98.9944 160.967ZM106.326 159.992H103.817C103.921 160.291 103.973 160.616 103.973 160.967C103.973 161.305 103.921 161.63 103.817 161.929H106.326V159.992ZM106.326 162.787H103.375C102.829 163.476 101.984 163.892 100.983 163.892C99.2674 163.892 97.9804 162.67 97.9804 160.967C97.9804 159.264 99.2674 158.042 100.983 158.042C101.984 158.042 102.816 158.458 103.362 159.134H106.326V157.314H107.405V165.92H106.326V162.787ZM101.022 167.831H107.73V168.702H99.9434V165.036H101.022V167.831ZM120.313 163.073V163.944H115.555V168.975H114.476V163.944H109.77V163.073H117.505C117.869 161.396 117.869 160.161 117.869 159.069V158.913H111.083V158.055H118.909V159.069C118.909 160.161 118.909 161.396 118.584 163.073H120.313ZM131.54 158.536V159.394H124.663V158.536H127.562V157.236H128.628V158.536H131.54ZM126.327 162.098C126.327 162.878 127.029 163.385 128.095 163.385C129.161 163.385 129.876 162.878 129.876 162.098C129.876 161.331 129.161 160.824 128.095 160.824C127.029 160.824 126.327 161.331 126.327 162.098ZM130.89 162.098C130.89 163.385 129.759 164.204 128.095 164.204C126.444 164.204 125.313 163.385 125.313 162.098C125.313 160.824 126.444 159.992 128.095 159.992C129.759 159.992 130.89 160.824 130.89 162.098ZM126.106 166.102V165.231H133.672V168.975H132.606V166.102H126.106ZM135.401 160.525V161.409H133.672V164.594H132.606V157.314H133.672V160.525H135.401ZM143.46 162.917L142.927 163.749C141.627 163.281 140.626 162.306 140.119 161.11C139.612 162.449 138.546 163.515 137.181 164.009L136.622 163.177C138.351 162.553 139.56 161.006 139.56 159.355V158.913H136.96V158.042H143.187V158.913H140.626V159.342C140.626 160.863 141.77 162.319 143.46 162.917ZM139.651 165.543V167.948H145.15V165.543H139.651ZM138.611 168.806V164.698H146.19V168.806H138.611ZM145.111 157.301H146.19V164.126H145.111V161.11H142.81V160.226H145.111V157.301ZM20.1466 188.969C19.5486 188.969 18.7816 189.32 18.1966 190.191C18.3396 192.167 19.0546 193.246 20.2506 193.246C21.1606 193.246 21.8756 192.375 21.8756 191.075C21.8756 189.788 21.3036 188.969 20.1466 188.969ZM20.2506 194.169C18.4176 194.169 17.0656 192.596 17.0656 189.45C17.0656 185.719 18.7426 184.289 20.5886 184.289C21.5766 184.289 22.2916 184.705 22.8116 185.264L22.1616 186.005C21.7846 185.55 21.2126 185.277 20.6276 185.277C19.3276 185.277 18.2226 186.278 18.1706 189.242C18.7556 188.527 19.5876 188.085 20.3416 188.085C21.9536 188.085 22.9806 189.086 22.9806 191.075C22.9806 192.921 21.7326 194.169 20.2506 194.169ZM25.3555 194.169C24.8875 194.169 24.4975 193.805 24.4975 193.272C24.4975 192.726 24.8875 192.349 25.3555 192.349C25.8235 192.349 26.2135 192.726 26.2135 193.272C26.2135 193.805 25.8235 194.169 25.3555 194.169ZM39.105 184.536V185.394H32.228V184.536H35.127V183.236H36.193V184.536H39.105ZM33.892 188.098C33.892 188.878 34.594 189.385 35.66 189.385C36.726 189.385 37.441 188.878 37.441 188.098C37.441 187.331 36.726 186.824 35.66 186.824C34.594 186.824 33.892 187.331 33.892 188.098ZM38.455 188.098C38.455 189.385 37.324 190.204 35.66 190.204C34.009 190.204 32.878 189.385 32.878 188.098C32.878 186.824 34.009 185.992 35.66 185.992C37.324 185.992 38.455 186.824 38.455 188.098ZM33.671 192.102V191.231H41.237V194.975H40.171V192.102H33.671ZM42.966 186.525V187.409H41.237V190.594H40.171V183.314H41.237V186.525H42.966ZM51.025 188.917L50.492 189.749C49.192 189.281 48.191 188.306 47.684 187.11C47.177 188.449 46.111 189.515 44.746 190.009L44.187 189.177C45.916 188.553 47.125 187.006 47.125 185.355V184.913H44.525V184.042H50.752V184.913H48.191V185.342C48.191 186.863 49.335 188.319 51.025 188.917ZM47.216 191.543V193.948H52.715V191.543H47.216ZM46.176 194.806V190.698H53.755V194.806H46.176ZM52.676 183.301H53.755V190.126H52.676V187.11H50.375V186.226H52.676V183.301ZM68.5822 183.314V191.829H67.5162V183.314H68.5822ZM60.3272 186.98C60.3272 188.137 61.1852 188.943 62.3162 188.943C63.4732 188.943 64.3312 188.137 64.3312 186.98C64.3312 185.849 63.4732 185.043 62.3162 185.043C61.1852 185.043 60.3272 185.849 60.3272 186.98ZM65.3712 186.98C65.3712 188.67 64.0582 189.866 62.3162 189.866C60.5872 189.866 59.2872 188.67 59.2872 186.98C59.2872 185.303 60.5872 184.12 62.3162 184.12C64.0582 184.12 65.3712 185.303 65.3712 186.98ZM62.1472 193.831H68.9332V194.702H61.0812V190.958H62.1472V193.831ZM77.2002 186.33H79.5012V183.314H80.5802V190.256H79.5012V187.201H77.2002V186.33ZM77.8502 188.982L77.3172 189.814C76.0172 189.346 75.0162 188.384 74.5092 187.188C74.0152 188.54 72.9362 189.632 71.5712 190.152L71.0122 189.307C72.7542 188.67 73.9502 187.097 73.9502 185.42V185.017H71.3502V184.159H77.5772V185.017H75.0162V185.42C75.0162 186.915 76.1602 188.384 77.8502 188.982ZM76.7322 194.13C78.4872 194.13 79.5532 193.636 79.5532 192.791C79.5532 191.946 78.4872 191.439 76.7322 191.439C74.9772 191.439 73.9112 191.946 73.9112 192.791C73.9112 193.636 74.9772 194.13 76.7322 194.13ZM76.7322 190.62C79.1242 190.62 80.6192 191.413 80.6192 192.791C80.6192 194.169 79.1242 194.962 76.7322 194.962C74.3402 194.962 72.8452 194.169 72.8452 192.791C72.8452 191.413 74.3402 190.62 76.7322 190.62ZM18.9116 220C19.0676 216.386 19.7306 214.085 21.5896 211.485H16.9746V210.458H22.9416V211.186C20.7056 214.046 20.2896 216.269 20.1466 220H18.9116ZM25.3555 220.169C24.8875 220.169 24.4975 219.805 24.4975 219.272C24.4975 218.726 24.8875 218.349 25.3555 218.349C25.8235 218.349 26.2135 218.726 26.2135 219.272C26.2135 219.805 25.8235 220.169 25.3555 220.169ZM39.001 214.852L38.429 215.697C37.155 215.203 36.154 214.228 35.647 213.006C35.153 214.371 34.126 215.411 32.761 215.957L32.202 215.099C33.97 214.462 35.088 212.889 35.088 211.121V209.886H36.154V211.16C36.154 212.759 37.311 214.254 39.001 214.852ZM33.983 217.699V216.841H41.796V220.975H40.717V217.699H33.983ZM40.717 209.314H41.796V216.191H40.717V212.616H38.182V211.745H40.717V209.314ZM47.047 216.178C46.579 216.178 46.189 215.801 46.189 215.281C46.189 214.735 46.579 214.358 47.047 214.358C47.515 214.358 47.905 214.735 47.905 215.281C47.905 215.801 47.515 216.178 47.047 216.178ZM56.2711 214.696V212.694H52.9691V214.696H56.2711ZM57.3111 210.042V215.554H51.9161V210.042H52.9691V211.862H56.2711V210.042H57.3111ZM52.9041 217.829V216.971H60.4831V220.975H59.4171V217.829H52.9041ZM62.2121 212.33V213.214H60.4831V216.347H59.4171V209.314H60.4831V212.33H62.2121ZM67.3071 210.315V212.408C67.3071 214.462 68.6331 216.581 70.2711 217.4L69.6081 218.245C68.3731 217.582 67.3201 216.217 66.7871 214.618C66.2801 216.321 65.2011 217.777 63.8881 218.479L63.2511 217.621C64.9281 216.763 66.2541 214.527 66.2541 212.408V210.315H67.3071ZM74.2881 214.033V214.917H72.3641V220.962H71.2981V209.314H72.3641V214.033H74.2881ZM85.1763 210.536V211.394H78.2993V210.536H81.1983V209.236H82.2643V210.536H85.1763ZM79.9633 214.098C79.9633 214.878 80.6653 215.385 81.7313 215.385C82.7973 215.385 83.5123 214.878 83.5123 214.098C83.5123 213.331 82.7973 212.824 81.7313 212.824C80.6653 212.824 79.9633 213.331 79.9633 214.098ZM84.5263 214.098C84.5263 215.385 83.3953 216.204 81.7313 216.204C80.0803 216.204 78.9493 215.385 78.9493 214.098C78.9493 212.824 80.0803 211.992 81.7313 211.992C83.3953 211.992 84.5263 212.824 84.5263 214.098ZM79.7423 218.102V217.231H87.3083V220.975H86.2423V218.102H79.7423ZM89.0373 212.525V213.409H87.3083V216.594H86.2423V209.314H87.3083V212.525H89.0373ZM94.0413 210.731C92.8973 210.731 92.0913 211.342 92.0913 212.252C92.0913 213.162 92.8973 213.773 94.0413 213.773C95.1723 213.773 95.9783 213.162 95.9783 212.252C95.9783 211.342 95.1723 210.731 94.0413 210.731ZM94.0413 214.644C92.2993 214.644 91.0643 213.669 91.0643 212.252C91.0643 210.822 92.2993 209.847 94.0413 209.847C95.7703 209.847 97.0053 210.822 97.0053 212.252C97.0053 213.669 95.7703 214.644 94.0413 214.644ZM97.8763 215.216L97.9673 216.009C96.8623 216.204 95.7313 216.334 94.6263 216.399V220.598H93.5603V216.464C92.4033 216.516 91.2983 216.529 90.3363 216.529L90.1933 215.632C92.3643 215.632 95.3153 215.606 97.8763 215.216ZM98.7213 209.314H99.7873V220.975H98.7213V209.314ZM106.06 215.047L105.605 214.202C107.282 213.812 108.413 212.746 108.413 211.498V211.472H105.839V210.627H108.4V209.327H109.466V210.627H112.04V211.472H109.466V211.498C109.466 212.668 110.597 213.669 112.248 214.046L111.819 214.878C110.48 214.553 109.466 213.851 108.959 212.902C108.465 213.929 107.425 214.709 106.06 215.047ZM112.755 215.476L112.833 216.269C111.741 216.451 110.597 216.568 109.492 216.633V220.624H108.426V216.698C107.282 216.737 106.177 216.75 105.202 216.75L105.059 215.853C107.282 215.853 110.207 215.84 112.755 215.476ZM113.587 209.314H114.653V220.975H113.587V209.314ZM126.391 212.824V213.682H118.37V209.743H126.287V210.601H119.436V212.824H126.391ZM118.214 218.102V217.244H126.313V221.027H125.234V218.102H118.214ZM117.044 214.982H127.6V215.84H117.044V214.982ZM134.268 210.302C132.357 210.302 131.265 210.744 131.265 211.524C131.265 212.304 132.357 212.746 134.268 212.746C136.179 212.746 137.271 212.304 137.271 211.524C137.271 210.744 136.179 210.302 134.268 210.302ZM134.268 213.539C131.707 213.539 130.173 212.837 130.173 211.524C130.173 210.211 131.707 209.496 134.268 209.496C136.829 209.496 138.363 210.211 138.363 211.524C138.363 212.837 136.829 213.539 134.268 213.539ZM131.343 218.817V220H138.545V220.832H130.303V218.037H137.141V216.997H130.264V216.191H138.194V218.817H131.343ZM128.99 214.332H139.546V215.19H128.99V214.332ZM147.692 210.731C146.548 210.731 145.742 211.342 145.742 212.252C145.742 213.162 146.548 213.773 147.692 213.773C148.823 213.773 149.629 213.162 149.629 212.252C149.629 211.342 148.823 210.731 147.692 210.731ZM147.692 214.644C145.95 214.644 144.715 213.669 144.715 212.252C144.715 210.822 145.95 209.847 147.692 209.847C149.421 209.847 150.656 210.822 150.656 212.252C150.656 213.669 149.421 214.644 147.692 214.644ZM151.527 215.216L151.618 216.009C150.513 216.204 149.382 216.334 148.277 216.399V220.598H147.211V216.464C146.054 216.516 144.949 216.529 143.987 216.529L143.844 215.632C146.015 215.632 148.966 215.606 151.527 215.216ZM152.372 209.314H153.438V220.975H152.372V209.314ZM162.745 210.731V211.589H155.868V210.731H158.767V209.301H159.833V210.731H162.745ZM157.532 214.397C157.532 215.216 158.247 215.736 159.3 215.736C160.353 215.736 161.081 215.216 161.081 214.397C161.081 213.591 160.353 213.071 159.3 213.071C158.247 213.071 157.532 213.591 157.532 214.397ZM162.095 214.397C162.095 215.71 160.951 216.568 159.3 216.568C157.649 216.568 156.518 215.71 156.518 214.397C156.518 213.097 157.649 212.239 159.3 212.239C160.951 212.239 162.095 213.097 162.095 214.397ZM158.689 217.361V219.831H165.397V220.702H157.623V217.361H158.689ZM164.877 213.149H166.593V214.046H164.877V218.05H163.811V209.301H164.877V213.149ZM178.937 211.758V211.342H171.787V210.471H180.003V211.758C180.003 213.24 180.003 214.761 179.587 216.945L178.534 216.815C178.937 214.735 178.937 213.201 178.937 211.758ZM177.221 218.453H181.238V219.324H170.695V218.453H173.282V214.592H174.335V218.453H176.168V214.592H177.221V218.453ZM188.738 215.84L187.672 215.736C187.997 213.799 188.023 212.382 188.023 211.446H183.174V210.575H189.063V211.212C189.063 212.148 189.063 213.669 188.738 215.84ZM186.06 213.903V217.465C187.334 217.413 188.634 217.335 189.817 217.192L189.882 217.972C187.464 218.362 184.721 218.414 182.654 218.414L182.537 217.53C183.278 217.53 184.136 217.517 185.007 217.491V213.903H186.06ZM193.457 214.176V215.073H191.598V220.962H190.532V209.301H191.598V214.176H193.457ZM195.783 218.141V217.283H203.856V220.975H202.79V218.141H195.783ZM197.005 210.627V212.889H202.751V210.627H197.005ZM200.424 215.216H205.156V216.074H194.6V215.216H199.358V213.734H195.965V209.782H203.804V213.734H200.424V215.216ZM217.955 209.301H219.021V220.988H217.955V209.301ZM212.872 210.198C214.601 210.198 215.836 211.784 215.836 214.267C215.836 216.75 214.601 218.336 212.872 218.336C211.143 218.336 209.908 216.75 209.908 214.267C209.908 211.784 211.143 210.198 212.872 210.198ZM212.872 211.16C211.728 211.16 210.922 212.382 210.922 214.267C210.922 216.165 211.728 217.387 212.872 217.387C214.003 217.387 214.809 216.165 214.809 214.267C214.809 212.382 214.003 211.16 212.872 211.16ZM231.474 213.747L231.032 214.605C229.225 214.293 227.47 213.279 226.716 211.875C225.988 213.292 224.233 214.293 222.413 214.605L221.984 213.747C224.103 213.435 226.157 212.031 226.157 210.367V209.717H227.275V210.367C227.275 211.992 229.355 213.435 231.474 213.747ZM231.981 215.866L231.994 216.75H227.223V220.975H226.157V216.75H221.451V215.866H231.981ZM236.036 217.413C236.946 217.413 237.544 216.23 237.544 214.319C237.544 212.447 236.946 211.264 236.036 211.264C235.1 211.264 234.515 212.447 234.515 214.319C234.515 216.23 235.1 217.413 236.036 217.413ZM239.975 213.838V209.561H240.989V220.39H239.975V214.709H238.506C238.415 216.997 237.466 218.401 236.036 218.401C234.515 218.401 233.54 216.841 233.54 214.319C233.54 211.836 234.515 210.276 236.036 210.276C237.44 210.276 238.376 211.641 238.506 213.838H239.975ZM242.289 209.301H243.303V220.962H242.289V209.301ZM254.386 214.28L253.333 214.163C253.606 212.824 253.645 211.823 253.645 211.082H248.887V210.211H254.685V210.822C254.685 211.589 254.685 212.746 254.386 214.28ZM255.491 214.982L255.569 215.762C253.151 216.165 250.356 216.23 248.289 216.23L248.185 215.359C248.926 215.359 249.771 215.346 250.655 215.333V212.811H251.708V215.294C252.982 215.242 254.308 215.138 255.491 214.982ZM251.032 217.283V219.831H257.714V220.702H249.966V217.283H251.032ZM257.337 213.097H259.001V213.981H257.337V218.089H256.271V209.301H257.337V213.097ZM267.138 210.731V211.589H260.261V210.731H263.16V209.301H264.226V210.731H267.138ZM261.925 214.397C261.925 215.216 262.64 215.736 263.693 215.736C264.746 215.736 265.474 215.216 265.474 214.397C265.474 213.591 264.746 213.071 263.693 213.071C262.64 213.071 261.925 213.591 261.925 214.397ZM266.488 214.397C266.488 215.71 265.344 216.568 263.693 216.568C262.042 216.568 260.911 215.71 260.911 214.397C260.911 213.097 262.042 212.239 263.693 212.239C265.344 212.239 266.488 213.097 266.488 214.397ZM263.082 217.361V219.831H269.79V220.702H262.016V217.361H263.082ZM269.27 213.149H270.986V214.046H269.27V218.05H268.204V209.301H269.27V213.149ZM276.726 210.718V217.01C277.844 216.997 279.079 216.919 280.47 216.646L280.574 217.569C279.001 217.868 277.662 217.933 276.401 217.933H275.66V210.718H276.726ZM283.954 209.301H284.981V220.949H283.954V214.93H282.303V220.364H281.302V209.561H282.303V214.046H283.954V209.301ZM297.59 215.138V216.009H294.808V220.949H293.755V216.009H290.83V220.949H289.764V216.009H287.06V215.138H294.73C295.094 213.292 295.094 211.966 295.094 210.926H288.386V210.042H296.147V210.913C296.147 211.966 296.147 213.292 295.796 215.138H297.59ZM19.9646 246.169C18.2096 246.169 16.9226 245.103 16.9226 243.634C16.9226 242.36 17.8066 241.476 18.6776 241.008V240.943C17.9756 240.462 17.3906 239.747 17.3906 238.746C17.3906 237.29 18.5216 236.328 20.0036 236.328C21.6286 236.328 22.6166 237.368 22.6166 238.837C22.6166 239.838 21.9146 240.696 21.3426 241.138V241.203C22.1746 241.684 22.9546 242.399 22.9546 243.699C22.9546 245.09 21.7586 246.169 19.9646 246.169ZM20.6146 240.826C21.2646 240.254 21.6026 239.604 21.6026 238.902C21.6026 237.966 21.0176 237.199 19.9906 237.199C19.1066 237.199 18.4696 237.823 18.4696 238.746C18.4696 239.89 19.4966 240.384 20.6146 240.826ZM19.9906 245.285C21.0826 245.285 21.8236 244.622 21.8236 243.673C21.8236 242.399 20.6536 241.918 19.3016 241.372C18.5346 241.866 18.0016 242.62 18.0016 243.53C18.0016 244.544 18.8466 245.285 19.9906 245.285ZM25.3555 246.169C24.8875 246.169 24.4975 245.805 24.4975 245.272C24.4975 244.726 24.8875 244.349 25.3555 244.349C25.8235 244.349 26.2135 244.726 26.2135 245.272C26.2135 245.805 25.8235 246.169 25.3555 246.169ZM39.105 236.536V237.394H32.228V236.536H35.127V235.236H36.193V236.536H39.105ZM33.892 240.098C33.892 240.878 34.594 241.385 35.66 241.385C36.726 241.385 37.441 240.878 37.441 240.098C37.441 239.331 36.726 238.824 35.66 238.824C34.594 238.824 33.892 239.331 33.892 240.098ZM38.455 240.098C38.455 241.385 37.324 242.204 35.66 242.204C34.009 242.204 32.878 241.385 32.878 240.098C32.878 238.824 34.009 237.992 35.66 237.992C37.324 237.992 38.455 238.824 38.455 240.098ZM33.671 244.102V243.231H41.237V246.975H40.171V244.102H33.671ZM42.966 238.525V239.409H41.237V242.594H40.171V235.314H41.237V238.525H42.966ZM47.97 236.731C46.826 236.731 46.02 237.342 46.02 238.252C46.02 239.162 46.826 239.773 47.97 239.773C49.101 239.773 49.907 239.162 49.907 238.252C49.907 237.342 49.101 236.731 47.97 236.731ZM47.97 240.644C46.228 240.644 44.993 239.669 44.993 238.252C44.993 236.822 46.228 235.847 47.97 235.847C49.699 235.847 50.934 236.822 50.934 238.252C50.934 239.669 49.699 240.644 47.97 240.644ZM51.805 241.216L51.896 242.009C50.791 242.204 49.66 242.334 48.555 242.399V246.598H47.489V242.464C46.332 242.516 45.227 242.529 44.265 242.529L44.122 241.632C46.293 241.632 49.244 241.606 51.805 241.216ZM52.65 235.314H53.716V246.975H52.65V235.314ZM61.4192 243.218V245.831H68.4522V246.702H60.3532V243.218H61.4192ZM64.8252 241.398H69.5702V242.269H59.0272V241.398H63.7722V239.721H60.4442V235.743H61.4972V238.863H68.3612V239.721H64.8252V241.398ZM79.1112 239.084V236.705H73.3652V239.084H79.1112ZM80.1642 235.847V239.942H72.3252V235.847H80.1642ZM73.3652 243.374V245.831H80.3592V246.702H72.2992V243.374H73.3652ZM70.9472 241.268H81.5422V242.126H76.8622V244.479H75.7962V242.126H70.9472V241.268ZM89.2584 237.537V238.59C89.2584 240.618 90.1294 242.646 91.7414 243.556L91.0914 244.336C89.9604 243.66 89.1544 242.412 88.7514 240.93C88.3484 242.529 87.5034 243.894 86.3464 244.622L85.6964 243.829C87.3214 242.854 88.2314 240.735 88.2314 238.59V237.537H86.0214V236.666H91.3384V237.537H89.2584ZM92.3784 239.487V235.561H93.3924V246.351H92.3784V240.358H90.4544V239.487H92.3784ZM94.7184 235.288H95.7454V246.949H94.7184V235.288ZM98.6694 239.955L98.3574 239.149C100.515 239.006 102.296 238.291 102.478 237.134H98.8774V236.328H102.543V235.223H103.609V236.328H107.262V237.134H103.674C103.856 238.291 105.611 239.006 107.782 239.149L107.457 239.955C105.507 239.799 103.791 239.201 103.076 238.122C102.361 239.201 100.632 239.799 98.6694 239.955ZM108.328 241.294H103.609V242.373H106.989V244.921H100.138V246.026H107.34V246.832H99.0984V244.154H105.936V243.166H99.0594V242.373H102.53V241.294H97.8114V240.475H108.328V241.294ZM116.591 237.381V238.863C116.591 240.722 117.917 242.789 119.607 243.582L118.996 244.44C117.696 243.79 116.604 242.425 116.071 240.865C115.538 242.568 114.407 244.05 113.094 244.726L112.47 243.881C114.134 243.049 115.538 240.839 115.538 238.863V237.381H112.873V236.497H119.178V237.381H116.591ZM123.559 240.007V240.904H121.635V246.962H120.569V235.314H121.635V240.007H123.559ZM126.431 243.634V242.776H134.231V246.936H133.152V243.634H126.431ZM133.152 235.301H134.231V242.256H133.152V240.722H130.136V239.851H133.152V238.252H130.305C129.525 240.085 127.718 241.411 125.222 242.113L124.793 241.255C127.614 240.488 129.382 238.941 129.59 236.952H125.404V236.081H130.734C130.734 236.523 130.682 236.965 130.578 237.381H133.152V235.301ZM140.717 236.315V238.408C140.717 240.54 142.108 242.685 143.837 243.465L143.2 244.323C141.874 243.673 140.756 242.295 140.197 240.631C139.664 242.386 138.546 243.842 137.181 244.544L136.531 243.673C138.247 242.854 139.664 240.618 139.664 238.408V236.315H140.717ZM145.059 235.301H146.125V246.988H145.059V235.301ZM155.315 236.523V237.381H148.555V236.523H151.402V235.184H152.468V236.523H155.315ZM150.245 240.059C150.245 240.813 150.947 241.333 151.935 241.333C152.923 241.333 153.625 240.813 153.625 240.059C153.625 239.305 152.923 238.785 151.935 238.785C150.947 238.785 150.245 239.305 150.245 240.059ZM154.626 240.059C154.626 241.307 153.508 242.126 151.935 242.126C150.349 242.126 149.231 241.307 149.231 240.059C149.231 238.811 150.349 237.979 151.935 237.979C153.508 237.979 154.626 238.811 154.626 240.059ZM151.61 243.829V245.948H157.109V243.829H151.61ZM150.57 246.806V242.984H158.149V246.806H150.57ZM157.07 235.314H158.149V242.36H157.07V239.721H155.133V238.85H157.07V235.314ZM18.0276 265.383C18.0276 266.67 18.5996 267.502 19.7306 267.502C20.3806 267.502 21.1086 267.125 21.7196 266.228C21.5896 264.265 20.8616 263.225 19.6396 263.225C18.7296 263.225 18.0276 264.083 18.0276 265.383ZM19.3796 272.169C18.3526 272.169 17.6246 271.753 17.0916 271.194L17.7546 270.453C18.1446 270.908 18.7296 271.181 19.3406 271.181C20.5756 271.181 21.6416 270.167 21.7326 267.216C21.1476 267.931 20.3286 268.386 19.5356 268.386C17.9496 268.386 16.9096 267.359 16.9096 265.383C16.9096 263.537 18.1576 262.289 19.6396 262.289C21.4726 262.289 22.8376 263.797 22.8376 266.826C22.8376 270.687 21.1736 272.169 19.3796 272.169ZM25.3555 272.169C24.8875 272.169 24.4975 271.805 24.4975 271.272C24.4975 270.726 24.8875 270.349 25.3555 270.349C25.8235 270.349 26.2135 270.726 26.2135 271.272C26.2135 271.805 25.8235 272.169 25.3555 272.169ZM39.105 262.536V263.394H32.228V262.536H35.127V261.236H36.193V262.536H39.105ZM33.892 266.098C33.892 266.878 34.594 267.385 35.66 267.385C36.726 267.385 37.441 266.878 37.441 266.098C37.441 265.331 36.726 264.824 35.66 264.824C34.594 264.824 33.892 265.331 33.892 266.098ZM38.455 266.098C38.455 267.385 37.324 268.204 35.66 268.204C34.009 268.204 32.878 267.385 32.878 266.098C32.878 264.824 34.009 263.992 35.66 263.992C37.324 263.992 38.455 264.824 38.455 266.098ZM33.671 270.102V269.231H41.237V272.975H40.171V270.102H33.671ZM42.966 264.525V265.409H41.237V268.594H40.171V261.314H41.237V264.525H42.966ZM47.97 262.731C46.826 262.731 46.02 263.342 46.02 264.252C46.02 265.162 46.826 265.773 47.97 265.773C49.101 265.773 49.907 265.162 49.907 264.252C49.907 263.342 49.101 262.731 47.97 262.731ZM47.97 266.644C46.228 266.644 44.993 265.669 44.993 264.252C44.993 262.822 46.228 261.847 47.97 261.847C49.699 261.847 50.934 262.822 50.934 264.252C50.934 265.669 49.699 266.644 47.97 266.644ZM51.805 267.216L51.896 268.009C50.791 268.204 49.66 268.334 48.555 268.399V272.598H47.489V268.464C46.332 268.516 45.227 268.529 44.265 268.529L44.122 267.632C46.293 267.632 49.244 267.606 51.805 267.216ZM52.65 261.314H53.716V272.975H52.65V261.314ZM61.4192 269.218V271.831H68.4522V272.702H60.3532V269.218H61.4192ZM64.8252 267.398H69.5702V268.269H59.0272V267.398H63.7722V265.721H60.4442V261.743H61.4972V264.863H68.3612V265.721H64.8252V267.398ZM79.1112 265.084V262.705H73.3652V265.084H79.1112ZM80.1642 261.847V265.942H72.3252V261.847H80.1642ZM73.3652 269.374V271.831H80.3592V272.702H72.2992V269.374H73.3652ZM70.9472 267.268H81.5422V268.126H76.8622V270.479H75.7962V268.126H70.9472V267.268ZM89.2584 263.537V264.59C89.2584 266.618 90.1294 268.646 91.7414 269.556L91.0914 270.336C89.9604 269.66 89.1544 268.412 88.7514 266.93C88.3484 268.529 87.5034 269.894 86.3464 270.622L85.6964 269.829C87.3214 268.854 88.2314 266.735 88.2314 264.59V263.537H86.0214V262.666H91.3384V263.537H89.2584ZM92.3784 265.487V261.561H93.3924V272.351H92.3784V266.358H90.4544V265.487H92.3784ZM94.7184 261.288H95.7454V272.949H94.7184V261.288ZM98.6694 265.955L98.3574 265.149C100.515 265.006 102.296 264.291 102.478 263.134H98.8774V262.328H102.543V261.223H103.609V262.328H107.262V263.134H103.674C103.856 264.291 105.611 265.006 107.782 265.149L107.457 265.955C105.507 265.799 103.791 265.201 103.076 264.122C102.361 265.201 100.632 265.799 98.6694 265.955ZM108.328 267.294H103.609V268.373H106.989V270.921H100.138V272.026H107.34V272.832H99.0984V270.154H105.936V269.166H99.0594V268.373H102.53V267.294H97.8114V266.475H108.328V267.294ZM113.354 262.562H118.814C118.814 265.929 117.267 268.893 113.393 270.791L112.821 269.92C115.954 268.425 117.514 266.189 117.735 263.42H113.354V262.562ZM121.167 261.301H122.233V272.962H121.167V261.301ZM131.54 262.731V263.589H124.663V262.731H127.562V261.301H128.628V262.731H131.54ZM126.327 266.397C126.327 267.216 127.042 267.736 128.095 267.736C129.148 267.736 129.876 267.216 129.876 266.397C129.876 265.591 129.148 265.071 128.095 265.071C127.042 265.071 126.327 265.591 126.327 266.397ZM130.89 266.397C130.89 267.71 129.746 268.568 128.095 268.568C126.444 268.568 125.313 267.71 125.313 266.397C125.313 265.097 126.444 264.239 128.095 264.239C129.746 264.239 130.89 265.097 130.89 266.397ZM127.484 269.361V271.831H134.192V272.702H126.418V269.361H127.484ZM133.672 265.149H135.388V266.046H133.672V270.05H132.606V261.301H133.672V265.149ZM10.2707 298V297.012H12.3897V289.901H10.6997V289.147C11.5447 288.991 12.1557 288.77 12.6757 288.458H13.5857V297.012H15.4967V298H10.2707ZM19.9516 298.169C18.1316 298.169 16.9746 296.518 16.9746 293.203C16.9746 289.888 18.1316 288.289 19.9516 288.289C21.7586 288.289 22.9156 289.901 22.9156 293.203C22.9156 296.518 21.7586 298.169 19.9516 298.169ZM19.9516 297.22C21.0306 297.22 21.7586 296.011 21.7586 293.203C21.7586 290.421 21.0306 289.238 19.9516 289.238C18.8596 289.238 18.1316 290.421 18.1316 293.203C18.1316 296.011 18.8596 297.22 19.9516 297.22ZM25.3555 298.169C24.8875 298.169 24.4975 297.805 24.4975 297.272C24.4975 296.726 24.8875 296.349 25.3555 296.349C25.8235 296.349 26.2135 296.726 26.2135 297.272C26.2135 297.805 25.8235 298.169 25.3555 298.169ZM39.105 288.536V289.394H32.228V288.536H35.127V287.236H36.193V288.536H39.105ZM33.892 292.098C33.892 292.878 34.594 293.385 35.66 293.385C36.726 293.385 37.441 292.878 37.441 292.098C37.441 291.331 36.726 290.824 35.66 290.824C34.594 290.824 33.892 291.331 33.892 292.098ZM38.455 292.098C38.455 293.385 37.324 294.204 35.66 294.204C34.009 294.204 32.878 293.385 32.878 292.098C32.878 290.824 34.009 289.992 35.66 289.992C37.324 289.992 38.455 290.824 38.455 292.098ZM33.671 296.102V295.231H41.237V298.975H40.171V296.102H33.671ZM42.966 290.525V291.409H41.237V294.594H40.171V287.314H41.237V290.525H42.966ZM47.97 288.731C46.826 288.731 46.02 289.342 46.02 290.252C46.02 291.162 46.826 291.773 47.97 291.773C49.101 291.773 49.907 291.162 49.907 290.252C49.907 289.342 49.101 288.731 47.97 288.731ZM47.97 292.644C46.228 292.644 44.993 291.669 44.993 290.252C44.993 288.822 46.228 287.847 47.97 287.847C49.699 287.847 50.934 288.822 50.934 290.252C50.934 291.669 49.699 292.644 47.97 292.644ZM51.805 293.216L51.896 294.009C50.791 294.204 49.66 294.334 48.555 294.399V298.598H47.489V294.464C46.332 294.516 45.227 294.529 44.265 294.529L44.122 293.632C46.293 293.632 49.244 293.606 51.805 293.216ZM52.65 287.314H53.716V298.975H52.65V287.314ZM61.4192 295.218V297.831H68.4522V298.702H60.3532V295.218H61.4192ZM64.8252 293.398H69.5702V294.269H59.0272V293.398H63.7722V291.721H60.4442V287.743H61.4972V290.863H68.3612V291.721H64.8252V293.398ZM79.1112 291.084V288.705H73.3652V291.084H79.1112ZM80.1642 287.847V291.942H72.3252V287.847H80.1642ZM73.3652 295.374V297.831H80.3592V298.702H72.2992V295.374H73.3652ZM70.9472 293.268H81.5422V294.126H76.8622V296.479H75.7962V294.126H70.9472V293.268ZM85.5712 295.413C86.4812 295.413 87.0792 294.23 87.0792 292.319C87.0792 290.447 86.4812 289.264 85.5712 289.264C84.6352 289.264 84.0502 290.447 84.0502 292.319C84.0502 294.23 84.6352 295.413 85.5712 295.413ZM89.5102 291.838V287.561H90.5242V298.39H89.5102V292.709H88.0412C87.9502 294.997 87.0012 296.401 85.5712 296.401C84.0502 296.401 83.0752 294.841 83.0752 292.319C83.0752 289.836 84.0502 288.276 85.5712 288.276C86.9752 288.276 87.9112 289.641 88.0412 291.838H89.5102ZM91.8242 287.301H92.8382V298.962H91.8242V287.301ZM103.921 292.28L102.868 292.163C103.141 290.824 103.18 289.823 103.18 289.082H98.4224V288.211H104.22V288.822C104.22 289.589 104.22 290.746 103.921 292.28ZM105.026 292.982L105.104 293.762C102.686 294.165 99.8914 294.23 97.8244 294.23L97.7204 293.359C98.4614 293.359 99.3064 293.346 100.19 293.333V290.811H101.243V293.294C102.517 293.242 103.843 293.138 105.026 292.982ZM100.567 295.283V297.831H107.249V298.702H99.5014V295.283H100.567ZM106.872 291.097H108.536V291.981H106.872V296.089H105.806V287.301H106.872V291.097ZM116.673 288.731V289.589H109.796V288.731H112.695V287.301H113.761V288.731H116.673ZM111.46 292.397C111.46 293.216 112.175 293.736 113.228 293.736C114.281 293.736 115.009 293.216 115.009 292.397C115.009 291.591 114.281 291.071 113.228 291.071C112.175 291.071 111.46 291.591 111.46 292.397ZM116.023 292.397C116.023 293.71 114.879 294.568 113.228 294.568C111.577 294.568 110.446 293.71 110.446 292.397C110.446 291.097 111.577 290.239 113.228 290.239C114.879 290.239 116.023 291.097 116.023 292.397ZM112.617 295.361V297.831H119.325V298.702H111.551V295.361H112.617ZM118.805 291.149H120.521V292.046H118.805V296.05H117.739V287.301H118.805V291.149ZM128.277 293.84V296.583H131.527V293.84C131.033 293.957 130.474 294.022 129.889 294.022C129.317 294.022 128.758 293.957 128.277 293.84ZM129.889 288.874C128.017 288.874 126.678 289.732 126.678 291.032C126.678 292.332 128.017 293.19 129.889 293.19C131.761 293.19 133.113 292.332 133.113 291.032C133.113 289.732 131.761 288.874 129.889 288.874ZM132.593 296.583H135.206V297.467H124.611V296.583H127.211V293.437C126.236 292.93 125.651 292.085 125.651 291.032C125.651 289.212 127.419 288.042 129.889 288.042C132.372 288.042 134.127 289.212 134.127 291.032C134.127 292.085 133.555 292.917 132.593 293.424V296.583ZM142.589 290.902H145.111V287.314H146.19V295.92H145.111V291.773H142.589V290.902ZM137.35 288.211H142.641C142.641 291.214 140.522 293.489 137.22 294.581L136.765 293.723C139.43 292.839 141.263 291.175 141.497 289.082H137.35V288.211ZM139.885 297.831H146.489V298.702H138.819V295.049H139.885V297.831ZM10.2707 324V323.012H12.3897V315.901H10.6997V315.147C11.5447 314.991 12.1557 314.77 12.6757 314.458H13.5857V323.012H15.4967V324H10.2707ZM17.4816 324V323.012H19.6006V315.901H17.9106V315.147C18.7556 314.991 19.3666 314.77 19.8866 314.458H20.7966V323.012H22.7076V324H17.4816ZM25.3555 324.169C24.8875 324.169 24.4975 323.805 24.4975 323.272C24.4975 322.726 24.8875 322.349 25.3555 322.349C25.8235 322.349 26.2135 322.726 26.2135 323.272C26.2135 323.805 25.8235 324.169 25.3555 324.169ZM37.025 318.696V316.694H33.723V318.696H37.025ZM38.065 314.042V319.554H32.67V314.042H33.723V315.862H37.025V314.042H38.065ZM33.658 321.829V320.971H41.237V324.975H40.171V321.829H33.658ZM42.966 316.33V317.214H41.237V320.347H40.171V313.314H41.237V316.33H42.966ZM48.061 314.315V316.408C48.061 318.462 49.387 320.581 51.025 321.4L50.362 322.245C49.127 321.582 48.074 320.217 47.541 318.618C47.034 320.321 45.955 321.777 44.642 322.479L44.005 321.621C45.682 320.763 47.008 318.527 47.008 316.408V314.315H48.061ZM55.042 318.033V318.917H53.118V324.962H52.052V313.314H53.118V318.033H55.042ZM61.4192 321.218V323.831H68.4522V324.702H60.3532V321.218H61.4192ZM64.8252 319.398H69.5702V320.269H59.0272V319.398H63.7722V317.721H60.4442V313.743H61.4972V316.863H68.3612V317.721H64.8252V319.398ZM79.1112 317.084V314.705H73.3652V317.084H79.1112ZM80.1642 313.847V317.942H72.3252V313.847H80.1642ZM73.3652 321.374V323.831H80.3592V324.702H72.2992V321.374H73.3652ZM70.9472 319.268H81.5422V320.126H76.8622V322.479H75.7962V320.126H70.9472V319.268ZM89.9912 318.579L89.4582 319.424C88.1192 318.956 87.0532 317.968 86.5202 316.707C86.0132 318.059 84.9342 319.138 83.5562 319.645L83.0102 318.813C84.7782 318.176 85.9742 316.616 85.9742 314.9V313.769H87.0402V314.9C87.0402 316.551 88.2622 318.007 89.9912 318.579ZM86.0002 321.452V323.948H91.4602V321.452H86.0002ZM84.9602 324.806V320.607H92.5002V324.806H84.9602ZM91.4342 313.314H92.5002V319.944H91.4342V313.314ZM98.8041 314.315V316.408C98.8041 318.462 100.13 320.581 101.768 321.4L101.105 322.245C99.8701 321.582 98.8171 320.217 98.2841 318.618C97.7771 320.321 96.6981 321.777 95.3851 322.479L94.7481 321.621C96.4251 320.763 97.7511 318.527 97.7511 316.408V314.315H98.8041ZM105.785 318.033V318.917H103.861V324.962H102.795V313.314H103.861V318.033H105.785ZM10.2707 350V349.012H12.3897V341.901H10.6997V341.147C11.5447 340.991 12.1557 340.77 12.6757 340.458H13.5857V349.012H15.4967V350H10.2707ZM16.9096 350V349.298C19.8996 346.685 21.2776 344.787 21.2776 343.149C21.2776 342.057 20.7056 341.264 19.5226 341.264C18.7426 341.264 18.0666 341.745 17.5466 342.369L16.8576 341.693C17.6376 340.848 18.4566 340.289 19.6656 340.289C21.3686 340.289 22.4346 341.407 22.4346 343.11C22.4346 345.008 20.9396 346.945 18.7036 349.064C19.1976 349.025 19.7826 348.973 20.2636 348.973H22.9026V350H16.9096ZM25.3555 350.169C24.8875 350.169 24.4975 349.805 24.4975 349.272C24.4975 348.726 24.8875 348.349 25.3555 348.349C25.8235 348.349 26.2135 348.726 26.2135 349.272C26.2135 349.805 25.8235 350.169 25.3555 350.169ZM32.878 340.562H38.338C38.338 343.929 36.791 346.893 32.917 348.791L32.345 347.92C35.478 346.425 37.038 344.189 37.259 341.42H32.878V340.562ZM40.691 339.301H41.757V350.962H40.691V339.301ZM45.721 344.488V347.283C47.788 347.283 49.244 347.192 50.96 346.906L51.064 347.764C49.27 348.076 47.762 348.154 45.565 348.154H44.655V340.354H50.089V341.225H45.721V343.63H49.829V344.488H45.721ZM55.042 343.981V344.878H53.118V350.949H52.052V339.301H53.118V343.981H55.042ZM10.2707 376V375.012H12.3897V367.901H10.6997V367.147C11.5447 366.991 12.1557 366.77 12.6757 366.458H13.5857V375.012H15.4967V376H10.2707ZM19.7696 376.169C18.2746 376.169 17.3386 375.545 16.7146 374.869L17.3126 374.089C17.8716 374.674 18.5996 375.181 19.6786 375.181C20.8096 375.181 21.6156 374.505 21.6156 373.4C21.6156 372.269 20.8486 371.502 18.6516 371.502V370.592C20.6146 370.592 21.2906 369.799 21.2906 368.772C21.2906 367.862 20.6666 367.264 19.6786 367.264C18.9116 367.264 18.2356 367.641 17.7026 368.187L17.0656 367.433C17.7806 366.77 18.6256 366.289 19.7306 366.289C21.3296 366.289 22.4996 367.173 22.4996 368.681C22.4996 369.838 21.8106 370.605 20.8096 370.982V371.034C21.9276 371.294 22.8246 372.152 22.8246 373.452C22.8246 375.155 21.4596 376.169 19.7696 376.169ZM25.3555 376.169C24.8875 376.169 24.4975 375.805 24.4975 375.272C24.4975 374.726 24.8875 374.349 25.3555 374.349C25.8235 374.349 26.2135 374.726 26.2135 375.272C26.2135 375.805 25.8235 376.169 25.3555 376.169ZM37.038 373.283V370.215H33.71V373.283H37.038ZM37.038 369.37V366.289H38.078V374.154H32.657V366.289H33.71V369.37H37.038ZM43.083 369.89V370.787H41.159V376.949H40.093V365.314H41.159V369.89H43.083ZM48.256 371.385L47.515 370.761C48.997 369.721 49.673 368.538 49.829 366.887H48.035V366.016H50.843C50.843 368.304 50.128 369.994 48.256 371.385ZM44.473 366.016H47.554C47.554 368.278 46.67 369.669 44.902 370.878L44.2 370.202C45.526 369.344 46.345 368.434 46.527 366.887H44.473V366.016ZM46.943 374.869V376.013H53.508V376.806H45.89V372.217H53.261V373.01H46.943V374.089H53.131V374.869H46.943ZM53.196 367.992H54.925V368.876H53.196V371.593H52.13V365.314H53.196V367.992ZM67.2432 367.628V367.342H60.1322V366.471H68.3092V367.628C68.3092 369.071 68.3092 370.67 67.8672 373.023L66.8012 372.906C67.2432 370.67 67.2432 369.032 67.2432 367.628ZM64.1882 374.453H69.5702V375.324H59.0272V374.453H63.1222V370.28H64.1882V374.453ZM72.7152 370.54V373.27C74.6262 373.27 76.3422 373.179 78.3832 372.854L78.4872 373.725C76.3812 374.076 74.6132 374.154 72.6112 374.154H71.6492V369.682H75.9392V367.251H71.6102V366.38H77.0182V370.54H72.7152ZM79.4752 365.288H80.5412V376.975H79.4752V365.288Z" fill="#E5E5E5"/>
</svg>
