<svg width="24" height="24" viewBox="0 0 24 24" fill="none" xmlns="http://www.w3.org/2000/svg">
<path d="M18.3643 14.1211C17.9738 14.5116 17.3406 14.5116 16.9501 14.1211C16.5595 13.7306 16.5595 13.0974 16.9501 12.7069L17.6572 11.9998C19.2193 10.4377 19.2193 7.90506 17.6572 6.34296C16.0951 4.78086 13.5624 4.78086 12.0003 6.34296L11.2932 7.05006C10.9027 7.44059 10.2695 7.44059 9.87899 7.05007C9.48846 6.65954 9.48847 6.02638 9.87899 5.63585L10.5861 4.92875C12.9292 2.5856 16.7282 2.5856 19.0714 4.92875C21.4145 7.27189 21.4145 11.0709 19.0714 13.414L18.3643 14.1211ZM14.1216 16.9496C14.5121 17.3401 14.5121 17.9733 14.1216 18.3638L13.4145 19.0709C11.0714 21.414 7.27238 21.414 4.92923 19.0709C2.58609 16.7277 2.58609 12.9287 4.92923 10.5856L5.63635 9.87849C6.02687 9.48797 6.66003 9.48797 7.05055 9.87849C7.44108 10.269 7.44108 10.9022 7.05055 11.2927L6.34345 11.9998C4.78135 13.5619 4.78135 16.0946 6.34345 17.6567C7.90555 19.2188 10.4382 19.2188 12.0003 17.6567L12.7074 16.9496C13.0979 16.5591 13.7311 16.5591 14.1216 16.9496ZM14.1216 8.46428C14.5121 8.07376 15.1453 8.07376 15.5358 8.46429C15.9263 8.85481 15.9263 9.48797 15.5358 9.87849L9.87903 15.5353C9.48848 15.9259 8.85528 15.9259 8.46475 15.5353C8.07423 15.1448 8.07424 14.5116 8.46477 14.1211L14.1216 8.46428Z" fill="none"/>
</svg>
