<svg width="24" height="24" viewBox="0 0 24 24" fill="none" xmlns="http://www.w3.org/2000/svg">
<path d="M18.3643 14.1216C17.9738 14.5121 17.3406 14.5121 16.9501 14.1216C16.5595 13.7311 16.5595 13.0979 16.9501 12.7074L17.6572 12.0003C19.2193 10.4382 19.2193 7.90555 17.6572 6.34345C16.0951 4.78135 13.5624 4.78135 12.0003 6.34345L11.2932 7.05055C10.9027 7.44107 10.2695 7.44108 9.87899 7.05055C9.48846 6.66003 9.48847 6.02686 9.87899 5.63634L10.5861 4.92924C12.9292 2.58609 16.7282 2.58609 19.0714 4.92924C21.4145 7.27238 21.4145 11.0714 19.0714 13.4145L18.3643 14.1216ZM14.1216 16.9501C14.5121 17.3406 14.5121 17.9738 14.1216 18.3643L13.4145 19.0714C11.0714 21.4145 7.27238 21.4145 4.92923 19.0714C2.58609 16.7282 2.58609 12.9292 4.92923 10.5861L5.63635 9.87898C6.02687 9.48846 6.66003 9.48846 7.05055 9.87898C7.44108 10.2695 7.44108 10.9027 7.05055 11.2932L6.34345 12.0003C4.78135 13.5624 4.78135 16.0951 6.34345 17.6572C7.90555 19.2193 10.4382 19.2193 12.0003 17.6572L12.7074 16.9501C13.0979 16.5596 13.7311 16.5596 14.1216 16.9501ZM14.1216 8.46477C14.5121 8.07424 15.1453 8.07424 15.5358 8.46477C15.9263 8.8553 15.9263 9.48846 15.5358 9.87898L9.87903 15.5358C9.48848 15.9264 8.85528 15.9264 8.46475 15.5358C8.07423 15.1453 8.07424 14.5121 8.46477 14.1216L14.1216 8.46477Z" fill="none"/>
</svg>
