<svg width="24" height="24" viewBox="0 0 24 24" fill="none" xmlns="http://www.w3.org/2000/svg">
<path d="M7.125 20C6.81562 20 6.55078 19.8881 6.33047 19.6643C6.11016 19.4405 6 19.1714 6 18.8571V10.5905C6 10.2762 6.11016 10.0071 6.33047 9.78333C6.55078 9.55952 6.81562 9.44762 7.125 9.44762H8.4375V7.61905C8.4375 6.61778 8.78504 5.76429 9.48011 5.05857C10.1752 4.35286 11.0158 4 12.002 4C12.9882 4 13.8281 4.35286 14.5219 5.05857C15.2156 5.76429 15.5625 6.61778 15.5625 7.61905V9.44762H16.875C17.1844 9.44762 17.4492 9.55952 17.6695 9.78333C17.8898 10.0071 18 10.2762 18 10.5905V18.8571C18 19.1714 17.8898 19.4405 17.6695 19.6643C17.4492 19.8881 17.1844 20 16.875 20H7.125ZM9.5625 9.44762H14.4375V7.61905C14.4375 6.93121 14.2007 6.34656 13.7272 5.86509C13.2537 5.3836 12.6787 5.14286 12.0022 5.14286C11.3257 5.14286 10.75 5.3836 10.275 5.86509C9.8 6.34656 9.5625 6.93121 9.5625 7.61905V9.44762Z" fill="#E5E5E5"/>
</svg>
