<svg width="567" height="84" viewBox="0 0 567 84" fill="none" xmlns="http://www.w3.org/2000/svg">
<path d="M9.04688 78.5518H379.247L405.997 51.8011V1H566.497" stroke="#E9390B" stroke-width="1.5"/>
<path fill-rule="evenodd" clip-rule="evenodd" d="M5 75.001C2.79086 75.001 1 76.7918 1 79.001C1 81.2101 2.79086 83.001 5 83.001C7.20914 83.001 9 81.2101 9 79.001C9 76.7918 7.20914 75.001 5 75.001ZM5 74.001C2.23858 74.001 0 76.2396 0 79.001C0 81.7624 2.23858 84.001 5 84.001C7.76142 84.001 10 81.7624 10 79.001C10 76.2396 7.76142 74.001 5 74.001Z" fill="#E9390B"/>
</svg>
