<svg width="454" height="352" viewBox="0 0 454 352" fill="none" xmlns="http://www.w3.org/2000/svg">
<path d="M449.05 342V219.8L423.75 194.5H1V0" stroke="#E9390B" stroke-width="1.5"/>
<path fill-rule="evenodd" clip-rule="evenodd" d="M449 342.5C446.791 342.5 445 344.291 445 346.5C445 348.709 446.791 350.5 449 350.5C451.209 350.5 453 348.709 453 346.5C453 344.291 451.209 342.5 449 342.5ZM449 341.5C446.239 341.5 444 343.739 444 346.5C444 349.261 446.239 351.5 449 351.5C451.761 351.5 454 349.261 454 346.5C454 343.739 451.761 341.5 449 341.5Z" fill="#E9390B"/>
</svg>
