<svg width="807" height="329" viewBox="0 0 807 329" fill="none" xmlns="http://www.w3.org/2000/svg">
<mask id="mask0_4560_107856" style="mask-type:alpha" maskUnits="userSpaceOnUse" x="0" y="0" width="807" height="329">
<path opacity="0.5" d="M216.5 1L255.5 39.1613H786.028L806.5 61M771.5 61.0008V47.1621H700.5V142.581L636.5 205.291V279.5M125.5 1V63L139.5 77V227H0M144.5 1V232.5H103.5V329M180.5 1V63L156.5 87V251.5M197.5 1V97.5L211.75 111.75H373.625V251.5" stroke="#E9390B"/>
</mask>
<g mask="url(#mask0_4560_107856)">
<rect x="0.5" y="43" width="852" height="286" fill="url(#paint0_linear_4560_107856)"/>
<rect width="852" height="60" transform="matrix(1 0 0 -1 0.5 43)" fill="url(#paint1_linear_4560_107856)"/>
</g>
<defs>
<linearGradient id="paint0_linear_4560_107856" x1="426.5" y1="43" x2="426.5" y2="329" gradientUnits="userSpaceOnUse">
<stop offset="0.796383" stop-color="#E9390B"/>
<stop offset="1" stop-color="#E9390B" stop-opacity="0"/>
</linearGradient>
<linearGradient id="paint1_linear_4560_107856" x1="0" y1="21.0001" x2="852" y2="21.0001" gradientUnits="userSpaceOnUse">
<stop offset="0.302083" stop-color="#E9390B"/>
<stop offset="0.520833" stop-color="#E9390B" stop-opacity="0"/>
<stop offset="0.625" stop-color="#E9390B" stop-opacity="0"/>
<stop offset="0.828125" stop-color="#E9390B"/>
</linearGradient>
</defs>
</svg>
