<svg width="404" height="333" viewBox="0 0 404 333" fill="none" xmlns="http://www.w3.org/2000/svg">
<path opacity="0.5" d="M278.05 62L278.05 107.265L264 122.487L264 227L404 227" stroke="#E9390B"/>
<path opacity="0.5" d="M256 -48L256 292" stroke="#E9390B"/>
<path opacity="0.5" d="M228.125 62L228.125 162L204 186L204 308.5" stroke="#E9390B"/>
<rect width="10" height="10" transform="translate(223 78)" fill="#161414"/>
<path fill-rule="evenodd" clip-rule="evenodd" d="M228 79C225.791 79 224 80.7909 224 83C224 85.2091 225.791 87 228 87C230.209 87 232 85.2091 232 83C232 80.7909 230.209 79 228 79ZM228 78C225.239 78 223 80.2386 223 83C223 85.7614 225.239 88 228 88C230.761 88 233 85.7614 233 83C233 80.2386 230.761 78 228 78Z" fill="#E9390B"/>
<rect width="10" height="10" transform="translate(223 125)" fill="#161414"/>
<path fill-rule="evenodd" clip-rule="evenodd" d="M228 126C225.791 126 224 127.791 224 130C224 132.209 225.791 134 228 134C230.209 134 232 132.209 232 130C232 127.791 230.209 126 228 126ZM228 125C225.239 125 223 127.239 223 130C223 132.761 225.239 135 228 135C230.761 135 233 132.761 233 130C233 127.239 230.761 125 228 125Z" fill="#E9390B"/>
<rect width="10" height="10" transform="translate(270 212)" fill="#161414"/>
<path fill-rule="evenodd" clip-rule="evenodd" d="M275 213C272.791 213 271 214.791 271 217C271 219.209 272.791 221 275 221C277.209 221 279 219.209 279 217C279 214.791 277.209 213 275 213ZM275 212C272.239 212 270 214.239 270 217C270 219.761 272.239 222 275 222C277.761 222 280 219.761 280 217C280 214.239 277.761 212 275 212Z" fill="#E9390B"/>
<rect width="10" height="10" transform="translate(223 110)" fill="#161414"/>
<path fill-rule="evenodd" clip-rule="evenodd" d="M228 111C225.791 111 224 112.791 224 115C224 117.209 225.791 119 228 119C230.209 119 232 117.209 232 115C232 112.791 230.209 111 228 111ZM228 110C225.239 110 223 112.239 223 115C223 117.761 225.239 120 228 120C230.761 120 233 117.761 233 115C233 112.239 230.761 110 228 110Z" fill="#E9390B"/>
<path opacity="0.5" d="M206.125 62L206.125 158.5L191.875 172.75L0 172.75" stroke="#E9390B"/>
<path opacity="0.5" d="M213.125 62L213.125 162L193 182L82 182L82 332.5" stroke="#E9390B"/>
</svg>
