<svg width="567" height="85" viewBox="0 0 567 85" fill="none" xmlns="http://www.w3.org/2000/svg">
<path d="M9.04688 79.0508H379.247L405.997 52.3002V1.49902H566.497" stroke="#E9390B" stroke-width="1.5"/>
<path fill-rule="evenodd" clip-rule="evenodd" d="M5 75.5C2.79086 75.5 1 77.2909 1 79.5C1 81.7091 2.79086 83.5 5 83.5C7.20914 83.5 9 81.7091 9 79.5C9 77.2909 7.20914 75.5 5 75.5ZM5 74.5C2.23858 74.5 0 76.7386 0 79.5C0 82.2614 2.23858 84.5 5 84.5C7.76142 84.5 10 82.2614 10 79.5C10 76.7386 7.76142 74.5 5 74.5Z" fill="#E9390B"/>
</svg>
