<svg width="355" height="375" viewBox="0 0 355 375" fill="none" xmlns="http://www.w3.org/2000/svg">
<path opacity="0.5" d="M5.48578e-06 125.5L62 125.5L76 139.5L226 139.5L226 -9.87877e-06" stroke="#E9390B"/>
<path opacity="0.5" d="M0 144.5L329 144.5" stroke="#E9390B"/>
<path opacity="0.5" d="M0 197.5L96.5 197.5L110.75 211.75L110.75 373.625L250.5 373.625" stroke="#E9390B"/>
<path opacity="0.5" d="M1.04907e-06 180.5L62 180.5L86 156.5L354.5 156.5" stroke="#E9390B"/>
<rect width="10" height="10" transform="translate(91 207)" fill="#161414"/>
<path fill-rule="evenodd" clip-rule="evenodd" d="M96 208C93.7909 208 92 209.791 92 212C92 214.209 93.7909 216 96 216C98.2091 216 100 214.209 100 212C100 209.791 98.2091 208 96 208ZM96 207C93.2386 207 91 209.239 91 212C91 214.761 93.2386 217 96 217C98.7614 217 101 214.761 101 212C101 209.239 98.7614 207 96 207Z" fill="#E9390B"/>
<rect width="10" height="10" transform="translate(10 176)" fill="#161414"/>
<path fill-rule="evenodd" clip-rule="evenodd" d="M15 177C12.7909 177 11 178.791 11 181C11 183.209 12.7909 185 15 185C17.2091 185 19 183.209 19 181C19 178.791 17.2091 177 15 177ZM15 176C12.2386 176 10 178.239 10 181C10 183.761 12.2386 186 15 186C17.7614 186 20 183.761 20 181C20 178.239 17.7614 176 15 176Z" fill="#E9390B"/>
<rect width="10" height="10" transform="translate(152 123)" fill="#161414"/>
<path fill-rule="evenodd" clip-rule="evenodd" d="M157 124C154.791 124 153 125.791 153 128C153 130.209 154.791 132 157 132C159.209 132 161 130.209 161 128C161 125.791 159.209 124 157 124ZM157 123C154.239 123 152 125.239 152 128C152 130.761 154.239 133 157 133C159.761 133 162 130.761 162 128C162 125.239 159.761 123 157 123Z" fill="#E9390B"/>
<rect width="10" height="10" transform="translate(28 176)" fill="#161414"/>
<path fill-rule="evenodd" clip-rule="evenodd" d="M33 177C30.7909 177 29 178.791 29 181C29 183.209 30.7909 185 33 185C35.2091 185 37 183.209 37 181C37 178.791 35.2091 177 33 177ZM33 176C30.2386 176 28 178.239 28 181C28 183.761 30.2386 186 33 186C35.7614 186 38 183.761 38 181C38 178.239 35.7614 176 33 176Z" fill="#E9390B"/>
<rect width="10" height="10" transform="translate(170 123)" fill="#161414"/>
<path fill-rule="evenodd" clip-rule="evenodd" d="M175 124C172.791 124 171 125.791 171 128C171 130.209 172.791 132 175 132C177.209 132 179 130.209 179 128C179 125.791 177.209 124 175 124ZM175 123C172.239 123 170 125.239 170 128C170 130.761 172.239 133 175 133C177.761 133 180 130.761 180 128C180 125.239 177.761 123 175 123Z" fill="#E9390B"/>
<rect width="10" height="10" transform="translate(46 176)" fill="#161414"/>
<path fill-rule="evenodd" clip-rule="evenodd" d="M51 177C48.7909 177 47 178.791 47 181C47 183.209 48.7909 185 51 185C53.2091 185 55 183.209 55 181C55 178.791 53.2091 177 51 177ZM51 176C48.2386 176 46 178.239 46 181C46 183.761 48.2386 186 51 186C53.7614 186 56 183.761 56 181C56 178.239 53.7614 176 51 176Z" fill="#E9390B"/>
<rect width="10" height="10" transform="translate(208 123)" fill="#161414"/>
<path fill-rule="evenodd" clip-rule="evenodd" d="M213 124C210.791 124 209 125.791 209 128C209 130.209 210.791 132 213 132C215.209 132 217 130.209 217 128C217 125.791 215.209 124 213 124ZM213 123C210.239 123 208 125.239 208 128C208 130.761 210.239 133 213 133C215.761 133 218 130.761 218 128C218 125.239 215.761 123 213 123Z" fill="#E9390B"/>
</svg>
