<svg width="154" height="10" viewBox="0 0 154 10" fill="none" xmlns="http://www.w3.org/2000/svg">
<g opacity="0.5">
<path fill-rule="evenodd" clip-rule="evenodd" d="M5 1C2.79086 1 1 2.79086 1 5C1 7.20914 2.79086 9 5 9C7.20914 9 9 7.20914 9 5C9 2.79086 7.20914 1 5 1ZM5 0C2.23858 0 0 2.23858 0 5C0 7.76142 2.23858 10 5 10C7.76142 10 10 7.76142 10 5C10 2.23858 7.76142 0 5 0Z" fill="#E9390B"/>
</g>
<path fill-rule="evenodd" clip-rule="evenodd" d="M23 1C20.7909 1 19 2.79086 19 5C19 7.20914 20.7909 9 23 9C25.2091 9 27 7.20914 27 5C27 2.79086 25.2091 1 23 1ZM23 0C20.2386 0 18 2.23858 18 5C18 7.76142 20.2386 10 23 10C25.7614 10 28 7.76142 28 5C28 2.23858 25.7614 0 23 0Z" fill="#E9390B"/>
<g opacity="0.5">
<path fill-rule="evenodd" clip-rule="evenodd" d="M41 1C38.7909 1 37 2.79086 37 5C37 7.20914 38.7909 9 41 9C43.2091 9 45 7.20914 45 5C45 2.79086 43.2091 1 41 1ZM41 0C38.2386 0 36 2.23858 36 5C36 7.76142 38.2386 10 41 10C43.7614 10 46 7.76142 46 5C46 2.23858 43.7614 0 41 0Z" fill="#E9390B"/>
</g>
<path fill-rule="evenodd" clip-rule="evenodd" d="M59 1C56.7909 1 55 2.79086 55 5C55 7.20914 56.7909 9 59 9C61.2091 9 63 7.20914 63 5C63 2.79086 61.2091 1 59 1ZM59 0C56.2386 0 54 2.23858 54 5C54 7.76142 56.2386 10 59 10C61.7614 10 64 7.76142 64 5C64 2.23858 61.7614 0 59 0Z" fill="#E9390B"/>
<g opacity="0.5">
<path fill-rule="evenodd" clip-rule="evenodd" d="M77 1C74.7909 1 73 2.79086 73 5C73 7.20914 74.7909 9 77 9C79.2091 9 81 7.20914 81 5C81 2.79086 79.2091 1 77 1ZM77 0C74.2386 0 72 2.23858 72 5C72 7.76142 74.2386 10 77 10C79.7614 10 82 7.76142 82 5C82 2.23858 79.7614 0 77 0Z" fill="#E9390B"/>
</g>
<g opacity="0.5">
<path fill-rule="evenodd" clip-rule="evenodd" d="M95 1C92.7909 1 91 2.79086 91 5C91 7.20914 92.7909 9 95 9C97.2091 9 99 7.20914 99 5C99 2.79086 97.2091 1 95 1ZM95 0C92.2386 0 90 2.23858 90 5C90 7.76142 92.2386 10 95 10C97.7614 10 100 7.76142 100 5C100 2.23858 97.7614 0 95 0Z" fill="#E9390B"/>
</g>
<path fill-rule="evenodd" clip-rule="evenodd" d="M113 1C110.791 1 109 2.79086 109 5C109 7.20914 110.791 9 113 9C115.209 9 117 7.20914 117 5C117 2.79086 115.209 1 113 1ZM113 0C110.239 0 108 2.23858 108 5C108 7.76142 110.239 10 113 10C115.761 10 118 7.76142 118 5C118 2.23858 115.761 0 113 0Z" fill="#E9390B"/>
<path fill-rule="evenodd" clip-rule="evenodd" d="M131 1C128.791 1 127 2.79086 127 5C127 7.20914 128.791 9 131 9C133.209 9 135 7.20914 135 5C135 2.79086 133.209 1 131 1ZM131 0C128.239 0 126 2.23858 126 5C126 7.76142 128.239 10 131 10C133.761 10 136 7.76142 136 5C136 2.23858 133.761 0 131 0Z" fill="#E9390B"/>
<path fill-rule="evenodd" clip-rule="evenodd" d="M149 1C146.791 1 145 2.79086 145 5C145 7.20914 146.791 9 149 9C151.209 9 153 7.20914 153 5C153 2.79086 151.209 1 149 1ZM149 0C146.239 0 144 2.23858 144 5C144 7.76142 146.239 10 149 10C151.761 10 154 7.76142 154 5C154 2.23858 151.761 0 149 0Z" fill="#E9390B"/>
</svg>
