<svg width="437" height="329" viewBox="0 0 437 329" fill="none" xmlns="http://www.w3.org/2000/svg">
<mask id="mask0_4590_106957" style="mask-type:alpha" maskUnits="userSpaceOnUse" x="0" y="0" width="437" height="308">
<path opacity="0.5" d="M0 58.5H144L158 72.5H308V0M0 77.5H411M0 130.5H178.5L192.75 144.75V306.625H332.5M0 113.5H144L168 89.5H436.5" stroke="#E9390B"/>
</mask>
<g mask="url(#mask0_4590_106957)">
<rect x="72" y="124" width="261" height="205" fill="url(#paint0_linear_4590_106957)"/>
<rect width="166" height="189" transform="matrix(-1 0 0 1 166 0)" fill="url(#paint1_linear_4590_106957)"/>
<rect x="72" y="74" width="359" height="55" fill="url(#paint2_linear_4590_106957)"/>
<rect x="79" width="302" height="81" fill="url(#paint3_linear_4590_106957)"/>
</g>
<rect width="10" height="10" transform="translate(173 140)" fill="#161414"/>
<path fill-rule="evenodd" clip-rule="evenodd" d="M178 141C175.791 141 174 142.791 174 145C174 147.209 175.791 149 178 149C180.209 149 182 147.209 182 145C182 142.791 180.209 141 178 141ZM178 140C175.239 140 173 142.239 173 145C173 147.761 175.239 150 178 150C180.761 150 183 147.761 183 145C183 142.239 180.761 140 178 140Z" fill="#E9390B"/>
<rect width="10" height="10" transform="translate(92 109)" fill="#161414"/>
<path fill-rule="evenodd" clip-rule="evenodd" d="M97 110C94.7909 110 93 111.791 93 114C93 116.209 94.7909 118 97 118C99.2091 118 101 116.209 101 114C101 111.791 99.2091 110 97 110ZM97 109C94.2386 109 92 111.239 92 114C92 116.761 94.2386 119 97 119C99.7614 119 102 116.761 102 114C102 111.239 99.7614 109 97 109Z" fill="#E9390B"/>
<rect width="10" height="10" transform="translate(234 56)" fill="#161414"/>
<path fill-rule="evenodd" clip-rule="evenodd" d="M239 57C236.791 57 235 58.7909 235 61C235 63.2091 236.791 65 239 65C241.209 65 243 63.2091 243 61C243 58.7909 241.209 57 239 57ZM239 56C236.239 56 234 58.2386 234 61C234 63.7614 236.239 66 239 66C241.761 66 244 63.7614 244 61C244 58.2386 241.761 56 239 56Z" fill="#E9390B"/>
<rect width="10" height="10" transform="translate(110 109)" fill="#161414"/>
<path fill-rule="evenodd" clip-rule="evenodd" d="M115 110C112.791 110 111 111.791 111 114C111 116.209 112.791 118 115 118C117.209 118 119 116.209 119 114C119 111.791 117.209 110 115 110ZM115 109C112.239 109 110 111.239 110 114C110 116.761 112.239 119 115 119C117.761 119 120 116.761 120 114C120 111.239 117.761 109 115 109Z" fill="#E9390B"/>
<rect width="10" height="10" transform="translate(252 56)" fill="#161414"/>
<path fill-rule="evenodd" clip-rule="evenodd" d="M257 57C254.791 57 253 58.7909 253 61C253 63.2091 254.791 65 257 65C259.209 65 261 63.2091 261 61C261 58.7909 259.209 57 257 57ZM257 56C254.239 56 252 58.2386 252 61C252 63.7614 254.239 66 257 66C259.761 66 262 63.7614 262 61C262 58.2386 259.761 56 257 56Z" fill="#E9390B"/>
<rect width="10" height="10" transform="translate(128 109)" fill="#161414"/>
<path fill-rule="evenodd" clip-rule="evenodd" d="M133 110C130.791 110 129 111.791 129 114C129 116.209 130.791 118 133 118C135.209 118 137 116.209 137 114C137 111.791 135.209 110 133 110ZM133 109C130.239 109 128 111.239 128 114C128 116.761 130.239 119 133 119C135.761 119 138 116.761 138 114C138 111.239 135.761 109 133 109Z" fill="#E9390B"/>
<rect width="10" height="10" transform="translate(290 56)" fill="#161414"/>
<path fill-rule="evenodd" clip-rule="evenodd" d="M295 57C292.791 57 291 58.7909 291 61C291 63.2091 292.791 65 295 65C297.209 65 299 63.2091 299 61C299 58.7909 297.209 57 295 57ZM295 56C292.239 56 290 58.2386 290 61C290 63.7614 292.239 66 295 66C297.761 66 300 63.7614 300 61C300 58.2386 297.761 56 295 56Z" fill="#E9390B"/>
<defs>
<linearGradient id="paint0_linear_4590_106957" x1="87.5" y1="226" x2="333" y2="226" gradientUnits="userSpaceOnUse">
<stop offset="0.694181" stop-color="#E9390B"/>
<stop offset="1" stop-color="#E9390B" stop-opacity="0"/>
</linearGradient>
<linearGradient id="paint1_linear_4590_106957" x1="9.85824" y1="94.039" x2="166" y2="94.039" gradientUnits="userSpaceOnUse">
<stop offset="0.694181" stop-color="#E9390B"/>
<stop offset="1" stop-color="#E9390B" stop-opacity="0"/>
</linearGradient>
<linearGradient id="paint2_linear_4590_106957" x1="87.5" y1="96.4556" x2="440.5" y2="96.4557" gradientUnits="userSpaceOnUse">
<stop offset="0.724235" stop-color="#E9390B"/>
<stop offset="1" stop-color="#E9390B" stop-opacity="0"/>
</linearGradient>
<linearGradient id="paint3_linear_4590_106957" x1="312" y1="81" x2="312" y2="-2.32993e-06" gradientUnits="userSpaceOnUse">
<stop offset="0.671875" stop-color="#E9390B"/>
<stop offset="1" stop-color="#E9390B" stop-opacity="0"/>
</linearGradient>
</defs>
</svg>
