<svg width="365" height="396" viewBox="0 0 365 396" fill="none" xmlns="http://www.w3.org/2000/svg">
<mask id="mask0_4560_107823" style="mask-type:alpha" maskUnits="userSpaceOnUse" x="10" y="0" width="355" height="375">
<path opacity="0.5" d="M10 125.5H72L86 139.5H236V0M10 144.5H339M10 197.5H106.5L120.75 211.75L120.75 373.625H260.5M10 180.5H72L96 156.5H364.5" stroke="#E9390B"/>
</mask>
<g mask="url(#mask0_4560_107823)">
<rect y="191" width="261" height="205" fill="url(#paint0_linear_4560_107823)"/>
<rect y="141" width="359" height="55" fill="url(#paint1_linear_4560_107823)"/>
<rect x="7" y="20" width="302" height="121" fill="url(#paint2_linear_4560_107823)"/>
</g>
<rect width="10" height="10" transform="translate(101 207)" fill="#161414"/>
<path fill-rule="evenodd" clip-rule="evenodd" d="M106 208C103.791 208 102 209.791 102 212C102 214.209 103.791 216 106 216C108.209 216 110 214.209 110 212C110 209.791 108.209 208 106 208ZM106 207C103.239 207 101 209.239 101 212C101 214.761 103.239 217 106 217C108.761 217 111 214.761 111 212C111 209.239 108.761 207 106 207Z" fill="#E9390B"/>
<rect width="10" height="10" transform="translate(20 176)" fill="#161414"/>
<path fill-rule="evenodd" clip-rule="evenodd" d="M25 177C22.7909 177 21 178.791 21 181C21 183.209 22.7909 185 25 185C27.2091 185 29 183.209 29 181C29 178.791 27.2091 177 25 177ZM25 176C22.2386 176 20 178.239 20 181C20 183.761 22.2386 186 25 186C27.7614 186 30 183.761 30 181C30 178.239 27.7614 176 25 176Z" fill="#E9390B"/>
<rect width="10" height="10" transform="translate(162 123)" fill="#161414"/>
<path fill-rule="evenodd" clip-rule="evenodd" d="M167 124C164.791 124 163 125.791 163 128C163 130.209 164.791 132 167 132C169.209 132 171 130.209 171 128C171 125.791 169.209 124 167 124ZM167 123C164.239 123 162 125.239 162 128C162 130.761 164.239 133 167 133C169.761 133 172 130.761 172 128C172 125.239 169.761 123 167 123Z" fill="#E9390B"/>
<rect width="10" height="10" transform="translate(38 176)" fill="#161414"/>
<path fill-rule="evenodd" clip-rule="evenodd" d="M43 177C40.7909 177 39 178.791 39 181C39 183.209 40.7909 185 43 185C45.2091 185 47 183.209 47 181C47 178.791 45.2091 177 43 177ZM43 176C40.2386 176 38 178.239 38 181C38 183.761 40.2386 186 43 186C45.7614 186 48 183.761 48 181C48 178.239 45.7614 176 43 176Z" fill="#E9390B"/>
<rect width="10" height="10" transform="translate(180 123)" fill="#161414"/>
<path fill-rule="evenodd" clip-rule="evenodd" d="M185 124C182.791 124 181 125.791 181 128C181 130.209 182.791 132 185 132C187.209 132 189 130.209 189 128C189 125.791 187.209 124 185 124ZM185 123C182.239 123 180 125.239 180 128C180 130.761 182.239 133 185 133C187.761 133 190 130.761 190 128C190 125.239 187.761 123 185 123Z" fill="#E9390B"/>
<rect width="10" height="10" transform="translate(56 176)" fill="#161414"/>
<path fill-rule="evenodd" clip-rule="evenodd" d="M61 177C58.7909 177 57 178.791 57 181C57 183.209 58.7909 185 61 185C63.2091 185 65 183.209 65 181C65 178.791 63.2091 177 61 177ZM61 176C58.2386 176 56 178.239 56 181C56 183.761 58.2386 186 61 186C63.7614 186 66 183.761 66 181C66 178.239 63.7614 176 61 176Z" fill="#E9390B"/>
<rect width="10" height="10" transform="translate(218 123)" fill="#161414"/>
<path fill-rule="evenodd" clip-rule="evenodd" d="M223 124C220.791 124 219 125.791 219 128C219 130.209 220.791 132 223 132C225.209 132 227 130.209 227 128C227 125.791 225.209 124 223 124ZM223 123C220.239 123 218 125.239 218 128C218 130.761 220.239 133 223 133C225.761 133 228 130.761 228 128C228 125.239 225.761 123 223 123Z" fill="#E9390B"/>
<defs>
<linearGradient id="paint0_linear_4560_107823" x1="15.5" y1="293" x2="261" y2="293" gradientUnits="userSpaceOnUse">
<stop offset="0.694181" stop-color="#E9390B"/>
<stop offset="1" stop-color="#E9390B" stop-opacity="0"/>
</linearGradient>
<linearGradient id="paint1_linear_4560_107823" x1="15.5" y1="163.456" x2="368.5" y2="163.456" gradientUnits="userSpaceOnUse">
<stop offset="0.724235" stop-color="#E9390B"/>
<stop offset="1" stop-color="#E9390B" stop-opacity="0"/>
</linearGradient>
<linearGradient id="paint2_linear_4560_107823" x1="240" y1="141" x2="240" y2="20" gradientUnits="userSpaceOnUse">
<stop offset="0.671875" stop-color="#E9390B"/>
<stop offset="1" stop-color="#E9390B" stop-opacity="0"/>
</linearGradient>
</defs>
</svg>
