<svg width="889" height="329" viewBox="0 0 889 329" fill="none" xmlns="http://www.w3.org/2000/svg">
<mask id="mask0_4590_106952" style="mask-type:alpha" maskUnits="userSpaceOnUse" x="0" y="0" width="889" height="329">
<path opacity="0.5" d="M297.998 1L336.998 39.1613H867.526L887.998 61M852.998 61.0008V47.1621H781.998V142.581L717.998 205.291V279.5M206.998 1V63L220.998 77V227H0M225.998 1V232.5H184.998V329M261.998 1V63L237.998 87V251.5M278.998 1V97.5L293.248 111.75H455.123V251.5" stroke="#E9390B"/>
</mask>
<g mask="url(#mask0_4590_106952)">
<rect x="82" y="43" width="852" height="286" fill="url(#paint0_linear_4590_106952)"/>
<rect x="142" y="193" width="67" height="142" transform="rotate(90 142 193)" fill="url(#paint1_linear_4590_106952)"/>
<rect width="852" height="60" transform="matrix(1 0 0 -1 82 43)" fill="url(#paint2_linear_4590_106952)"/>
</g>
<defs>
<linearGradient id="paint0_linear_4590_106952" x1="508" y1="43" x2="508" y2="329" gradientUnits="userSpaceOnUse">
<stop offset="0.796383" stop-color="#E9390B"/>
<stop offset="1" stop-color="#E9390B" stop-opacity="0"/>
</linearGradient>
<linearGradient id="paint1_linear_4590_106952" x1="175.5" y1="193" x2="175.5" y2="335" gradientUnits="userSpaceOnUse">
<stop offset="0.583333" stop-color="#E9390B"/>
<stop offset="1" stop-color="#E9390B" stop-opacity="0"/>
</linearGradient>
<linearGradient id="paint2_linear_4590_106952" x1="0" y1="21.0001" x2="852" y2="21.0001" gradientUnits="userSpaceOnUse">
<stop offset="0.302083" stop-color="#E9390B"/>
<stop offset="0.520833" stop-color="#E9390B" stop-opacity="0"/>
<stop offset="0.625" stop-color="#E9390B" stop-opacity="0"/>
<stop offset="0.828125" stop-color="#E9390B"/>
</linearGradient>
</defs>
</svg>
