<svg width="155" height="10" viewBox="0 0 155 10" fill="none" xmlns="http://www.w3.org/2000/svg">
<path fill-rule="evenodd" clip-rule="evenodd" d="M5.5 1C3.29086 1 1.5 2.79086 1.5 5C1.5 7.20914 3.29086 9 5.5 9C7.70914 9 9.5 7.20914 9.5 5C9.5 2.79086 7.70914 1 5.5 1ZM5.5 0C2.73858 0 0.5 2.23858 0.5 5C0.5 7.76142 2.73858 10 5.5 10C8.26142 10 10.5 7.76142 10.5 5C10.5 2.23858 8.26142 0 5.5 0Z" fill="#262626"/>
<path fill-rule="evenodd" clip-rule="evenodd" d="M23.5 1C21.2909 1 19.5 2.79086 19.5 5C19.5 7.20914 21.2909 9 23.5 9C25.7091 9 27.5 7.20914 27.5 5C27.5 2.79086 25.7091 1 23.5 1ZM23.5 0C20.7386 0 18.5 2.23858 18.5 5C18.5 7.76142 20.7386 10 23.5 10C26.2614 10 28.5 7.76142 28.5 5C28.5 2.23858 26.2614 0 23.5 0Z" fill="#262626"/>
<path fill-rule="evenodd" clip-rule="evenodd" d="M41.5 1C39.2909 1 37.5 2.79086 37.5 5C37.5 7.20914 39.2909 9 41.5 9C43.7091 9 45.5 7.20914 45.5 5C45.5 2.79086 43.7091 1 41.5 1ZM41.5 0C38.7386 0 36.5 2.23858 36.5 5C36.5 7.76142 38.7386 10 41.5 10C44.2614 10 46.5 7.76142 46.5 5C46.5 2.23858 44.2614 0 41.5 0Z" fill="#262626"/>
<path fill-rule="evenodd" clip-rule="evenodd" d="M59.5 1C57.2909 1 55.5 2.79086 55.5 5C55.5 7.20914 57.2909 9 59.5 9C61.7091 9 63.5 7.20914 63.5 5C63.5 2.79086 61.7091 1 59.5 1ZM59.5 0C56.7386 0 54.5 2.23858 54.5 5C54.5 7.76142 56.7386 10 59.5 10C62.2614 10 64.5 7.76142 64.5 5C64.5 2.23858 62.2614 0 59.5 0Z" fill="#E9390B"/>
<path fill-rule="evenodd" clip-rule="evenodd" d="M77.5 1C75.2909 1 73.5 2.79086 73.5 5C73.5 7.20914 75.2909 9 77.5 9C79.7091 9 81.5 7.20914 81.5 5C81.5 2.79086 79.7091 1 77.5 1ZM77.5 0C74.7386 0 72.5 2.23858 72.5 5C72.5 7.76142 74.7386 10 77.5 10C80.2614 10 82.5 7.76142 82.5 5C82.5 2.23858 80.2614 0 77.5 0Z" fill="#E9390B"/>
<path fill-rule="evenodd" clip-rule="evenodd" d="M95.5 1C93.2909 1 91.5 2.79086 91.5 5C91.5 7.20914 93.2909 9 95.5 9C97.7091 9 99.5 7.20914 99.5 5C99.5 2.79086 97.7091 1 95.5 1ZM95.5 0C92.7386 0 90.5 2.23858 90.5 5C90.5 7.76142 92.7386 10 95.5 10C98.2614 10 100.5 7.76142 100.5 5C100.5 2.23858 98.2614 0 95.5 0Z" fill="#262626"/>
<path fill-rule="evenodd" clip-rule="evenodd" d="M113.5 1C111.291 1 109.5 2.79086 109.5 5C109.5 7.20914 111.291 9 113.5 9C115.709 9 117.5 7.20914 117.5 5C117.5 2.79086 115.709 1 113.5 1ZM113.5 0C110.739 0 108.5 2.23858 108.5 5C108.5 7.76142 110.739 10 113.5 10C116.261 10 118.5 7.76142 118.5 5C118.5 2.23858 116.261 0 113.5 0Z" fill="#E9390B"/>
<path fill-rule="evenodd" clip-rule="evenodd" d="M131.5 1C129.291 1 127.5 2.79086 127.5 5C127.5 7.20914 129.291 9 131.5 9C133.709 9 135.5 7.20914 135.5 5C135.5 2.79086 133.709 1 131.5 1ZM131.5 0C128.739 0 126.5 2.23858 126.5 5C126.5 7.76142 128.739 10 131.5 10C134.261 10 136.5 7.76142 136.5 5C136.5 2.23858 134.261 0 131.5 0Z" fill="#E9390B"/>
<path fill-rule="evenodd" clip-rule="evenodd" d="M149.5 1C147.291 1 145.5 2.79086 145.5 5C145.5 7.20914 147.291 9 149.5 9C151.709 9 153.5 7.20914 153.5 5C153.5 2.79086 151.709 1 149.5 1ZM149.5 0C146.739 0 144.5 2.23858 144.5 5C144.5 7.76142 146.739 10 149.5 10C152.261 10 154.5 7.76142 154.5 5C154.5 2.23858 152.261 0 149.5 0Z" fill="#E9390B"/>
</svg>
