<svg width="40" height="40" viewBox="0 0 40 40" fill="none" xmlns="http://www.w3.org/2000/svg">
<path d="M8.54167 30C8.24653 30 7.99913 29.8795 7.79948 29.6385C7.59983 29.3975 7.5 29.0989 7.5 28.7427C7.5 28.3865 7.59983 28.0903 7.79948 27.8542C7.99913 27.6181 8.24653 27.5 8.54167 27.5H31.4583C31.7535 27.5 32.0009 27.6205 32.2005 27.8615C32.4002 28.1025 32.5 28.4011 32.5 28.7573C32.5 29.1135 32.4002 29.4097 32.2005 29.6458C32.0009 29.8819 31.7535 30 31.4583 30H8.54167ZM8.54167 21.25C8.24653 21.25 7.99913 21.1295 7.79948 20.8885C7.59983 20.6475 7.5 20.3489 7.5 19.9927C7.5 19.6365 7.59983 19.3403 7.79948 19.1042C7.99913 18.8681 8.24653 18.75 8.54167 18.75H31.4583C31.7535 18.75 32.0009 18.8705 32.2005 19.1115C32.4002 19.3525 32.5 19.6511 32.5 20.0073C32.5 20.3635 32.4002 20.6597 32.2005 20.8958C32.0009 21.1319 31.7535 21.25 31.4583 21.25H8.54167ZM8.54167 12.5C8.24653 12.5 7.99913 12.3795 7.79948 12.1385C7.59983 11.8975 7.5 11.5989 7.5 11.2427C7.5 10.8865 7.59983 10.5903 7.79948 10.3542C7.99913 10.1181 8.24653 10 8.54167 10H31.4583C31.7535 10 32.0009 10.1205 32.2005 10.3615C32.4002 10.6025 32.5 10.9011 32.5 11.2573C32.5 11.6135 32.4002 11.9097 32.2005 12.1458C32.0009 12.3819 31.7535 12.5 31.4583 12.5H8.54167Z" fill="#fafafa"/>
</svg>
