<svg width="28" height="28" viewBox="0 0 28 28" fill="none" xmlns="http://www.w3.org/2000/svg">
<path d="M6.17105 7C5.71324 7 5.34211 7.37113 5.34211 7.82895L5.3421 20.1711C5.3421 20.6289 5.71324 21 6.17105 21C6.62887 21 7 20.6289 7 20.1711L7 7.82895C7 7.37113 6.62887 7 6.17105 7Z" fill="white"/>
<path d="M11.7228 14.835L16.1372 19.2494C16.4612 19.5734 16.4599 20.0991 16.1343 20.4214C15.811 20.7414 15.2899 20.7401 14.9682 20.4184L9.26217 14.7124C8.87188 14.3221 8.87162 13.6894 9.26158 13.2988L14.9625 7.58822C15.2868 7.26343 15.813 7.26321 16.1375 7.58772C16.4618 7.91203 16.4618 8.43785 16.1375 8.76217L11.7228 13.1768H21.7266C22.1845 13.1768 22.5557 13.548 22.5557 14.0059C22.5557 14.4638 22.1845 14.835 21.7266 14.835H11.7228Z" fill="white"/>
</svg>
