<svg width="200" height="44" viewBox="0 0 200 44" fill="none" xmlns="http://www.w3.org/2000/svg">
<mask id="path-1-inside-1_6513_175655" fill="white">
<path fill-rule="evenodd" clip-rule="evenodd" d="M185.586 0.585786C185.211 0.210714 184.702 0 184.172 0H2C0.895431 0 0 0.895431 0 2V42C0 43.1046 0.895429 44 2 44H198C199.105 44 200 43.1046 200 42V15.8284C200 15.298 199.789 14.7893 199.414 14.4142L185.586 0.585786Z"/>
</mask>
<path fill-rule="evenodd" clip-rule="evenodd" d="M185.586 0.585786C185.211 0.210714 184.702 0 184.172 0H2C0.895431 0 0 0.895431 0 2V42C0 43.1046 0.895429 44 2 44H198C199.105 44 200 43.1046 200 42V15.8284C200 15.298 199.789 14.7893 199.414 14.4142L185.586 0.585786Z" fill="currentColor"/>
<path d="M199.414 14.4142L200.121 13.7071L199.414 14.4142ZM185.586 0.585786L184.879 1.29289L185.586 0.585786ZM2 1H184.172V-1H2V1ZM1 42V2H-1V42H1ZM198 43H2V45H198V43ZM199 15.8284V42H201V15.8284H199ZM200.121 13.7071L186.293 -0.12132L184.879 1.29289L198.707 15.1213L200.121 13.7071ZM201 15.8284C201 15.0328 200.684 14.2697 200.121 13.7071L198.707 15.1213C198.895 15.3089 199 15.5632 199 15.8284H201ZM198 45C199.657 45 201 43.6569 201 42H199C199 42.5523 198.552 43 198 43V45ZM-1 42C-1 43.6569 0.343143 45 2 45V43C1.44771 43 1 42.5523 1 42H-1ZM184.172 1C184.437 1 184.691 1.10536 184.879 1.29289L186.293 -0.12132C185.73 -0.683929 184.967 -1 184.172 -1V1ZM2 -1C0.343145 -1 -1 0.343147 -1 2H1C1 1.44772 1.44772 1 2 1V-1Z" fill="#FF6914" mask="url(#path-1-inside-1_6513_175655)"/>
</svg>
