<svg width="263" height="40" viewBox="0 0 263 40" fill="none" xmlns="http://www.w3.org/2000/svg">
<mask id="path-1-inside-1_2325_53413" fill="white">
<path fill-rule="evenodd" clip-rule="evenodd" d="M248.586 0.585786C248.211 0.210714 247.702 0 247.172 0H2C0.89543 0 0 0.895431 0 2V38C0 39.1046 0.895424 40 1.99999 40H261C262.105 40 263 39.1046 263 38V15.8284C263 15.298 262.789 14.7893 262.414 14.4142L248.586 0.585786Z"/>
</mask>
<path fill-rule="evenodd" clip-rule="evenodd" d="M248.586 0.585786C248.211 0.210714 247.702 0 247.172 0H2C0.89543 0 0 0.895431 0 2V38C0 39.1046 0.895424 40 1.99999 40H261C262.105 40 263 39.1046 263 38V15.8284C263 15.298 262.789 14.7893 262.414 14.4142L248.586 0.585786Z" fill="currentColor"/>
<path d="M262.414 14.4142L261.707 15.1213L262.414 14.4142ZM248.586 0.585786L247.879 1.29289L248.586 0.585786ZM2 1H247.172V-1H2V1ZM1 38V2H-1V38H1ZM261 39H1.99999V41H261V39ZM262 15.8284V38H264V15.8284H262ZM263.121 13.7071L249.293 -0.12132L247.879 1.29289L261.707 15.1213L263.121 13.7071ZM264 15.8284C264 15.0328 263.684 14.2697 263.121 13.7071L261.707 15.1213C261.895 15.3089 262 15.5632 262 15.8284H264ZM261 41C262.657 41 264 39.6569 264 38H262C262 38.5523 261.552 39 261 39V41ZM-1 38C-1 39.6568 0.343136 41 1.99999 41V39C1.44771 39 1 38.5523 1 38H-1ZM247.172 1C247.437 1 247.691 1.10536 247.879 1.29289L249.293 -0.12132C248.73 -0.683929 247.967 -1 247.172 -1V1ZM2 -1C0.343145 -1 -1 0.343147 -1 2H1C1 1.44772 1.44772 1 2 1V-1Z" fill="#FF6914" mask="url(#path-1-inside-1_2325_53413)"/>
</svg>
