<svg width="174" height="40" viewBox="0 0 174 40" fill="none" xmlns="http://www.w3.org/2000/svg">
<mask id="path-1-inside-1_2325_53426" fill="white">
<path fill-rule="evenodd" clip-rule="evenodd" d="M160.086 0.585786C159.711 0.210713 159.202 0 158.672 0H2C0.895431 0 0 0.895431 0 2V38C0 39.1046 0.895435 40 2 40H172C173.105 40 174 39.1046 174 38V15.3284C174 14.798 173.789 14.2893 173.414 13.9142L160.086 0.585786Z"/>
</mask>
<path fill-rule="evenodd" clip-rule="evenodd" d="M160.086 0.585786C159.711 0.210713 159.202 0 158.672 0H2C0.895431 0 0 0.895431 0 2V38C0 39.1046 0.895435 40 2 40H172C173.105 40 174 39.1046 174 38V15.3284C174 14.798 173.789 14.2893 173.414 13.9142L160.086 0.585786Z" fill="currentColor"/>
<path d="M160.086 0.585786L159.379 1.29289L160.086 0.585786ZM2 1H158.672V-1H2V1ZM1 38V2H-1V38H1ZM172 39H2V41H172V39ZM173 15.3284V38H175V15.3284H173ZM174.121 13.2071L160.793 -0.121321L159.379 1.29289L172.707 14.6213L174.121 13.2071ZM175 15.3284C175 14.5328 174.684 13.7697 174.121 13.2071L172.707 14.6213C172.895 14.8089 173 15.0632 173 15.3284H175ZM172 41C173.657 41 175 39.6569 175 38H173C173 38.5523 172.552 39 172 39V41ZM-1 38C-1 39.6569 0.343153 41 2 41V39C1.44772 39 1 38.5523 1 38H-1ZM158.672 1C158.937 1 159.191 1.10536 159.379 1.29289L160.793 -0.121321C160.23 -0.683933 159.467 -1 158.672 -1V1ZM2 -1C0.343145 -1 -1 0.343147 -1 2H1C1 1.44772 1.44772 1 2 1V-1Z" fill="#FF6914" mask="url(#path-1-inside-1_2325_53426)"/>
</svg>
