<svg width="242" height="40" viewBox="0 0 242 40" fill="none" xmlns="http://www.w3.org/2000/svg" preserveAspectRatio="none">
<mask id="path-1-inside-1_1804_44535" fill="white">
<path fill-rule="evenodd" clip-rule="evenodd" d="M226.086 0.585786C225.711 0.210714 225.202 0 224.672 0H2.5C1.39543 0 0.5 0.895431 0.5 2V38C0.5 39.1046 1.39543 40 2.5 40H238.5C239.605 40 240.5 39.1046 240.5 38V15.8284C240.5 15.298 240.289 14.7893 239.914 14.4142L226.086 0.585786Z"/>
</mask>
<path fill-rule="evenodd" clip-rule="evenodd" d="M226.086 0.585786C225.711 0.210714 225.202 0 224.672 0H2.5C1.39543 0 0.5 0.895431 0.5 2V38C0.5 39.1046 1.39543 40 2.5 40H238.5C239.605 40 240.5 39.1046 240.5 38V15.8284C240.5 15.298 240.289 14.7893 239.914 14.4142L226.086 0.585786Z" fill="currentColor"/>
<path d="M239.914 14.4142L240.621 13.7071L239.914 14.4142ZM226.086 0.585786L225.379 1.29289L226.086 0.585786ZM2.5 1H224.672V-1H2.5V1ZM1.5 38V2H-0.5V38H1.5ZM238.5 39H2.5V41H238.5V39ZM239.5 15.8284V38H241.5V15.8284H239.5ZM240.621 13.7071L226.793 -0.12132L225.379 1.29289L239.207 15.1213L240.621 13.7071ZM241.5 15.8284C241.5 15.0328 241.184 14.2697 240.621 13.7071L239.207 15.1213C239.395 15.3089 239.5 15.5632 239.5 15.8284H241.5ZM238.5 41C240.157 41 241.5 39.6569 241.5 38H239.5C239.5 38.5523 239.052 39 238.5 39V41ZM-0.5 38C-0.5 39.6569 0.843143 41 2.5 41V39C1.94771 39 1.5 38.5523 1.5 38H-0.5ZM224.672 1C224.937 1 225.191 1.10536 225.379 1.29289L226.793 -0.12132C226.23 -0.68393 225.467 -1 224.672 -1V1ZM2.5 -1C0.843146 -1 -0.5 0.343147 -0.5 2H1.5C1.5 1.44772 1.94772 1 2.5 1V-1Z" fill="#FF6914" mask="url(#path-1-inside-1_1804_44535)"/>
</svg>
