<svg width="20" height="20" viewBox="0 0 20 20" fill="none" xmlns="http://www.w3.org/2000/svg">
<mask id="mask0_6117_130207" maskUnits="userSpaceOnUse" x="0" y="0" width="20" height="20">
<rect width="20" height="20" fill="#D9D9D9"/>
</mask>
<g mask="url(#mask0_6117_130207)">
<path d="M10 10.1333C9.23001 10.1333 8.57085 9.88198 8.02251 9.37935C7.47418 8.87671 7.20001 8.27248 7.20001 7.56666C7.20001 6.86082 7.47418 6.25659 8.02251 5.75396C8.57085 5.25132 9.23001 5 10 5C10.77 5 11.4292 5.25132 11.9775 5.75396C12.5258 6.25659 12.8 6.86082 12.8 7.56666C12.8 8.27248 12.5258 8.87671 11.9775 9.37935C11.4292 9.88198 10.77 10.1333 10 10.1333ZM4 15.7179V14.0877C4 13.7285 4.10641 13.396 4.31924 13.0899C4.53205 12.7839 4.81641 12.5486 5.1723 12.3841C5.96308 12.0287 6.76078 11.7622 7.56539 11.5845C8.37001 11.4068 9.18154 11.318 10 11.318C10.8185 11.318 11.63 11.4068 12.4346 11.5845C13.2392 11.7622 14.0369 12.0287 14.8277 12.3841C15.1836 12.5486 15.4679 12.7839 15.6808 13.0899C15.8936 13.396 16 13.7285 16 14.0877V15.7179H4ZM5.19998 14.6179H14.8V14.0877C14.8 13.9391 14.7531 13.8016 14.6592 13.6752C14.5654 13.5487 14.438 13.4455 14.2769 13.3656C13.5877 13.0544 12.8849 12.8187 12.1686 12.6584C11.4522 12.4981 10.7294 12.4179 10 12.4179C9.27064 12.4179 8.54778 12.4981 7.83143 12.6584C7.11508 12.8187 6.41229 13.0544 5.72307 13.3656C5.56204 13.4455 5.4346 13.5487 5.34076 13.6752C5.24691 13.8016 5.19998 13.9391 5.19998 14.0877V14.6179ZM10 9.03333C10.44 9.03333 10.8167 8.88972 11.13 8.60249C11.4433 8.31527 11.6 7.96999 11.6 7.56666C11.6 7.16332 11.4433 6.81804 11.13 6.53082C10.8167 6.2436 10.44 6.09999 10 6.09999C9.56 6.09999 9.18333 6.2436 8.87 6.53082C8.55666 6.81804 8.39999 7.16332 8.39999 7.56666C8.39999 7.96999 8.55666 8.31527 8.87 8.60249C9.18333 8.88972 9.56 9.03333 10 9.03333Z" fill="#737373"/>
</g>
</svg>
