<svg width="24" height="24" viewBox="0 0 24 24" fill="none" xmlns="http://www.w3.org/2000/svg">
<path d="M11.25 20.75V17.5H6.9981C6.75421 17.5 6.52177 17.4532 6.30077 17.3596C6.07976 17.266 5.8872 17.1371 5.7231 16.973L4.13272 15.3827C3.95196 15.2019 3.86157 14.991 3.86157 14.75C3.86157 14.5089 3.95196 14.298 4.13272 14.1173L5.7231 12.5269C5.8872 12.3628 6.07976 12.234 6.30077 12.1404C6.52177 12.0468 6.75421 12 6.9981 12H11.25V9.99998H5.40387C5.14779 9.99998 4.93313 9.91376 4.7599 9.74133C4.58665 9.56889 4.50002 9.35224 4.50002 9.09138V5.4086C4.50002 5.14775 4.58665 4.93111 4.7599 4.75868C4.93313 4.58623 5.14779 4.5 5.40387 4.5H11.25V3.25C11.25 3.0375 11.3219 2.85938 11.4657 2.71563C11.6095 2.57188 11.7877 2.5 12.0003 2.5C12.2129 2.5 12.391 2.57188 12.5346 2.71563C12.6782 2.85938 12.75 3.0375 12.75 3.25V4.5H17.0019C17.2458 4.5 17.4782 4.5468 17.6992 4.6404C17.9202 4.73398 18.1128 4.86283 18.2769 5.02693L19.8673 6.6173C20.048 6.79807 20.1384 7.00897 20.1384 7.25C20.1384 7.49102 20.048 7.70191 19.8673 7.88268L18.2769 9.47305C18.1128 9.63715 17.9202 9.766 17.6992 9.8596C17.4782 9.95318 17.2458 9.99998 17.0019 9.99998H12.75V12H18.5961C18.8522 12 19.0669 12.0862 19.2401 12.2586C19.4133 12.4311 19.5 12.6477 19.5 12.9086V16.5914C19.5 16.8522 19.4133 17.0688 19.2401 17.2413C19.0669 17.4137 18.8522 17.5 18.5961 17.5H12.75V20.75C12.75 20.9625 12.6781 21.1406 12.5343 21.2843C12.3905 21.4281 12.2123 21.5 11.9997 21.5C11.7871 21.5 11.609 21.4281 11.4654 21.2843C11.3218 21.1406 11.25 20.9625 11.25 20.75Z" fill="none"/>
</svg>
