<svg width="45" height="47" viewBox="0 0 45 47" fill="none" xmlns="http://www.w3.org/2000/svg">
<path d="M26.3326 5.66301C25.5991 4.02192 23.125 5.14707 23.125 5.14707C25.2074 6.46492 26.3326 5.66301 26.3326 5.66301ZM22.2485 5.42058C22.5034 5.42058 22.7147 5.20923 22.7147 4.95436C22.7147 4.69328 22.5034 4.48814 22.2485 4.48814C21.9936 4.48814 21.7823 4.69949 21.7823 4.95436C21.7823 5.20923 21.9936 5.42058 22.2485 5.42058ZM27.9053 5.82464C27.9053 5.82464 27.0101 5.80599 26.1958 6.29707L28.8253 6.33437C28.8688 6.29707 28.8688 6.29707 28.9185 6.26599C28.9185 6.26599 27.6069 2.71651 24.1196 2.28138C24.1196 2.28138 24.9588 4.90464 27.9053 5.82464ZM29.7515 6.50842C29.7515 6.31572 29.5961 6.16032 29.4034 6.16032C29.2107 6.16032 29.0553 6.31572 29.0553 6.50842C29.0553 6.70113 29.2107 6.85654 29.4034 6.85654C29.6023 6.85654 29.7515 6.70735 29.7515 6.50842ZM15.7028 6.33437L18.3322 6.29707C17.5117 5.80599 16.6166 5.82464 16.6166 5.82464C19.5631 4.90464 20.4023 2.28138 20.4023 2.28138C16.9149 2.71651 15.6033 6.26599 15.6033 6.26599C15.6593 6.29707 15.6593 6.29707 15.7028 6.33437ZM14.8636 6.70114C14.8636 6.89384 15.019 7.04925 15.2117 7.04925C15.4044 7.04925 15.5598 6.89384 15.5598 6.70114C15.5598 6.50843 15.4044 6.35302 15.2117 6.35302C15.019 6.35302 14.8636 6.50843 14.8636 6.70114ZM15.0749 9.50467C13.179 8.15574 10.4127 9.20007 10.4127 9.20007C12.8682 7.32897 12.8495 4.34517 12.8495 4.34517C9.72272 5.94896 9.70407 9.72845 9.70407 9.72845C13.5333 10.866 15.0749 9.50467 15.0749 9.50467ZM16.1317 8.77114L16.1566 7.49059C14.733 7.07411 13.2909 7.34141 13.2909 7.34141C16.0322 5.93032 16.5357 2.98381 16.5357 2.98381C13.179 4.01571 12.5014 7.73925 12.5014 7.73925C14.0555 8.51007 15.2614 8.74628 16.1317 8.77114ZM31.2807 7.13005C31.2807 7.13005 30.1369 6.78195 28.701 7.27303L28.6947 8.58466C29.5712 8.56601 30.4664 8.35466 32.0764 7.50303C32.0764 7.50303 31.3118 3.79814 27.9364 2.84084C27.9364 2.84705 28.5083 5.78112 31.2807 7.13005ZM18.1955 5.81842C18.1955 5.81842 19.3517 6.58303 21.3782 5.18437C21.3782 5.17815 18.8668 4.14625 18.1955 5.81842ZM35.7813 23.5658H34.308V25.4245H35.7813V23.5658ZM31.8153 10.8225L31.0569 11.7301L35.1659 15.839L35.9989 15.0061L31.8153 10.8225ZM39.8156 10.6982L36.0486 6.93114L32.6732 10.5987L36.2972 14.1731L39.8156 10.6982ZM9.10731 10.2817C9.10731 10.4744 9.26272 10.6298 9.45542 10.6298C9.64813 10.6298 9.80354 10.4744 9.80354 10.2817C9.80354 10.089 9.64813 9.93359 9.45542 9.93359C9.26272 9.93359 9.10731 10.089 9.10731 10.2817ZM36.9935 14.2477C37.6399 14.4342 38.4356 14.5709 39.4116 14.6082C39.4116 14.6082 39.8529 13.2904 39.6602 11.6928L38.3921 12.9112C38.5289 13.2344 38.7029 13.5577 38.9205 13.8809C38.9205 13.8809 38.5724 13.5887 38.0067 13.2779L36.9935 14.2477ZM35.8497 32.6664H34.3826V34.5251H35.8497V32.6664ZM33.7113 8.55979L34.5629 7.69573C34.2024 6.47735 33.4688 5.00409 31.6537 4.1276C31.6537 4.1276 31.5791 6.73843 33.7113 8.55979ZM41.3573 21.5766C41.3573 21.7693 41.5127 21.9247 41.7054 21.9247C41.8981 21.9247 42.0535 21.7693 42.0535 21.5766C42.0535 21.3839 41.8981 21.2285 41.7054 21.2285C41.5189 21.2285 41.3573 21.3839 41.3573 21.5766ZM36.7821 4.30166C37.8824 4.84869 38.7651 4.27679 38.7651 4.27679C39.9897 3.67381 40.8724 4.51301 40.8724 4.51301C41.724 5.17815 41.5873 6.06085 41.5873 6.06085C41.5873 6.73221 41.3946 6.78194 41.3946 6.78194C40.9843 7.06167 41.09 6.58924 41.09 6.58924C41.1024 6.58302 41.1832 6.25978 41.1832 6.25978C41.3448 4.73679 39.9773 4.51922 39.9773 4.51922C38.5351 4.27057 38.1683 5.60707 38.1683 5.60707C38.0751 5.97383 38.0689 6.30329 38.1124 6.58924L36.3035 4.78031L36.3905 6.30951L40.4248 10.3439H41.867L40.4 8.87683C41.177 9.11926 41.8546 9.14412 41.8546 9.14412C43.9184 9.0198 44.1297 7.04925 44.1297 7.04925C44.6768 4.99166 42.7186 3.3257 42.7186 3.3257C41.4194 2.20678 39.4489 2.11353 39.4489 2.11353C36.6453 1.79029 35.6507 0 35.6507 0C35.3213 0.81433 35.4083 2.02028 35.4083 2.02028C35.601 3.86651 36.7821 4.30166 36.7821 4.30166ZM41.8546 21.0047C41.8546 21.0047 44.2043 18.0396 42.7621 14.832C42.7621 14.832 40.8848 17.1569 41.6308 20.1531C41.6308 20.1531 40.1265 17.6107 37.8016 17.4801C37.8016 17.4801 38.1621 19.5004 41.8546 21.0047ZM39.4737 15.5655C39.6664 15.5655 39.8219 15.4101 39.8219 15.2174C39.8219 15.0247 39.6664 14.8693 39.4737 14.8693C39.281 14.8693 39.1256 15.0247 39.1256 15.2174C39.1256 15.4101 39.281 15.5655 39.4737 15.5655ZM32.4494 9.92115L33.5061 8.8271C32.611 8.62196 30.9202 8.32357 29.5526 9.33682C29.5526 9.33682 30.255 10.1325 32.4494 9.92115ZM40.9097 17.7039C40.9097 17.7039 42.7124 14.3782 40.7356 11.469C40.7356 11.469 39.2873 14.0798 40.5492 16.902C40.5492 16.902 38.6221 14.6579 36.3097 14.9315C36.3097 14.9315 37.0121 16.8647 40.9097 17.7039ZM28.5891 43.1284C28.5891 43.3211 28.7445 43.4765 28.9372 43.4765C29.1299 43.4765 29.2853 43.3211 29.2853 43.1284C29.2853 42.9357 29.1299 42.7803 28.9372 42.7803C28.7445 42.7741 28.5891 42.9357 28.5891 43.1284ZM30.3358 42.7927C30.3358 42.7927 32.3126 41.0957 32.3313 38.9822L31.6288 39.0133C30.9886 39.5727 30.0561 40.76 29.5402 43.1657C29.5402 43.1657 32.8721 44.9622 35.7751 42.9854C35.7689 42.9792 33.1518 41.5308 30.3358 42.7927ZM27.0847 43.8806C27.0847 43.8806 29.6272 42.37 29.7577 40.0514C29.7577 40.0514 27.7312 40.4057 26.2269 44.1044C26.2269 44.1044 29.1921 46.4541 32.3996 45.0119C32.3996 45.0119 30.0748 43.1284 27.0847 43.8806ZM23.672 44.6079C26.3139 43.3833 26.8983 41.3319 26.8983 41.3319C24.8469 41.4749 23.0815 44.5582 23.0815 44.5582C25.3815 46.9079 28.3653 46.6095 28.3653 46.6095C26.9977 44.8006 23.672 44.6079 23.672 44.6079ZM22.1988 43.5263V44.3965C21.7947 43.7625 20.2282 41.4687 18.4566 41.3568C18.4566 41.3568 19.0595 43.4019 21.7077 44.6079C21.7077 44.6079 18.382 44.8255 17.0268 46.653C17.0268 46.653 19.9236 46.9141 22.1988 44.6576V46.0749H23.0815V44.5582V43.5325H22.1988V43.5263ZM34.3826 35.5073V37.3659L42.7 44.266H44.3659L35.8994 35.5073H34.3826ZM33.3507 41.1579C33.3507 41.1579 34.1091 40.2503 34.4821 38.9822L33.0648 38.9573C32.841 39.6535 32.6732 40.5362 32.6296 41.6614C32.6296 41.6614 35.6943 42.6808 38.1497 40.903L37.2048 40.1446C36.148 40.0824 34.7121 40.2379 33.3507 41.1579ZM16.8528 43.259C16.8528 43.0663 16.6974 42.9109 16.5047 42.9109C16.312 42.9109 16.1566 43.0663 16.1566 43.259C16.1566 43.4517 16.312 43.6071 16.5047 43.6071C16.6974 43.6071 16.8528 43.4517 16.8528 43.259ZM40.1078 33.5305C40.1078 33.5305 40.5865 30.6151 38.8956 29.0237C38.8956 29.0237 37.8699 30.8016 39.7286 34.3262C39.7286 34.3262 43.4335 33.5678 44.3908 30.1799C44.3846 30.1799 41.4567 30.7518 40.1078 33.5305ZM36.6764 39.697L35.4518 38.6962C35.4767 39.007 35.5202 39.3365 35.5761 39.6908C35.5699 39.697 36.0175 39.7468 36.6764 39.697ZM34.8178 40.1508C35.0105 40.1508 35.1659 39.9954 35.1659 39.8027C35.1659 39.61 35.0105 39.4546 34.8178 39.4546C34.6251 39.4546 34.4697 39.61 34.4697 39.8027C34.4697 39.9954 34.6251 40.1508 34.8178 40.1508ZM5.64486 35.0659C5.64486 35.2586 5.80026 35.414 5.99297 35.414C6.18567 35.414 6.34108 35.2586 6.34108 35.0659C6.34108 34.8732 6.18567 34.7178 5.99297 34.7178C5.80026 34.7178 5.64486 34.8732 5.64486 35.0659ZM3.1024 28.3089C5.99918 25.5613 5.58891 23.5472 5.58891 23.5472C3.47538 24.5169 2.99673 27.4324 2.99673 27.4324C2.60511 24.3677 0.00671033 22.8883 0.00671033 22.8883C-0.167345 26.4067 3.1024 28.3089 3.1024 28.3089ZM3.10862 28.7937C3.10862 28.9864 3.26403 29.1418 3.45674 29.1418C3.64944 29.1418 3.80485 28.9864 3.80485 28.7937C3.80485 28.601 3.64944 28.4456 3.45674 28.4456C3.27025 28.4456 3.10862 28.601 3.10862 28.7937ZM8.08163 6.99951L5.38378 4.27679C3.7116 2.60462 1.73483 3.71111 1.73483 3.71111L7.04973 9.00115C7.40406 7.63979 8.08163 6.99951 8.08163 6.99951ZM6.0054 8.67169L1.4178 4.08409C1.4178 4.08409 -0.503024 5.45788 0.988878 8.67169H6.0054ZM4.0162 31.6221C6.39081 28.4145 5.63864 26.4999 5.63864 26.4999C3.72403 27.8178 3.76133 30.7767 3.76133 30.7767C2.84754 27.8302 0.0315759 26.8232 0.0315759 26.8232C0.466714 30.3105 4.0162 31.6221 4.0162 31.6221ZM6.14837 40.7103C6.14837 40.7103 6.6954 40.387 7.47865 40.2689L6.60838 40.0638L6.52135 40.1695C6.57108 40.1011 6.60838 40.0638 6.60838 40.0638L2.73565 44.1417C2.73565 44.1417 2.29429 44.7757 2.71078 45.1922C2.71078 45.1922 3.10241 45.5092 3.637 45.1425L7.41027 41.8417C7.02486 41.6489 6.19189 40.9527 6.14837 40.7103ZM13.4898 39.0568L12.9987 39.0505C12.9738 41.2449 15.0811 42.973 15.0811 42.973C12.2341 41.7795 9.65434 43.29 9.65434 43.29C12.6071 45.1984 15.8893 43.3211 15.8893 43.3211C15.249 40.6544 14.1301 39.5105 13.4898 39.0568ZM5.49567 34.724C7.27352 31.1559 6.21053 29.3967 6.21053 29.3967C4.55079 31.0316 5.09783 33.9346 5.09783 33.9346C3.68052 31.1932 0.740229 30.6897 0.740229 30.6897C1.77213 34.0527 5.49567 34.724 5.49567 34.724ZM15.5909 40.213C15.7774 42.5317 18.3509 43.98 18.3509 43.98C15.3422 43.3025 13.0609 45.2357 13.0609 45.2357C16.2995 46.5971 19.2087 44.1852 19.2087 44.1852C17.6236 40.5238 15.5909 40.213 15.5909 40.213ZM7.29838 12.1839C11.2644 12.6314 12.5449 11.0276 12.5449 11.0276C10.4438 10.033 7.90136 11.5374 7.90136 11.5374C9.99624 9.26845 9.46164 6.32816 9.46164 6.32816C6.65811 8.4479 7.29838 12.1839 7.29838 12.1839ZM7.48487 37.5276C8.61623 33.7046 7.26108 32.1629 7.26108 32.1629C5.91216 34.0589 6.95649 36.8251 6.95649 36.8251C5.08539 34.3697 2.10159 34.3884 2.10159 34.3884C3.70538 37.5089 7.48487 37.5276 7.48487 37.5276ZM36.4589 34.3946C36.4589 34.3946 36.2102 34.6557 36.1294 35.0473L36.8691 35.8119C36.8256 35.3394 36.7075 34.8546 36.4589 34.3946ZM11.8114 19.0901L13.1727 20.2899H16.2374C16.0882 20.0474 16.1379 19.1212 16.1379 19.1212L11.8114 19.0901ZM19.4139 10.1201V8.40439H24.7474V10.8536H26.5066V12.6128H24.7972V13.396H26.5066V15.3044H24.7972V21.0296H23.3301L21.2974 18.9969L19.4387 20.8556L18.096 19.5128L21.1793 16.4296L22.7707 18.0209V10.1201H19.4139ZM16.6725 18.3193C16.6725 22.3785 19.215 24.2558 22.3604 24.2558C25.5058 24.2558 28.0545 22.3848 28.0545 18.3193V6.74465H16.6787C16.6725 6.74465 16.6725 14.2663 16.6725 18.3193ZM12.4765 11.6431C12.4765 11.6431 12.1346 12.1466 10.823 12.4263L12.4765 13.9555V11.6431ZM27.0226 28.5451C27.3955 28.5451 27.3955 28.2653 27.3955 27.9794V25.3375H28.1539V28.1348C28.1539 28.5451 28.1104 29.2351 27.0164 29.2351C26.3077 29.2351 25.885 28.9056 25.885 28.1845V25.3375H26.6434V27.8178C26.6434 28.1037 26.6123 28.5451 27.0226 28.5451ZM28.9745 30.0059V30.7145H28.2037V31.5475H28.8812V32.2624H28.2037V33.1265H28.9869V33.8413H27.4453V30.0059H28.9745ZM28.7693 25.3313H29.621L29.8448 25.8659C29.9069 26.0523 29.9877 26.2513 30.025 26.4502H30.0312C30.0748 26.2513 30.1369 26.0586 30.2053 25.8659L30.4353 25.3313H31.2558L30.4353 27.1899L31.3118 29.1667H30.4353L30.1929 28.5575C30.1183 28.3648 30.0748 28.1721 30.025 27.9856H30.0126C29.9566 28.1783 29.9131 28.3648 29.8448 28.5575L29.621 29.1667H28.7693L29.5837 27.1899L28.7693 25.3313ZM31.0756 33.8413L30.9326 33.1948H30.1618L30.025 33.8413H29.2729L30.1618 30.0059H30.9637L31.8837 33.8413H31.0756ZM26.2207 33.8413L26.0404 31.0751H26.028L25.9036 32.02L25.5804 33.8413H24.9961L24.6231 32.0013L24.4988 31.1435V31.0689H24.4863L24.3744 33.8351H23.5601L23.8958 29.9997H24.8966L25.2696 32.2624H25.2758L25.5804 29.9997H26.5999L27.0039 33.8351H26.2207V33.8413ZM23.759 25.3313H24.5174V28.458H25.3069V29.1667H23.7528V25.3313H23.759ZM22.7893 24.7407V37.7514C22.7893 37.7514 23.5228 37.0241 24.5485 37.0241H32.6234V20.8804H28.2658C28.2658 20.8742 27.0288 24.6848 22.7893 24.7407ZM19.5258 26.4129C19.5258 26.1394 19.3952 25.9156 19.0098 25.9342H18.9104V26.9537L19.0409 26.9599C19.389 26.9599 19.5258 26.7299 19.5258 26.4129ZM30.541 30.9943H30.5285L30.4477 31.5724L30.2861 32.5919H30.8207L30.628 31.5724L30.541 30.9943ZM10.1144 13.8996C9.97759 14.0052 9.00785 14.8942 7.5346 15.0682L8.03812 15.5406L13.3219 15.5158L11.6808 13.8809L10.8479 13.0479C10.8479 13.0479 10.2635 13.8001 10.1144 13.8996ZM39.5856 34.6619C39.5856 34.4692 39.4302 34.3138 39.2375 34.3138C39.0448 34.3138 38.8894 34.4692 38.8894 34.6619C38.8894 34.8546 39.0448 35.01 39.2375 35.01C39.4302 35.01 39.5856 34.8546 39.5856 34.6619ZM41.6184 28.7005C41.8111 28.7005 41.9665 28.5451 41.9665 28.3524C41.9665 28.1597 41.8111 28.0043 41.6184 28.0043C41.4257 28.0043 41.2702 28.1597 41.2702 28.3524C41.2765 28.5451 41.4319 28.7005 41.6184 28.7005ZM39.3805 26.1021C39.3805 26.1021 38.6781 28.0353 41.1273 31.187C41.1273 31.187 44.6457 29.7945 45 26.2948C45 26.2948 42.2151 27.3702 41.3697 30.3353C41.3635 30.3353 41.3262 27.3826 39.3805 26.1021ZM42.0473 26.9786C42.0473 26.9786 41.5002 24.0694 39.3681 23.1556C39.3681 23.1556 39.0075 25.1759 41.9665 27.8551C41.9665 27.8551 45.1927 25.8721 44.9316 22.3661C44.9254 22.3661 42.3705 23.9077 42.0473 26.9786ZM37.901 31.7962C37.901 31.7962 36.5832 33.3751 37.8016 37.167C37.8016 37.167 41.5811 37.0613 43.1103 33.8973C43.1103 33.8973 40.1202 33.9532 38.3113 36.4521C38.3113 36.4521 39.2873 33.6673 37.901 31.7962ZM42.1405 23.5472C42.1405 23.5472 41.0962 20.781 38.8335 20.2464C38.8335 20.2464 38.8335 22.3039 42.2089 24.4237C42.2089 24.4237 45.0373 21.9123 44.1732 18.5058C44.1732 18.5058 41.9229 20.4701 42.1405 23.5472ZM39.7162 38.7646C40.2943 38.4041 40.8475 37.913 41.3075 37.2416C41.3075 37.2416 40.0456 37.08 38.5724 37.5773L39.7162 38.7646ZM17.692 31.5475L17.6049 30.9632H17.5925L17.5117 31.5475L17.3501 32.567H17.8847L17.692 31.5475ZM6.45919 8.87061C4.06593 11.4441 5.34648 15.0061 5.34648 15.0061C9.32488 14.7636 10.3133 12.9609 10.3133 12.9609C8.0692 12.3455 5.83135 14.2663 5.83135 14.2663C7.4973 11.6741 6.45919 8.87061 6.45919 8.87061ZM21.3969 39.6908H23.6907C23.6907 39.6908 23.8398 38.6962 24.4926 38.6962H34.0221V21.9247L33.0772 20.9302V37.5462H24.5423C24.5423 37.5462 23.3923 37.6457 22.4971 38.7459C22.4971 38.7459 21.8009 37.6954 20.3028 37.6022H11.9668V21.0856L10.9411 22.105V38.6962H20.2469C20.2469 38.69 21.3969 38.7397 21.3969 39.6908ZM3.56241 22.0366C3.56241 21.8439 3.407 21.6885 3.2143 21.6885C3.02159 21.6885 2.86619 21.8439 2.86619 22.0366C2.86619 22.2294 3.02159 22.3848 3.2143 22.3848C3.40079 22.3848 3.56241 22.2294 3.56241 22.0366ZM3.2516 20.6007C3.92917 17.592 1.99591 15.3169 1.99591 15.3169C0.628337 18.5555 3.04646 21.4648 3.04646 21.4648C6.70784 19.8734 7.01243 17.8407 7.01243 17.8407C4.69998 18.0272 3.2516 20.6007 3.2516 20.6007ZM0.678065 19.0155C-0.105184 22.4407 2.77916 24.8899 2.77916 24.8899C6.10486 22.6894 6.05513 20.6318 6.05513 20.6318C3.80484 21.2161 2.82267 24.0072 2.82267 24.0072C2.97187 20.9239 0.678065 19.0155 0.678065 19.0155ZM4.46999 12.1901C4.46999 12.1901 4.27107 10.9468 5.56405 9.08818H1.1878C1.1878 9.08196 1.37429 9.59169 4.46999 12.1901ZM16.0384 18.6612V18.1888L13.7633 15.9136H8.42974L11.4384 18.6612H16.0384ZM10.5433 37.913C10.5557 38.0746 10.5868 37.8757 10.5868 37.8757V35.6067L10.2138 36.0232C10.4252 36.5951 10.4998 37.4219 10.5433 37.913ZM4.9362 15.6153C4.9362 15.808 5.09161 15.9634 5.28431 15.9634C5.47702 15.9634 5.63243 15.808 5.63243 15.6153C5.63243 15.4225 5.47702 15.2671 5.28431 15.2671C5.09783 15.2671 4.9362 15.4225 4.9362 15.6153ZM10.5184 40.4554C10.7111 40.4554 10.8665 40.3 10.8665 40.1073C10.8665 39.9146 10.7111 39.7592 10.5184 39.7592C10.3257 39.7592 10.1703 39.9146 10.1703 40.1073C10.1765 40.3 10.3319 40.4554 10.5184 40.4554ZM12.9552 14.4715L16.0384 17.4988V15.1552L12.9552 12.072V14.4715ZM10.5557 32.4986H9.08867V34.3573H10.5557V32.4986ZM30.9823 12.5382L28.5829 15.1428L28.6077 19.3077C28.6077 19.3077 28.5331 19.9977 28.3839 20.3396H29.9318L34.3329 15.9323L30.9823 12.5382ZM17.9966 25.3064V26.0213H17.2257V26.8542H17.9033V27.5691H17.2257V28.4332H18.0028V29.148H16.4674V25.3188L15.4044 29.148H14.7828L13.6763 25.3126H14.4844L14.9444 27.1588C15.0128 27.3764 15.0376 27.594 15.0811 27.8115H15.0874C15.1309 27.5878 15.1433 27.3702 15.2055 27.1464L15.6655 25.3126H17.9966V25.3064ZM18.9539 33.8165H18.1458L18.0028 33.17H17.232L17.0952 33.8165H16.343L17.232 29.981H18.0276L18.9539 33.8165ZM18.152 25.3064H18.9166C19.4014 25.3064 20.2655 25.3561 20.2655 26.4067C20.2655 26.8294 20.0977 27.1899 19.7185 27.3951L20.3836 29.1418H19.5817L18.9166 27.3702H18.9041V29.1418H18.1458V25.3064H18.152ZM20.539 25.3064H21.2974V29.1418H20.539V25.3064ZM19.9733 33.8786C19.7558 33.8786 19.4947 33.8165 19.3206 33.6859V32.9648C19.5009 33.0892 19.6687 33.17 19.8987 33.17C20.1412 33.17 20.3339 33.0083 20.3339 32.7535C20.3339 32.4613 20.0977 32.3494 19.8863 32.194C19.445 31.9018 19.1777 31.6159 19.1777 31.0564C19.1777 30.4535 19.5258 29.9313 20.1785 29.9313C20.4209 29.9313 20.6447 29.9997 20.8498 30.1178V30.8575C20.6944 30.727 20.5079 30.6151 20.3028 30.6151C20.0666 30.6151 19.9174 30.7581 19.9174 30.9881C19.9174 31.6221 21.0736 31.6532 21.0736 32.6913C21.0798 33.3627 20.6882 33.8786 19.9733 33.8786ZM16.2063 30.6959H15.6033V33.8165H14.8449V30.6959H14.2482V29.981H16.2001V30.6959H16.2063ZM12.4144 20.8742V37.0178H20.4147C21.3223 37.0365 22.2485 37.7451 22.2485 37.7451V24.8402C17.406 24.7345 16.4238 20.8804 16.4238 20.8804H12.4144V20.8742ZM12.7625 41.8914C12.6879 40.6606 12.4641 39.7654 12.1906 39.0443H10.7733C11.1587 40.3933 12.029 41.4065 12.029 41.4065C9.43677 39.7405 6.63324 40.7725 6.63324 40.7725C9.20056 43.1657 12.7625 41.8914 12.7625 41.8914ZM7.95109 16.0255L7.24244 15.3604C5.52053 15.7955 4.26485 17.3247 4.26485 17.3247C5.07296 15.3915 4.63782 13.5763 4.27106 12.6128L3.75511 12.1901C2.257 15.0247 3.91674 18.1328 3.91674 18.1328C6.21675 17.5796 7.38541 16.6782 7.95109 16.0255ZM4.08458 37.7762C6.20432 40.5735 9.93408 39.9395 9.93408 39.9395C10.3879 35.9735 8.78407 34.6867 8.78407 34.6867C7.78947 36.7878 9.2938 39.3303 9.2938 39.3303C7.02487 37.2416 4.08458 37.7762 4.08458 37.7762ZM10.506 23.715H9.03893V25.5737H10.506V23.715Z" fill="none"/>
</svg>
