<svg width="248" height="168" viewBox="0 0 248 168" fill="none" xmlns="http://www.w3.org/2000/svg">
<g filter="url(#filter0_d_3545_89029)">
<mask id="path-1-inside-1_3545_89029" fill="white">
<path fill-rule="evenodd" clip-rule="evenodd" d="M202.586 2.58578C202.211 2.21071 201.702 2 201.172 2H4C2.89543 2 2 2.89543 2 4V160C2 161.105 2.89543 162 4 162H240C241.105 162 242 161.105 242 160V42.8284C242 42.298 241.789 41.7893 241.414 41.4142L202.586 2.58578Z"/>
</mask>
<path fill-rule="evenodd" clip-rule="evenodd" d="M202.586 2.58578C202.211 2.21071 201.702 2 201.172 2H4C2.89543 2 2 2.89543 2 4V160C2 161.105 2.89543 162 4 162H240C241.105 162 242 161.105 242 160V42.8284C242 42.298 241.789 41.7893 241.414 41.4142L202.586 2.58578Z" fill="#171717"/>
<path d="M202.586 2.58578L201.879 3.29289L202.586 2.58578ZM4 3H201.172V1H4V3ZM3 160V4H1V160H3ZM240 161H4V163H240V161ZM241 42.8284V160H243V42.8284H241ZM242.121 40.7071L203.293 1.87868L201.879 3.29289L240.707 42.1213L242.121 40.7071ZM243 42.8284C243 42.0328 242.684 41.2697 242.121 40.7071L240.707 42.1213C240.895 42.3089 241 42.5632 241 42.8284H243ZM240 163C241.657 163 243 161.657 243 160H241C241 160.552 240.552 161 240 161V163ZM1 160C1 161.657 2.34314 163 4 163V161C3.44771 161 3 160.552 3 160H1ZM201.172 3C201.437 3 201.691 3.10536 201.879 3.29289L203.293 1.87868C202.73 1.31607 201.967 1 201.172 1V3ZM4 1C2.34315 1 1 2.34314 1 4H3C3 3.44771 3.44771 3 4 3V1Z" fill="#262626" mask="url(#path-1-inside-1_3545_89029)"/>
</g>
<g filter="url(#filter1_d_3545_89029)">
<path d="M202 2L242 42H204C202.895 42 202 41.1046 202 40V2Z" fill="#262626"/>
</g>
<path d="M34.931 28.758V28.342H27.781V27.471H35.997V28.758C35.997 30.24 35.997 31.761 35.581 33.945L34.528 33.815C34.931 31.735 34.931 30.201 34.931 28.758ZM33.215 35.453H37.232V36.324H26.689V35.453H29.276V31.592H30.329V35.453H32.162V31.592H33.215V35.453ZM48.684 30.747L48.242 31.605C46.435 31.293 44.68 30.279 43.926 28.875C43.198 30.292 41.443 31.293 39.623 31.605L39.194 30.747C41.313 30.435 43.367 29.031 43.367 27.367V26.717H44.485V27.367C44.485 28.992 46.565 30.435 48.684 30.747ZM49.191 32.866L49.204 33.75H44.433V37.975H43.367V33.75H38.661V32.866H49.191ZM51.725 31.93C51.257 31.93 50.867 31.553 50.867 31.033C50.867 30.487 51.257 30.11 51.725 30.11C52.193 30.11 52.583 30.487 52.583 31.033C52.583 31.553 52.193 31.93 51.725 31.93ZM51.725 37.169C51.257 37.169 50.867 36.805 50.867 36.272C50.867 35.726 51.257 35.349 51.725 35.349C52.193 35.349 52.583 35.726 52.583 36.272C52.583 36.805 52.193 37.169 51.725 37.169ZM66.7004 26.301V34.855H65.6344V26.301H66.7004ZM64.1524 32.112L63.5934 32.957C62.2674 32.45 61.2404 31.397 60.7204 30.071C60.2264 31.488 59.1734 32.619 57.8084 33.191L57.2494 32.32C59.0044 31.644 60.1744 29.954 60.1744 28.134V26.951H61.2404V28.134C61.2404 29.889 62.4234 31.475 64.1524 32.112ZM60.2654 36.831H67.0514V37.702H59.1994V34.062H60.2654V36.831ZM70.2873 29.759C70.2873 30.851 71.1453 31.631 72.2763 31.631C73.4203 31.631 74.2523 30.851 74.2523 29.759C74.2523 28.68 73.4203 27.9 72.2763 27.9C71.1453 27.9 70.2873 28.68 70.2873 29.759ZM77.6193 28.849H75.1233C75.2143 29.122 75.2663 29.421 75.2663 29.759C75.2663 30.084 75.2143 30.383 75.1103 30.669H77.6193V28.849ZM77.6193 31.54H74.6293C74.0963 32.164 73.2643 32.541 72.2763 32.541C70.5473 32.541 69.2733 31.397 69.2733 29.759C69.2733 28.134 70.5473 27.003 72.2763 27.003C73.2643 27.003 74.0963 27.38 74.6293 27.978H77.6193V26.301H78.6983V33.204H77.6193V31.54ZM74.8373 37.104C76.6183 37.104 77.6843 36.584 77.6843 35.713C77.6843 34.829 76.6183 34.309 74.8373 34.309C73.0823 34.309 72.0163 34.829 72.0163 35.713C72.0163 36.584 73.0823 37.104 74.8373 37.104ZM74.8373 33.477C77.2423 33.477 78.7373 34.296 78.7373 35.713C78.7373 37.13 77.2423 37.949 74.8373 37.949C72.4453 37.949 70.9633 37.13 70.9633 35.713C70.9633 34.296 72.4453 33.477 74.8373 33.477ZM90.6183 26.301V32.255H89.5523V26.301H90.6183ZM81.8303 26.873H87.1343C87.1343 29.837 85.0673 31.709 81.6353 32.489L81.2453 31.631C84.1573 30.994 85.8083 29.603 85.9773 27.744H81.8303V26.873ZM84.1573 37H91.0083V37.845H83.0913V34.855H89.5523V33.659H83.0653V32.814H90.6183V35.648H84.1573V37ZM93.2953 39.47L93.0093 38.768C93.8283 38.404 94.3093 37.767 94.3093 37C94.2573 37.013 94.2183 37.013 94.1663 37.013C93.7113 37.013 93.2953 36.727 93.2953 36.181C93.2953 35.674 93.7113 35.349 94.1923 35.349C94.8163 35.349 95.1933 35.882 95.1933 36.753C95.1933 38.001 94.4653 38.976 93.2953 39.47ZM100.276 27.042H105.645C105.645 30.019 103.5 32.099 100.094 33.009L99.6647 32.164C102.512 31.423 104.293 29.889 104.501 27.913H100.276V27.042ZM102.603 34.296V36.935H108.05V34.296H102.603ZM101.563 37.793V33.451H109.103V37.793H101.563ZM108.037 26.301H109.103V32.892H108.037V26.301ZM113.795 30.084V32.229H119.749V30.084H113.795ZM117.305 35.596H122.063V36.467H111.494V35.596H116.226V33.087H112.742V27.133H113.795V29.213H119.749V27.133H120.789V33.087H117.305V35.596ZM131.981 31.371V29.967H130.018V29.109H131.981V26.301H133.06V33.828H131.981V32.242H130.005V31.371H131.981ZM130.005 27.588V28.446H123.479V27.588H126.261V26.197H127.327V27.588H130.005ZM125.143 31.202C125.143 32.021 125.806 32.554 126.781 32.554C127.756 32.554 128.419 32.021 128.419 31.202C128.419 30.396 127.756 29.863 126.781 29.863C125.806 29.863 125.143 30.396 125.143 31.202ZM129.42 31.202C129.42 32.515 128.328 33.373 126.781 33.373C125.221 33.373 124.142 32.515 124.142 31.202C124.142 29.902 125.221 29.044 126.781 29.044C128.328 29.044 129.42 29.902 129.42 31.202ZM129.238 37.13C130.954 37.13 132.007 36.701 132.007 35.96C132.007 35.206 130.954 34.79 129.238 34.79C127.522 34.79 126.456 35.206 126.456 35.96C126.456 36.701 127.522 37.13 129.238 37.13ZM129.238 33.971C131.643 33.971 133.112 34.686 133.112 35.96C133.112 37.221 131.643 37.949 129.238 37.949C126.82 37.949 125.351 37.221 125.351 35.96C125.351 34.686 126.82 33.971 129.238 33.971Z" fill="#E5E5E5"/>
<path d="M35.516 49.262H36.543V55.775H35.516V49.262ZM33.657 52.044H35.88V52.928H33.657V52.044ZM32.929 49.47H33.943V55.671H32.929V49.47ZM28.847 56.321H29.913V57.66H35.503V56.321H36.543V60.858H28.847V56.321ZM29.913 58.505V59.974H35.503V58.505H29.913ZM27.183 54.514H27.937C29.588 54.514 30.81 54.449 32.253 54.163L32.357 55.034C30.875 55.333 29.64 55.385 27.937 55.385H27.183V54.514ZM27.157 49.951H31.577V52.993H28.223V55.19H27.183V52.174H30.537V50.822H27.157V49.951ZM47.15 49.262H48.229V55.346H47.15V49.262ZM40.637 55.944H48.242V58.765H41.716V60.377H40.663V57.959H47.176V56.789H40.637V55.944ZM40.663 60.026H48.632V60.884H40.663V60.026ZM41.664 49.6H42.561V50.497C42.561 52.668 41.209 54.514 39.22 55.242L38.687 54.384C40.455 53.76 41.664 52.2 41.664 50.497V49.6ZM41.859 49.6H42.743V50.497C42.743 52.122 43.978 53.591 45.72 54.163L45.187 55.008C43.211 54.332 41.859 52.603 41.859 50.497V49.6ZM51.712 54.93C51.244 54.93 50.867 54.566 50.867 54.033C50.867 53.487 51.244 53.123 51.712 53.123C52.193 53.123 52.583 53.487 52.583 54.033C52.583 54.566 52.193 54.93 51.712 54.93ZM51.712 60.182C51.244 60.182 50.867 59.805 50.867 59.272C50.867 58.726 51.244 58.362 51.712 58.362C52.193 58.362 52.583 58.726 52.583 59.272C52.583 59.805 52.193 60.182 51.712 60.182ZM59.8624 60.182C58.3674 60.182 57.4444 59.558 56.8204 58.869L57.4184 58.089C57.9774 58.674 58.6924 59.194 59.7844 59.194C60.9154 59.194 61.7214 58.505 61.7214 57.413C61.7214 56.269 60.9544 55.515 58.7574 55.515V54.592C60.7204 54.592 61.3834 53.812 61.3834 52.772C61.3834 51.862 60.7724 51.264 59.7844 51.264C59.0174 51.264 58.3414 51.654 57.8084 52.2L57.1714 51.433C57.8864 50.783 58.7314 50.302 59.8234 50.302C61.4224 50.302 62.5924 51.173 62.5924 52.694C62.5924 53.851 61.9164 54.618 60.9024 54.982V55.034C62.0204 55.307 62.9304 56.152 62.9304 57.465C62.9304 59.155 61.5654 60.182 59.8624 60.182ZM67.2683 60.182C65.4483 60.182 64.2913 58.531 64.2913 55.203C64.2913 51.901 65.4483 50.302 67.2683 50.302C69.0623 50.302 70.2193 51.901 70.2193 55.203C70.2193 58.531 69.0623 60.182 67.2683 60.182ZM67.2683 59.22C68.3473 59.22 69.0753 58.011 69.0753 55.203C69.0753 52.434 68.3473 51.251 67.2683 51.251C66.1763 51.251 65.4353 52.434 65.4353 55.203C65.4353 58.011 66.1763 59.22 67.2683 59.22ZM72.0092 60V59.012H74.1282V51.914H72.4252V51.147C73.2832 51.004 73.8942 50.783 74.4012 50.471H75.3112V59.012H77.2352V60H72.0092ZM78.7262 55.047H89.3472V55.931H78.7262V55.047ZM83.4972 53.162H84.5632V55.411H83.4972V53.162ZM80.0652 52.824H88.1122V53.708H80.0652V52.824ZM80.0652 49.795H88.0212V50.666H81.1312V53.344H80.0652V49.795ZM84.0172 56.776C86.5262 56.776 88.0472 57.543 88.0472 58.882C88.0472 60.247 86.5262 61.001 84.0172 61.001C81.5082 61.001 79.9872 60.247 79.9872 58.882C79.9872 57.543 81.5082 56.776 84.0172 56.776ZM84.0172 57.608C82.1842 57.608 81.0792 58.076 81.0792 58.882C81.0792 59.701 82.1842 60.156 84.0172 60.156C85.8632 60.156 86.9552 59.701 86.9552 58.882C86.9552 58.076 85.8632 57.608 84.0172 57.608ZM96.3354 60.182C94.8534 60.182 93.9434 59.558 93.2934 58.908L93.8914 58.128C94.4244 58.687 95.1264 59.194 96.2184 59.194C97.3494 59.194 98.2464 58.323 98.2464 56.945C98.2464 55.58 97.4664 54.761 96.2834 54.761C95.6464 54.761 95.2434 54.969 94.6974 55.333L94.0604 54.93L94.3594 50.471H99.0004V51.485H95.3994L95.1524 54.241C95.5814 54.007 96.0104 53.864 96.5824 53.864C98.1684 53.864 99.4554 54.8 99.4554 56.906C99.4554 58.986 97.9344 60.182 96.3354 60.182ZM101.297 60V59.012H103.416V51.914H101.713V51.147C102.571 51.004 103.182 50.783 103.689 50.471H104.599V59.012H106.523V60H101.297ZM110.757 60.182C109.275 60.182 108.365 59.558 107.715 58.908L108.313 58.128C108.846 58.687 109.548 59.194 110.64 59.194C111.771 59.194 112.668 58.323 112.668 56.945C112.668 55.58 111.888 54.761 110.705 54.761C110.068 54.761 109.665 54.969 109.119 55.333L108.482 54.93L108.781 50.471H113.422V51.485H109.821L109.574 54.241C110.003 54.007 110.432 53.864 111.004 53.864C112.59 53.864 113.877 54.8 113.877 56.906C113.877 58.986 112.356 60.182 110.757 60.182ZM115.745 50.978H125.287V51.862H115.745V50.978ZM115.225 58.752H125.872V59.649H115.225V58.752ZM119.996 56.893H121.062V59.103H119.996V56.893ZM120.516 52.655C122.895 52.655 124.364 53.474 124.364 54.891C124.364 56.308 122.895 57.127 120.516 57.127C118.15 57.127 116.681 56.308 116.681 54.891C116.681 53.474 118.15 52.655 120.516 52.655ZM120.516 53.5C118.813 53.5 117.76 54.02 117.76 54.891C117.76 55.762 118.813 56.269 120.516 56.269C122.232 56.269 123.272 55.762 123.272 54.891C123.272 54.02 122.232 53.5 120.516 53.5ZM119.996 49.457H121.062V51.524H119.996V49.457Z" fill="#E5E5E5"/>
<path d="M32.877 75.525H35.217V72.314H36.296V80.855H35.217V76.396H32.877V75.525ZM33.566 78.268L33.033 79.1C31.733 78.632 30.732 77.657 30.225 76.461C29.718 77.787 28.652 78.866 27.287 79.36L26.728 78.528C28.457 77.904 29.666 76.357 29.666 74.706V74.121H27.066V73.25H33.293V74.121H30.732V74.693C30.732 76.214 31.876 77.67 33.566 78.268ZM29.913 82.831H36.621V83.702H28.834V80.101H29.913V82.831ZM45.681 73.718V74.563H38.713V73.718H41.677V72.314H42.743V73.718H45.681ZM40.468 77.41C40.468 78.216 41.17 78.736 42.21 78.736C43.25 78.736 43.952 78.216 43.952 77.41C43.952 76.604 43.25 76.071 42.21 76.071C41.17 76.071 40.468 76.604 40.468 77.41ZM42.743 79.542V80.777C43.796 80.725 44.875 80.647 45.876 80.491L45.941 81.284C43.445 81.726 40.702 81.752 38.661 81.752L38.518 80.855C39.454 80.855 40.546 80.855 41.677 80.816V79.542C40.338 79.373 39.454 78.567 39.454 77.41C39.454 76.097 40.585 75.252 42.21 75.252C43.835 75.252 44.966 76.097 44.966 77.41C44.966 78.567 44.082 79.373 42.743 79.542ZM49.451 77.254V78.151H47.631V83.962H46.565V72.301H47.631V77.254H49.451ZM51.725 77.93C51.257 77.93 50.867 77.553 50.867 77.033C50.867 76.487 51.257 76.11 51.725 76.11C52.193 76.11 52.583 76.487 52.583 77.033C52.583 77.553 52.193 77.93 51.725 77.93ZM51.725 83.169C51.257 83.169 50.867 82.805 50.867 82.272C50.867 81.726 51.257 81.349 51.725 81.349C52.193 81.349 52.583 81.726 52.583 82.272C52.583 82.805 52.193 83.169 51.725 83.169ZM59.5504 85.561C58.3544 83.611 57.6394 81.518 57.6394 78.957C57.6394 76.409 58.3544 74.303 59.5504 72.366L60.2914 72.704C59.1604 74.563 58.6274 76.747 58.6274 78.957C58.6274 81.167 59.1604 83.364 60.2914 85.21L59.5504 85.561ZM64.4499 83.169C62.6299 83.169 61.4729 81.518 61.4729 78.203C61.4729 74.888 62.6299 73.289 64.4499 73.289C66.2569 73.289 67.4139 74.901 67.4139 78.203C67.4139 81.518 66.2569 83.169 64.4499 83.169ZM64.4499 82.22C65.5289 82.22 66.2569 81.011 66.2569 78.203C66.2569 75.421 65.5289 74.238 64.4499 74.238C63.3579 74.238 62.6299 75.421 62.6299 78.203C62.6299 81.011 63.3579 82.22 64.4499 82.22ZM68.6189 83V82.298C71.6089 79.685 72.9869 77.787 72.9869 76.149C72.9869 75.057 72.4149 74.264 71.2319 74.264C70.4519 74.264 69.7759 74.745 69.2559 75.369L68.5669 74.693C69.3469 73.848 70.1659 73.289 71.3749 73.289C73.0779 73.289 74.1439 74.407 74.1439 76.11C74.1439 78.008 72.6489 79.945 70.4129 82.064C70.9069 82.025 71.4919 81.973 71.9729 81.973H74.6119V83H68.6189ZM76.5448 85.561L75.8168 85.21C76.9348 83.364 77.4808 81.167 77.4808 78.957C77.4808 76.747 76.9348 74.563 75.8168 72.704L76.5448 72.366C77.7538 74.303 78.4688 76.409 78.4688 78.957C78.4688 81.518 77.7538 83.611 76.5448 85.561ZM86.1846 83.169C84.4296 83.169 83.1426 82.103 83.1426 80.634C83.1426 79.36 84.0266 78.476 84.8976 78.008V77.943C84.1956 77.462 83.6106 76.747 83.6106 75.746C83.6106 74.29 84.7416 73.328 86.2236 73.328C87.8486 73.328 88.8366 74.368 88.8366 75.837C88.8366 76.838 88.1346 77.696 87.5626 78.138V78.203C88.3946 78.684 89.1746 79.399 89.1746 80.699C89.1746 82.09 87.9786 83.169 86.1846 83.169ZM86.8346 77.826C87.4846 77.254 87.8226 76.604 87.8226 75.902C87.8226 74.966 87.2376 74.199 86.2106 74.199C85.3266 74.199 84.6896 74.823 84.6896 75.746C84.6896 76.89 85.7166 77.384 86.8346 77.826ZM86.2106 82.285C87.3026 82.285 88.0436 81.622 88.0436 80.673C88.0436 79.399 86.8736 78.918 85.5216 78.372C84.7546 78.866 84.2216 79.62 84.2216 80.53C84.2216 81.544 85.0666 82.285 86.2106 82.285ZM93.3956 83.169C91.6406 83.169 90.3536 82.103 90.3536 80.634C90.3536 79.36 91.2376 78.476 92.1086 78.008V77.943C91.4066 77.462 90.8216 76.747 90.8216 75.746C90.8216 74.29 91.9526 73.328 93.4346 73.328C95.0596 73.328 96.0476 74.368 96.0476 75.837C96.0476 76.838 95.3456 77.696 94.7736 78.138V78.203C95.6056 78.684 96.3856 79.399 96.3856 80.699C96.3856 82.09 95.1896 83.169 93.3956 83.169ZM94.0456 77.826C94.6956 77.254 95.0336 76.604 95.0336 75.902C95.0336 74.966 94.4486 74.199 93.4216 74.199C92.5376 74.199 91.9006 74.823 91.9006 75.746C91.9006 76.89 92.9276 77.384 94.0456 77.826ZM93.4216 82.285C94.5136 82.285 95.2546 81.622 95.2546 80.673C95.2546 79.399 94.0846 78.918 92.7326 78.372C91.9656 78.866 91.4326 79.62 91.4326 80.53C91.4326 81.544 92.2776 82.285 93.4216 82.285ZM100.593 83.169C98.7735 83.169 97.6165 81.518 97.6165 78.203C97.6165 74.888 98.7735 73.289 100.593 73.289C102.4 73.289 103.557 74.901 103.557 78.203C103.557 81.518 102.4 83.169 100.593 83.169ZM100.593 82.22C101.672 82.22 102.4 81.011 102.4 78.203C102.4 75.421 101.672 74.238 100.593 74.238C99.5015 74.238 98.7735 75.421 98.7735 78.203C98.7735 81.011 99.5015 82.22 100.593 82.22ZM104.788 79.815V78.905H108.116V79.815H104.788ZM109.841 83V82.012H111.96V74.901H110.27V74.147C111.115 73.991 111.726 73.77 112.246 73.458H113.156V82.012H115.067V83H109.841ZM119.535 83.169C117.78 83.169 116.493 82.103 116.493 80.634C116.493 79.36 117.377 78.476 118.248 78.008V77.943C117.546 77.462 116.961 76.747 116.961 75.746C116.961 74.29 118.092 73.328 119.574 73.328C121.199 73.328 122.187 74.368 122.187 75.837C122.187 76.838 121.485 77.696 120.913 78.138V78.203C121.745 78.684 122.525 79.399 122.525 80.699C122.525 82.09 121.329 83.169 119.535 83.169ZM120.185 77.826C120.835 77.254 121.173 76.604 121.173 75.902C121.173 74.966 120.588 74.199 119.561 74.199C118.677 74.199 118.04 74.823 118.04 75.746C118.04 76.89 119.067 77.384 120.185 77.826ZM119.561 82.285C120.653 82.285 121.394 81.622 121.394 80.673C121.394 79.399 120.224 78.918 118.872 78.372C118.105 78.866 117.572 79.62 117.572 80.53C117.572 81.544 118.417 82.285 119.561 82.285ZM126.928 77.969C126.33 77.969 125.563 78.32 124.978 79.191C125.121 81.167 125.836 82.246 127.032 82.246C127.942 82.246 128.657 81.375 128.657 80.075C128.657 78.788 128.085 77.969 126.928 77.969ZM127.032 83.169C125.199 83.169 123.847 81.596 123.847 78.45C123.847 74.719 125.524 73.289 127.37 73.289C128.358 73.289 129.073 73.705 129.593 74.264L128.943 75.005C128.566 74.55 127.994 74.277 127.409 74.277C126.109 74.277 125.004 75.278 124.952 78.242C125.537 77.527 126.369 77.085 127.123 77.085C128.735 77.085 129.762 78.086 129.762 80.075C129.762 81.921 128.514 83.169 127.032 83.169ZM133.944 83.169C132.124 83.169 130.967 81.518 130.967 78.203C130.967 74.888 132.124 73.289 133.944 73.289C135.751 73.289 136.908 74.901 136.908 78.203C136.908 81.518 135.751 83.169 133.944 83.169ZM133.944 82.22C135.023 82.22 135.751 81.011 135.751 78.203C135.751 75.421 135.023 74.238 133.944 74.238C132.852 74.238 132.124 75.421 132.124 78.203C132.124 81.011 132.852 82.22 133.944 82.22Z" fill="#E5E5E5"/>
<path d="M28.353 138L26.325 128.471H27.56L28.561 133.671C28.756 134.685 28.938 135.712 29.133 136.752H29.185C29.406 135.712 29.64 134.685 29.874 133.671L31.187 128.471H32.279L33.605 133.671C33.839 134.685 34.06 135.712 34.294 136.752H34.359C34.541 135.712 34.723 134.685 34.892 133.671L35.906 128.471H37.063L35.087 138H33.631L32.201 132.254C32.032 131.513 31.876 130.824 31.733 130.083H31.681C31.525 130.824 31.356 131.513 31.2 132.254L29.783 138H28.353ZM41.4561 138.182C39.5711 138.182 38.0761 136.804 38.0761 134.49C38.0761 132.189 39.6231 130.772 41.2481 130.772C43.0421 130.772 44.0561 132.059 44.0561 134.087C44.0561 134.334 44.0431 134.581 44.0041 134.763H39.2461C39.3371 136.258 40.2471 137.233 41.5991 137.233C42.2751 137.233 42.8341 137.012 43.3541 136.661L43.7831 137.454C43.1591 137.857 42.4181 138.182 41.4561 138.182ZM39.2331 133.905H43.0161C43.0161 132.488 42.3791 131.721 41.2611 131.721C40.2731 131.721 39.3891 132.514 39.2331 133.905ZM48.9013 138.182C48.2513 138.182 47.5103 137.844 46.8993 137.272H46.8603L46.7433 138H45.8073V127.665H46.9903V130.486L46.9383 131.76C47.5883 131.201 48.3683 130.772 49.1613 130.772C50.9813 130.772 51.9693 132.189 51.9693 134.36C51.9693 136.778 50.5263 138.182 48.9013 138.182ZM48.7193 137.181C49.8763 137.181 50.7473 136.128 50.7473 134.386C50.7473 132.813 50.2143 131.76 48.8753 131.76C48.2773 131.76 47.6533 132.098 46.9903 132.735V136.453C47.6013 136.986 48.2513 137.181 48.7193 137.181ZM55.626 138.182C54.625 138.182 53.65 137.753 52.987 137.207L53.572 136.414C54.183 136.908 54.807 137.259 55.652 137.259C56.588 137.259 57.056 136.765 57.056 136.141C57.056 135.426 56.211 135.101 55.431 134.815C54.456 134.438 53.377 133.97 53.377 132.761C53.377 131.643 54.274 130.772 55.808 130.772C56.679 130.772 57.459 131.123 58.005 131.565L57.433 132.319C56.952 131.968 56.445 131.695 55.821 131.695C54.924 131.695 54.521 132.163 54.521 132.709C54.521 133.385 55.236 133.645 56.042 133.931C57.069 134.321 58.187 134.737 58.187 136.076C58.187 137.233 57.29 138.182 55.626 138.182ZM59.861 138V130.941H61.044V138H59.861ZM60.459 129.485C59.991 129.485 59.666 129.186 59.666 128.692C59.666 128.237 59.991 127.938 60.459 127.938C60.914 127.938 61.252 128.237 61.252 128.692C61.252 129.186 60.914 129.485 60.459 129.485ZM65.6511 138.182C64.1431 138.182 63.6491 137.233 63.6491 135.829V131.903H62.5961V131.019L63.7011 130.941L63.8311 128.952H64.8321V130.941H66.7431V131.903H64.8321V135.855C64.8321 136.713 65.1051 137.22 65.9241 137.22C66.1711 137.22 66.4961 137.116 66.7171 137.025L66.9511 137.909C66.5611 138.052 66.0931 138.182 65.6511 138.182ZM70.96 138.182C69.075 138.182 67.58 136.804 67.58 134.49C67.58 132.189 69.127 130.772 70.752 130.772C72.546 130.772 73.56 132.059 73.56 134.087C73.56 134.334 73.547 134.581 73.508 134.763H68.75C68.841 136.258 69.751 137.233 71.103 137.233C71.779 137.233 72.338 137.012 72.858 136.661L73.287 137.454C72.663 137.857 71.922 138.182 70.96 138.182ZM68.737 133.905H72.52C72.52 132.488 71.883 131.721 70.765 131.721C69.777 131.721 68.893 132.514 68.737 133.905Z" fill="#E5E5E5"/>
<path d="M26 139.95H74.119V140.6H26V139.95Z" fill="#E5E5E5"/>
<defs>
<filter id="filter0_d_3545_89029" x="0" y="0" width="248" height="168" filterUnits="userSpaceOnUse" color-interpolation-filters="sRGB">
<feFlood flood-opacity="0" result="BackgroundImageFix"/>
<feColorMatrix in="SourceAlpha" type="matrix" values="0 0 0 0 0 0 0 0 0 0 0 0 0 0 0 0 0 0 127 0" result="hardAlpha"/>
<feOffset dx="2" dy="2"/>
<feGaussianBlur stdDeviation="2"/>
<feComposite in2="hardAlpha" operator="out"/>
<feColorMatrix type="matrix" values="0 0 0 0 0 0 0 0 0 0 0 0 0 0 0 0 0 0 0.05 0"/>
<feBlend mode="normal" in2="BackgroundImageFix" result="effect1_dropShadow_3545_89029"/>
<feBlend mode="normal" in="SourceGraphic" in2="effect1_dropShadow_3545_89029" result="shape"/>
</filter>
<filter id="filter1_d_3545_89029" x="200" y="0" width="48" height="48" filterUnits="userSpaceOnUse" color-interpolation-filters="sRGB">
<feFlood flood-opacity="0" result="BackgroundImageFix"/>
<feColorMatrix in="SourceAlpha" type="matrix" values="0 0 0 0 0 0 0 0 0 0 0 0 0 0 0 0 0 0 127 0" result="hardAlpha"/>
<feOffset dx="2" dy="2"/>
<feGaussianBlur stdDeviation="2"/>
<feComposite in2="hardAlpha" operator="out"/>
<feColorMatrix type="matrix" values="0 0 0 0 0 0 0 0 0 0 0 0 0 0 0 0 0 0 0.15 0"/>
<feBlend mode="normal" in2="BackgroundImageFix" result="effect1_dropShadow_3545_89029"/>
<feBlend mode="normal" in="SourceGraphic" in2="effect1_dropShadow_3545_89029" result="shape"/>
</filter>
</defs>
</svg>
