<svg width="225" height="291" viewBox="0 0 225 291" fill="none" xmlns="http://www.w3.org/2000/svg">
<rect width="225" height="291" rx="2" fill="#1e1e1e"/>
<path d="M14.288 17.184H24.352V22.432H14.288V17.184ZM22.256 18.848H16.368V20.768H22.256V18.848ZM12.64 23.824H26.032V25.504H12.64V23.824ZM18.256 22.048H20.384V24.304H18.256V22.048ZM14.128 26.576H24.416V31.424H22.288V28.256H14.128V26.576ZM30.6068 20.448H32.2548V21.216C32.2548 24.336 30.9268 27.488 28.2388 28.688L27.0868 27.056C29.5028 25.952 30.6068 23.44 30.6068 21.216V20.448ZM31.0708 20.448H32.7188V21.216C32.7188 23.328 33.7588 25.696 36.0788 26.816L34.9427 28.432C32.3348 27.232 31.0708 24.192 31.0708 21.216V20.448ZM27.5988 19.024H35.6628V20.704H27.5988V19.024ZM30.5908 16.944H32.7188V19.888H30.5908V16.944ZM36.8308 16.608H38.9748V31.424H36.8308V16.608ZM38.4948 22.352H41.1188V24.112H38.4948V22.352Z" fill="#E5E5E5"/>
<path d="M17.4816 64V63.012H19.6006V55.914H17.8976V55.147C18.7556 55.004 19.3666 54.783 19.8736 54.471H20.7836V63.012H22.7076V64H17.4816ZM25.3425 64.182C24.8745 64.182 24.4975 63.805 24.4975 63.272C24.4975 62.726 24.8745 62.362 25.3425 62.362C25.8235 62.362 26.2135 62.726 26.2135 63.272C26.2135 63.805 25.8235 64.182 25.3425 64.182ZM36.895 53.678H37.844V54.328C37.844 56.577 35.556 58.189 33.112 58.605L32.683 57.734C34.828 57.409 36.895 56.005 36.895 54.328V53.678ZM37.09 53.678H38.026V54.328C38.026 55.966 40.119 57.409 42.238 57.734L41.809 58.605C39.391 58.189 37.09 56.551 37.09 54.328V53.678ZM36.895 60.542H37.961V65.014H36.895V60.542ZM32.15 59.879H42.771V60.776H32.15V59.879ZM52.143 53.262H53.222V60.295H52.143V53.262ZM52.923 56.291H54.964V57.201H52.923V56.291ZM48.893 54.12H50.05C50.05 57.136 47.957 59.333 44.564 60.334L44.109 59.463C47.099 58.579 48.893 56.811 48.893 54.614V54.12ZM44.629 54.12H49.504V55.017H44.629V54.12ZM49.543 60.438C51.87 60.438 53.352 61.296 53.352 62.713C53.352 64.13 51.87 64.988 49.543 64.988C47.203 64.988 45.708 64.13 45.708 62.713C45.708 61.296 47.203 60.438 49.543 60.438ZM49.543 61.296C47.853 61.296 46.774 61.829 46.774 62.713C46.774 63.597 47.853 64.13 49.543 64.13C51.233 64.13 52.312 63.597 52.312 62.713C52.312 61.829 51.233 61.296 49.543 61.296ZM64.609 53.275H65.701V61.881H64.609V53.275ZM58.148 63.87H66.052V64.754H58.148V63.87ZM58.148 61.088H59.214V64.286H58.148V61.088ZM59.123 53.912H60.02V55.108C60.02 57.396 58.72 59.398 56.744 60.204L56.185 59.333C57.953 58.644 59.123 56.928 59.123 55.108V53.912ZM59.318 53.912H60.202V55.108C60.202 56.876 61.385 58.475 63.14 59.112L62.568 59.983C60.618 59.229 59.318 57.344 59.318 55.108V53.912ZM70.952 55.264H71.836V55.771C71.836 57.812 70.536 59.528 68.573 60.191L68.053 59.346C69.782 58.787 70.952 57.357 70.952 55.771V55.264ZM71.147 55.264H72.031V55.771C72.031 57.227 73.24 58.54 74.969 59.047L74.475 59.892C72.499 59.281 71.147 57.695 71.147 55.771V55.264ZM68.352 54.679H74.618V55.55H68.352V54.679ZM70.952 53.21H72.031V54.991H70.952V53.21ZM74.267 56.603H76.919V57.5H74.267V56.603ZM76.607 53.262H77.686V60.373H76.607V53.262ZM73.825 60.685C76.256 60.685 77.738 61.478 77.738 62.843C77.738 64.195 76.256 64.988 73.825 64.988C71.381 64.988 69.899 64.195 69.899 62.843C69.899 61.478 71.381 60.685 73.825 60.685ZM73.825 61.53C72.044 61.53 70.978 62.011 70.978 62.843C70.978 63.662 72.044 64.143 73.825 64.143C75.593 64.143 76.672 63.662 76.672 62.843C76.672 62.011 75.593 61.53 73.825 61.53ZM33.4946 90V89.012H35.6136V81.914H33.9106V81.147C34.7686 81.004 35.3796 80.783 35.8866 80.471H36.7966V89.012H38.7206V90H33.4946ZM41.3555 90.182C40.8875 90.182 40.5105 89.805 40.5105 89.272C40.5105 88.726 40.8875 88.362 41.3555 88.362C41.8365 88.362 42.2265 88.726 42.2265 89.272C42.2265 89.805 41.8365 90.182 41.3555 90.182ZM44.3237 90V89.012H46.4427V81.914H44.7397V81.147C45.5977 81.004 46.2087 80.783 46.7157 80.471H47.6257V89.012H49.5497V90H44.3237ZM52.1846 90.182C51.7166 90.182 51.3396 89.805 51.3396 89.272C51.3396 88.726 51.7166 88.362 52.1846 88.362C52.6656 88.362 53.0556 88.726 53.0556 89.272C53.0556 89.805 52.6656 90.182 52.1846 90.182ZM62.311 79.678H63.26V80.328C63.26 82.577 60.972 84.189 58.528 84.605L58.099 83.734C60.244 83.409 62.311 82.005 62.311 80.328V79.678ZM62.506 79.678H63.442V80.328C63.442 81.966 65.535 83.409 67.654 83.734L67.225 84.605C64.807 84.189 62.506 82.551 62.506 80.328V79.678ZM62.311 86.542H63.377V91.014H62.311V86.542ZM57.566 85.879H68.187V86.776H57.566V85.879ZM77.559 79.262H78.638V86.295H77.559V79.262ZM78.339 82.291H80.38V83.201H78.339V82.291ZM74.309 80.12H75.466C75.466 83.136 73.373 85.333 69.98 86.334L69.525 85.463C72.515 84.579 74.309 82.811 74.309 80.614V80.12ZM70.045 80.12H74.92V81.017H70.045V80.12ZM74.959 86.438C77.286 86.438 78.768 87.296 78.768 88.713C78.768 90.13 77.286 90.988 74.959 90.988C72.619 90.988 71.124 90.13 71.124 88.713C71.124 87.296 72.619 86.438 74.959 86.438ZM74.959 87.296C73.269 87.296 72.19 87.829 72.19 88.713C72.19 89.597 73.269 90.13 74.959 90.13C76.649 90.13 77.728 89.597 77.728 88.713C77.728 87.829 76.649 87.296 74.959 87.296ZM86.242 83.825H88.465V84.722H86.242V83.825ZM90.428 79.262H91.468V91.014H90.428V79.262ZM88.101 79.509H89.128V90.429H88.101V79.509ZM84.123 80.237C85.644 80.237 86.632 81.81 86.632 84.332C86.632 86.854 85.644 88.427 84.123 88.427C82.602 88.427 81.627 86.854 81.627 84.332C81.627 81.81 82.602 80.237 84.123 80.237ZM84.123 81.238C83.2 81.238 82.615 82.434 82.615 84.332C82.615 86.23 83.2 87.426 84.123 87.426C85.059 87.426 85.644 86.23 85.644 84.332C85.644 82.434 85.059 81.238 84.123 81.238ZM96.9742 80.172H102.174V81.056H96.9742V80.172ZM98.7422 82.798H99.8082V85.736H98.7422V82.798ZM101.745 80.172H102.811V80.796C102.811 81.563 102.811 82.733 102.499 84.28L101.446 84.163C101.745 82.616 101.745 81.55 101.745 80.796V80.172ZM104.41 79.262H105.489V88.115H104.41V79.262ZM104.995 83.084H107.166V83.981H104.995V83.084ZM98.0662 89.87H105.866V90.754H98.0662V89.87ZM98.0662 87.296H99.1322V90.143H98.0662V87.296ZM96.3762 86.243L96.2592 85.359C98.3522 85.359 101.238 85.307 103.617 84.982L103.695 85.762C101.251 86.191 98.4432 86.243 96.3762 86.243ZM116.343 79.275H117.422V88.089H116.343V79.275ZM117.084 83.123H119.164V84.033H117.084V83.123ZM108.335 80.692H115.277V81.563H108.335V80.692ZM111.806 82.213C113.47 82.213 114.614 83.084 114.614 84.41C114.614 85.723 113.47 86.594 111.806 86.594C110.129 86.594 108.985 85.723 108.985 84.41C108.985 83.084 110.129 82.213 111.806 82.213ZM111.806 83.058C110.74 83.058 110.012 83.591 110.012 84.41C110.012 85.216 110.74 85.749 111.806 85.749C112.859 85.749 113.587 85.216 113.587 84.41C113.587 83.591 112.859 83.058 111.806 83.058ZM111.26 79.262H112.339V81.147H111.26V79.262ZM110.103 89.87H117.955V90.754H110.103V89.87ZM110.103 87.387H111.182V90.247H110.103V87.387ZM132.093 79.262H133.133V91.014H132.093V79.262ZM130.117 84.046H132.379V84.93H130.117V84.046ZM129.428 79.522H130.442V90.416H129.428V79.522ZM123.734 80.679H124.813V87.465H123.734V80.679ZM123.734 87.036H124.488C125.697 87.036 127.049 86.958 128.583 86.659L128.7 87.595C127.101 87.907 125.749 87.972 124.488 87.972H123.734V87.036ZM136.473 80.016H143.818V80.9H136.473V80.016ZM135.134 85.138H145.755V86.022H135.134V85.138ZM137.864 85.684H138.943V91.014H137.864V85.684ZM143.233 80.016H144.299V80.887C144.299 81.992 144.299 83.409 143.896 85.424L142.83 85.32C143.233 83.37 143.233 81.966 143.233 80.887V80.016ZM141.881 85.684H142.96V91.014H141.881V85.684ZM33.4946 116V115.012H35.6136V107.914H33.9106V107.147C34.7686 107.004 35.3796 106.783 35.8866 106.471H36.7966V115.012H38.7206V116H33.4946ZM41.3555 116.182C40.8875 116.182 40.5105 115.805 40.5105 115.272C40.5105 114.726 40.8875 114.362 41.3555 114.362C41.8365 114.362 42.2265 114.726 42.2265 115.272C42.2265 115.805 41.8365 116.182 41.3555 116.182ZM43.7517 116V115.311C46.7417 112.698 48.1067 110.787 48.1067 109.162C48.1067 108.07 47.5477 107.264 46.3647 107.264C45.5847 107.264 44.9087 107.745 44.3757 108.369L43.6867 107.706C44.4667 106.861 45.2987 106.302 46.5077 106.302C48.2107 106.302 49.2767 107.407 49.2767 109.11C49.2767 111.021 47.7817 112.958 45.5327 115.077C46.0397 115.025 46.6117 114.986 47.0927 114.986H49.7317V116H43.7517ZM52.1846 116.182C51.7166 116.182 51.3396 115.805 51.3396 115.272C51.3396 114.726 51.7166 114.362 52.1846 114.362C52.6656 114.362 53.0556 114.726 53.0556 115.272C53.0556 115.805 52.6656 116.182 52.1846 116.182ZM58.06 113.296H58.983C61.154 113.296 62.649 113.244 64.417 112.932L64.534 113.816C62.714 114.128 61.18 114.193 58.983 114.193H58.06V113.296ZM58.06 106.328H63.533V107.225H59.139V113.608H58.06V106.328ZM58.866 109.617H63.273V110.488H58.866V109.617ZM65.509 105.262H66.601V117.014H65.509V105.262ZM66.341 109.981H68.525V110.891H66.341V109.981ZM72.9522 106.549H78.2692V107.42H72.9522V106.549ZM74.7852 109.903H75.8512V113.881H74.7852V109.903ZM77.8272 106.549H78.8802V107.173C78.8802 108.135 78.8802 109.669 78.5422 111.853L77.4762 111.749C77.8272 109.63 77.8272 108.122 77.8272 107.173V106.549ZM80.3622 105.262H81.4282V117.014H80.3622V105.262ZM81.1422 110.176H83.3132V111.086H81.1422V110.176ZM72.4322 114.453L72.3022 113.543C74.4342 113.543 77.2682 113.504 79.6472 113.205L79.6992 113.998C77.2682 114.388 74.5122 114.44 72.4322 114.453ZM87.3552 111.19H88.4342V113.998H87.3552V111.19ZM87.8882 106.016C89.6952 106.016 90.9952 107.147 90.9952 108.785C90.9952 110.423 89.6952 111.554 87.8882 111.554C86.0812 111.554 84.7812 110.423 84.7812 108.785C84.7812 107.147 86.0812 106.016 87.8882 106.016ZM87.8882 106.939C86.6922 106.939 85.8342 107.693 85.8342 108.785C85.8342 109.877 86.6922 110.631 87.8882 110.631C89.0842 110.631 89.9422 109.877 89.9422 108.785C89.9422 107.693 89.0842 106.939 87.8882 106.939ZM92.3342 105.262H93.4132V117.014H92.3342V105.262ZM93.1012 110.098H95.2722V111.008H93.1012V110.098ZM84.4042 114.479L84.2482 113.582C86.3672 113.569 89.2012 113.556 91.5932 113.231L91.6842 114.037C89.2012 114.453 86.4582 114.479 84.4042 114.479ZM100.159 106.107C101.992 106.107 103.305 107.238 103.305 108.876C103.305 110.527 101.992 111.658 100.159 111.658C98.3262 111.658 97.0002 110.527 97.0002 108.876C97.0002 107.238 98.3262 106.107 100.159 106.107ZM100.159 107.043C98.9372 107.043 98.0532 107.784 98.0532 108.876C98.0532 109.968 98.9372 110.722 100.159 110.722C101.368 110.722 102.252 109.968 102.252 108.876C102.252 107.784 101.368 107.043 100.159 107.043ZM104.839 105.249H105.918V117.027H104.839V105.249ZM96.5582 114.453L96.4022 113.556C98.5472 113.556 101.511 113.543 104.072 113.14L104.163 113.933C101.524 114.44 98.6512 114.453 96.5582 114.453ZM113.933 112.529H115.038V117.014H113.933V112.529ZM117.976 112.529H119.081V117.014H117.976V112.529ZM111.203 111.944H121.863V112.841H111.203V111.944ZM116.507 105.73C118.964 105.73 120.615 106.718 120.615 108.291C120.615 109.851 118.964 110.852 116.507 110.852C114.063 110.852 112.399 109.851 112.399 108.291C112.399 106.718 114.063 105.73 116.507 105.73ZM116.507 106.601C114.713 106.601 113.491 107.264 113.491 108.291C113.491 109.318 114.713 109.981 116.507 109.981C118.301 109.981 119.51 109.318 119.51 108.291C119.51 107.264 118.301 106.601 116.507 106.601ZM126.048 106.276H126.932V108.382C126.932 110.982 125.528 113.517 123.669 114.505L123.006 113.647C124.709 112.789 126.048 110.527 126.048 108.382V106.276ZM126.243 106.276H127.114V108.382C127.114 110.449 128.427 112.594 130.091 113.426L129.428 114.284C127.608 113.309 126.243 110.904 126.243 108.382V106.276ZM131.118 105.262H132.21V117.014H131.118V105.262ZM131.95 110.02H134.134V110.93H131.95V110.02ZM139.134 106.432H146.7V107.329H139.134V106.432ZM138.042 114.479H148.663V115.376H138.042V114.479ZM140.642 110.592H141.708V114.804H140.642V110.592ZM146.349 106.432H147.415V107.732C147.415 109.227 147.415 110.761 147.012 112.958L145.933 112.828C146.349 110.748 146.349 109.188 146.349 107.732V106.432ZM143.541 110.592H144.607V114.804H143.541V110.592ZM150.521 106.549H155.838V107.42H150.521V106.549ZM152.354 109.903H153.42V113.881H152.354V109.903ZM155.396 106.549H156.449V107.173C156.449 108.135 156.449 109.669 156.111 111.853L155.045 111.749C155.396 109.63 155.396 108.122 155.396 107.173V106.549ZM157.931 105.262H158.997V117.014H157.931V105.262ZM158.711 110.176H160.882V111.086H158.711V110.176ZM150.001 114.453L149.871 113.543C152.003 113.543 154.837 113.504 157.216 113.205L157.268 113.998C154.837 114.388 152.081 114.44 150.001 114.453ZM163.312 105.743H171.216V109.747H163.312V105.743ZM170.15 106.614H164.365V108.876H170.15V106.614ZM161.947 111.216H172.568V112.087H161.947V111.216ZM166.731 109.513H167.797V111.541H166.731V109.513ZM163.13 113.296H171.255V117.014H170.176V114.18H163.13V113.296ZM178.178 105.743H186.082V109.747H178.178V105.743ZM185.016 106.614H179.231V108.876H185.016V106.614ZM176.813 111.216H187.434V112.087H176.813V111.216ZM181.597 109.513H182.663V111.541H181.597V109.513ZM177.996 113.296H186.121V117.014H185.042V114.18H177.996V113.296ZM188.772 111.723H199.432V112.607H188.772V111.723ZM190.124 105.561H198.054V108.408H191.216V109.994H190.15V107.615H197.001V106.406H190.124V105.561ZM190.15 109.643H198.314V110.488H190.15V109.643ZM193.556 110.085H194.635V112.165H193.556V110.085ZM189.955 113.504H198.132V116.91H197.053V114.388H189.955V113.504ZM16.9096 142V141.311C19.8996 138.698 21.2646 136.787 21.2646 135.162C21.2646 134.07 20.7056 133.264 19.5226 133.264C18.7426 133.264 18.0666 133.745 17.5336 134.369L16.8446 133.706C17.6246 132.861 18.4566 132.302 19.6656 132.302C21.3686 132.302 22.4346 133.407 22.4346 135.11C22.4346 137.021 20.9396 138.958 18.6906 141.077C19.1976 141.025 19.7696 140.986 20.2506 140.986H22.8896V142H16.9096ZM25.3425 142.182C24.8745 142.182 24.4975 141.805 24.4975 141.272C24.4975 140.726 24.8745 140.362 25.3425 140.362C25.8235 140.362 26.2135 140.726 26.2135 141.272C26.2135 141.805 25.8235 142.182 25.3425 142.182ZM34.893 139.335H35.985V143.04H34.893V139.335ZM38.936 139.335H40.015V143.04H38.936V139.335ZM32.696 132.562H42.147V133.433H32.696V132.562ZM32.15 138.776H42.797V139.66H32.15V138.776ZM37.454 134.096C39.846 134.096 41.263 134.798 41.263 136.033C41.263 137.281 39.846 137.983 37.454 137.983C35.049 137.983 33.632 137.281 33.632 136.033C33.632 134.798 35.049 134.096 37.454 134.096ZM37.454 134.915C35.738 134.915 34.75 135.318 34.75 136.033C34.75 136.761 35.738 137.164 37.454 137.164C39.17 137.164 40.158 136.761 40.158 136.033C40.158 135.318 39.17 134.915 37.454 134.915ZM36.908 131.197H37.987V133.186H36.908V131.197ZM44.135 132.497H51.077V133.381H44.135V132.497ZM47.606 133.979C49.27 133.979 50.414 134.811 50.414 136.111C50.414 137.398 49.27 138.217 47.606 138.217C45.916 138.217 44.785 137.398 44.785 136.111C44.785 134.811 45.916 133.979 47.606 133.979ZM47.606 134.824C46.527 134.824 45.812 135.318 45.812 136.111C45.812 136.878 46.527 137.385 47.606 137.385C48.659 137.385 49.387 136.878 49.387 136.111C49.387 135.318 48.659 134.824 47.606 134.824ZM52.143 131.262H53.222V138.607H52.143V131.262ZM52.923 134.499H54.964V135.396H52.923V134.499ZM45.591 139.244H53.222V143.014H52.143V140.128H45.591V139.244ZM47.06 131.197H48.139V132.991H47.06V131.197ZM19.7566 168.182C18.2616 168.182 17.3386 167.558 16.7146 166.869L17.3126 166.089C17.8716 166.674 18.5866 167.194 19.6786 167.194C20.8096 167.194 21.6156 166.505 21.6156 165.413C21.6156 164.269 20.8486 163.515 18.6516 163.515V162.592C20.6146 162.592 21.2776 161.812 21.2776 160.772C21.2776 159.862 20.6666 159.264 19.6786 159.264C18.9116 159.264 18.2356 159.654 17.7026 160.2L17.0656 159.433C17.7806 158.783 18.6256 158.302 19.7176 158.302C21.3166 158.302 22.4866 159.173 22.4866 160.694C22.4866 161.851 21.8106 162.618 20.7966 162.982V163.034C21.9146 163.307 22.8246 164.152 22.8246 165.465C22.8246 167.155 21.4596 168.182 19.7566 168.182ZM25.3425 168.182C24.8745 168.182 24.4975 167.805 24.4975 167.272C24.4975 166.726 24.8745 166.362 25.3425 166.362C25.8235 166.362 26.2135 166.726 26.2135 167.272C26.2135 167.805 25.8235 168.182 25.3425 168.182ZM36.921 160.98H37.987V162.787H36.921V160.98ZM32.137 162.397H42.758V163.268H32.137V162.397ZM33.424 164.23H41.406V166.908H34.516V168.299H33.45V166.115H40.34V165.049H33.424V164.23ZM33.45 168.052H41.757V168.884H33.45V168.052ZM36.752 158.003H37.701V158.367C37.701 160.174 35.517 161.357 33.06 161.591L32.696 160.772C34.802 160.59 36.752 159.641 36.752 158.367V158.003ZM37.22 158.003H38.156V158.367C38.156 159.628 40.106 160.59 42.212 160.772L41.848 161.591C39.404 161.344 37.22 160.174 37.22 158.367V158.003ZM33.112 157.639H41.809V158.51H33.112V157.639ZM50.011 160.057H53.17V160.954H50.011V160.057ZM47.307 157.795C49.062 157.795 50.336 158.913 50.336 160.525C50.336 162.137 49.062 163.242 47.307 163.242C45.552 163.242 44.278 162.137 44.278 160.525C44.278 158.913 45.552 157.795 47.307 157.795ZM47.307 158.705C46.15 158.705 45.318 159.446 45.318 160.525C45.318 161.591 46.15 162.345 47.307 162.345C48.464 162.345 49.296 161.591 49.296 160.525C49.296 159.446 48.464 158.705 47.307 158.705ZM52.689 157.262H53.768V163.567H52.689V157.262ZM46.241 164.152H47.32V165.634H52.702V164.152H53.768V168.858H46.241V164.152ZM47.32 166.492V167.987H52.702V166.492H47.32ZM20.7446 194V187.513C20.7446 187.032 20.7836 186.265 20.8226 185.771H20.7576C20.5236 186.239 20.2636 186.72 20.0036 187.188L17.8326 190.438H23.1366V191.374H16.5846V190.594L20.5496 184.471H21.8626V194H20.7446ZM25.3425 194.182C24.8745 194.182 24.4975 193.805 24.4975 193.272C24.4975 192.726 24.8745 192.362 25.3425 192.362C25.8235 192.362 26.2135 192.726 26.2135 193.272C26.2135 193.805 25.8235 194.182 25.3425 194.182ZM32.137 189.32H42.758V190.204H32.137V189.32ZM36.921 187.565H37.987V189.593H36.921V187.565ZM33.32 191.348H41.445V195.014H40.366V192.232H33.32V191.348ZM33.554 183.535H34.62V184.861H40.301V183.535H41.38V187.929H33.554V183.535ZM34.62 185.706V187.071H40.301V185.706H34.62ZM48.854 183.678H49.803V184.328C49.803 186.577 47.515 188.189 45.071 188.605L44.642 187.734C46.787 187.409 48.854 186.005 48.854 184.328V183.678ZM49.049 183.678H49.985V184.328C49.985 185.966 52.078 187.409 54.197 187.734L53.768 188.605C51.35 188.189 49.049 186.551 49.049 184.328V183.678ZM48.854 190.542H49.92V195.014H48.854V190.542ZM44.109 189.879H54.73V190.776H44.109V189.879ZM62.295 186.499H65.259V187.383H62.295V186.499ZM64.648 183.275H65.727V191.881H64.648V183.275ZM58.226 193.87H66.052V194.754H58.226V193.87ZM58.226 191.127H59.305V194.325H58.226V191.127ZM59.058 184.731H59.942V185.68C59.942 187.812 58.616 189.658 56.653 190.386L56.094 189.528C57.849 188.904 59.058 187.344 59.058 185.68V184.731ZM59.266 184.731H60.137V185.667C60.137 187.188 61.281 188.67 62.984 189.268L62.438 190.113C60.527 189.424 59.266 187.656 59.266 185.667V184.731ZM56.432 184.224H62.711V185.095H56.432V184.224ZM73.292 190.672C75.788 190.672 77.387 191.491 77.387 192.843C77.387 194.182 75.788 194.988 73.292 194.988C70.783 194.988 69.197 194.182 69.197 192.843C69.197 191.491 70.783 190.672 73.292 190.672ZM73.292 191.517C71.446 191.517 70.263 192.024 70.263 192.843C70.263 193.649 71.446 194.156 73.292 194.156C75.138 194.156 76.308 193.649 76.308 192.843C76.308 192.024 75.138 191.517 73.292 191.517ZM69.288 183.847H76.854V184.731H69.288V183.847ZM68.027 188.735H78.635V189.606H68.027V188.735ZM72.382 186.473H73.448V188.982H72.382V186.473ZM76.23 183.847H77.283V184.848C77.283 185.797 77.283 186.746 76.971 187.968L75.905 187.838C76.23 186.629 76.23 185.771 76.23 184.848V183.847ZM19.7306 220.182C18.2486 220.182 17.3386 219.558 16.6886 218.908L17.2866 218.128C17.8196 218.687 18.5216 219.194 19.6136 219.194C20.7446 219.194 21.6416 218.323 21.6416 216.945C21.6416 215.58 20.8616 214.761 19.6786 214.761C19.0416 214.761 18.6386 214.969 18.0926 215.333L17.4556 214.93L17.7546 210.471H22.3956V211.485H18.7946L18.5476 214.241C18.9766 214.007 19.4056 213.864 19.9776 213.864C21.5636 213.864 22.8506 214.8 22.8506 216.906C22.8506 218.986 21.3296 220.182 19.7306 220.182ZM25.3425 220.182C24.8745 220.182 24.4975 219.805 24.4975 219.272C24.4975 218.726 24.8745 218.362 25.3425 218.362C25.8235 218.362 26.2135 218.726 26.2135 219.272C26.2135 219.805 25.8235 220.182 25.3425 220.182ZM32.137 216.217H42.797V217.101H32.137V216.217ZM36.895 216.633H37.961V221.014H36.895V216.633ZM33.476 209.73H34.555V211.342H40.366V209.73H41.432V214.813H33.476V209.73ZM34.555 212.213V213.942H40.366V212.213H34.555ZM50.336 212.499H53.3V213.383H50.336V212.499ZM52.689 209.275H53.768V217.881H52.689V209.275ZM46.267 219.87H54.093V220.754H46.267V219.87ZM46.267 217.127H47.346V220.325H46.267V217.127ZM47.099 210.731H47.983V211.68C47.983 213.812 46.657 215.658 44.694 216.386L44.135 215.528C45.89 214.904 47.099 213.344 47.099 211.68V210.731ZM47.307 210.731H48.178V211.667C48.178 213.188 49.322 214.67 51.025 215.268L50.479 216.113C48.568 215.424 47.307 213.656 47.307 211.667V210.731ZM44.473 210.224H50.752V211.095H44.473V210.224ZM61.333 216.672C63.829 216.672 65.428 217.491 65.428 218.843C65.428 220.182 63.829 220.988 61.333 220.988C58.824 220.988 57.238 220.182 57.238 218.843C57.238 217.491 58.824 216.672 61.333 216.672ZM61.333 217.517C59.487 217.517 58.304 218.024 58.304 218.843C58.304 219.649 59.487 220.156 61.333 220.156C63.179 220.156 64.349 219.649 64.349 218.843C64.349 218.024 63.179 217.517 61.333 217.517ZM57.329 209.847H64.895V210.731H57.329V209.847ZM56.068 214.735H66.676V215.606H56.068V214.735ZM60.423 212.473H61.489V214.982H60.423V212.473ZM64.271 209.847H65.324V210.848C65.324 211.797 65.324 212.746 65.012 213.968L63.946 213.838C64.271 212.629 64.271 211.771 64.271 210.848V209.847ZM20.2506 246.182C18.4176 246.182 17.0526 244.609 17.0526 241.463C17.0526 237.732 18.7296 236.302 20.5756 236.302C21.5636 236.302 22.2916 236.718 22.8116 237.277L22.1486 238.005C21.7846 237.563 21.1996 237.29 20.6276 237.29C19.2886 237.29 18.1706 238.343 18.1706 241.463C18.1706 243.907 18.9116 245.246 20.2506 245.246C21.1606 245.246 21.8626 244.375 21.8626 243.088C21.8626 241.788 21.2906 240.969 20.1466 240.969C19.5356 240.969 18.7686 241.333 18.1316 242.282L18.0926 241.333C18.6776 240.566 19.5616 240.098 20.3286 240.098C21.9406 240.098 22.9806 241.086 22.9806 243.088C22.9806 244.934 21.7196 246.182 20.2506 246.182ZM25.3425 246.182C24.8745 246.182 24.4975 245.805 24.4975 245.272C24.4975 244.726 24.8745 244.362 25.3425 244.362C25.8235 244.362 26.2135 244.726 26.2135 245.272C26.2135 245.805 25.8235 246.182 25.3425 246.182ZM38.377 238.499H41.341V239.383H38.377V238.499ZM40.73 235.275H41.809V243.881H40.73V235.275ZM34.308 245.87H42.134V246.754H34.308V245.87ZM34.308 243.127H35.387V246.325H34.308V243.127ZM35.14 236.731H36.024V237.68C36.024 239.812 34.698 241.658 32.735 242.386L32.176 241.528C33.931 240.904 35.14 239.344 35.14 237.68V236.731ZM35.348 236.731H36.219V237.667C36.219 239.188 37.363 240.67 39.066 241.268L38.52 242.113C36.609 241.424 35.348 239.656 35.348 237.667V236.731ZM32.514 236.224H38.793V237.095H32.514V236.224ZM44.629 236.549H49.946V237.42H44.629V236.549ZM46.462 239.903H47.528V243.881H46.462V239.903ZM49.504 236.549H50.557V237.173C50.557 238.135 50.557 239.669 50.219 241.853L49.153 241.749C49.504 239.63 49.504 238.122 49.504 237.173V236.549ZM52.039 235.262H53.105V247.014H52.039V235.262ZM52.819 240.176H54.99V241.086H52.819V240.176ZM44.109 244.453L43.979 243.543C46.111 243.543 48.945 243.504 51.324 243.205L51.376 243.998C48.945 244.388 46.189 244.44 44.109 244.453ZM58.525 248.561C57.316 246.611 56.601 244.531 56.601 241.97C56.601 239.422 57.316 237.316 58.525 235.366L59.253 235.717C58.135 237.563 57.589 239.76 57.589 241.97C57.589 244.18 58.135 246.377 59.253 248.223L58.525 248.561ZM60.4475 242.217H71.1075V243.101H60.4475V242.217ZM65.2055 242.633H66.2715V247.014H65.2055V242.633ZM61.7865 235.73H62.8655V237.342H68.6765V235.73H69.7425V240.813H61.7865V235.73ZM62.8655 238.213V239.942H68.6765V238.213H62.8655ZM73.0565 248.561L72.3155 248.223C73.4335 246.377 73.9795 244.18 73.9795 241.97C73.9795 239.76 73.4335 237.563 72.3155 235.717L73.0565 235.366C74.2525 237.316 74.9675 239.422 74.9675 241.97C74.9675 244.531 74.2525 246.611 73.0565 248.561ZM88.2603 235.275H89.3523V243.881H88.2603V235.275ZM81.7993 245.87H89.7033V246.754H81.7993V245.87ZM81.7993 243.088H82.8653V246.286H81.7993V243.088ZM82.7743 235.912H83.6713V237.108C83.6713 239.396 82.3713 241.398 80.3953 242.204L79.8363 241.333C81.6043 240.644 82.7743 238.928 82.7743 237.108V235.912ZM82.9693 235.912H83.8533V237.108C83.8533 238.876 85.0363 240.475 86.7913 241.112L86.2193 241.983C84.2693 241.229 82.9693 239.344 82.9693 237.108V235.912ZM94.6033 237.264H95.4873V237.771C95.4873 239.812 94.1873 241.528 92.2243 242.191L91.7043 241.346C93.4333 240.787 94.6033 239.357 94.6033 237.771V237.264ZM94.7983 237.264H95.6823V237.771C95.6823 239.227 96.8913 240.54 98.6203 241.047L98.1263 241.892C96.1503 241.281 94.7983 239.695 94.7983 237.771V237.264ZM92.0033 236.679H98.2693V237.55H92.0033V236.679ZM94.6033 235.21H95.6823V236.991H94.6033V235.21ZM97.9183 238.603H100.57V239.5H97.9183V238.603ZM100.258 235.262H101.337V242.373H100.258V235.262ZM97.4763 242.685C99.9073 242.685 101.389 243.478 101.389 244.843C101.389 246.195 99.9073 246.988 97.4763 246.988C95.0323 246.988 93.5503 246.195 93.5503 244.843C93.5503 243.478 95.0323 242.685 97.4763 242.685ZM97.4763 243.53C95.6953 243.53 94.6293 244.011 94.6293 244.843C94.6293 245.662 95.6953 246.143 97.4763 246.143C99.2443 246.143 100.323 245.662 100.323 244.843C100.323 244.011 99.2443 243.53 97.4763 243.53ZM18.8986 272C19.0676 268.399 19.7176 266.085 21.5896 263.485H16.9746V262.471H22.9286V263.186C20.6926 266.059 20.2896 268.282 20.1336 272H18.8986ZM25.3425 272.182C24.8745 272.182 24.4975 271.805 24.4975 271.272C24.4975 270.726 24.8745 270.362 25.3425 270.362C25.8235 270.362 26.2135 270.726 26.2135 271.272C26.2135 271.805 25.8235 272.182 25.3425 272.182ZM40.093 261.262H41.185V273.014H40.093V261.262ZM40.925 265.877H43.109V266.8H40.925V265.877ZM32.605 262.25H33.671V265.357H37.025V262.25H38.091V270.193H32.605V262.25ZM33.671 266.215V269.309H37.025V266.215H33.671ZM46.527 261.977H47.541C47.541 264.265 46.644 265.656 44.863 266.891L44.148 266.202C45.682 265.214 46.527 264.148 46.527 262.133V261.977ZM44.421 261.977H47.06V262.861H44.421V261.977ZM49.842 261.977H50.843C50.843 264.291 50.128 265.994 48.243 267.398L47.489 266.761C49.179 265.565 49.842 264.2 49.842 262.12V261.977ZM47.996 261.977H50.297V262.861H47.996V261.977ZM52.143 261.262H53.222V267.593H52.143V261.262ZM52.923 263.966H54.964V264.876H52.923V263.966ZM45.851 268.23H53.287V269.023H46.93V272.481H45.851V268.23ZM45.851 272.065H53.56V272.858H45.851V272.065ZM46.566 270.115H53.17V270.895H46.566V270.115ZM60.0932 262.432H67.6592V263.329H60.0932V262.432ZM58.9752 270.479H69.5962V271.376H58.9752V270.479ZM63.0962 266.28H64.1752V270.921H63.0962V266.28ZM67.2562 262.432H68.3222V263.602C68.3222 265.058 68.3222 266.67 67.8932 269.049L66.8142 268.906C67.2562 266.657 67.2562 265.006 67.2562 263.602V262.432ZM79.4882 261.249H80.5672V273.027H79.4882V261.249ZM71.6102 269.296H72.5852C74.5482 269.296 76.3032 269.218 78.3832 268.88L78.5002 269.764C76.3682 270.115 74.6002 270.193 72.5852 270.193H71.6102V269.296ZM71.5842 262.354H77.0182V266.553H72.6892V269.634H71.6102V265.669H75.9262V263.238H71.5842V262.354Z" fill="#E5E5E5"/>
</svg>
