<svg width="18" height="12" viewBox="0 0 18 12" fill="currentColor" xmlns="http://www.w3.org/2000/svg">
<path fill-rule="evenodd" clip-rule="evenodd" d="M6.16601 11.792C6.54101 11.8059 6.89865 11.8163 7.23893 11.8232C7.57921 11.8302 7.88129 11.8337 8.14518 11.8337H9.85351C10.1174 11.8337 10.4195 11.8302 10.7598 11.8232C11.1 11.8163 11.4577 11.8059 11.8327 11.792L11.8317 11.7896C12.5467 11.7621 13.2519 11.7247 13.9473 11.6774C14.6625 11.6288 15.1799 11.5628 15.4993 11.4795C15.8605 11.3823 16.173 11.2017 16.4368 10.9378C16.7007 10.6739 16.8813 10.3614 16.9785 10.0003C17.0618 9.68088 17.1278 9.29199 17.1764 8.83366C17.225 8.37533 17.2632 7.93783 17.291 7.52116C17.3124 7.13609 17.3256 6.74691 17.3305 6.35361L17.3327 6.35449V6.00033C17.3327 5.48644 17.3188 4.97949 17.291 4.47949C17.2632 4.06283 17.225 3.62533 17.1764 3.16699C17.1278 2.70866 17.0618 2.31977 16.9785 2.00033C16.8934 1.68435 16.7446 1.4056 16.5319 1.16406C16.5015 1.12956 16.4698 1.09581 16.4368 1.06283C16.1895 0.81543 15.8993 0.641276 15.5665 0.540365C15.5443 0.533637 15.5219 0.527235 15.4993 0.521159C15.1799 0.437826 14.6625 0.371853 13.9473 0.323242C13.232 0.274631 12.5063 0.236437 11.7702 0.208659C10.9091 0.180881 9.98546 0.166992 8.99935 0.166992C8.01324 0.166992 7.08963 0.180881 6.22851 0.208659C5.4924 0.236437 4.76671 0.274631 4.05143 0.323242C3.42556 0.365777 2.95123 0.421604 2.62842 0.490723C2.5823 0.500597 2.53928 0.510742 2.49935 0.521159C2.18338 0.606228 1.90462 0.7551 1.66308 0.967774C1.62858 0.998156 1.59483 1.02984 1.56185 1.06283C1.49588 1.1288 1.43511 1.19781 1.37956 1.26986C1.35149 1.30625 1.32476 1.34342 1.29935 1.38137C1.18645 1.55 1.0998 1.73394 1.03939 1.93319C1.03266 1.95538 1.02626 1.97776 1.02018 2.00033C0.936848 2.31977 0.870877 2.70866 0.822266 3.16699C0.779731 3.56803 0.745171 3.95313 0.718587 4.32227C0.714789 4.375 0.711154 4.42741 0.707682 4.47949C0.704209 4.54199 0.700954 4.6046 0.697916 4.66732C0.680814 5.02035 0.670589 5.37681 0.667239 5.73671C0.666424 5.82438 0.666016 5.91225 0.666016 6.00033V6.35449L0.668217 6.35357C0.673134 6.74688 0.686289 7.13608 0.707682 7.52116C0.73546 7.93783 0.773654 8.37533 0.822266 8.83366C0.870877 9.29199 0.936849 9.68088 1.02018 10.0003C1.1174 10.3614 1.29796 10.6739 1.56185 10.9378C1.82574 11.2017 2.13824 11.3823 2.49935 11.4795C2.81879 11.5628 3.33615 11.6288 4.05143 11.6774C4.74679 11.7247 5.452 11.7621 6.16706 11.7896L6.16601 11.792ZM7.33268 8.50033L11.666 6.00033L7.33268 3.50033V8.50033Z" fill="currentColor"/>
</svg>
