<svg width="40" height="28" viewBox="0 0 40 28" fill="none" xmlns="http://www.w3.org/2000/svg">
<path fill-rule="evenodd" clip-rule="evenodd" d="M13.2 27.9C14.1 27.9333 14.9583 27.9583 15.775 27.975C16.5917 27.9917 17.3167 28 17.95 28H22.05C22.6833 28 23.4083 27.9917 24.225 27.975C25.0417 27.9583 25.9 27.9333 26.8 27.9L26.7977 27.8944C28.5138 27.8282 30.2062 27.7384 31.875 27.625C33.5917 27.5083 34.8333 27.35 35.6 27.15C36.4667 26.9167 37.2167 26.4833 37.85 25.85C38.4833 25.2167 38.9167 24.4667 39.15 23.6C39.35 22.8333 39.5083 21.9 39.625 20.8C39.7417 19.7 39.8333 18.65 39.9 17.65C39.9513 16.7258 39.9829 15.7918 39.9947 14.8479L40 14.85V14C40 12.7667 39.9667 11.55 39.9 10.35C39.8333 9.35 39.7417 8.3 39.625 7.2C39.5083 6.1 39.35 5.16667 39.15 4.4C38.9458 3.64167 38.5885 2.97266 38.0781 2.39297C38.0052 2.31016 37.9292 2.22917 37.85 2.15C37.2562 1.55625 36.56 1.13828 35.7611 0.896094C35.7079 0.879948 35.6542 0.864583 35.6 0.85C34.8333 0.65 33.5917 0.491667 31.875 0.375C30.1583 0.258333 28.4167 0.166667 26.65 0.1C24.5833 0.0333333 22.3667 0 20 0C17.6333 0 15.4167 0.0333333 13.35 0.1C11.5833 0.166667 9.84166 0.258333 8.125 0.375C6.62292 0.477083 5.4845 0.611068 4.70976 0.776953C4.59909 0.800651 4.49583 0.825 4.4 0.85C3.64166 1.05417 2.97265 1.41146 2.39297 1.92188C2.31015 1.99479 2.22916 2.07083 2.15 2.15C1.99166 2.30833 1.84583 2.47396 1.7125 2.64688C1.64514 2.73423 1.58098 2.82344 1.52 2.91451C1.24904 3.31922 1.04107 3.76067 0.896092 4.23887C0.879946 4.29212 0.864582 4.34583 0.849998 4.4C0.649998 5.16667 0.491667 6.1 0.375 7.2C0.272917 8.1625 0.189973 9.08672 0.12617 9.97266C0.117056 10.0992 0.108332 10.225 0.0999985 10.35C0.0916651 10.5 0.0838526 10.6503 0.076561 10.8008C0.0355173 11.648 0.0109764 12.5036 0.00293729 13.3673C0.00097909 13.5777 0 13.7886 0 14V14.85L0.00528278 14.8478C0.0170838 15.7917 0.0486562 16.7258 0.1 17.65C0.166667 18.65 0.258333 19.7 0.375 20.8C0.491667 21.9 0.65 22.8333 0.85 23.6C1.08333 24.4667 1.51667 25.2167 2.15 25.85C2.78333 26.4833 3.53333 26.9167 4.4 27.15C5.16667 27.35 6.40833 27.5083 8.125 27.625C9.79387 27.7384 11.4864 27.8282 13.2025 27.8944L13.2 27.9ZM16 20L26.4 14L16 8V20Z" fill="black"/>
</svg>
